<svg width="71" height="71" viewBox="0 0 71 71" fill="none" xmlns="http://www.w3.org/2000/svg">
<rect width="71" height="71" rx="20" fill="white"/>
<path d="M35.9999 30.1667C35.9999 28.929 35.5083 27.742 34.6331 26.8668C33.7579 25.9917 32.5709 25.5 31.3333 25.5H24.3333V43H32.4999C33.4282 43 34.3184 43.3687 34.9748 44.0251C35.6312 44.6815 35.9999 45.5717 35.9999 46.5M35.9999 30.1667V46.5M35.9999 30.1667C35.9999 28.929 36.4916 27.742 37.3668 26.8668C38.2419 25.9917 39.4289 25.5 40.6666 25.5H47.6666V43H39.4999C38.5717 43 37.6814 43.3687 37.025 44.0251C36.3687 44.6815 35.9999 45.5717 35.9999 46.5" stroke="#1E1E1E" stroke-width="4" stroke-linecap="round" stroke-linejoin="round" fill="none"/>
</svg>
