<svg width="236" height="335" viewBox="0 0 236 335" fill="none" xmlns="http://www.w3.org/2000/svg">
<rect y="8" width="236" height="327" rx="29" fill="#439D93"/>
<rect x="10" y="33" width="216" height="86" rx="20" fill="#FFBEF4"/>
<path d="M58.6873 56.008C58.6233 56.712 58.5753 57.392 58.5433 58.048C58.5273 58.704 58.5193 59.208 58.5193 59.56C58.5193 59.88 58.5273 60.184 58.5433 60.472C58.5593 60.76 58.5753 61 58.5912 61.192H58.0393C57.8793 60.024 57.6313 59.104 57.2953 58.432C56.9593 57.744 56.5193 57.264 55.9753 56.992C55.4473 56.704 54.8233 56.56 54.1033 56.56H53.1193C52.6553 56.56 52.3033 56.6 52.0633 56.68C51.8233 56.76 51.6633 56.92 51.5833 57.16C51.5033 57.4 51.4633 57.768 51.4633 58.264V70.744C51.4633 71.24 51.5033 71.608 51.5833 71.848C51.6633 72.088 51.8233 72.248 52.0633 72.328C52.3033 72.408 52.6553 72.448 53.1193 72.448H54.2953C55.0153 72.448 55.6473 72.296 56.1913 71.992C56.7513 71.672 57.2233 71.136 57.6073 70.384C58.0073 69.632 58.3113 68.616 58.5193 67.336H59.0713C59.0233 67.848 58.9993 68.52 58.9993 69.352C58.9993 69.72 59.0073 70.24 59.0233 70.912C59.0393 71.584 59.0873 72.28 59.1673 73C58.3513 72.968 57.4313 72.952 56.4073 72.952C55.3833 72.936 54.4713 72.928 53.6713 72.928C53.2713 72.928 52.7593 72.928 52.1353 72.928C51.5113 72.928 50.8393 72.936 50.1193 72.952C49.3993 72.952 48.6713 72.96 47.9353 72.976C47.1993 72.976 46.5033 72.984 45.8473 73V72.52C46.3593 72.488 46.7433 72.424 46.9993 72.328C47.2553 72.232 47.4233 72.04 47.5033 71.752C47.5993 71.464 47.6473 71.032 47.6473 70.456V58.552C47.6473 57.96 47.5993 57.528 47.5033 57.256C47.4233 56.968 47.2473 56.776 46.9753 56.68C46.7193 56.568 46.3433 56.504 45.8473 56.488V56.008C46.5033 56.024 47.1993 56.04 47.9353 56.056C48.6713 56.056 49.3993 56.064 50.1193 56.08C50.8393 56.08 51.5113 56.08 52.1353 56.08C52.7593 56.08 53.2713 56.08 53.6713 56.08C54.4073 56.08 55.2393 56.08 56.1673 56.08C57.1113 56.064 57.9513 56.04 58.6873 56.008ZM54.9433 64.216C54.9433 64.216 54.9433 64.296 54.9433 64.456C54.9433 64.616 54.9433 64.696 54.9433 64.696H50.7433C50.7433 64.696 50.7433 64.616 50.7433 64.456C50.7433 64.296 50.7433 64.216 50.7433 64.216H54.9433ZM55.6393 61.048C55.5753 61.96 55.5433 62.656 55.5433 63.136C55.5593 63.616 55.5673 64.056 55.5673 64.456C55.5673 64.856 55.5753 65.296 55.5913 65.776C55.6073 66.256 55.6473 66.952 55.7113 67.864H55.1593C55.0793 67.304 54.9273 66.784 54.7033 66.304C54.4953 65.824 54.1913 65.44 53.7913 65.152C53.3913 64.848 52.8713 64.696 52.2313 64.696V64.216C52.7113 64.216 53.1193 64.12 53.4553 63.928C53.7913 63.72 54.0633 63.456 54.2713 63.136C54.4953 62.8 54.6713 62.448 54.7993 62.08C54.9273 61.712 55.0233 61.368 55.0873 61.048H55.6393ZM69.7462 60.256C70.4182 60.256 70.9622 60.344 71.3782 60.52C71.8102 60.68 72.1462 60.904 72.3862 61.192C72.6422 61.496 72.8262 61.888 72.9382 62.368C73.0662 62.848 73.1302 63.496 73.1302 64.312V70.768C73.1302 71.44 73.2422 71.896 73.4662 72.136C73.7062 72.376 74.1062 72.496 74.6662 72.496V73C74.3622 72.984 73.9062 72.968 73.2982 72.952C72.6902 72.92 72.0902 72.904 71.4982 72.904C70.8902 72.904 70.2902 72.92 69.6982 72.952C69.1222 72.968 68.6822 72.984 68.3782 73V72.496C68.8582 72.496 69.1942 72.376 69.3862 72.136C69.5782 71.896 69.6742 71.44 69.6742 70.768V63.304C69.6742 62.904 69.6342 62.56 69.5542 62.272C69.4742 61.968 69.3302 61.736 69.1222 61.576C68.9142 61.4 68.6022 61.312 68.1862 61.312C67.7542 61.312 67.3542 61.432 66.9862 61.672C66.6342 61.912 66.3462 62.248 66.1222 62.68C65.9142 63.096 65.8102 63.568 65.8102 64.096V70.768C65.8102 71.44 65.9062 71.896 66.0982 72.136C66.3062 72.376 66.6422 72.496 67.1062 72.496V73C66.8182 72.984 66.3942 72.968 65.8342 72.952C65.2902 72.92 64.7222 72.904 64.1302 72.904C63.5222 72.904 62.8982 72.92 62.2582 72.952C61.6182 72.968 61.1382 72.984 60.8182 73V72.496C61.3782 72.496 61.7702 72.376 61.9942 72.136C62.2342 71.896 62.3542 71.44 62.3542 70.768V63.208C62.3542 62.488 62.2422 61.96 62.0182 61.624C61.8102 61.272 61.4102 61.096 60.8182 61.096V60.592C61.3302 60.64 61.8262 60.664 62.3062 60.664C62.9782 60.664 63.6022 60.64 64.1782 60.592C64.7702 60.528 65.3142 60.44 65.8102 60.328V62.488C66.2102 61.672 66.7542 61.096 67.4422 60.76C68.1302 60.424 68.8982 60.256 69.7462 60.256ZM86.8946 60.592V61.072C86.5906 61.152 86.3026 61.344 86.0306 61.648C85.7586 61.936 85.4946 62.432 85.2386 63.136L81.7346 73.048C81.4786 73.032 81.2146 73.024 80.9426 73.024C80.6866 73.024 80.4306 73.032 80.1746 73.048L75.9026 62.44C75.6466 61.816 75.3906 61.44 75.1346 61.312C74.8946 61.168 74.6866 61.096 74.5106 61.096V60.592C75.0226 60.624 75.5506 60.656 76.0946 60.688C76.6546 60.704 77.2626 60.712 77.9186 60.712C78.4146 60.712 78.9346 60.704 79.4786 60.688C80.0386 60.656 80.5586 60.624 81.0386 60.592V61.096C80.7026 61.096 80.3986 61.112 80.1266 61.144C79.8706 61.176 79.6946 61.28 79.5986 61.456C79.5026 61.632 79.5186 61.944 79.6466 62.392L82.4546 69.832L82.2146 70.168L84.1106 64.912C84.4146 64.048 84.5426 63.344 84.4946 62.8C84.4466 62.24 84.2706 61.824 83.9666 61.552C83.6626 61.264 83.2546 61.104 82.7426 61.072V60.592C82.9826 60.608 83.2386 60.624 83.5106 60.64C83.7986 60.64 84.0706 60.648 84.3266 60.664C84.5986 60.664 84.8386 60.664 85.0466 60.664C85.3666 60.664 85.7026 60.656 86.0546 60.64C86.4066 60.624 86.6866 60.608 86.8946 60.592ZM90.6101 54.4C91.2821 54.4 91.8101 54.568 92.1941 54.904C92.5941 55.224 92.7941 55.672 92.7941 56.248C92.7941 56.824 92.5941 57.28 92.1941 57.616C91.8101 57.936 91.2821 58.096 90.6101 58.096C89.9381 58.096 89.4021 57.936 89.0021 57.616C88.6181 57.28 88.4261 56.824 88.4261 56.248C88.4261 55.672 88.6181 55.224 89.0021 54.904C89.4021 54.568 89.9381 54.4 90.6101 54.4ZM92.4821 60.328V70.768C92.4821 71.44 92.5941 71.896 92.8181 72.136C93.0581 72.376 93.4581 72.496 94.0181 72.496V73C93.7301 72.984 93.2821 72.968 92.6741 72.952C92.0661 72.92 91.4501 72.904 90.8261 72.904C90.2021 72.904 89.5701 72.92 88.9301 72.952C88.2901 72.968 87.8101 72.984 87.4901 73V72.496C88.0501 72.496 88.4421 72.376 88.6661 72.136C88.9061 71.896 89.0261 71.44 89.0261 70.768V63.208C89.0261 62.488 88.9141 61.96 88.6901 61.624C88.4821 61.272 88.0821 61.096 87.4901 61.096V60.592C88.0021 60.64 88.4981 60.664 88.9781 60.664C89.6501 60.664 90.2741 60.64 90.8501 60.592C91.4421 60.528 91.9861 60.44 92.4821 60.328ZM103.316 60.256C103.828 60.256 104.244 60.368 104.564 60.592C104.884 60.8 105.116 61.072 105.26 61.408C105.42 61.744 105.5 62.096 105.5 62.464C105.5 63.056 105.324 63.544 104.972 63.928C104.636 64.296 104.188 64.48 103.628 64.48C103.068 64.48 102.628 64.344 102.308 64.072C102.004 63.784 101.852 63.408 101.852 62.944C101.852 62.496 101.948 62.128 102.14 61.84C102.348 61.536 102.604 61.28 102.908 61.072C102.684 61.008 102.46 61.016 102.236 61.096C101.932 61.144 101.644 61.272 101.372 61.48C101.1 61.672 100.868 61.92 100.676 62.224C100.484 62.512 100.332 62.832 100.22 63.184C100.108 63.52 100.052 63.848 100.052 64.168V70.528C100.052 71.296 100.236 71.816 100.604 72.088C100.988 72.36 101.556 72.496 102.308 72.496V73C101.94 72.984 101.404 72.968 100.7 72.952C99.9964 72.92 99.2604 72.904 98.4924 72.904C97.8524 72.904 97.2044 72.92 96.5484 72.952C95.8924 72.968 95.3964 72.984 95.0604 73V72.496C95.6204 72.496 96.0124 72.376 96.2364 72.136C96.4764 71.896 96.5964 71.44 96.5964 70.768V63.208C96.5964 62.488 96.4844 61.96 96.2604 61.624C96.0524 61.272 95.6524 61.096 95.0604 61.096V60.592C95.5724 60.64 96.0684 60.664 96.5484 60.664C97.2204 60.664 97.8444 60.64 98.4204 60.592C99.0124 60.528 99.5564 60.44 100.052 60.328V62.56C100.244 62.128 100.5 61.736 100.82 61.384C101.14 61.032 101.508 60.76 101.924 60.568C102.34 60.36 102.804 60.256 103.316 60.256ZM112.127 60.256C113.295 60.256 114.319 60.472 115.199 60.904C116.079 61.336 116.767 62.032 117.263 62.992C117.759 63.952 118.007 65.224 118.007 66.808C118.007 68.392 117.759 69.664 117.263 70.624C116.767 71.568 116.079 72.256 115.199 72.688C114.319 73.12 113.295 73.336 112.127 73.336C110.991 73.336 109.975 73.12 109.079 72.688C108.199 72.256 107.503 71.568 106.991 70.624C106.495 69.664 106.247 68.392 106.247 66.808C106.247 65.224 106.495 63.952 106.991 62.992C107.503 62.032 108.199 61.336 109.079 60.904C109.975 60.472 110.991 60.256 112.127 60.256ZM112.127 60.736C111.487 60.736 110.951 61.216 110.519 62.176C110.087 63.12 109.871 64.664 109.871 66.808C109.871 68.952 110.087 70.496 110.519 71.44C110.951 72.384 111.487 72.856 112.127 72.856C112.783 72.856 113.319 72.384 113.735 71.44C114.167 70.496 114.383 68.952 114.383 66.808C114.383 64.664 114.167 63.12 113.735 62.176C113.319 61.216 112.783 60.736 112.127 60.736ZM128.434 60.256C129.106 60.256 129.65 60.344 130.066 60.52C130.498 60.68 130.834 60.904 131.074 61.192C131.33 61.496 131.514 61.888 131.626 62.368C131.754 62.848 131.818 63.496 131.818 64.312V70.768C131.818 71.44 131.93 71.896 132.154 72.136C132.394 72.376 132.794 72.496 133.354 72.496V73C133.05 72.984 132.594 72.968 131.986 72.952C131.378 72.92 130.778 72.904 130.186 72.904C129.578 72.904 128.978 72.92 128.386 72.952C127.81 72.968 127.37 72.984 127.066 73V72.496C127.546 72.496 127.882 72.376 128.074 72.136C128.266 71.896 128.362 71.44 128.362 70.768V63.304C128.362 62.904 128.322 62.56 128.242 62.272C128.162 61.968 128.018 61.736 127.81 61.576C127.602 61.4 127.29 61.312 126.874 61.312C126.442 61.312 126.042 61.432 125.674 61.672C125.322 61.912 125.034 62.248 124.81 62.68C124.602 63.096 124.498 63.568 124.498 64.096V70.768C124.498 71.44 124.594 71.896 124.786 72.136C124.994 72.376 125.33 72.496 125.794 72.496V73C125.506 72.984 125.082 72.968 124.522 72.952C123.978 72.92 123.41 72.904 122.818 72.904C122.21 72.904 121.586 72.92 120.946 72.952C120.306 72.968 119.826 72.984 119.506 73V72.496C120.066 72.496 120.458 72.376 120.682 72.136C120.922 71.896 121.042 71.44 121.042 70.768V63.208C121.042 62.488 120.93 61.96 120.706 61.624C120.498 61.272 120.098 61.096 119.506 61.096V60.592C120.018 60.64 120.514 60.664 120.994 60.664C121.666 60.664 122.29 60.64 122.866 60.592C123.458 60.528 124.002 60.44 124.498 60.328V62.488C124.898 61.672 125.442 61.096 126.13 60.76C126.818 60.424 127.586 60.256 128.434 60.256ZM142.96 60.256C143.632 60.256 144.176 60.344 144.592 60.52C145.008 60.68 145.344 60.904 145.6 61.192C145.856 61.496 146.04 61.896 146.152 62.392C146.264 62.872 146.32 63.512 146.32 64.312V70.768C146.32 71.44 146.424 71.896 146.632 72.136C146.84 72.376 147.2 72.496 147.712 72.496V73C147.424 72.984 146.984 72.968 146.392 72.952C145.816 72.92 145.248 72.904 144.688 72.904C144.112 72.904 143.544 72.92 142.984 72.952C142.424 72.968 142 72.984 141.712 73V72.496C142.144 72.496 142.44 72.376 142.6 72.136C142.776 71.896 142.864 71.44 142.864 70.768V63.304C142.864 62.904 142.832 62.56 142.768 62.272C142.704 61.968 142.576 61.736 142.384 61.576C142.208 61.4 141.936 61.312 141.568 61.312C141.152 61.312 140.768 61.432 140.416 61.672C140.064 61.912 139.776 62.248 139.552 62.68C139.344 63.096 139.24 63.568 139.24 64.096V70.768C139.24 71.44 139.328 71.896 139.504 72.136C139.68 72.376 139.976 72.496 140.392 72.496V73C140.136 72.984 139.736 72.968 139.192 72.952C138.664 72.92 138.12 72.904 137.56 72.904C136.952 72.904 136.328 72.92 135.688 72.952C135.048 72.968 134.568 72.984 134.248 73V72.496C134.808 72.496 135.2 72.376 135.424 72.136C135.664 71.896 135.784 71.44 135.784 70.768V63.208C135.784 62.488 135.672 61.96 135.448 61.624C135.24 61.272 134.84 61.096 134.248 61.096V60.592C134.76 60.64 135.256 60.664 135.736 60.664C136.408 60.664 137.032 60.64 137.608 60.592C138.2 60.528 138.744 60.44 139.24 60.328V62.488C139.624 61.688 140.144 61.12 140.8 60.784C141.456 60.432 142.176 60.256 142.96 60.256ZM150.184 60.256C150.856 60.256 151.4 60.344 151.816 60.52C152.232 60.68 152.568 60.904 152.824 61.192C153.08 61.496 153.264 61.896 153.376 62.392C153.488 62.872 153.544 63.512 153.544 64.312V70.768C153.544 71.44 153.656 71.896 153.88 72.136C154.12 72.376 154.52 72.496 155.08 72.496V73C154.776 72.984 154.32 72.968 153.712 72.952C153.104 72.92 152.504 72.904 151.912 72.904C151.336 72.904 150.768 72.92 150.208 72.952C149.648 72.968 149.224 72.984 148.936 73V72.496C149.368 72.496 149.664 72.376 149.824 72.136C150 71.896 150.088 71.44 150.088 70.768V63.304C150.088 62.904 150.048 62.56 149.968 62.272C149.904 61.968 149.768 61.736 149.56 61.576C149.368 61.4 149.064 61.312 148.648 61.312C148.232 61.312 147.848 61.44 147.496 61.696C147.144 61.952 146.856 62.296 146.632 62.728C146.424 63.16 146.312 63.64 146.296 64.168L146.176 62.704C146.608 61.744 147.176 61.096 147.88 60.76C148.6 60.424 149.368 60.256 150.184 60.256ZM162.166 60.256C163.574 60.256 164.678 60.672 165.478 61.504C166.278 62.336 166.678 63.696 166.678 65.584H158.782L158.734 65.128H163.654C163.67 64.344 163.622 63.624 163.51 62.968C163.398 62.296 163.222 61.76 162.982 61.36C162.742 60.96 162.422 60.76 162.022 60.76C161.462 60.76 160.982 61.112 160.582 61.816C160.198 62.52 159.966 63.688 159.886 65.32L159.958 65.464C159.942 65.656 159.926 65.856 159.91 66.064C159.91 66.272 159.91 66.488 159.91 66.712C159.91 67.816 160.062 68.712 160.366 69.4C160.686 70.088 161.086 70.592 161.566 70.912C162.046 71.216 162.534 71.368 163.03 71.368C163.366 71.368 163.71 71.32 164.062 71.224C164.43 71.112 164.798 70.92 165.166 70.648C165.534 70.36 165.878 69.96 166.198 69.448L166.63 69.592C166.438 70.2 166.134 70.792 165.718 71.368C165.302 71.944 164.774 72.416 164.134 72.784C163.494 73.152 162.726 73.336 161.83 73.336C160.742 73.336 159.782 73.104 158.95 72.64C158.118 72.176 157.462 71.472 156.982 70.528C156.518 69.584 156.286 68.384 156.286 66.928C156.286 65.44 156.534 64.2 157.03 63.208C157.542 62.216 158.238 61.48 159.118 61C160.014 60.504 161.03 60.256 162.166 60.256ZM176.856 60.256C177.528 60.256 178.072 60.344 178.488 60.52C178.92 60.68 179.256 60.904 179.496 61.192C179.752 61.496 179.936 61.888 180.048 62.368C180.176 62.848 180.24 63.496 180.24 64.312V70.768C180.24 71.44 180.352 71.896 180.576 72.136C180.816 72.376 181.216 72.496 181.776 72.496V73C181.472 72.984 181.016 72.968 180.408 72.952C179.8 72.92 179.2 72.904 178.608 72.904C178 72.904 177.4 72.92 176.808 72.952C176.232 72.968 175.792 72.984 175.488 73V72.496C175.968 72.496 176.304 72.376 176.496 72.136C176.688 71.896 176.784 71.44 176.784 70.768V63.304C176.784 62.904 176.744 62.56 176.664 62.272C176.584 61.968 176.44 61.736 176.232 61.576C176.024 61.4 175.712 61.312 175.296 61.312C174.864 61.312 174.464 61.432 174.096 61.672C173.744 61.912 173.456 62.248 173.232 62.68C173.024 63.096 172.92 63.568 172.92 64.096V70.768C172.92 71.44 173.016 71.896 173.208 72.136C173.416 72.376 173.752 72.496 174.216 72.496V73C173.928 72.984 173.504 72.968 172.944 72.952C172.4 72.92 171.832 72.904 171.24 72.904C170.632 72.904 170.008 72.92 169.368 72.952C168.728 72.968 168.248 72.984 167.928 73V72.496C168.488 72.496 168.88 72.376 169.104 72.136C169.344 71.896 169.464 71.44 169.464 70.768V63.208C169.464 62.488 169.352 61.96 169.128 61.624C168.92 61.272 168.52 61.096 167.928 61.096V60.592C168.44 60.64 168.936 60.664 169.416 60.664C170.088 60.664 170.712 60.64 171.288 60.592C171.88 60.528 172.424 60.44 172.92 60.328V62.488C173.32 61.672 173.864 61.096 174.552 60.76C175.24 60.424 176.008 60.256 176.856 60.256ZM187.542 56.656V60.592H190.374V61.072H187.542V70.768C187.542 71.248 187.63 71.592 187.806 71.8C187.982 71.992 188.246 72.088 188.598 72.088C188.886 72.088 189.174 71.984 189.462 71.776C189.75 71.552 190.006 71.176 190.23 70.648L190.638 70.864C190.382 71.584 189.99 72.176 189.462 72.64C188.95 73.104 188.246 73.336 187.35 73.336C186.822 73.336 186.358 73.264 185.958 73.12C185.558 72.992 185.222 72.792 184.95 72.52C184.598 72.168 184.366 71.736 184.254 71.224C184.142 70.696 184.086 70.016 184.086 69.184V61.072H182.07V60.592H184.086V57.424C184.758 57.424 185.374 57.368 185.934 57.256C186.51 57.128 187.046 56.928 187.542 56.656ZM95.3008 95.712L95.7328 95.832C95.6048 96.712 95.4048 97.464 95.1328 98.088C94.8608 98.728 94.5088 99.224 94.0768 99.576C93.7408 99.848 93.3008 100.072 92.7568 100.248C92.2288 100.424 91.6368 100.512 90.9808 100.512C90.1008 100.512 89.2368 100.376 88.3888 100.104C87.5568 99.832 86.7088 99.496 85.8448 99.096C84.9808 98.712 84.0688 98.336 83.1088 97.968C82.9968 97.936 82.8848 97.896 82.7728 97.848C82.6768 97.816 82.5968 97.8 82.5328 97.8C82.2288 97.944 81.8928 98.064 81.5248 98.16C81.1728 98.256 80.8368 98.304 80.5168 98.304C80.1968 98.304 79.9248 98.256 79.7008 98.16C79.4928 98.064 79.3888 97.904 79.3888 97.68C79.3888 97.248 79.8288 97.032 80.7088 97.032C81.2688 97.032 81.8768 97.144 82.5328 97.368C83.1248 97.208 83.6288 97.024 84.0448 96.816C84.4768 96.624 84.9168 96.44 85.3648 96.264C85.8288 96.088 86.3888 95.976 87.0448 95.928L87.0688 96.312C86.5568 96.36 86.1168 96.448 85.7488 96.576C85.3968 96.72 85.0368 96.872 84.6688 97.032C84.3008 97.192 83.8688 97.344 83.3728 97.488C84.5088 97.568 85.5648 97.648 86.5408 97.728C87.5168 97.824 88.4208 97.88 89.2528 97.896C90.0848 97.928 90.8368 97.896 91.5088 97.8C92.5008 97.688 93.2848 97.472 93.8608 97.152C94.4368 96.832 94.9168 96.352 95.3008 95.712ZM86.4928 78.672C88.1888 78.672 89.6688 79.016 90.9328 79.704C92.2128 80.392 93.2048 81.384 93.9088 82.68C94.6128 83.96 94.9648 85.52 94.9648 87.36C94.9648 89.152 94.6048 90.72 93.8848 92.064C93.1648 93.408 92.1568 94.456 90.8608 95.208C89.5808 95.96 88.1168 96.336 86.4688 96.336C84.7728 96.336 83.2848 95.992 82.0048 95.304C80.7408 94.616 79.7568 93.624 79.0528 92.328C78.3488 91.032 77.9968 89.472 77.9968 87.648C77.9968 85.856 78.3568 84.288 79.0768 82.944C79.8128 81.6 80.8128 80.552 82.0768 79.8C83.3568 79.048 84.8288 78.672 86.4928 78.672ZM86.3968 79.104C85.5008 79.104 84.7168 79.464 84.0448 80.184C83.3888 80.904 82.8768 81.896 82.5088 83.16C82.1568 84.424 81.9808 85.888 81.9808 87.552C81.9808 89.248 82.1808 90.728 82.5808 91.992C82.9968 93.24 83.5488 94.208 84.2368 94.896C84.9408 95.568 85.7168 95.904 86.5648 95.904C87.4608 95.904 88.2368 95.544 88.8928 94.824C89.5648 94.104 90.0768 93.112 90.4288 91.848C90.7968 90.568 90.9808 89.104 90.9808 87.456C90.9808 85.744 90.7728 84.264 90.3568 83.016C89.9568 81.768 89.4048 80.808 88.7008 80.136C88.0128 79.448 87.2448 79.104 86.3968 79.104ZM108.524 83.328V93.384C108.524 94.104 108.636 94.64 108.86 94.992C109.084 95.328 109.484 95.496 110.06 95.496V96C109.564 95.952 109.068 95.928 108.572 95.928C107.9 95.928 107.276 95.952 106.7 96C106.124 96.048 105.58 96.136 105.068 96.264V94.104C104.684 94.904 104.148 95.48 103.46 95.832C102.788 96.168 102.036 96.336 101.204 96.336C100.532 96.336 99.9881 96.248 99.5721 96.072C99.1561 95.896 98.8281 95.672 98.5881 95.4C98.3161 95.096 98.1241 94.696 98.0121 94.2C97.9001 93.704 97.8441 93.064 97.8441 92.28V86.208C97.8441 85.488 97.7321 84.96 97.5081 84.624C97.3001 84.272 96.9001 84.096 96.3081 84.096V83.592C96.8201 83.64 97.3161 83.664 97.7961 83.664C98.4681 83.664 99.0921 83.64 99.6681 83.592C100.26 83.528 100.804 83.44 101.3 83.328V93.264C101.3 93.664 101.332 94.016 101.396 94.32C101.476 94.624 101.62 94.864 101.828 95.04C102.036 95.2 102.34 95.28 102.74 95.28C103.172 95.28 103.556 95.16 103.892 94.92C104.244 94.68 104.524 94.352 104.732 93.936C104.956 93.504 105.068 93.024 105.068 92.496V86.208C105.068 85.488 104.956 84.96 104.732 84.624C104.524 84.272 104.124 84.096 103.532 84.096V83.592C104.044 83.64 104.54 83.664 105.02 83.664C105.692 83.664 106.316 83.64 106.892 83.592C107.484 83.528 108.028 83.44 108.524 83.328ZM114.247 77.4C114.919 77.4 115.447 77.568 115.831 77.904C116.231 78.224 116.431 78.672 116.431 79.248C116.431 79.824 116.231 80.28 115.831 80.616C115.447 80.936 114.919 81.096 114.247 81.096C113.575 81.096 113.039 80.936 112.639 80.616C112.255 80.28 112.063 79.824 112.063 79.248C112.063 78.672 112.255 78.224 112.639 77.904C113.039 77.568 113.575 77.4 114.247 77.4ZM116.119 83.328V93.768C116.119 94.44 116.231 94.896 116.455 95.136C116.695 95.376 117.095 95.496 117.655 95.496V96C117.367 95.984 116.919 95.968 116.311 95.952C115.703 95.92 115.087 95.904 114.463 95.904C113.839 95.904 113.207 95.92 112.567 95.952C111.927 95.968 111.447 95.984 111.127 96V95.496C111.687 95.496 112.079 95.376 112.303 95.136C112.543 94.896 112.663 94.44 112.663 93.768V86.208C112.663 85.488 112.551 84.96 112.327 84.624C112.119 84.272 111.719 84.096 111.127 84.096V83.592C111.639 83.64 112.135 83.664 112.615 83.664C113.287 83.664 113.911 83.64 114.487 83.592C115.079 83.528 115.623 83.44 116.119 83.328ZM128.777 83.472L122.777 95.64H124.025C124.649 95.64 125.233 95.512 125.777 95.256C126.337 94.984 126.801 94.536 127.169 93.912C127.553 93.288 127.785 92.432 127.865 91.344H128.369C128.369 92.512 128.377 93.472 128.393 94.224C128.409 94.96 128.433 95.584 128.465 96.096C127.745 96.064 126.993 96.04 126.209 96.024C125.425 96.008 124.641 96 123.857 96C123.041 96 122.201 96.008 121.337 96.024C120.473 96.056 119.649 96.088 118.865 96.12L124.865 83.952H123.521C122.881 83.952 122.289 84.088 121.745 84.36C121.217 84.616 120.777 85.064 120.425 85.704C120.089 86.328 119.873 87.176 119.777 88.248H119.273C119.273 87.064 119.265 86.104 119.249 85.368C119.233 84.632 119.209 84.008 119.177 83.496C119.913 83.528 120.673 83.552 121.457 83.568C122.241 83.584 123.017 83.592 123.785 83.592C124.617 83.592 125.457 83.584 126.305 83.568C127.169 83.536 127.993 83.504 128.777 83.472ZM140.144 83.472L134.144 95.64H135.392C136.016 95.64 136.6 95.512 137.144 95.256C137.704 94.984 138.168 94.536 138.536 93.912C138.92 93.288 139.152 92.432 139.232 91.344H139.736C139.736 92.512 139.744 93.472 139.76 94.224C139.776 94.96 139.8 95.584 139.832 96.096C139.112 96.064 138.36 96.04 137.576 96.024C136.792 96.008 136.008 96 135.224 96C134.408 96 133.568 96.008 132.704 96.024C131.84 96.056 131.016 96.088 130.232 96.12L136.232 83.952H134.888C134.248 83.952 133.656 84.088 133.112 84.36C132.584 84.616 132.144 85.064 131.792 85.704C131.456 86.328 131.24 87.176 131.144 88.248H130.64C130.64 87.064 130.632 86.104 130.616 85.368C130.6 84.632 130.576 84.008 130.544 83.496C131.28 83.528 132.04 83.552 132.824 83.568C133.608 83.584 134.384 83.592 135.152 83.592C135.984 83.592 136.824 83.584 137.672 83.568C138.536 83.536 139.36 83.504 140.144 83.472ZM147.623 83.256C149.031 83.256 150.135 83.672 150.935 84.504C151.735 85.336 152.135 86.696 152.135 88.584H144.239L144.191 88.128H149.111C149.127 87.344 149.079 86.624 148.967 85.968C148.855 85.296 148.679 84.76 148.439 84.36C148.199 83.96 147.879 83.76 147.479 83.76C146.919 83.76 146.439 84.112 146.039 84.816C145.655 85.52 145.423 86.688 145.343 88.32L145.415 88.464C145.399 88.656 145.383 88.856 145.367 89.064C145.367 89.272 145.367 89.488 145.367 89.712C145.367 90.816 145.519 91.712 145.823 92.4C146.143 93.088 146.543 93.592 147.023 93.912C147.503 94.216 147.991 94.368 148.487 94.368C148.823 94.368 149.167 94.32 149.519 94.224C149.887 94.112 150.255 93.92 150.623 93.648C150.991 93.36 151.335 92.96 151.655 92.448L152.087 92.592C151.895 93.2 151.591 93.792 151.175 94.368C150.759 94.944 150.231 95.416 149.591 95.784C148.951 96.152 148.183 96.336 147.287 96.336C146.199 96.336 145.239 96.104 144.407 95.64C143.575 95.176 142.919 94.472 142.439 93.528C141.975 92.584 141.743 91.384 141.743 89.928C141.743 88.44 141.991 87.2 142.487 86.208C142.999 85.216 143.695 84.48 144.575 84C145.471 83.504 146.487 83.256 147.623 83.256ZM158.277 83.256C158.949 83.256 159.533 83.344 160.029 83.52C160.541 83.68 160.909 83.84 161.133 84C161.677 84.368 162.013 84.128 162.141 83.28H162.645C162.613 83.728 162.589 84.28 162.573 84.936C162.557 85.576 162.549 86.432 162.549 87.504H162.045C161.965 86.912 161.813 86.328 161.589 85.752C161.365 85.176 161.037 84.704 160.605 84.336C160.189 83.968 159.645 83.784 158.973 83.784C158.509 83.784 158.117 83.92 157.797 84.192C157.477 84.448 157.317 84.824 157.317 85.32C157.317 85.8 157.461 86.224 157.749 86.592C158.037 86.944 158.405 87.288 158.853 87.624C159.317 87.944 159.797 88.288 160.293 88.656C160.821 89.056 161.301 89.456 161.733 89.856C162.165 90.24 162.509 90.664 162.765 91.128C163.021 91.592 163.149 92.144 163.149 92.784C163.149 93.504 162.941 94.136 162.525 94.68C162.109 95.208 161.557 95.616 160.869 95.904C160.197 96.192 159.445 96.336 158.613 96.336C158.133 96.336 157.701 96.288 157.317 96.192C156.949 96.096 156.629 95.976 156.357 95.832C156.149 95.736 155.949 95.648 155.757 95.568C155.581 95.472 155.413 95.392 155.253 95.328C155.093 95.28 154.949 95.336 154.821 95.496C154.709 95.656 154.621 95.88 154.557 96.168H154.053C154.085 95.656 154.109 95.032 154.125 94.296C154.141 93.56 154.149 92.584 154.149 91.368H154.653C154.749 92.232 154.925 93 155.181 93.672C155.437 94.328 155.781 94.848 156.213 95.232C156.661 95.6 157.221 95.784 157.893 95.784C158.165 95.784 158.429 95.728 158.685 95.616C158.941 95.504 159.149 95.32 159.309 95.064C159.485 94.808 159.573 94.48 159.573 94.08C159.573 93.376 159.341 92.792 158.877 92.328C158.429 91.864 157.853 91.36 157.149 90.816C156.637 90.4 156.149 89.992 155.685 89.592C155.237 89.176 154.869 88.728 154.581 88.248C154.293 87.752 154.149 87.192 154.149 86.568C154.149 85.848 154.341 85.24 154.725 84.744C155.109 84.248 155.613 83.88 156.237 83.64C156.877 83.384 157.557 83.256 158.277 83.256Z" fill="black"/>
<path d="M57.4519 151L52.8599 145.912V151H51.4039V139.848H52.8599V145.016L57.4679 139.848H59.3079L54.2519 145.432L59.3559 151H57.4519ZM65.254 142.072C66.3207 142.072 67.1847 142.397 67.846 143.048C68.5073 143.688 68.838 144.616 68.838 145.832V151H67.398V146.04C67.398 145.165 67.1793 144.499 66.742 144.04C66.3047 143.571 65.7073 143.336 64.95 143.336C64.182 143.336 63.5687 143.576 63.11 144.056C62.662 144.536 62.438 145.235 62.438 146.152V151H60.982V142.232H62.438V143.48C62.726 143.032 63.1153 142.685 63.606 142.44C64.1073 142.195 64.6567 142.072 65.254 142.072ZM75.0404 151.144C74.219 151.144 73.4724 150.957 72.8004 150.584C72.139 150.211 71.6164 149.683 71.2324 149C70.859 148.307 70.6724 147.507 70.6724 146.6C70.6724 145.704 70.8644 144.915 71.2484 144.232C71.643 143.539 72.1764 143.011 72.8484 142.648C73.5204 142.275 74.2724 142.088 75.1044 142.088C75.9364 142.088 76.6884 142.275 77.3604 142.648C78.0324 143.011 78.5604 143.533 78.9444 144.216C79.339 144.899 79.5364 145.693 79.5364 146.6C79.5364 147.507 79.3337 148.307 78.9284 149C78.5337 149.683 77.995 150.211 77.3124 150.584C76.6297 150.957 75.8724 151.144 75.0404 151.144ZM75.0404 149.864C75.563 149.864 76.0537 149.741 76.5124 149.496C76.971 149.251 77.339 148.883 77.6164 148.392C77.9044 147.901 78.0484 147.304 78.0484 146.6C78.0484 145.896 77.9097 145.299 77.6324 144.808C77.355 144.317 76.9924 143.955 76.5444 143.72C76.0964 143.475 75.611 143.352 75.0884 143.352C74.555 143.352 74.0644 143.475 73.6164 143.72C73.179 143.955 72.827 144.317 72.5604 144.808C72.2937 145.299 72.1604 145.896 72.1604 146.6C72.1604 147.315 72.2884 147.917 72.5444 148.408C72.811 148.899 73.163 149.267 73.6004 149.512C74.0377 149.747 74.5177 149.864 75.0404 149.864ZM93.1308 142.232L90.3948 151H88.8908L86.7788 144.04L84.6668 151H83.1628L80.4108 142.232H81.8988L83.9148 149.592L86.0908 142.232H87.5788L89.7068 149.608L91.6908 142.232H93.1308ZM96.0318 139.16V151H94.5758V139.16H96.0318ZM106.513 146.28C106.513 146.557 106.497 146.851 106.465 147.16H99.4573C99.5106 148.024 99.8039 148.701 100.337 149.192C100.881 149.672 101.537 149.912 102.305 149.912C102.935 149.912 103.457 149.768 103.873 149.48C104.3 149.181 104.599 148.787 104.769 148.296H106.337C106.103 149.139 105.633 149.827 104.929 150.36C104.225 150.883 103.351 151.144 102.305 151.144C101.473 151.144 100.727 150.957 100.065 150.584C99.4146 150.211 98.9026 149.683 98.5293 149C98.1559 148.307 97.9693 147.507 97.9693 146.6C97.9693 145.693 98.1506 144.899 98.5133 144.216C98.8759 143.533 99.3826 143.011 100.033 142.648C100.695 142.275 101.452 142.088 102.305 142.088C103.137 142.088 103.873 142.269 104.513 142.632C105.153 142.995 105.644 143.496 105.985 144.136C106.337 144.765 106.513 145.48 106.513 146.28ZM105.009 145.976C105.009 145.421 104.887 144.947 104.641 144.552C104.396 144.147 104.06 143.843 103.633 143.64C103.217 143.427 102.753 143.32 102.241 143.32C101.505 143.32 100.876 143.555 100.353 144.024C99.8413 144.493 99.5479 145.144 99.4733 145.976H105.009ZM107.891 146.584C107.891 145.688 108.072 144.904 108.435 144.232C108.798 143.549 109.294 143.021 109.923 142.648C110.563 142.275 111.278 142.088 112.067 142.088C112.75 142.088 113.384 142.248 113.971 142.568C114.558 142.877 115.006 143.288 115.315 143.8V139.16H116.787V151H115.315V149.352C115.027 149.875 114.6 150.307 114.035 150.648C113.47 150.979 112.808 151.144 112.051 151.144C111.272 151.144 110.563 150.952 109.923 150.568C109.294 150.184 108.798 149.645 108.435 148.952C108.072 148.259 107.891 147.469 107.891 146.584ZM115.315 146.6C115.315 145.939 115.182 145.363 114.915 144.872C114.648 144.381 114.286 144.008 113.827 143.752C113.379 143.485 112.883 143.352 112.339 143.352C111.795 143.352 111.299 143.48 110.851 143.736C110.403 143.992 110.046 144.365 109.779 144.856C109.512 145.347 109.379 145.923 109.379 146.584C109.379 147.256 109.512 147.843 109.779 148.344C110.046 148.835 110.403 149.213 110.851 149.48C111.299 149.736 111.795 149.864 112.339 149.864C112.883 149.864 113.379 149.736 113.827 149.48C114.286 149.213 114.648 148.835 114.915 148.344C115.182 147.843 115.315 147.261 115.315 146.6ZM122.864 142.088C123.621 142.088 124.282 142.253 124.848 142.584C125.424 142.915 125.85 143.331 126.128 143.832V142.232H127.6V151.192C127.6 151.992 127.429 152.701 127.088 153.32C126.746 153.949 126.256 154.44 125.616 154.792C124.986 155.144 124.25 155.32 123.408 155.32C122.256 155.32 121.296 155.048 120.528 154.504C119.76 153.96 119.306 153.219 119.168 152.28H120.608C120.768 152.813 121.098 153.24 121.6 153.56C122.101 153.891 122.704 154.056 123.408 154.056C124.208 154.056 124.858 153.805 125.36 153.304C125.872 152.803 126.128 152.099 126.128 151.192V149.352C125.84 149.864 125.413 150.291 124.848 150.632C124.282 150.973 123.621 151.144 122.864 151.144C122.085 151.144 121.376 150.952 120.736 150.568C120.106 150.184 119.61 149.645 119.248 148.952C118.885 148.259 118.704 147.469 118.704 146.584C118.704 145.688 118.885 144.904 119.248 144.232C119.61 143.549 120.106 143.021 120.736 142.648C121.376 142.275 122.085 142.088 122.864 142.088ZM126.128 146.6C126.128 145.939 125.994 145.363 125.728 144.872C125.461 144.381 125.098 144.008 124.64 143.752C124.192 143.485 123.696 143.352 123.152 143.352C122.608 143.352 122.112 143.48 121.664 143.736C121.216 143.992 120.858 144.365 120.592 144.856C120.325 145.347 120.192 145.923 120.192 146.584C120.192 147.256 120.325 147.843 120.592 148.344C120.858 148.835 121.216 149.213 121.664 149.48C122.112 149.736 122.608 149.864 123.152 149.864C123.696 149.864 124.192 149.736 124.64 149.48C125.098 149.213 125.461 148.835 125.728 148.344C125.994 147.843 126.128 147.261 126.128 146.6ZM138.06 146.28C138.06 146.557 138.044 146.851 138.012 147.16H131.004C131.057 148.024 131.351 148.701 131.884 149.192C132.428 149.672 133.084 149.912 133.852 149.912C134.481 149.912 135.004 149.768 135.42 149.48C135.847 149.181 136.145 148.787 136.316 148.296H137.884C137.649 149.139 137.18 149.827 136.476 150.36C135.772 150.883 134.897 151.144 133.852 151.144C133.02 151.144 132.273 150.957 131.612 150.584C130.961 150.211 130.449 149.683 130.076 149C129.703 148.307 129.516 147.507 129.516 146.6C129.516 145.693 129.697 144.899 130.06 144.216C130.423 143.533 130.929 143.011 131.58 142.648C132.241 142.275 132.999 142.088 133.852 142.088C134.684 142.088 135.42 142.269 136.06 142.632C136.7 142.995 137.191 143.496 137.532 144.136C137.884 144.765 138.06 145.48 138.06 146.28ZM136.556 145.976C136.556 145.421 136.433 144.947 136.188 144.552C135.943 144.147 135.607 143.843 135.18 143.64C134.764 143.427 134.3 143.32 133.788 143.32C133.052 143.32 132.423 143.555 131.9 144.024C131.388 144.493 131.095 145.144 131.02 145.976H136.556ZM147.816 143.432H145.976V151H144.52V143.432H143.384V142.232H144.52V141.608C144.52 140.627 144.77 139.912 145.272 139.464C145.784 139.005 146.6 138.776 147.72 138.776V139.992C147.08 139.992 146.626 140.12 146.36 140.376C146.104 140.621 145.976 141.032 145.976 141.608V142.232H147.816V143.432ZM153.337 151.144C152.516 151.144 151.769 150.957 151.097 150.584C150.436 150.211 149.913 149.683 149.529 149C149.156 148.307 148.969 147.507 148.969 146.6C148.969 145.704 149.161 144.915 149.545 144.232C149.94 143.539 150.473 143.011 151.145 142.648C151.817 142.275 152.569 142.088 153.401 142.088C154.233 142.088 154.985 142.275 155.657 142.648C156.329 143.011 156.857 143.533 157.241 144.216C157.636 144.899 157.833 145.693 157.833 146.6C157.833 147.507 157.631 148.307 157.225 149C156.831 149.683 156.292 150.211 155.609 150.584C154.927 150.957 154.169 151.144 153.337 151.144ZM153.337 149.864C153.86 149.864 154.351 149.741 154.809 149.496C155.268 149.251 155.636 148.883 155.913 148.392C156.201 147.901 156.345 147.304 156.345 146.6C156.345 145.896 156.207 145.299 155.929 144.808C155.652 144.317 155.289 143.955 154.841 143.72C154.393 143.475 153.908 143.352 153.385 143.352C152.852 143.352 152.361 143.475 151.913 143.72C151.476 143.955 151.124 144.317 150.857 144.808C150.591 145.299 150.457 145.896 150.457 146.6C150.457 147.315 150.585 147.917 150.841 148.408C151.108 148.899 151.46 149.267 151.897 149.512C152.335 149.747 152.815 149.864 153.337 149.864ZM161.204 143.656C161.46 143.155 161.822 142.765 162.292 142.488C162.772 142.211 163.353 142.072 164.036 142.072V143.576H163.652C162.02 143.576 161.204 144.461 161.204 146.232V151H159.748V142.232H161.204V143.656ZM169.438 146.584C169.438 145.688 169.619 144.904 169.982 144.232C170.345 143.549 170.841 143.021 171.47 142.648C172.11 142.275 172.819 142.088 173.598 142.088C174.366 142.088 175.033 142.253 175.598 142.584C176.163 142.915 176.585 143.331 176.862 143.832V142.232H178.334V151H176.862V149.368C176.574 149.88 176.142 150.307 175.566 150.648C175.001 150.979 174.339 151.144 173.582 151.144C172.803 151.144 172.099 150.952 171.47 150.568C170.841 150.184 170.345 149.645 169.982 148.952C169.619 148.259 169.438 147.469 169.438 146.584ZM176.862 146.6C176.862 145.939 176.729 145.363 176.462 144.872C176.195 144.381 175.833 144.008 175.374 143.752C174.926 143.485 174.43 143.352 173.886 143.352C173.342 143.352 172.846 143.48 172.398 143.736C171.95 143.992 171.593 144.365 171.326 144.856C171.059 145.347 170.926 145.923 170.926 146.584C170.926 147.256 171.059 147.843 171.326 148.344C171.593 148.835 171.95 149.213 172.398 149.48C172.846 149.736 173.342 149.864 173.886 149.864C174.43 149.864 174.926 149.736 175.374 149.48C175.833 149.213 176.195 148.835 176.462 148.344C176.729 147.843 176.862 147.261 176.862 146.6ZM64.6136 166.088C65.371 166.088 66.0323 166.253 66.5976 166.584C67.1736 166.915 67.6003 167.331 67.8776 167.832V166.232H69.3496V175.192C69.3496 175.992 69.179 176.701 68.8376 177.32C68.4963 177.949 68.0056 178.44 67.3656 178.792C66.7363 179.144 66.0003 179.32 65.1576 179.32C64.0056 179.32 63.0456 179.048 62.2776 178.504C61.5096 177.96 61.0563 177.219 60.9176 176.28H62.3576C62.5176 176.813 62.8483 177.24 63.3496 177.56C63.851 177.891 64.4536 178.056 65.1576 178.056C65.9576 178.056 66.6083 177.805 67.1096 177.304C67.6216 176.803 67.8776 176.099 67.8776 175.192V173.352C67.5896 173.864 67.163 174.291 66.5976 174.632C66.0323 174.973 65.371 175.144 64.6136 175.144C63.835 175.144 63.1256 174.952 62.4856 174.568C61.8563 174.184 61.3603 173.645 60.9976 172.952C60.635 172.259 60.4536 171.469 60.4536 170.584C60.4536 169.688 60.635 168.904 60.9976 168.232C61.3603 167.549 61.8563 167.021 62.4856 166.648C63.1256 166.275 63.835 166.088 64.6136 166.088ZM67.8776 170.6C67.8776 169.939 67.7443 169.363 67.4776 168.872C67.211 168.381 66.8483 168.008 66.3896 167.752C65.9416 167.485 65.4456 167.352 64.9016 167.352C64.3576 167.352 63.8616 167.48 63.4136 167.736C62.9656 167.992 62.6083 168.365 62.3416 168.856C62.075 169.347 61.9416 169.923 61.9416 170.584C61.9416 171.256 62.075 171.843 62.3416 172.344C62.6083 172.835 62.9656 173.213 63.4136 173.48C63.8616 173.736 64.3576 173.864 64.9016 173.864C65.4456 173.864 65.9416 173.736 66.3896 173.48C66.8483 173.213 67.211 172.835 67.4776 172.344C67.7443 171.843 67.8776 171.261 67.8776 170.6ZM73.2661 167.656C73.5221 167.155 73.8848 166.765 74.3541 166.488C74.8341 166.211 75.4155 166.072 76.0981 166.072V167.576H75.7141C74.0821 167.576 73.2661 168.461 73.2661 170.232V175H71.8101V166.232H73.2661V167.656ZM85.7789 170.28C85.7789 170.557 85.7629 170.851 85.7309 171.16H78.7229C78.7762 172.024 79.0695 172.701 79.6029 173.192C80.1469 173.672 80.8029 173.912 81.5709 173.912C82.2002 173.912 82.7229 173.768 83.1389 173.48C83.5655 173.181 83.8642 172.787 84.0349 172.296H85.6029C85.3682 173.139 84.8989 173.827 84.1949 174.36C83.4909 174.883 82.6162 175.144 81.5709 175.144C80.7389 175.144 79.9922 174.957 79.3309 174.584C78.6802 174.211 78.1682 173.683 77.7949 173C77.4215 172.307 77.2349 171.507 77.2349 170.6C77.2349 169.693 77.4162 168.899 77.7789 168.216C78.1415 167.533 78.6482 167.011 79.2989 166.648C79.9602 166.275 80.7175 166.088 81.5709 166.088C82.4029 166.088 83.1389 166.269 83.7789 166.632C84.4189 166.995 84.9095 167.496 85.2509 168.136C85.6029 168.765 85.7789 169.48 85.7789 170.28ZM84.2749 169.976C84.2749 169.421 84.1522 168.947 83.9069 168.552C83.6615 168.147 83.3255 167.843 82.8989 167.64C82.4829 167.427 82.0189 167.32 81.5069 167.32C80.7709 167.32 80.1415 167.555 79.6189 168.024C79.1069 168.493 78.8135 169.144 78.7389 169.976H84.2749ZM95.7008 170.28C95.7008 170.557 95.6848 170.851 95.6528 171.16H88.6448C88.6981 172.024 88.9914 172.701 89.5248 173.192C90.0688 173.672 90.7248 173.912 91.4928 173.912C92.1221 173.912 92.6448 173.768 93.0608 173.48C93.4874 173.181 93.7861 172.787 93.9568 172.296H95.5248C95.2901 173.139 94.8208 173.827 94.1168 174.36C93.4128 174.883 92.5381 175.144 91.4928 175.144C90.6608 175.144 89.9141 174.957 89.2528 174.584C88.6021 174.211 88.0901 173.683 87.7168 173C87.3434 172.307 87.1568 171.507 87.1568 170.6C87.1568 169.693 87.3381 168.899 87.7008 168.216C88.0634 167.533 88.5701 167.011 89.2208 166.648C89.8821 166.275 90.6394 166.088 91.4928 166.088C92.3248 166.088 93.0608 166.269 93.7008 166.632C94.3408 166.995 94.8314 167.496 95.1728 168.136C95.5248 168.765 95.7008 169.48 95.7008 170.28ZM94.1968 169.976C94.1968 169.421 94.0741 168.947 93.8288 168.552C93.5834 168.147 93.2474 167.843 92.8208 167.64C92.4048 167.427 91.9408 167.32 91.4288 167.32C90.6928 167.32 90.0634 167.555 89.5408 168.024C89.0288 168.493 88.7354 169.144 88.6608 169.976H94.1968ZM101.895 166.072C102.961 166.072 103.825 166.397 104.487 167.048C105.148 167.688 105.479 168.616 105.479 169.832V175H104.039V170.04C104.039 169.165 103.82 168.499 103.383 168.04C102.945 167.571 102.348 167.336 101.591 167.336C100.823 167.336 100.209 167.576 99.7506 168.056C99.3026 168.536 99.0786 169.235 99.0786 170.152V175H97.6226V166.232H99.0786V167.48C99.3666 167.032 99.756 166.685 100.247 166.44C100.748 166.195 101.297 166.072 101.895 166.072ZM115.857 170.28C115.857 170.557 115.841 170.851 115.809 171.16H108.801C108.854 172.024 109.148 172.701 109.681 173.192C110.225 173.672 110.881 173.912 111.649 173.912C112.278 173.912 112.801 173.768 113.217 173.48C113.644 173.181 113.942 172.787 114.113 172.296H115.681C115.446 173.139 114.977 173.827 114.273 174.36C113.569 174.883 112.694 175.144 111.649 175.144C110.817 175.144 110.07 174.957 109.409 174.584C108.758 174.211 108.246 173.683 107.873 173C107.5 172.307 107.313 171.507 107.313 170.6C107.313 169.693 107.494 168.899 107.857 168.216C108.22 167.533 108.726 167.011 109.377 166.648C110.038 166.275 110.796 166.088 111.649 166.088C112.481 166.088 113.217 166.269 113.857 166.632C114.497 166.995 114.988 167.496 115.329 168.136C115.681 168.765 115.857 169.48 115.857 170.28ZM114.353 169.976C114.353 169.421 114.23 168.947 113.985 168.552C113.74 168.147 113.404 167.843 112.977 167.64C112.561 167.427 112.097 167.32 111.585 167.32C110.849 167.32 110.22 167.555 109.697 168.024C109.185 168.493 108.892 169.144 108.817 169.976H114.353ZM119.235 167.656C119.491 167.155 119.854 166.765 120.323 166.488C120.803 166.211 121.384 166.072 122.067 166.072V167.576H121.683C120.051 167.576 119.235 168.461 119.235 170.232V175H117.779V166.232H119.235V167.656ZM131.581 167.432H129.741V175H128.285V167.432H127.149V166.232H128.285V165.608C128.285 164.627 128.536 163.912 129.037 163.464C129.549 163.005 130.365 162.776 131.485 162.776V163.992C130.845 163.992 130.392 164.12 130.125 164.376C129.869 164.621 129.741 165.032 129.741 165.608V166.232H131.581V167.432ZM141.055 166.232V175H139.599V173.704C139.322 174.152 138.932 174.504 138.431 174.76C137.94 175.005 137.396 175.128 136.799 175.128C136.116 175.128 135.503 174.989 134.959 174.712C134.415 174.424 133.983 173.997 133.663 173.432C133.354 172.867 133.199 172.179 133.199 171.368V166.232H134.639V171.176C134.639 172.04 134.858 172.707 135.295 173.176C135.732 173.635 136.33 173.864 137.087 173.864C137.866 173.864 138.479 173.624 138.927 173.144C139.375 172.664 139.599 171.965 139.599 171.048V166.232H141.055ZM145.289 167.432V172.6C145.289 173.027 145.38 173.331 145.561 173.512C145.743 173.683 146.057 173.768 146.505 173.768H147.577V175H146.265C145.455 175 144.847 174.813 144.441 174.44C144.036 174.067 143.833 173.453 143.833 172.6V167.432H142.697V166.232H143.833V164.024H145.289V166.232H147.577V167.432H145.289ZM157.117 166.232V175H155.661V173.704C155.384 174.152 154.995 174.504 154.493 174.76C154.003 175.005 153.459 175.128 152.861 175.128C152.179 175.128 151.565 174.989 151.021 174.712C150.477 174.424 150.045 173.997 149.725 173.432C149.416 172.867 149.261 172.179 149.261 171.368V166.232H150.701V171.176C150.701 172.04 150.92 172.707 151.357 173.176C151.795 173.635 152.392 173.864 153.149 173.864C153.928 173.864 154.541 173.624 154.989 173.144C155.437 172.664 155.661 171.965 155.661 171.048V166.232H157.117ZM161.032 167.656C161.288 167.155 161.65 166.765 162.12 166.488C162.6 166.211 163.181 166.072 163.864 166.072V167.576H163.48C161.848 167.576 161.032 168.461 161.032 170.232V175H159.576V166.232H161.032V167.656ZM173.545 170.28C173.545 170.557 173.529 170.851 173.497 171.16H166.489C166.542 172.024 166.835 172.701 167.369 173.192C167.913 173.672 168.569 173.912 169.337 173.912C169.966 173.912 170.489 173.768 170.905 173.48C171.331 173.181 171.63 172.787 171.801 172.296H173.369C173.134 173.139 172.665 173.827 171.961 174.36C171.257 174.883 170.382 175.144 169.337 175.144C168.505 175.144 167.758 174.957 167.097 174.584C166.446 174.211 165.934 173.683 165.561 173C165.187 172.307 165.001 171.507 165.001 170.6C165.001 169.693 165.182 168.899 165.545 168.216C165.907 167.533 166.414 167.011 167.065 166.648C167.726 166.275 168.483 166.088 169.337 166.088C170.169 166.088 170.905 166.269 171.545 166.632C172.185 166.995 172.675 167.496 173.017 168.136C173.369 168.765 173.545 169.48 173.545 170.28ZM172.041 169.976C172.041 169.421 171.918 168.947 171.673 168.552C171.427 168.147 171.091 167.843 170.665 167.64C170.249 167.427 169.785 167.32 169.273 167.32C168.537 167.32 167.907 167.555 167.385 168.024C166.873 168.493 166.579 169.144 166.505 169.976H172.041Z" fill="#F6F6F6"/>
<path d="M154.008 19.9417H94.5082C92.1082 9.54168 98.8416 5.9417 101.508 5.44172C112.008 5.10839 135.408 4.64172 145.008 5.44172C154.608 6.24172 155.008 15.4417 154.008 19.9417Z" fill="#F8CD51" stroke="#439D93"/>
<circle cx="123.5" cy="7.5" r="7.5" fill="#439D93"/>
<path d="M84.4451 243.327L98.7304 263.449L93.4344 279.67H76.296L71 263.449L84.4451 243.327Z" fill="#7E9C92"/>
<path d="M73.731 263.915L91.7978 277.15H78.1756L73.731 263.915Z" fill="#6F8D83"/>
<path d="M82.3444 270.217L91.7979 277.149H78.1758L82.3444 270.217Z" fill="#587169"/>
<path d="M157.844 205.794C151.303 207.533 143.454 209.95 137.139 212.877C123.714 219.098 102.104 237.434 102.104 237.434C102.104 237.434 119.786 226.629 135.393 217.697C144.745 212.345 159.266 209.208 169.402 207.553C170.225 208.047 170.944 208.579 171.525 209.049C172.417 209.768 173.155 210.477 173.669 211.005C173.928 211.271 174.135 211.496 174.281 211.658C174.354 211.739 174.413 211.806 174.455 211.854C174.476 211.879 174.493 211.899 174.506 211.914C174.512 211.922 174.518 211.928 174.522 211.934C174.524 211.936 174.527 211.938 174.528 211.939C174.529 211.94 174.531 211.943 174.531 211.943L174.532 211.944C174.529 211.948 174.449 212.015 172.586 213.583L174.533 211.944L176.464 214.24L171.872 218.104L169.94 215.807C169.937 215.802 169.931 215.796 169.924 215.787C169.903 215.763 169.867 215.722 169.818 215.668C169.72 215.559 169.569 215.394 169.373 215.193C168.978 214.788 168.417 214.25 167.758 213.719C166.301 212.543 164.923 211.855 163.965 211.839C163.79 211.836 163.624 211.84 163.466 211.85L140.305 249.135L113.305 255L84 243.596L96.1826 211.989L140.305 197L157.844 205.794Z" fill="#6B9059"/>
<path d="M113.421 251.06L137.223 243.508L164 211L140.529 249.09L113.421 255L84 243.508L113.421 251.06Z" fill="#2E4E30"/>
</svg>
