<svg width="166" height="254" viewBox="0 0 166 254" fill="none" xmlns="http://www.w3.org/2000/svg">
<rect x="3" y="3" width="163" height="251" rx="10" fill="#ACB1A7"/>
<rect width="163" height="251" rx="10" fill="#2A262A"/>
<path d="M21.625 166.312V168H15.5781V166.312H21.625ZM16.2344 156.625V168H14.0859V156.625H16.2344ZM20.8359 161.32V162.969H15.5781V161.32H20.8359ZM21.6016 156.625V158.32H15.5781V156.625H21.6016ZM24.9844 161.352V168H22.9219V159.547H24.8594L24.9844 161.352ZM24.6562 163.469H24.0469C24.0521 162.854 24.1354 162.297 24.2969 161.797C24.4583 161.297 24.6849 160.867 24.9766 160.508C25.2734 160.148 25.625 159.872 26.0312 159.68C26.4375 159.487 26.8906 159.391 27.3906 159.391C27.7969 159.391 28.1641 159.448 28.4922 159.562C28.8203 159.677 29.1016 159.859 29.3359 160.109C29.5755 160.359 29.7578 160.688 29.8828 161.094C30.013 161.495 30.0781 161.99 30.0781 162.578V168H28V162.562C28 162.177 27.9427 161.872 27.8281 161.648C27.7188 161.424 27.5573 161.266 27.3438 161.172C27.1354 161.078 26.8776 161.031 26.5703 161.031C26.2526 161.031 25.974 161.096 25.7344 161.227C25.5 161.352 25.3021 161.526 25.1406 161.75C24.9844 161.974 24.8646 162.232 24.7812 162.523C24.6979 162.815 24.6562 163.13 24.6562 163.469ZM34.7031 166.438L36.6719 159.547H38.8281L35.9297 168H34.6172L34.7031 166.438ZM33.2656 159.547L35.2578 166.453L35.3281 168H34.0078L31.1016 159.547H33.2656ZM42.1016 159.547V168H40.0312V159.547H42.1016ZM39.8906 157.336C39.8906 157.029 39.9948 156.773 40.2031 156.57C40.4167 156.367 40.7031 156.266 41.0625 156.266C41.4219 156.266 41.7057 156.367 41.9141 156.57C42.1276 156.773 42.2344 157.029 42.2344 157.336C42.2344 157.638 42.1276 157.891 41.9141 158.094C41.7057 158.297 41.4219 158.398 41.0625 158.398C40.7031 158.398 40.4167 158.297 40.2031 158.094C39.9948 157.891 39.8906 157.638 39.8906 157.336ZM46.1328 161.273V168H44.0703V159.547H46.0234L46.1328 161.273ZM48.7031 159.492L48.6719 161.414C48.5573 161.393 48.4271 161.378 48.2812 161.367C48.1406 161.357 48.0078 161.352 47.8828 161.352C47.5651 161.352 47.2865 161.396 47.0469 161.484C46.8073 161.568 46.6068 161.69 46.4453 161.852C46.2891 162.013 46.1693 162.211 46.0859 162.445C46.0026 162.674 45.9557 162.935 45.9453 163.227L45.5 163.172C45.5 162.635 45.5547 162.138 45.6641 161.68C45.7734 161.221 45.9323 160.82 46.1406 160.477C46.349 160.133 46.6094 159.867 46.9219 159.68C47.2396 159.487 47.6042 159.391 48.0156 159.391C48.1302 159.391 48.2526 159.401 48.3828 159.422C48.5182 159.438 48.625 159.461 48.7031 159.492ZM49.25 163.859V163.695C49.25 163.076 49.3385 162.505 49.5156 161.984C49.6927 161.458 49.9505 161.003 50.2891 160.617C50.6276 160.232 51.0417 159.932 51.5312 159.719C52.0208 159.5 52.5781 159.391 53.2031 159.391C53.8385 159.391 54.401 159.5 54.8906 159.719C55.3854 159.932 55.8021 160.232 56.1406 160.617C56.4792 161.003 56.737 161.458 56.9141 161.984C57.0911 162.505 57.1797 163.076 57.1797 163.695V163.859C57.1797 164.474 57.0911 165.044 56.9141 165.57C56.737 166.091 56.4792 166.547 56.1406 166.938C55.8021 167.323 55.388 167.622 54.8984 167.836C54.4089 168.049 53.849 168.156 53.2188 168.156C52.5938 168.156 52.0339 168.049 51.5391 167.836C51.0443 167.622 50.6276 167.323 50.2891 166.938C49.9505 166.547 49.6927 166.091 49.5156 165.57C49.3385 165.044 49.25 164.474 49.25 163.859ZM51.3125 163.695V163.859C51.3125 164.229 51.349 164.576 51.4219 164.898C51.4948 165.221 51.6068 165.505 51.7578 165.75C51.9089 165.995 52.1042 166.188 52.3438 166.328C52.5885 166.464 52.8802 166.531 53.2188 166.531C53.5521 166.531 53.8385 166.464 54.0781 166.328C54.3177 166.188 54.513 165.995 54.6641 165.75C54.8203 165.505 54.9349 165.221 55.0078 164.898C55.0807 164.576 55.1172 164.229 55.1172 163.859V163.695C55.1172 163.331 55.0807 162.99 55.0078 162.672C54.9349 162.349 54.8203 162.065 54.6641 161.82C54.513 161.57 54.3151 161.375 54.0703 161.234C53.8307 161.089 53.5417 161.016 53.2031 161.016C52.8698 161.016 52.5833 161.089 52.3438 161.234C52.1042 161.375 51.9089 161.57 51.7578 161.82C51.6068 162.065 51.4948 162.349 51.4219 162.672C51.349 162.99 51.3125 163.331 51.3125 163.695ZM60.7031 161.352V168H58.6406V159.547H60.5781L60.7031 161.352ZM60.375 163.469H59.7656C59.7708 162.854 59.8542 162.297 60.0156 161.797C60.1771 161.297 60.4036 160.867 60.6953 160.508C60.9922 160.148 61.3438 159.872 61.75 159.68C62.1562 159.487 62.6094 159.391 63.1094 159.391C63.5156 159.391 63.8828 159.448 64.2109 159.562C64.5391 159.677 64.8203 159.859 65.0547 160.109C65.2943 160.359 65.4766 160.688 65.6016 161.094C65.7318 161.495 65.7969 161.99 65.7969 162.578V168H63.7188V162.562C63.7188 162.177 63.6615 161.872 63.5469 161.648C63.4375 161.424 63.276 161.266 63.0625 161.172C62.8542 161.078 62.5964 161.031 62.2891 161.031C61.9714 161.031 61.6927 161.096 61.4531 161.227C61.2188 161.352 61.0208 161.526 60.8594 161.75C60.7031 161.974 60.5833 162.232 60.5 162.523C60.4167 162.815 60.375 163.13 60.375 163.469ZM69.6719 161.281V168H67.6094V159.547H69.5547L69.6719 161.281ZM69.3672 163.469H68.7344C68.7344 162.88 68.8047 162.339 68.9453 161.844C69.0911 161.349 69.3047 160.919 69.5859 160.555C69.8672 160.185 70.2135 159.898 70.625 159.695C71.0417 159.492 71.5234 159.391 72.0703 159.391C72.4505 159.391 72.7995 159.448 73.1172 159.562C73.4349 159.672 73.7083 159.846 73.9375 160.086C74.1719 160.32 74.3516 160.628 74.4766 161.008C74.6016 161.383 74.6641 161.833 74.6641 162.359V168H72.6016V162.57C72.6016 162.174 72.5443 161.865 72.4297 161.641C72.3203 161.417 72.1615 161.26 71.9531 161.172C71.7448 161.078 71.4948 161.031 71.2031 161.031C70.8802 161.031 70.6016 161.096 70.3672 161.227C70.138 161.352 69.9479 161.526 69.7969 161.75C69.651 161.974 69.5417 162.232 69.4688 162.523C69.401 162.815 69.3672 163.13 69.3672 163.469ZM74.5078 163.086L73.6562 163.242C73.6615 162.711 73.7344 162.214 73.875 161.75C74.0156 161.281 74.2214 160.872 74.4922 160.523C74.7682 160.169 75.1094 159.893 75.5156 159.695C75.9271 159.492 76.401 159.391 76.9375 159.391C77.3542 159.391 77.7292 159.451 78.0625 159.57C78.401 159.685 78.6901 159.87 78.9297 160.125C79.1693 160.375 79.3516 160.701 79.4766 161.102C79.6068 161.503 79.6719 161.992 79.6719 162.57V168H77.5938V162.562C77.5938 162.151 77.5365 161.836 77.4219 161.617C77.3125 161.398 77.1536 161.247 76.9453 161.164C76.737 161.076 76.4922 161.031 76.2109 161.031C75.9245 161.031 75.6745 161.086 75.4609 161.195C75.2526 161.299 75.0755 161.445 74.9297 161.633C74.7891 161.82 74.6823 162.039 74.6094 162.289C74.5417 162.534 74.5078 162.799 74.5078 163.086ZM85.3203 168.156C84.6797 168.156 84.1042 168.052 83.5938 167.844C83.0833 167.635 82.6484 167.346 82.2891 166.977C81.9349 166.602 81.6615 166.167 81.4688 165.672C81.2812 165.172 81.1875 164.635 81.1875 164.062V163.75C81.1875 163.099 81.2812 162.508 81.4688 161.977C81.6562 161.44 81.9219 160.979 82.2656 160.594C82.6094 160.208 83.0208 159.911 83.5 159.703C83.9792 159.495 84.5078 159.391 85.0859 159.391C85.6849 159.391 86.2135 159.492 86.6719 159.695C87.1302 159.893 87.513 160.174 87.8203 160.539C88.1276 160.904 88.3594 161.341 88.5156 161.852C88.6719 162.357 88.75 162.917 88.75 163.531V164.398H82.125V162.977H86.7188V162.82C86.7083 162.492 86.6458 162.193 86.5312 161.922C86.4167 161.646 86.2396 161.427 86 161.266C85.7604 161.099 85.4505 161.016 85.0703 161.016C84.763 161.016 84.4948 161.083 84.2656 161.219C84.0417 161.349 83.8542 161.536 83.7031 161.781C83.5573 162.021 83.4479 162.307 83.375 162.641C83.3021 162.974 83.2656 163.344 83.2656 163.75V164.062C83.2656 164.417 83.3125 164.745 83.4062 165.047C83.5052 165.349 83.6484 165.612 83.8359 165.836C84.0286 166.055 84.2578 166.227 84.5234 166.352C84.7943 166.471 85.1016 166.531 85.4453 166.531C85.8776 166.531 86.2682 166.448 86.6172 166.281C86.9714 166.109 87.2786 165.857 87.5391 165.523L88.5781 166.602C88.401 166.862 88.1615 167.112 87.8594 167.352C87.5625 167.591 87.2031 167.786 86.7812 167.938C86.3594 168.083 85.8724 168.156 85.3203 168.156ZM92.1562 161.352V168H90.0938V159.547H92.0312L92.1562 161.352ZM91.8281 163.469H91.2188C91.224 162.854 91.3073 162.297 91.4688 161.797C91.6302 161.297 91.8568 160.867 92.1484 160.508C92.4453 160.148 92.7969 159.872 93.2031 159.68C93.6094 159.487 94.0625 159.391 94.5625 159.391C94.9688 159.391 95.3359 159.448 95.6641 159.562C95.9922 159.677 96.2734 159.859 96.5078 160.109C96.7474 160.359 96.9297 160.688 97.0547 161.094C97.1849 161.495 97.25 161.99 97.25 162.578V168H95.1719V162.562C95.1719 162.177 95.1146 161.872 95 161.648C94.8906 161.424 94.7292 161.266 94.5156 161.172C94.3073 161.078 94.0495 161.031 93.7422 161.031C93.4245 161.031 93.1458 161.096 92.9062 161.227C92.6719 161.352 92.474 161.526 92.3125 161.75C92.1562 161.974 92.0365 162.232 91.9531 162.523C91.8698 162.815 91.8281 163.13 91.8281 163.469ZM103.07 159.547V161.031H98.2266V159.547H103.07ZM99.5234 157.469H101.594V165.562C101.594 165.812 101.628 166.005 101.695 166.141C101.763 166.276 101.865 166.367 102 166.414C102.135 166.461 102.297 166.484 102.484 166.484C102.62 166.484 102.745 166.477 102.859 166.461C102.974 166.445 103.07 166.43 103.148 166.414L103.156 167.961C102.984 168.018 102.789 168.065 102.57 168.102C102.357 168.138 102.115 168.156 101.844 168.156C101.38 168.156 100.974 168.078 100.625 167.922C100.276 167.76 100.005 167.503 99.8125 167.148C99.6198 166.789 99.5234 166.315 99.5234 165.727V157.469ZM109.102 166.203V162.305C109.102 162.018 109.052 161.771 108.953 161.562C108.854 161.354 108.703 161.193 108.5 161.078C108.297 160.964 108.039 160.906 107.727 160.906C107.451 160.906 107.208 160.953 107 161.047C106.797 161.141 106.641 161.273 106.531 161.445C106.422 161.612 106.367 161.805 106.367 162.023H104.297C104.297 161.674 104.38 161.344 104.547 161.031C104.714 160.714 104.951 160.432 105.258 160.188C105.57 159.938 105.943 159.742 106.375 159.602C106.812 159.461 107.302 159.391 107.844 159.391C108.484 159.391 109.055 159.5 109.555 159.719C110.06 159.932 110.456 160.255 110.742 160.688C111.034 161.12 111.18 161.664 111.18 162.32V166.008C111.18 166.43 111.206 166.792 111.258 167.094C111.315 167.391 111.398 167.648 111.508 167.867V168H109.406C109.307 167.786 109.232 167.516 109.18 167.188C109.128 166.854 109.102 166.526 109.102 166.203ZM109.391 162.852L109.406 164.078H108.102C107.779 164.078 107.495 164.112 107.25 164.18C107.005 164.242 106.805 164.336 106.648 164.461C106.492 164.581 106.375 164.727 106.297 164.898C106.219 165.065 106.18 165.255 106.18 165.469C106.18 165.677 106.227 165.865 106.32 166.031C106.419 166.198 106.56 166.331 106.742 166.43C106.93 166.523 107.148 166.57 107.398 166.57C107.763 166.57 108.081 166.497 108.352 166.352C108.622 166.201 108.833 166.018 108.984 165.805C109.135 165.591 109.216 165.388 109.227 165.195L109.82 166.086C109.747 166.299 109.638 166.526 109.492 166.766C109.346 167.005 109.159 167.229 108.93 167.438C108.701 167.646 108.424 167.818 108.102 167.953C107.779 168.089 107.404 168.156 106.977 168.156C106.43 168.156 105.94 168.047 105.508 167.828C105.076 167.609 104.734 167.31 104.484 166.93C104.234 166.549 104.109 166.117 104.109 165.633C104.109 165.185 104.193 164.789 104.359 164.445C104.526 164.102 104.773 163.812 105.102 163.578C105.43 163.339 105.836 163.159 106.32 163.039C106.81 162.914 107.37 162.852 108 162.852H109.391ZM115.227 156V168H113.156V156H115.227Z" fill="#E3DFD4"/>
<path d="M47.4451 88.6051L61.7304 108.728L56.4344 124.949H39.296L34 108.728L47.4451 88.6051Z" fill="#7E9C92"/>
<path d="M36.731 109.193L54.7978 122.428H41.1757L36.731 109.193Z" fill="#6F8D83"/>
<path d="M45.3443 115.495L54.7978 122.428H41.1757L45.3443 115.495Z" fill="#587169"/>
<path d="M120.844 51.0723C114.303 52.8111 106.454 55.2284 100.139 58.1553C86.7144 64.3764 65.1045 82.7119 65.1045 82.7119C65.1045 82.7119 82.7859 71.9069 98.3926 62.9756C107.745 57.6235 122.266 54.4862 132.403 52.8311C133.225 53.3256 133.944 53.8579 134.525 54.3271C135.417 55.0461 136.155 55.7554 136.669 56.2832C136.928 56.5489 137.135 56.7739 137.281 56.9365C137.354 57.0178 137.413 57.0842 137.455 57.1328C137.476 57.1569 137.493 57.1772 137.506 57.1924C137.512 57.1999 137.518 57.2067 137.522 57.2119C137.524 57.2142 137.527 57.2159 137.528 57.2178C137.529 57.2188 137.531 57.2208 137.531 57.2217L137.532 57.2227C137.529 57.226 137.45 57.2916 135.614 58.8359L137.533 57.2227L139.464 59.5186L134.872 63.3818L132.941 61.0859L132.94 61.085C132.937 61.0807 132.931 61.074 132.924 61.0654C132.903 61.0413 132.867 61.0006 132.818 60.9463C132.72 60.837 132.569 60.6726 132.373 60.4717C131.978 60.0659 131.417 59.5286 130.758 58.9971C129.392 57.8952 128.095 57.2222 127.149 57.1289L126.965 57.1172C126.79 57.1142 126.624 57.1187 126.466 57.1279L103.305 94.4131L76.3047 100.278L47 88.874L59.1826 57.2676L103.305 42.2783L120.844 51.0723Z" fill="#6B9059"/>
<path d="M76.4215 96.3384L100.223 88.7861L127 56.2787L103.529 94.3682L76.4215 100.279L47 88.7861L76.4215 96.3384Z" fill="#2E4E30"/>
<rect x="62" y="16" width="74" height="12" rx="2" fill="#514E51" fill-opacity="0.2"/>
<rect x="141" y="16" width="12" height="12" rx="2" fill="#514E51" fill-opacity="0.2"/>
<rect x="62" y="16" width="74" height="12" rx="2" fill="#514E51" fill-opacity="0.2"/>
<rect x="141" y="16" width="12" height="12" rx="2" fill="#514E51" fill-opacity="0.2"/>
</svg>
