<svg width="166" height="254" viewBox="0 0 166 254" fill="none" xmlns="http://www.w3.org/2000/svg">
<rect x="3" y="3" width="163" height="251" rx="10" fill="#ACB1A7"/>
<rect width="163" height="251" rx="10" fill="#2A262A"/>
<path d="M19.6523 182.061H20.8711C20.8076 182.645 20.6405 183.168 20.3696 183.629C20.0988 184.09 19.7158 184.456 19.2207 184.727C18.7256 184.994 18.1077 185.127 17.3672 185.127C16.8255 185.127 16.3325 185.025 15.8882 184.822C15.4481 184.619 15.0693 184.331 14.752 183.959C14.4346 183.582 14.1891 183.132 14.0156 182.607C13.8464 182.078 13.7617 181.49 13.7617 180.842V179.922C13.7617 179.274 13.8464 178.688 14.0156 178.164C14.1891 177.635 14.4367 177.182 14.7583 176.805C15.0841 176.429 15.4756 176.139 15.9326 175.936C16.3896 175.732 16.9038 175.631 17.4751 175.631C18.1733 175.631 18.7637 175.762 19.2461 176.024C19.7285 176.287 20.103 176.651 20.3696 177.116C20.6405 177.577 20.8076 178.113 20.8711 178.722H19.6523C19.5931 178.291 19.4831 177.92 19.3223 177.611C19.1615 177.298 18.9329 177.057 18.6367 176.888C18.3405 176.718 17.9533 176.634 17.4751 176.634C17.0646 176.634 16.7028 176.712 16.3896 176.869C16.0807 177.025 15.8205 177.247 15.6089 177.535C15.4015 177.823 15.245 178.168 15.1392 178.57C15.0334 178.972 14.9805 179.418 14.9805 179.909V180.842C14.9805 181.295 15.027 181.72 15.1201 182.118C15.2174 182.516 15.3634 182.865 15.5581 183.166C15.7528 183.466 16.0003 183.703 16.3008 183.876C16.6012 184.046 16.9567 184.13 17.3672 184.13C17.8877 184.13 18.3024 184.048 18.6113 183.883C18.9202 183.718 19.153 183.481 19.3096 183.172C19.4704 182.863 19.5846 182.493 19.6523 182.061ZM22.0518 181.642V181.496C22.0518 181.001 22.1237 180.542 22.2676 180.119C22.4115 179.691 22.6188 179.321 22.8896 179.008C23.1605 178.69 23.4884 178.445 23.8735 178.271C24.2586 178.094 24.6903 178.005 25.1685 178.005C25.6509 178.005 26.0846 178.094 26.4697 178.271C26.859 178.445 27.1891 178.69 27.46 179.008C27.735 179.321 27.9445 179.691 28.0884 180.119C28.2323 180.542 28.3042 181.001 28.3042 181.496V181.642C28.3042 182.137 28.2323 182.596 28.0884 183.02C27.9445 183.443 27.735 183.813 27.46 184.13C27.1891 184.444 26.8612 184.689 26.4761 184.867C26.0952 185.04 25.6636 185.127 25.1812 185.127C24.6987 185.127 24.265 185.04 23.8799 184.867C23.4948 184.689 23.1647 184.444 22.8896 184.13C22.6188 183.813 22.4115 183.443 22.2676 183.02C22.1237 182.596 22.0518 182.137 22.0518 181.642ZM23.2261 181.496V181.642C23.2261 181.985 23.2663 182.309 23.3467 182.613C23.4271 182.914 23.5477 183.18 23.7085 183.413C23.8735 183.646 24.0788 183.83 24.3242 183.965C24.5697 184.097 24.8553 184.162 25.1812 184.162C25.5028 184.162 25.7842 184.097 26.0254 183.965C26.2708 183.83 26.474 183.646 26.6348 183.413C26.7956 183.18 26.9162 182.914 26.9966 182.613C27.0812 182.309 27.1235 181.985 27.1235 181.642V181.496C27.1235 181.158 27.0812 180.838 26.9966 180.538C26.9162 180.233 26.7935 179.964 26.6284 179.731C26.4676 179.494 26.2645 179.308 26.019 179.173C25.7778 179.037 25.4943 178.97 25.1685 178.97C24.8468 178.97 24.5633 179.037 24.3179 179.173C24.0767 179.308 23.8735 179.494 23.7085 179.731C23.5477 179.964 23.4271 180.233 23.3467 180.538C23.2663 180.838 23.2261 181.158 23.2261 181.496ZM30.9448 179.497V185H29.7642V178.132H30.8813L30.9448 179.497ZM30.7036 181.306L30.1577 181.287C30.1619 180.817 30.2233 180.383 30.3418 179.985C30.4603 179.583 30.6359 179.234 30.8687 178.938C31.1014 178.642 31.3913 178.413 31.7383 178.252C32.0853 178.087 32.4873 178.005 32.9443 178.005C33.266 178.005 33.5622 178.051 33.833 178.145C34.1038 178.233 34.3387 178.375 34.5376 178.57C34.7365 178.764 34.891 179.014 35.001 179.319C35.111 179.624 35.166 179.992 35.166 180.423V185H33.9917V180.48C33.9917 180.121 33.9303 179.833 33.8076 179.617C33.6891 179.401 33.5199 179.245 33.2998 179.147C33.0798 179.046 32.8216 178.995 32.5254 178.995C32.1784 178.995 31.8885 179.056 31.6558 179.179C31.423 179.302 31.2368 179.471 31.0972 179.687C30.9575 179.903 30.856 180.15 30.7925 180.43C30.7332 180.705 30.7036 180.997 30.7036 181.306ZM35.1533 180.658L34.3662 180.899C34.3704 180.523 34.4318 180.161 34.5503 179.814C34.673 179.467 34.8486 179.158 35.0771 178.887C35.3099 178.616 35.5955 178.403 35.9341 178.246C36.2726 178.085 36.6598 178.005 37.0957 178.005C37.4639 178.005 37.7897 178.054 38.0732 178.151C38.361 178.248 38.6022 178.398 38.7969 178.602C38.9958 178.8 39.146 179.056 39.2476 179.37C39.3491 179.683 39.3999 180.055 39.3999 180.487V185H38.2192V180.474C38.2192 180.089 38.1579 179.791 38.0352 179.579C37.9167 179.363 37.7474 179.213 37.5273 179.128C37.3115 179.04 37.0534 178.995 36.7529 178.995C36.4948 178.995 36.2663 179.04 36.0674 179.128C35.8685 179.217 35.7013 179.34 35.5659 179.497C35.4305 179.649 35.3268 179.825 35.2549 180.023C35.1872 180.222 35.1533 180.434 35.1533 180.658ZM42.4531 178.132V185H41.2725V178.132H42.4531ZM41.1836 176.31C41.1836 176.12 41.2407 175.959 41.355 175.828C41.4735 175.696 41.647 175.631 41.8755 175.631C42.0998 175.631 42.2712 175.696 42.3896 175.828C42.5124 175.959 42.5737 176.12 42.5737 176.31C42.5737 176.492 42.5124 176.649 42.3896 176.78C42.2712 176.907 42.0998 176.97 41.8755 176.97C41.647 176.97 41.4735 176.907 41.355 176.78C41.2407 176.649 41.1836 176.492 41.1836 176.31ZM45.5127 179.598V185H44.3384V178.132H45.4492L45.5127 179.598ZM45.2334 181.306L44.7446 181.287C44.7489 180.817 44.8187 180.383 44.9541 179.985C45.0895 179.583 45.2799 179.234 45.5254 178.938C45.7708 178.642 46.0628 178.413 46.4014 178.252C46.7441 178.087 47.1229 178.005 47.5376 178.005C47.8761 178.005 48.1808 178.051 48.4517 178.145C48.7225 178.233 48.9531 178.377 49.1436 178.576C49.3382 178.775 49.4863 179.033 49.5879 179.351C49.6895 179.664 49.7402 180.047 49.7402 180.5V185H48.5596V180.487C48.5596 180.127 48.5067 179.839 48.4009 179.624C48.2951 179.403 48.1406 179.245 47.9375 179.147C47.7344 179.046 47.4847 178.995 47.1885 178.995C46.8965 178.995 46.6299 179.056 46.3887 179.179C46.1517 179.302 45.9465 179.471 45.7729 179.687C45.6037 179.903 45.4704 180.15 45.373 180.43C45.2799 180.705 45.2334 180.997 45.2334 181.306ZM55.9736 178.132H57.04V184.854C57.04 185.459 56.9173 185.975 56.6719 186.403C56.4264 186.83 56.0837 187.154 55.6436 187.374C55.2077 187.598 54.7041 187.71 54.1328 187.71C53.8958 187.71 53.6165 187.672 53.2949 187.596C52.9775 187.524 52.6644 187.399 52.3555 187.222C52.0508 187.048 51.7948 186.813 51.5874 186.517L52.2031 185.819C52.4909 186.166 52.7913 186.407 53.1045 186.542C53.4219 186.678 53.735 186.746 54.0439 186.746C54.4163 186.746 54.738 186.676 55.0088 186.536C55.2796 186.396 55.4891 186.189 55.6372 185.914C55.7896 185.643 55.8657 185.309 55.8657 184.911V179.643L55.9736 178.132ZM51.2446 181.642V181.509C51.2446 180.984 51.306 180.508 51.4287 180.081C51.5557 179.649 51.7355 179.279 51.9683 178.97C52.2052 178.661 52.4909 178.424 52.8252 178.259C53.1595 178.09 53.5361 178.005 53.9551 178.005C54.3867 178.005 54.7633 178.081 55.085 178.233C55.4108 178.382 55.6859 178.599 55.9102 178.887C56.1387 179.171 56.3185 179.514 56.4497 179.916C56.5809 180.318 56.6719 180.772 56.7227 181.28V181.864C56.6761 182.368 56.5851 182.821 56.4497 183.223C56.3185 183.625 56.1387 183.967 55.9102 184.251C55.6859 184.535 55.4108 184.752 55.085 184.905C54.7591 185.053 54.3783 185.127 53.9424 185.127C53.5319 185.127 53.1595 185.04 52.8252 184.867C52.4951 184.693 52.2116 184.45 51.9746 184.137C51.7376 183.824 51.5557 183.455 51.4287 183.032C51.306 182.605 51.2446 182.141 51.2446 181.642ZM52.4189 181.509V181.642C52.4189 181.985 52.4528 182.306 52.5205 182.607C52.5924 182.907 52.7004 183.172 52.8442 183.4C52.9924 183.629 53.1807 183.809 53.4092 183.94C53.6377 184.067 53.9106 184.13 54.228 184.13C54.6174 184.13 54.939 184.048 55.1929 183.883C55.4468 183.718 55.6478 183.5 55.7959 183.229C55.9482 182.958 56.0667 182.664 56.1514 182.347V180.817C56.1048 180.584 56.0329 180.36 55.9355 180.144C55.8424 179.924 55.7197 179.729 55.5674 179.56C55.4193 179.387 55.2352 179.249 55.0151 179.147C54.7951 179.046 54.5369 178.995 54.2407 178.995C53.9191 178.995 53.6419 179.063 53.4092 179.198C53.1807 179.329 52.9924 179.511 52.8442 179.744C52.7004 179.973 52.5924 180.239 52.5205 180.544C52.4528 180.844 52.4189 181.166 52.4189 181.509ZM67.1519 182.664C67.1519 182.448 67.118 182.258 67.0503 182.093C66.9868 181.924 66.8726 181.771 66.7075 181.636C66.5467 181.5 66.3224 181.371 66.0347 181.249C65.7511 181.126 65.3914 181.001 64.9556 180.874C64.4985 180.739 64.0859 180.588 63.7178 180.423C63.3496 180.254 63.0343 180.062 62.772 179.846C62.5096 179.63 62.3086 179.382 62.1689 179.103C62.0293 178.824 61.9595 178.504 61.9595 178.145C61.9595 177.785 62.0335 177.453 62.1816 177.148C62.3298 176.843 62.5413 176.579 62.8164 176.354C63.0957 176.126 63.4279 175.948 63.813 175.821C64.1981 175.694 64.6276 175.631 65.1016 175.631C65.7956 175.631 66.3838 175.764 66.8662 176.031C67.3529 176.293 67.7231 176.638 67.9771 177.065C68.231 177.489 68.3579 177.941 68.3579 178.424H67.1392C67.1392 178.077 67.0651 177.77 66.917 177.503C66.7689 177.233 66.5446 177.021 66.2441 176.869C65.9437 176.712 65.5628 176.634 65.1016 176.634C64.6657 176.634 64.306 176.699 64.0225 176.831C63.7389 176.962 63.5273 177.139 63.3877 177.364C63.2523 177.588 63.1846 177.844 63.1846 178.132C63.1846 178.326 63.2248 178.504 63.3052 178.665C63.3898 178.822 63.5189 178.968 63.6924 179.103C63.8701 179.238 64.0944 179.363 64.3652 179.478C64.6403 179.592 64.9683 179.702 65.3491 179.808C65.8739 179.956 66.3267 180.121 66.7075 180.303C67.0884 180.485 67.4015 180.69 67.647 180.918C67.8966 181.143 68.0807 181.399 68.1992 181.687C68.3219 181.97 68.3833 182.292 68.3833 182.651C68.3833 183.028 68.3071 183.369 68.1548 183.673C68.0024 183.978 67.7845 184.238 67.501 184.454C67.2174 184.67 66.8768 184.837 66.479 184.956C66.0854 185.07 65.6453 185.127 65.1587 185.127C64.7313 185.127 64.3102 185.068 63.8955 184.949C63.485 184.831 63.1105 184.653 62.772 184.416C62.4377 184.179 62.1689 183.887 61.9658 183.54C61.7669 183.189 61.6675 182.783 61.6675 182.321H62.8862C62.8862 182.639 62.9476 182.912 63.0703 183.14C63.193 183.364 63.3602 183.551 63.5718 183.699C63.7876 183.847 64.0309 183.957 64.3018 184.029C64.5768 184.097 64.8625 184.13 65.1587 184.13C65.5861 184.13 65.9479 184.071 66.2441 183.953C66.5404 183.834 66.7646 183.665 66.917 183.445C67.0736 183.225 67.1519 182.965 67.1519 182.664ZM69.4561 181.642V181.496C69.4561 181.001 69.528 180.542 69.6719 180.119C69.8158 179.691 70.0231 179.321 70.2939 179.008C70.5648 178.69 70.8927 178.445 71.2778 178.271C71.6629 178.094 72.0946 178.005 72.5728 178.005C73.0552 178.005 73.4889 178.094 73.874 178.271C74.2633 178.445 74.5934 178.69 74.8643 179.008C75.1393 179.321 75.3488 179.691 75.4927 180.119C75.6366 180.542 75.7085 181.001 75.7085 181.496V181.642C75.7085 182.137 75.6366 182.596 75.4927 183.02C75.3488 183.443 75.1393 183.813 74.8643 184.13C74.5934 184.444 74.2655 184.689 73.8804 184.867C73.4995 185.04 73.0679 185.127 72.5854 185.127C72.103 185.127 71.6693 185.04 71.2842 184.867C70.8991 184.689 70.569 184.444 70.2939 184.13C70.0231 183.813 69.8158 183.443 69.6719 183.02C69.528 182.596 69.4561 182.137 69.4561 181.642ZM70.6304 181.496V181.642C70.6304 181.985 70.6706 182.309 70.751 182.613C70.8314 182.914 70.952 183.18 71.1128 183.413C71.2778 183.646 71.4831 183.83 71.7285 183.965C71.974 184.097 72.2596 184.162 72.5854 184.162C72.9071 184.162 73.1885 184.097 73.4297 183.965C73.6751 183.83 73.8783 183.646 74.0391 183.413C74.1999 183.18 74.3205 182.914 74.4009 182.613C74.4855 182.309 74.5278 181.985 74.5278 181.642V181.496C74.5278 181.158 74.4855 180.838 74.4009 180.538C74.3205 180.233 74.1978 179.964 74.0327 179.731C73.8719 179.494 73.6688 179.308 73.4233 179.173C73.1821 179.037 72.8986 178.97 72.5728 178.97C72.2511 178.97 71.9676 179.037 71.7222 179.173C71.481 179.308 71.2778 179.494 71.1128 179.731C70.952 179.964 70.8314 180.233 70.751 180.538C70.6706 180.838 70.6304 181.158 70.6304 181.496ZM76.8701 181.642V181.496C76.8701 181.001 76.9421 180.542 77.0859 180.119C77.2298 179.691 77.4372 179.321 77.708 179.008C77.9788 178.69 78.3068 178.445 78.6919 178.271C79.077 178.094 79.5086 178.005 79.9868 178.005C80.4692 178.005 80.903 178.094 81.2881 178.271C81.6774 178.445 82.0075 178.69 82.2783 179.008C82.5534 179.321 82.7629 179.691 82.9067 180.119C83.0506 180.542 83.1226 181.001 83.1226 181.496V181.642C83.1226 182.137 83.0506 182.596 82.9067 183.02C82.7629 183.443 82.5534 183.813 82.2783 184.13C82.0075 184.444 81.6795 184.689 81.2944 184.867C80.9136 185.04 80.4819 185.127 79.9995 185.127C79.5171 185.127 79.0833 185.04 78.6982 184.867C78.3132 184.689 77.9831 184.444 77.708 184.13C77.4372 183.813 77.2298 183.443 77.0859 183.02C76.9421 182.596 76.8701 182.137 76.8701 181.642ZM78.0444 181.496V181.642C78.0444 181.985 78.0846 182.309 78.165 182.613C78.2454 182.914 78.366 183.18 78.5269 183.413C78.6919 183.646 78.8971 183.83 79.1426 183.965C79.388 184.097 79.6737 184.162 79.9995 184.162C80.3211 184.162 80.6025 184.097 80.8438 183.965C81.0892 183.83 81.2923 183.646 81.4531 183.413C81.6139 183.18 81.7345 182.914 81.8149 182.613C81.8996 182.309 81.9419 181.985 81.9419 181.642V181.496C81.9419 181.158 81.8996 180.838 81.8149 180.538C81.7345 180.233 81.6118 179.964 81.4468 179.731C81.286 179.494 81.0828 179.308 80.8374 179.173C80.5962 179.037 80.3127 178.97 79.9868 178.97C79.6652 178.97 79.3817 179.037 79.1362 179.173C78.895 179.308 78.6919 179.494 78.5269 179.731C78.366 179.964 78.2454 180.233 78.165 180.538C78.0846 180.838 78.0444 181.158 78.0444 181.496ZM85.7695 179.598V185H84.5952V178.132H85.7061L85.7695 179.598ZM85.4902 181.306L85.0015 181.287C85.0057 180.817 85.0755 180.383 85.2109 179.985C85.3464 179.583 85.5368 179.234 85.7822 178.938C86.0277 178.642 86.3197 178.413 86.6582 178.252C87.001 178.087 87.3797 178.005 87.7944 178.005C88.133 178.005 88.4377 178.051 88.7085 178.145C88.9793 178.233 89.21 178.377 89.4004 178.576C89.5951 178.775 89.7432 179.033 89.8447 179.351C89.9463 179.664 89.9971 180.047 89.9971 180.5V185H88.8164V180.487C88.8164 180.127 88.7635 179.839 88.6577 179.624C88.5519 179.403 88.3975 179.245 88.1943 179.147C87.9912 179.046 87.7415 178.995 87.4453 178.995C87.1533 178.995 86.8867 179.056 86.6455 179.179C86.4085 179.302 86.2033 179.471 86.0298 179.687C85.8605 179.903 85.7272 180.15 85.6299 180.43C85.5368 180.705 85.4902 180.997 85.4902 181.306ZM91.7998 184.378C91.7998 184.179 91.8612 184.012 91.9839 183.876C92.1108 183.737 92.2928 183.667 92.5298 183.667C92.7668 183.667 92.9466 183.737 93.0693 183.876C93.1963 184.012 93.2598 184.179 93.2598 184.378C93.2598 184.573 93.1963 184.738 93.0693 184.873C92.9466 185.008 92.7668 185.076 92.5298 185.076C92.2928 185.076 92.1108 185.008 91.9839 184.873C91.8612 184.738 91.7998 184.573 91.7998 184.378ZM95.2275 184.378C95.2275 184.179 95.2889 184.012 95.4116 183.876C95.5386 183.737 95.7205 183.667 95.9575 183.667C96.1945 183.667 96.3743 183.737 96.4971 183.876C96.624 184.012 96.6875 184.179 96.6875 184.378C96.6875 184.573 96.624 184.738 96.4971 184.873C96.3743 185.008 96.1945 185.076 95.9575 185.076C95.7205 185.076 95.5386 185.008 95.4116 184.873C95.2889 184.738 95.2275 184.573 95.2275 184.378ZM98.6553 184.378C98.6553 184.179 98.7166 184.012 98.8394 183.876C98.9663 183.737 99.1483 183.667 99.3853 183.667C99.6222 183.667 99.8021 183.737 99.9248 183.876C100.052 184.012 100.115 184.179 100.115 184.378C100.115 184.573 100.052 184.738 99.9248 184.873C99.8021 185.008 99.6222 185.076 99.3853 185.076C99.1483 185.076 98.9663 185.008 98.8394 184.873C98.7166 184.738 98.6553 184.573 98.6553 184.378Z" fill="#E3DFD4"/>
<path d="M21.625 166.312V168H15.5781V166.312H21.625ZM16.2344 156.625V168H14.0859V156.625H16.2344ZM20.8359 161.32V162.969H15.5781V161.32H20.8359ZM21.6016 156.625V158.32H15.5781V156.625H21.6016ZM24.9844 161.352V168H22.9219V159.547H24.8594L24.9844 161.352ZM24.6562 163.469H24.0469C24.0521 162.854 24.1354 162.297 24.2969 161.797C24.4583 161.297 24.6849 160.867 24.9766 160.508C25.2734 160.148 25.625 159.872 26.0312 159.68C26.4375 159.487 26.8906 159.391 27.3906 159.391C27.7969 159.391 28.1641 159.448 28.4922 159.562C28.8203 159.677 29.1016 159.859 29.3359 160.109C29.5755 160.359 29.7578 160.688 29.8828 161.094C30.013 161.495 30.0781 161.99 30.0781 162.578V168H28V162.562C28 162.177 27.9427 161.872 27.8281 161.648C27.7188 161.424 27.5573 161.266 27.3438 161.172C27.1354 161.078 26.8776 161.031 26.5703 161.031C26.2526 161.031 25.974 161.096 25.7344 161.227C25.5 161.352 25.3021 161.526 25.1406 161.75C24.9844 161.974 24.8646 162.232 24.7812 162.523C24.6979 162.815 24.6562 163.13 24.6562 163.469ZM34.7031 166.438L36.6719 159.547H38.8281L35.9297 168H34.6172L34.7031 166.438ZM33.2656 159.547L35.2578 166.453L35.3281 168H34.0078L31.1016 159.547H33.2656ZM42.1016 159.547V168H40.0312V159.547H42.1016ZM39.8906 157.336C39.8906 157.029 39.9948 156.773 40.2031 156.57C40.4167 156.367 40.7031 156.266 41.0625 156.266C41.4219 156.266 41.7057 156.367 41.9141 156.57C42.1276 156.773 42.2344 157.029 42.2344 157.336C42.2344 157.638 42.1276 157.891 41.9141 158.094C41.7057 158.297 41.4219 158.398 41.0625 158.398C40.7031 158.398 40.4167 158.297 40.2031 158.094C39.9948 157.891 39.8906 157.638 39.8906 157.336ZM46.1328 161.273V168H44.0703V159.547H46.0234L46.1328 161.273ZM48.7031 159.492L48.6719 161.414C48.5573 161.393 48.4271 161.378 48.2812 161.367C48.1406 161.357 48.0078 161.352 47.8828 161.352C47.5651 161.352 47.2865 161.396 47.0469 161.484C46.8073 161.568 46.6068 161.69 46.4453 161.852C46.2891 162.013 46.1693 162.211 46.0859 162.445C46.0026 162.674 45.9557 162.935 45.9453 163.227L45.5 163.172C45.5 162.635 45.5547 162.138 45.6641 161.68C45.7734 161.221 45.9323 160.82 46.1406 160.477C46.349 160.133 46.6094 159.867 46.9219 159.68C47.2396 159.487 47.6042 159.391 48.0156 159.391C48.1302 159.391 48.2526 159.401 48.3828 159.422C48.5182 159.438 48.625 159.461 48.7031 159.492ZM49.25 163.859V163.695C49.25 163.076 49.3385 162.505 49.5156 161.984C49.6927 161.458 49.9505 161.003 50.2891 160.617C50.6276 160.232 51.0417 159.932 51.5312 159.719C52.0208 159.5 52.5781 159.391 53.2031 159.391C53.8385 159.391 54.401 159.5 54.8906 159.719C55.3854 159.932 55.8021 160.232 56.1406 160.617C56.4792 161.003 56.737 161.458 56.9141 161.984C57.0911 162.505 57.1797 163.076 57.1797 163.695V163.859C57.1797 164.474 57.0911 165.044 56.9141 165.57C56.737 166.091 56.4792 166.547 56.1406 166.938C55.8021 167.323 55.388 167.622 54.8984 167.836C54.4089 168.049 53.849 168.156 53.2188 168.156C52.5938 168.156 52.0339 168.049 51.5391 167.836C51.0443 167.622 50.6276 167.323 50.2891 166.938C49.9505 166.547 49.6927 166.091 49.5156 165.57C49.3385 165.044 49.25 164.474 49.25 163.859ZM51.3125 163.695V163.859C51.3125 164.229 51.349 164.576 51.4219 164.898C51.4948 165.221 51.6068 165.505 51.7578 165.75C51.9089 165.995 52.1042 166.188 52.3438 166.328C52.5885 166.464 52.8802 166.531 53.2188 166.531C53.5521 166.531 53.8385 166.464 54.0781 166.328C54.3177 166.188 54.513 165.995 54.6641 165.75C54.8203 165.505 54.9349 165.221 55.0078 164.898C55.0807 164.576 55.1172 164.229 55.1172 163.859V163.695C55.1172 163.331 55.0807 162.99 55.0078 162.672C54.9349 162.349 54.8203 162.065 54.6641 161.82C54.513 161.57 54.3151 161.375 54.0703 161.234C53.8307 161.089 53.5417 161.016 53.2031 161.016C52.8698 161.016 52.5833 161.089 52.3438 161.234C52.1042 161.375 51.9089 161.57 51.7578 161.82C51.6068 162.065 51.4948 162.349 51.4219 162.672C51.349 162.99 51.3125 163.331 51.3125 163.695ZM60.7031 161.352V168H58.6406V159.547H60.5781L60.7031 161.352ZM60.375 163.469H59.7656C59.7708 162.854 59.8542 162.297 60.0156 161.797C60.1771 161.297 60.4036 160.867 60.6953 160.508C60.9922 160.148 61.3438 159.872 61.75 159.68C62.1562 159.487 62.6094 159.391 63.1094 159.391C63.5156 159.391 63.8828 159.448 64.2109 159.562C64.5391 159.677 64.8203 159.859 65.0547 160.109C65.2943 160.359 65.4766 160.688 65.6016 161.094C65.7318 161.495 65.7969 161.99 65.7969 162.578V168H63.7188V162.562C63.7188 162.177 63.6615 161.872 63.5469 161.648C63.4375 161.424 63.276 161.266 63.0625 161.172C62.8542 161.078 62.5964 161.031 62.2891 161.031C61.9714 161.031 61.6927 161.096 61.4531 161.227C61.2188 161.352 61.0208 161.526 60.8594 161.75C60.7031 161.974 60.5833 162.232 60.5 162.523C60.4167 162.815 60.375 163.13 60.375 163.469ZM69.6719 161.281V168H67.6094V159.547H69.5547L69.6719 161.281ZM69.3672 163.469H68.7344C68.7344 162.88 68.8047 162.339 68.9453 161.844C69.0911 161.349 69.3047 160.919 69.5859 160.555C69.8672 160.185 70.2135 159.898 70.625 159.695C71.0417 159.492 71.5234 159.391 72.0703 159.391C72.4505 159.391 72.7995 159.448 73.1172 159.562C73.4349 159.672 73.7083 159.846 73.9375 160.086C74.1719 160.32 74.3516 160.628 74.4766 161.008C74.6016 161.383 74.6641 161.833 74.6641 162.359V168H72.6016V162.57C72.6016 162.174 72.5443 161.865 72.4297 161.641C72.3203 161.417 72.1615 161.26 71.9531 161.172C71.7448 161.078 71.4948 161.031 71.2031 161.031C70.8802 161.031 70.6016 161.096 70.3672 161.227C70.138 161.352 69.9479 161.526 69.7969 161.75C69.651 161.974 69.5417 162.232 69.4688 162.523C69.401 162.815 69.3672 163.13 69.3672 163.469ZM74.5078 163.086L73.6562 163.242C73.6615 162.711 73.7344 162.214 73.875 161.75C74.0156 161.281 74.2214 160.872 74.4922 160.523C74.7682 160.169 75.1094 159.893 75.5156 159.695C75.9271 159.492 76.401 159.391 76.9375 159.391C77.3542 159.391 77.7292 159.451 78.0625 159.57C78.401 159.685 78.6901 159.87 78.9297 160.125C79.1693 160.375 79.3516 160.701 79.4766 161.102C79.6068 161.503 79.6719 161.992 79.6719 162.57V168H77.5938V162.562C77.5938 162.151 77.5365 161.836 77.4219 161.617C77.3125 161.398 77.1536 161.247 76.9453 161.164C76.737 161.076 76.4922 161.031 76.2109 161.031C75.9245 161.031 75.6745 161.086 75.4609 161.195C75.2526 161.299 75.0755 161.445 74.9297 161.633C74.7891 161.82 74.6823 162.039 74.6094 162.289C74.5417 162.534 74.5078 162.799 74.5078 163.086ZM85.3203 168.156C84.6797 168.156 84.1042 168.052 83.5938 167.844C83.0833 167.635 82.6484 167.346 82.2891 166.977C81.9349 166.602 81.6615 166.167 81.4688 165.672C81.2812 165.172 81.1875 164.635 81.1875 164.062V163.75C81.1875 163.099 81.2812 162.508 81.4688 161.977C81.6562 161.44 81.9219 160.979 82.2656 160.594C82.6094 160.208 83.0208 159.911 83.5 159.703C83.9792 159.495 84.5078 159.391 85.0859 159.391C85.6849 159.391 86.2135 159.492 86.6719 159.695C87.1302 159.893 87.513 160.174 87.8203 160.539C88.1276 160.904 88.3594 161.341 88.5156 161.852C88.6719 162.357 88.75 162.917 88.75 163.531V164.398H82.125V162.977H86.7188V162.82C86.7083 162.492 86.6458 162.193 86.5312 161.922C86.4167 161.646 86.2396 161.427 86 161.266C85.7604 161.099 85.4505 161.016 85.0703 161.016C84.763 161.016 84.4948 161.083 84.2656 161.219C84.0417 161.349 83.8542 161.536 83.7031 161.781C83.5573 162.021 83.4479 162.307 83.375 162.641C83.3021 162.974 83.2656 163.344 83.2656 163.75V164.062C83.2656 164.417 83.3125 164.745 83.4062 165.047C83.5052 165.349 83.6484 165.612 83.8359 165.836C84.0286 166.055 84.2578 166.227 84.5234 166.352C84.7943 166.471 85.1016 166.531 85.4453 166.531C85.8776 166.531 86.2682 166.448 86.6172 166.281C86.9714 166.109 87.2786 165.857 87.5391 165.523L88.5781 166.602C88.401 166.862 88.1615 167.112 87.8594 167.352C87.5625 167.591 87.2031 167.786 86.7812 167.938C86.3594 168.083 85.8724 168.156 85.3203 168.156ZM92.1562 161.352V168H90.0938V159.547H92.0312L92.1562 161.352ZM91.8281 163.469H91.2188C91.224 162.854 91.3073 162.297 91.4688 161.797C91.6302 161.297 91.8568 160.867 92.1484 160.508C92.4453 160.148 92.7969 159.872 93.2031 159.68C93.6094 159.487 94.0625 159.391 94.5625 159.391C94.9688 159.391 95.3359 159.448 95.6641 159.562C95.9922 159.677 96.2734 159.859 96.5078 160.109C96.7474 160.359 96.9297 160.688 97.0547 161.094C97.1849 161.495 97.25 161.99 97.25 162.578V168H95.1719V162.562C95.1719 162.177 95.1146 161.872 95 161.648C94.8906 161.424 94.7292 161.266 94.5156 161.172C94.3073 161.078 94.0495 161.031 93.7422 161.031C93.4245 161.031 93.1458 161.096 92.9062 161.227C92.6719 161.352 92.474 161.526 92.3125 161.75C92.1562 161.974 92.0365 162.232 91.9531 162.523C91.8698 162.815 91.8281 163.13 91.8281 163.469ZM103.07 159.547V161.031H98.2266V159.547H103.07ZM99.5234 157.469H101.594V165.562C101.594 165.812 101.628 166.005 101.695 166.141C101.763 166.276 101.865 166.367 102 166.414C102.135 166.461 102.297 166.484 102.484 166.484C102.62 166.484 102.745 166.477 102.859 166.461C102.974 166.445 103.07 166.43 103.148 166.414L103.156 167.961C102.984 168.018 102.789 168.065 102.57 168.102C102.357 168.138 102.115 168.156 101.844 168.156C101.38 168.156 100.974 168.078 100.625 167.922C100.276 167.76 100.005 167.503 99.8125 167.148C99.6198 166.789 99.5234 166.315 99.5234 165.727V157.469ZM109.102 166.203V162.305C109.102 162.018 109.052 161.771 108.953 161.562C108.854 161.354 108.703 161.193 108.5 161.078C108.297 160.964 108.039 160.906 107.727 160.906C107.451 160.906 107.208 160.953 107 161.047C106.797 161.141 106.641 161.273 106.531 161.445C106.422 161.612 106.367 161.805 106.367 162.023H104.297C104.297 161.674 104.38 161.344 104.547 161.031C104.714 160.714 104.951 160.432 105.258 160.188C105.57 159.938 105.943 159.742 106.375 159.602C106.812 159.461 107.302 159.391 107.844 159.391C108.484 159.391 109.055 159.5 109.555 159.719C110.06 159.932 110.456 160.255 110.742 160.688C111.034 161.12 111.18 161.664 111.18 162.32V166.008C111.18 166.43 111.206 166.792 111.258 167.094C111.315 167.391 111.398 167.648 111.508 167.867V168H109.406C109.307 167.786 109.232 167.516 109.18 167.188C109.128 166.854 109.102 166.526 109.102 166.203ZM109.391 162.852L109.406 164.078H108.102C107.779 164.078 107.495 164.112 107.25 164.18C107.005 164.242 106.805 164.336 106.648 164.461C106.492 164.581 106.375 164.727 106.297 164.898C106.219 165.065 106.18 165.255 106.18 165.469C106.18 165.677 106.227 165.865 106.32 166.031C106.419 166.198 106.56 166.331 106.742 166.43C106.93 166.523 107.148 166.57 107.398 166.57C107.763 166.57 108.081 166.497 108.352 166.352C108.622 166.201 108.833 166.018 108.984 165.805C109.135 165.591 109.216 165.388 109.227 165.195L109.82 166.086C109.747 166.299 109.638 166.526 109.492 166.766C109.346 167.005 109.159 167.229 108.93 167.438C108.701 167.646 108.424 167.818 108.102 167.953C107.779 168.089 107.404 168.156 106.977 168.156C106.43 168.156 105.94 168.047 105.508 167.828C105.076 167.609 104.734 167.31 104.484 166.93C104.234 166.549 104.109 166.117 104.109 165.633C104.109 165.185 104.193 164.789 104.359 164.445C104.526 164.102 104.773 163.812 105.102 163.578C105.43 163.339 105.836 163.159 106.32 163.039C106.81 162.914 107.37 162.852 108 162.852H109.391ZM115.227 156V168H113.156V156H115.227Z" fill="#E3DFD4"/>
<path d="M47.4451 88.6051L61.7304 108.728L56.4344 124.949H39.296L34 108.728L47.4451 88.6051Z" fill="#7E9C92"/>
<path d="M36.7311 109.193L54.7979 122.428H41.1757L36.7311 109.193Z" fill="#6F8D83"/>
<path d="M45.3442 115.495L54.7978 122.428H41.1757L45.3442 115.495Z" fill="#587169"/>
<path d="M120.844 51.0723C114.303 52.8111 106.454 55.2284 100.139 58.1553C86.7144 64.3764 65.1045 82.7119 65.1045 82.7119C65.1045 82.7119 82.7859 71.9069 98.3926 62.9756C107.745 57.6237 122.266 54.4863 132.402 52.8311C133.225 53.3257 133.944 53.8578 134.525 54.3271C135.417 55.0461 136.155 55.7554 136.669 56.2832C136.928 56.5489 137.135 56.7739 137.281 56.9365C137.354 57.0178 137.413 57.0842 137.455 57.1328C137.476 57.1569 137.493 57.1772 137.506 57.1924C137.512 57.1999 137.518 57.2067 137.522 57.2119C137.524 57.2142 137.527 57.2159 137.528 57.2178C137.529 57.2188 137.531 57.2208 137.531 57.2217L137.532 57.2227C137.529 57.226 137.45 57.2916 135.614 58.8359L137.533 57.2227L139.464 59.5186L134.872 63.3818L132.94 61.085C132.937 61.0807 132.931 61.074 132.924 61.0654C132.903 61.0413 132.867 61.0006 132.818 60.9463C132.72 60.837 132.569 60.6726 132.373 60.4717C131.978 60.0659 131.417 59.5286 130.758 58.9971C129.301 57.8217 127.923 57.1335 126.965 57.1172C126.79 57.1142 126.624 57.1187 126.466 57.1279L103.305 94.4131L76.3047 100.278L47 88.874L59.1826 57.2676L103.305 42.2783L120.844 51.0723Z" fill="#6B9059"/>
<path d="M76.4215 96.3384L100.223 88.7861L127 56.2787L103.529 94.3682L76.4215 100.279L47 88.7861L76.4215 96.3384Z" fill="#2E4E30"/>
<rect x="62" y="16" width="74" height="12" rx="2" fill="#514E51" fill-opacity="0.2"/>
<rect x="141" y="16" width="12" height="12" rx="2" fill="#514E51" fill-opacity="0.2"/>
<rect x="62" y="16" width="74" height="12" rx="2" fill="#514E51" fill-opacity="0.2"/>
<rect x="141" y="16" width="12" height="12" rx="2" fill="#514E51" fill-opacity="0.2"/>
</svg>
