<svg width="100" height="100" viewBox="0 0 100 100" fill="none" xmlns="http://www.w3.org/2000/svg">
<path d="M91.6667 22.9166H37.5C32.9167 22.9166 29.1667 26.6666 29.1667 31.25V68.75C29.1667 70.9601 30.0446 73.0797 31.6074 74.6425C33.1702 76.2053 35.2899 77.0833 37.5 77.0833H91.6667C96.2917 77.0833 100 73.375 100 68.75V31.25C100 29.0398 99.122 26.9202 97.5592 25.3574C95.9964 23.7946 93.8768 22.9166 91.6667 22.9166ZM91.6667 38.2083L64.5833 52.0833L37.5 38.2083V31.25L64.5833 45.0416L91.6667 31.25V38.2083ZM20.8333 68.75C20.8333 69.4583 20.9583 70.125 21.0417 70.8333H4.16667C1.86667 70.8333 0 68.9583 0 66.6666C0 64.375 1.86667 62.5 4.16667 62.5H20.8333V68.75ZM12.5 29.1666H21.0417C20.9583 29.875 20.8333 30.5416 20.8333 31.25V37.5H12.5C10.2083 37.5 8.33333 35.625 8.33333 33.3333C8.33333 31.0416 10.2083 29.1666 12.5 29.1666ZM4.16667 50C4.16667 47.7083 6.04167 45.8333 8.33333 45.8333H20.8333V54.1666H8.33333C6.04167 54.1666 4.16667 52.2916 4.16667 50Z" fill="#FFBEF4"/>
</svg>
