<svg width="106" height="83" viewBox="0 0 106 83" fill="none" xmlns="http://www.w3.org/2000/svg">
<path d="M13.4451 46.3268L27.7304 66.4492L22.4344 82.6705H5.29604L0 66.4492L13.4451 46.3268Z" fill="#7E9C92"/>
<path d="M2.73102 66.9146L20.7978 80.1495H7.17569L2.73102 66.9146Z" fill="#6F8D83"/>
<path d="M11.3443 73.2169L20.7978 80.1495H7.17569L11.3443 73.2169Z" fill="#587169"/>
<path d="M86.8438 8.79395C80.3029 10.5327 72.4545 12.9501 66.1387 15.877C52.7144 22.0981 31.1045 40.4336 31.1045 40.4336C31.1045 40.4336 48.7859 29.6285 64.3926 20.6973C73.7447 15.3453 88.2656 12.208 98.4023 10.5527C99.2247 11.0474 99.9435 11.5794 100.525 12.0488C101.417 12.7677 102.155 13.4771 102.669 14.0049C102.928 14.2706 103.135 14.4956 103.281 14.6582C103.354 14.7395 103.413 14.8059 103.455 14.8545C103.476 14.8786 103.493 14.8989 103.506 14.9141C103.512 14.9216 103.518 14.9284 103.522 14.9336C103.524 14.9359 103.527 14.9376 103.528 14.9395C103.529 14.9405 103.531 14.9425 103.531 14.9434L103.532 14.9443C103.529 14.9477 103.449 15.0153 101.586 16.583L103.533 14.9443L105.464 17.2402L100.872 21.1035L98.9404 18.8066C98.9368 18.8024 98.9312 18.7956 98.9238 18.7871C98.9029 18.763 98.8672 18.7223 98.8184 18.668C98.7202 18.5587 98.5688 18.3943 98.373 18.1934C97.9776 17.7876 97.4166 17.2502 96.7578 16.7188C95.3008 15.5434 93.9228 14.8552 92.9648 14.8389C92.7902 14.8359 92.624 14.8403 92.4658 14.8496L69.3047 52.1348L42.3047 58L13 46.5957L25.1826 14.9893L69.3047 0L86.8438 8.79395Z" fill="#6B9059"/>
<path d="M42.4215 54.0601L66.2231 46.5078L93 14.0004L69.5289 52.0899L42.4215 58.0004L13 46.5078L42.4215 54.0601Z" fill="#2E4E30"/>
</svg>
