<svg width="120" height="94" viewBox="0 0 120 94" fill="none" xmlns="http://www.w3.org/2000/svg">
<path d="M15.2876 52.6755L31.5307 75.5556L25.5089 93.9999H6.02184L0 75.5556L15.2876 52.6755Z" fill="#C2C7BC"/>
<path d="M3.10498 76.0845L23.6477 91.1332H8.15877L3.10498 76.0845Z" fill="#ACB1A7"/>
<path d="M12.899 83.2507L23.6481 91.1334H8.15918L12.899 83.2507Z" fill="#93988F"/>
<path d="M98.7466 9.99902C91.3091 11.9761 82.3844 14.7246 75.2026 18.0527C59.9387 25.1264 35.3677 45.9746 35.3677 45.9746C35.3677 45.9746 55.4718 33.6884 73.2173 23.5332C83.6563 17.5594 99.7591 14.013 111.25 12.1045C112.337 12.717 113.288 13.4099 114.044 14.0205C115.042 14.8252 115.869 15.6202 116.446 16.2119C116.736 16.5093 116.967 16.7603 117.129 16.9414C117.211 17.0319 117.275 17.1056 117.322 17.1592C117.345 17.1859 117.364 17.2081 117.378 17.2246C117.385 17.2327 117.391 17.2396 117.396 17.2451C117.398 17.2479 117.401 17.2508 117.403 17.2529L117.405 17.2549L117.406 17.2568C117.405 17.2583 117.363 17.2944 115.895 18.5293L117.407 17.2578L119.337 19.5537L114.747 23.417L112.816 21.1221C112.812 21.1172 112.803 21.1073 112.791 21.0928C112.765 21.0636 112.724 21.015 112.667 20.9512C112.552 20.8232 112.375 20.6323 112.148 20.3994C111.69 19.9298 111.042 19.3074 110.277 18.6904C108.607 17.3435 106.947 16.4829 105.712 16.4619C105.606 16.4601 105.502 16.4608 105.401 16.4629L78.8032 59.2803L48.103 65.9492L14.7817 52.9814L28.6343 17.043L78.8032 0L98.7466 9.99902Z" fill="#93988F"/>
<path d="M48.2353 61.4686L75.2988 52.8814L105.745 15.9189L79.0576 59.2285L48.2353 65.9489L14.7817 52.8814L48.2353 61.4686Z" fill="#7A7F75"/>
</svg>
