<svg width="95" height="119" viewBox="0 0 95 119" fill="none" xmlns="http://www.w3.org/2000/svg">
<path d="M0.109863 12.0964L94.6821 12.2019L94.5827 119.009L0.0104748 118.904L0.109863 12.0964Z" fill="#93988F"/>
<path d="M0.0443921 75.0195L94.6101 86.4988L94.5787 119.005L0.00646779 118.904L0.0443921 75.0195Z" fill="#7A7F75"/>
<path d="M84.7136 82.5622L64.8995 102.336L9.91515 102.28L9.99805 20.9041L84.7763 20.9802L84.7136 82.5622Z" fill="#D9D9D9"/>
<path d="M47.4077 0.0480835C51.659 0.0524145 55.1024 3.50282 55.0981 7.75416C55.0981 7.78971 55.0976 7.82519 55.097 7.86061C55.0875 8.47888 55.5517 9.03679 56.17 9.03748L69.6759 9.05124C70.2282 9.05181 70.6754 9.49998 70.6749 10.0523L70.6625 22.1646C70.662 22.7168 70.2138 23.1641 69.6615 23.1635L24.1918 23.1172C23.6395 23.1167 23.1923 22.6685 23.1928 22.1162L23.2052 10.0039C23.2057 9.45162 23.6539 9.00436 24.2062 9.00492L38.6281 9.01961C39.2464 9.02018 39.7117 8.46321 39.7035 7.84493C39.703 7.8095 39.7026 7.77402 39.7026 7.73848C39.7069 3.48728 43.1566 0.043991 47.4077 0.0480835ZM47.4048 3.89672C45.5829 3.89486 44.1037 5.37037 44.1016 7.19218C44.0997 9.01419 45.576 10.4935 47.398 10.4953C49.2198 10.497 50.6984 9.02075 50.7002 7.1989C50.7019 5.37724 49.2264 3.89882 47.4048 3.89672Z" fill="#7A7F75"/>
<path d="M64.8917 82.4851L64.8916 102.336L9.99168 102.26L9.9917 76.48L64.8917 82.4851Z" fill="#C2C7BC"/>
<path d="M38.7471 45.0212L75.0364 45.0582" stroke="#93988F" stroke-width="3" stroke-linecap="square"/>
<path d="M20.0571 40.8467L24.1787 46.8231L32.4381 35.2849" stroke="#93988F" stroke-width="3" stroke-linecap="square" stroke-linejoin="round"/>
<path d="M38.7471 63.1592L75.0364 63.1961" stroke="#93988F" stroke-width="3" stroke-linecap="square"/>
<path d="M20.0571 58.9846L24.1787 64.9611L32.4381 53.4229" stroke="#93988F" stroke-width="3" stroke-linecap="square" stroke-linejoin="round"/>
<path d="M38.7471 81.2974L75.0364 81.3343" stroke="#93988F" stroke-width="3" stroke-linecap="square"/>
<path d="M20.0571 77.1228L24.1787 83.0993L32.4381 71.561" stroke="#93988F" stroke-width="3" stroke-linecap="square" stroke-linejoin="round"/>
<path d="M84.7129 82.5622L64.8988 102.336L64.9189 82.542L84.7129 82.5622Z" fill="#ACB1A7"/>
</svg>
