<svg width="71" height="71" viewBox="0 0 71 71" fill="none" xmlns="http://www.w3.org/2000/svg">
<rect width="71" height="71" rx="20" fill="white"/>
<path fill-rule="evenodd" clip-rule="evenodd" d="M36.7071 26.293C36.5196 26.1056 36.2652 26.0002 36.0001 26.0002C35.7349 26.0002 35.4806 26.1056 35.2931 26.293L28.2931 33.293L26.2931 35.293C26.1976 35.3853 26.1214 35.4956 26.069 35.6176C26.0166 35.7396 25.989 35.8709 25.9878 36.0036C25.9867 36.1364 26.012 36.2681 26.0623 36.391C26.1125 36.5139 26.1868 36.6255 26.2807 36.7194C26.3746 36.8133 26.4862 36.8876 26.6091 36.9379C26.732 36.9881 26.8637 37.0134 26.9965 37.0123C27.1293 37.0111 27.2605 36.9835 27.3825 36.9311C27.5045 36.8787 27.6148 36.8025 27.7071 36.707L28.0001 36.414V43C28.0001 43.7957 28.3162 44.5587 28.8788 45.1214C29.4414 45.684 30.2044 46 31.0001 46H41.0001C41.7957 46 42.5588 45.684 43.1214 45.1214C43.684 44.5587 44.0001 43.7957 44.0001 43V36.414L44.2931 36.707C44.4817 36.8892 44.7343 36.99 44.9965 36.9877C45.2587 36.9854 45.5095 36.8803 45.6949 36.6948C45.8803 36.5094 45.9855 36.2586 45.9878 35.9964C45.99 35.7342 45.8892 35.4816 45.7071 35.293L36.7071 26.293Z" fill="black"/>
</svg>
