<svg width="54" height="54" viewBox="0 0 54 54" fill="none" xmlns="http://www.w3.org/2000/svg">
<circle cx="27" cy="27" r="27" fill="#628B35"/>
<mask id="path-2-inside-1_172_55" fill="white">
<path d="M40.8408 20.8418V41.5479H30.4785C30.4922 41.4819 30.5 41.4137 30.5 41.3438V30.6162C30.4999 30.0641 30.0521 29.6164 29.5 29.6162H24.3408C23.7886 29.6162 23.341 30.064 23.3408 30.6162V41.3438C23.3408 41.4137 23.3486 41.4819 23.3623 41.5479H13V20.8418L26.9199 9.73047L40.8408 20.8418Z"/>
</mask>
<path d="M40.8408 20.8418H43.8408V19.3979L42.7123 18.4971L40.8408 20.8418ZM40.8408 41.5479V44.5479H43.8408V41.5479H40.8408ZM30.4785 41.5479L27.5412 40.9379L26.7915 44.5479H30.4785V41.5479ZM30.5 41.3438L33.5 41.3444V41.3438H30.5ZM30.5 30.6162L33.5 30.6162L33.5 30.6155L30.5 30.6162ZM29.5 29.6162L29.5008 26.6162H29.5V29.6162ZM23.3408 30.6162L20.3408 30.6155V30.6162H23.3408ZM23.3408 41.3438L20.3408 41.3438L20.3408 41.3444L23.3408 41.3438ZM23.3623 41.5479V44.5479H27.0496L26.2996 40.9376L23.3623 41.5479ZM13 41.5479H10V44.5479H13V41.5479ZM13 20.8418L11.1284 18.4972L10 19.3979V20.8418H13ZM26.9199 9.73047L28.7914 7.38578L26.9199 5.89196L25.0484 7.38584L26.9199 9.73047ZM40.8408 20.8418H37.8408V41.5479H40.8408H43.8408V20.8418H40.8408ZM40.8408 41.5479V38.5479H30.4785V41.5479V44.5479H40.8408V41.5479ZM30.4785 41.5479L33.4158 42.1578C33.4673 41.9099 33.4999 41.6371 33.5 41.3444L30.5 41.3438L27.5 41.3431C27.5 41.1904 27.5171 41.054 27.5412 40.9379L30.4785 41.5479ZM30.5 41.3438H33.5V30.6162H30.5H27.5V41.3438H30.5ZM30.5 30.6162L33.5 30.6155C33.4995 28.407 31.709 26.6168 29.5008 26.6162L29.5 29.6162L29.4992 32.6162C28.3951 32.6159 27.5003 31.7212 27.5 30.6169L30.5 30.6162ZM29.5 29.6162V26.6162H24.3408V29.6162V32.6162H29.5V29.6162ZM24.3408 29.6162V26.6162C22.1311 26.6162 20.3413 28.4077 20.3408 30.6155L23.3408 30.6162L26.3408 30.6169C26.3406 31.7203 25.4462 32.6162 24.3408 32.6162V29.6162ZM23.3408 30.6162H20.3408V41.3438H23.3408H26.3408V30.6162H23.3408ZM23.3408 41.3438L20.3408 41.3444C20.3409 41.637 20.3734 41.9098 20.425 42.1581L23.3623 41.5479L26.2996 40.9376C26.3238 41.054 26.3408 41.1905 26.3408 41.3431L23.3408 41.3438ZM23.3623 41.5479V38.5479H13V41.5479V44.5479H23.3623V41.5479ZM13 41.5479H16V20.8418H13H10V41.5479H13ZM13 20.8418L14.8716 23.1864L28.7915 12.0751L26.9199 9.73047L25.0484 7.38584L11.1284 18.4972L13 20.8418ZM26.9199 9.73047L25.0484 12.0752L38.9693 23.1865L40.8408 20.8418L42.7123 18.4971L28.7914 7.38578L26.9199 9.73047Z" fill="#EFEBE0" mask="url(#path-2-inside-1_172_55)"/>
</svg>
