<svg width="153" height="63" viewBox="0 0 153 63" fill="none" xmlns="http://www.w3.org/2000/svg">
<rect y="13" width="153" height="42" rx="6" fill="#B8B8B8"/>
<rect x="1" y="12.0377" width="151" height="40" rx="5" fill="#E3DFD4"/>
<rect x="6" y="16.0377" width="141" height="31" rx="4" fill="#EFEBE0"/>
<path d="M56 14.1765L40 14.1765L5 44.0377L5.00005 49.6766L16.5 49.6766L56 14.1765Z" fill="#E3DFD4"/>
<path d="M147.717 14.0377L150 49.0377H33.5L72 14.0377H147.717Z" fill="#E3DFD4"/>
<path d="M65.6162 35.5425V37H60.2622V35.5425H65.6162ZM60.7749 26.3359V37H58.9365V26.3359H60.7749ZM66.5244 33.1255V32.957C66.5244 32.3857 66.6074 31.856 66.7734 31.3677C66.9395 30.8745 67.1787 30.4473 67.4912 30.0859C67.8086 29.7197 68.1943 29.4365 68.6484 29.2363C69.1074 29.0312 69.625 28.9287 70.2012 28.9287C70.7822 28.9287 71.2998 29.0312 71.7539 29.2363C72.2129 29.4365 72.6011 29.7197 72.9185 30.0859C73.2358 30.4473 73.4775 30.8745 73.6436 31.3677C73.8096 31.856 73.8926 32.3857 73.8926 32.957V33.1255C73.8926 33.6968 73.8096 34.2266 73.6436 34.7148C73.4775 35.2031 73.2358 35.6304 72.9185 35.9966C72.6011 36.3579 72.2153 36.6411 71.7612 36.8462C71.3071 37.0464 70.792 37.1465 70.2158 37.1465C69.6348 37.1465 69.1147 37.0464 68.6558 36.8462C68.2017 36.6411 67.8159 36.3579 67.4985 35.9966C67.1812 35.6304 66.9395 35.2031 66.7734 34.7148C66.6074 34.2266 66.5244 33.6968 66.5244 33.1255ZM68.2896 32.957V33.1255C68.2896 33.4819 68.3262 33.8188 68.3994 34.1362C68.4727 34.4536 68.5874 34.7319 68.7437 34.9712C68.8999 35.2104 69.1001 35.3984 69.3442 35.5352C69.5884 35.6719 69.8789 35.7402 70.2158 35.7402C70.543 35.7402 70.8262 35.6719 71.0654 35.5352C71.3096 35.3984 71.5098 35.2104 71.666 34.9712C71.8223 34.7319 71.937 34.4536 72.0103 34.1362C72.0884 33.8188 72.1274 33.4819 72.1274 33.1255V32.957C72.1274 32.6055 72.0884 32.2734 72.0103 31.9609C71.937 31.6436 71.8198 31.3628 71.6587 31.1187C71.5024 30.8745 71.3022 30.6841 71.0581 30.5474C70.8188 30.4058 70.5332 30.335 70.2012 30.335C69.8691 30.335 69.5811 30.4058 69.3369 30.5474C69.0977 30.6841 68.8999 30.8745 68.7437 31.1187C68.5874 31.3628 68.4727 31.6436 68.3994 31.9609C68.3262 32.2734 68.2896 32.6055 68.2896 32.957ZM80.4478 29.0752H82.0518V36.7803C82.0518 37.4932 81.9004 38.0986 81.5977 38.5967C81.2949 39.0947 80.8726 39.4731 80.3306 39.7319C79.7886 39.9956 79.1611 40.1274 78.4482 40.1274C78.1455 40.1274 77.8086 40.0835 77.4375 39.9956C77.0713 39.9077 76.7148 39.7661 76.3682 39.5708C76.0264 39.3804 75.7407 39.1289 75.5112 38.8164L76.3389 37.7764C76.6221 38.1133 76.9346 38.3599 77.2764 38.5161C77.6182 38.6724 77.9771 38.7505 78.353 38.7505C78.7583 38.7505 79.1025 38.6748 79.3857 38.5234C79.6738 38.377 79.896 38.1597 80.0522 37.8716C80.2085 37.5835 80.2866 37.2319 80.2866 36.8169V30.8696L80.4478 29.0752ZM75.0645 33.1255V32.9717C75.0645 32.3711 75.1377 31.8242 75.2842 31.3311C75.4307 30.833 75.6406 30.4058 75.9141 30.0493C76.1875 29.688 76.5195 29.4121 76.9102 29.2217C77.3008 29.0264 77.7427 28.9287 78.2358 28.9287C78.7485 28.9287 79.1855 29.0215 79.5469 29.207C79.9131 29.3926 80.2183 29.6587 80.4624 30.0054C80.7065 30.3472 80.897 30.7573 81.0337 31.2358C81.1753 31.7095 81.2803 32.2368 81.3486 32.8179V33.3086C81.2852 33.875 81.1777 34.3926 81.0264 34.8613C80.875 35.3301 80.6748 35.7354 80.4258 36.0771C80.1768 36.4189 79.8691 36.6826 79.5029 36.8682C79.1416 37.0537 78.7144 37.1465 78.2212 37.1465C77.7378 37.1465 77.3008 37.0464 76.9102 36.8462C76.5244 36.646 76.1924 36.3652 75.9141 36.0039C75.6406 35.6426 75.4307 35.2178 75.2842 34.7295C75.1377 34.2363 75.0645 33.7017 75.0645 33.1255ZM76.8296 32.9717V33.1255C76.8296 33.4868 76.8638 33.8237 76.9321 34.1362C77.0054 34.4487 77.1152 34.7246 77.2617 34.9639C77.4131 35.1982 77.6035 35.3838 77.833 35.5205C78.0674 35.6523 78.3433 35.7183 78.6606 35.7183C79.0757 35.7183 79.415 35.6304 79.6787 35.4546C79.9473 35.2788 80.1523 35.042 80.2939 34.7441C80.4404 34.4414 80.543 34.1045 80.6016 33.7334V32.4077C80.5723 32.1196 80.5112 31.8511 80.4185 31.6021C80.3306 31.353 80.2109 31.1357 80.0596 30.9502C79.9082 30.7598 79.7178 30.6133 79.4883 30.5107C79.2588 30.4033 78.9878 30.3496 78.6753 30.3496C78.3579 30.3496 78.082 30.418 77.8477 30.5547C77.6133 30.6914 77.4204 30.8794 77.269 31.1187C77.1226 31.3579 77.0127 31.6362 76.9395 31.9536C76.8662 32.271 76.8296 32.6104 76.8296 32.9717ZM85.7725 29.0752V37H84V29.0752H85.7725ZM83.8828 26.9951C83.8828 26.7266 83.9707 26.5044 84.1465 26.3286C84.3271 26.1479 84.5762 26.0576 84.8936 26.0576C85.2061 26.0576 85.4526 26.1479 85.6333 26.3286C85.814 26.5044 85.9043 26.7266 85.9043 26.9951C85.9043 27.2588 85.814 27.4785 85.6333 27.6543C85.4526 27.8301 85.2061 27.918 84.8936 27.918C84.5762 27.918 84.3271 27.8301 84.1465 27.6543C83.9707 27.4785 83.8828 27.2588 83.8828 26.9951ZM89.4565 30.7671V37H87.6914V29.0752H89.354L89.4565 30.7671ZM89.1416 32.7446L88.5703 32.7373C88.5752 32.1758 88.6533 31.6606 88.8047 31.1919C88.9609 30.7231 89.1758 30.3203 89.4492 29.9834C89.7275 29.6465 90.0596 29.3877 90.4453 29.207C90.8311 29.0215 91.2607 28.9287 91.7344 28.9287C92.1152 28.9287 92.4595 28.9824 92.7671 29.0898C93.0796 29.1924 93.3457 29.3608 93.5654 29.5952C93.79 29.8296 93.9609 30.1348 94.0781 30.5107C94.1953 30.8818 94.2539 31.3384 94.2539 31.8804V37H92.4814V31.873C92.4814 31.4922 92.4253 31.1919 92.313 30.9722C92.2056 30.7476 92.0469 30.5889 91.8369 30.4961C91.6318 30.3984 91.3755 30.3496 91.0679 30.3496C90.7651 30.3496 90.4941 30.4131 90.2549 30.54C90.0156 30.667 89.813 30.8403 89.647 31.0601C89.4858 31.2798 89.3613 31.5337 89.2734 31.8218C89.1855 32.1099 89.1416 32.4175 89.1416 32.7446Z" fill="#2A262A"/>
</svg>
