<svg width="236" height="335" viewBox="0 0 236 335" fill="none" xmlns="http://www.w3.org/2000/svg">
<rect y="8" width="236" height="327" rx="29" fill="#439D93"/>
<path d="M70.1775 209.617L85.7939 194L149.555 257.762L157.404 281.227L133.939 273.378L70.1775 209.617Z" fill="#E3DFD4"/>
<path d="M134 273.512L145.5 262.012L157.5 281.512L134 273.512Z" fill="#CDC8BB"/>
<path d="M150 279.012L155 274.012L157.5 281.512L150 279.012Z" fill="#2A262A"/>
<path d="M85.8054 194.011L70.189 209.628L133.922 273.361L149.539 257.745L85.8054 194.011Z" fill="#2A262A"/>
<path d="M104.5 225.511L70.189 209.628L133.922 273.361L145.5 262.011L104.5 225.511Z" fill="#1D1A1D"/>
<rect x="139.296" y="194.397" width="22.085" height="97.9992" transform="rotate(45 139.296 194.397)" fill="#7E9C92"/>
<path d="M111.5 232.511L154.912 210.014L85.6165 279.309L74.0001 267.511L111.5 232.511Z" fill="#6F8D83"/>
<line x1="112.533" y1="236.569" x2="120.311" y2="244.347" stroke="#587169"/>
<line x1="111.079" y1="242.267" x2="116.736" y2="247.923" stroke="#587169"/>
<line x1="107.503" y1="245.842" x2="113.16" y2="251.499" stroke="#587169"/>
<line x1="103.928" y1="249.417" x2="109.585" y2="255.074" stroke="#587169"/>
<line x1="100.353" y1="252.993" x2="106.009" y2="258.65" stroke="#587169"/>
<line x1="94.6558" y1="254.447" x2="102.434" y2="262.225" stroke="#587169"/>
<line x1="93.2015" y1="260.144" x2="98.8583" y2="265.801" stroke="#587169"/>
<line x1="89.626" y1="263.72" x2="95.2829" y2="269.377" stroke="#587169"/>
<line x1="86.0503" y1="267.295" x2="91.7072" y2="272.952" stroke="#587169"/>
<line x1="82.4749" y1="270.871" x2="88.1317" y2="276.527" stroke="#587169"/>
<line x1="147.079" y1="206.354" x2="152.736" y2="212.011" stroke="#587169"/>
<line x1="143.503" y1="209.93" x2="149.16" y2="215.587" stroke="#587169"/>
<line x1="139.928" y1="213.505" x2="145.585" y2="219.162" stroke="#587169"/>
<line x1="136.353" y1="217.081" x2="142.009" y2="222.737" stroke="#587169"/>
<line x1="130.656" y1="218.535" x2="138.434" y2="226.313" stroke="#587169"/>
<line x1="129.201" y1="224.232" x2="134.858" y2="229.889" stroke="#587169"/>
<line x1="125.626" y1="227.807" x2="131.283" y2="233.464" stroke="#587169"/>
<line x1="122.051" y1="231.383" x2="127.707" y2="237.04" stroke="#587169"/>
<line x1="118.475" y1="234.958" x2="124.132" y2="240.615" stroke="#587169"/>
<rect x="10" y="33" width="216" height="86" rx="20" fill="#FFBEF4"/>
<path d="M70.624 56.008V56.488C70.112 56.504 69.728 56.568 69.472 56.68C69.216 56.776 69.04 56.968 68.944 57.256C68.864 57.528 68.824 57.96 68.824 58.552V70.456C68.824 71.032 68.864 71.464 68.944 71.752C69.04 72.04 69.216 72.232 69.472 72.328C69.728 72.424 70.112 72.488 70.624 72.52V73C70.176 72.968 69.608 72.952 68.92 72.952C68.248 72.936 67.56 72.928 66.856 72.928C66.088 72.928 65.368 72.936 64.696 72.952C64.024 72.952 63.48 72.968 63.064 73V72.52C63.608 72.488 64.016 72.424 64.288 72.328C64.576 72.232 64.768 72.04 64.864 71.752C64.96 71.464 65.008 71.032 65.008 70.456V57.472H65.176L59.224 73.024H58.84L52.36 57.568V69.064C52.36 69.944 52.408 70.624 52.504 71.104C52.6 71.568 52.808 71.904 53.128 72.112C53.464 72.304 53.984 72.44 54.688 72.52V73C54.384 72.968 53.984 72.952 53.488 72.952C52.992 72.936 52.528 72.928 52.096 72.928C51.728 72.928 51.352 72.936 50.968 72.952C50.584 72.952 50.264 72.968 50.008 73V72.52C50.52 72.44 50.904 72.304 51.16 72.112C51.416 71.92 51.584 71.608 51.664 71.176C51.76 70.728 51.808 70.12 51.808 69.352V58.552C51.808 57.96 51.76 57.528 51.664 57.256C51.584 56.968 51.408 56.776 51.136 56.68C50.88 56.568 50.504 56.504 50.008 56.488V56.008C50.264 56.024 50.584 56.04 50.968 56.056C51.352 56.072 51.728 56.08 52.096 56.08C52.784 56.08 53.456 56.072 54.112 56.056C54.784 56.04 55.376 56.024 55.888 56.008L60.928 68.176L60.328 68.728L65.152 56.08C65.424 56.08 65.704 56.08 65.992 56.08C66.28 56.08 66.568 56.08 66.856 56.08C67.56 56.08 68.248 56.072 68.92 56.056C69.608 56.04 70.176 56.024 70.624 56.008ZM75.1575 73.168C74.4375 73.168 73.8375 73.032 73.3575 72.76C72.8775 72.488 72.5255 72.128 72.3015 71.68C72.0775 71.216 71.9655 70.712 71.9655 70.168C71.9655 69.48 72.1175 68.92 72.4215 68.488C72.7415 68.056 73.1495 67.704 73.6455 67.432C74.1415 67.16 74.6615 66.936 75.2055 66.76C75.7655 66.584 76.2935 66.416 76.7895 66.256C77.3015 66.08 77.7095 65.88 78.0135 65.656C78.3335 65.416 78.4935 65.112 78.4935 64.744V62.872C78.4935 62.456 78.4215 62.088 78.2775 61.768C78.1495 61.432 77.9415 61.176 77.6535 61C77.3815 60.824 77.0215 60.736 76.5735 60.736C76.2535 60.736 75.9335 60.784 75.6135 60.88C75.2935 60.96 75.0295 61.104 74.8215 61.312C75.2695 61.472 75.6135 61.72 75.8535 62.056C76.1095 62.376 76.2375 62.744 76.2375 63.16C76.2375 63.704 76.0455 64.136 75.6615 64.456C75.2935 64.776 74.8535 64.936 74.3415 64.936C73.7655 64.936 73.3255 64.76 73.0215 64.408C72.7335 64.04 72.5895 63.6 72.5895 63.088C72.5895 62.624 72.7015 62.24 72.9255 61.936C73.1655 61.632 73.4935 61.344 73.9095 61.072C74.3575 60.816 74.8935 60.616 75.5175 60.472C76.1575 60.328 76.8455 60.256 77.5815 60.256C78.3175 60.256 78.9815 60.336 79.5735 60.496C80.1655 60.64 80.6615 60.912 81.0615 61.312C81.4295 61.68 81.6695 62.136 81.7815 62.68C81.8935 63.208 81.9495 63.88 81.9495 64.696V71.224C81.9495 71.624 81.9895 71.904 82.0695 72.064C82.1495 72.208 82.2855 72.28 82.4775 72.28C82.6215 72.28 82.7575 72.24 82.8855 72.16C83.0295 72.08 83.1815 71.984 83.3415 71.872L83.5815 72.28C83.2455 72.568 82.8535 72.792 82.4055 72.952C81.9735 73.096 81.4855 73.168 80.9415 73.168C80.3495 73.168 79.8775 73.088 79.5255 72.928C79.1735 72.752 78.9175 72.52 78.7575 72.232C78.6135 71.944 78.5415 71.608 78.5415 71.224C78.1575 71.832 77.6935 72.312 77.1495 72.664C76.6055 73 75.9415 73.168 75.1575 73.168ZM76.8615 71.632C77.1815 71.632 77.4695 71.56 77.7255 71.416C77.9975 71.256 78.2535 71 78.4935 70.648V65.728C78.3495 65.968 78.1495 66.184 77.8935 66.376C77.6375 66.568 77.3655 66.768 77.0775 66.976C76.7895 67.168 76.5095 67.384 76.2375 67.624C75.9815 67.864 75.7735 68.16 75.6135 68.512C75.4535 68.864 75.3735 69.288 75.3735 69.784C75.3735 70.408 75.5095 70.872 75.7815 71.176C76.0535 71.48 76.4135 71.632 76.8615 71.632ZM89.1394 56.656V60.592H91.9714V61.072H89.1394V70.768C89.1394 71.248 89.2274 71.592 89.4034 71.8C89.5794 71.992 89.8434 72.088 90.1954 72.088C90.4834 72.088 90.7714 71.984 91.0594 71.776C91.3474 71.552 91.6034 71.176 91.8274 70.648L92.2354 70.864C91.9794 71.584 91.5874 72.176 91.0594 72.64C90.5474 73.104 89.8434 73.336 88.9474 73.336C88.4194 73.336 87.9554 73.264 87.5554 73.12C87.1554 72.992 86.8194 72.792 86.5474 72.52C86.1954 72.168 85.9634 71.736 85.8514 71.224C85.7394 70.696 85.6834 70.016 85.6834 69.184V61.072H83.6674V60.592H85.6834V57.424C86.3554 57.424 86.9714 57.368 87.5314 57.256C88.1074 57.128 88.6434 56.928 89.1394 56.656ZM97.5769 54.232V62.488C97.9769 61.656 98.5129 61.08 99.1849 60.76C99.8729 60.424 100.641 60.256 101.489 60.256C102.177 60.256 102.729 60.344 103.145 60.52C103.561 60.68 103.889 60.904 104.129 61.192C104.401 61.496 104.593 61.888 104.705 62.368C104.833 62.848 104.897 63.496 104.897 64.312V70.768C104.897 71.44 105.009 71.896 105.233 72.136C105.473 72.376 105.873 72.496 106.433 72.496V73C106.129 72.984 105.665 72.968 105.041 72.952C104.433 72.92 103.841 72.904 103.265 72.904C102.641 72.904 102.033 72.92 101.441 72.952C100.865 72.968 100.433 72.984 100.145 73V72.496C100.625 72.496 100.961 72.376 101.153 72.136C101.345 71.896 101.441 71.44 101.441 70.768V63.304C101.441 62.904 101.401 62.56 101.321 62.272C101.241 61.968 101.089 61.736 100.865 61.576C100.657 61.4 100.353 61.312 99.9529 61.312C99.5209 61.312 99.1209 61.432 98.7529 61.672C98.4009 61.896 98.1129 62.216 97.8889 62.632C97.6809 63.048 97.5769 63.528 97.5769 64.072V70.768C97.5769 71.44 97.6729 71.896 97.8649 72.136C98.0569 72.376 98.3929 72.496 98.8729 72.496V73C98.5849 72.984 98.1609 72.968 97.6009 72.952C97.0409 72.92 96.4729 72.904 95.8969 72.904C95.2729 72.904 94.6409 72.92 94.0009 72.952C93.3769 72.968 92.9049 72.984 92.5849 73V72.496C93.1449 72.496 93.5369 72.376 93.7609 72.136C94.0009 71.896 94.1209 71.44 94.1209 70.768V57.112C94.1209 56.392 94.0089 55.864 93.7849 55.528C93.5769 55.176 93.1769 55 92.5849 55V54.496C93.0969 54.544 93.5929 54.568 94.0729 54.568C94.7289 54.568 95.3529 54.544 95.9449 54.496C96.5369 54.432 97.0809 54.344 97.5769 54.232ZM113.498 60.256C114.906 60.256 116.01 60.672 116.81 61.504C117.61 62.336 118.01 63.696 118.01 65.584H110.114L110.066 65.128H114.986C115.002 64.344 114.954 63.624 114.842 62.968C114.73 62.296 114.554 61.76 114.314 61.36C114.074 60.96 113.754 60.76 113.354 60.76C112.794 60.76 112.314 61.112 111.914 61.816C111.53 62.52 111.298 63.688 111.218 65.32L111.29 65.464C111.274 65.656 111.258 65.856 111.242 66.064C111.242 66.272 111.242 66.488 111.242 66.712C111.242 67.816 111.394 68.712 111.698 69.4C112.018 70.088 112.418 70.592 112.898 70.912C113.378 71.216 113.866 71.368 114.362 71.368C114.698 71.368 115.042 71.32 115.394 71.224C115.762 71.112 116.13 70.92 116.498 70.648C116.866 70.36 117.21 69.96 117.53 69.448L117.962 69.592C117.77 70.2 117.466 70.792 117.05 71.368C116.634 71.944 116.106 72.416 115.466 72.784C114.826 73.152 114.058 73.336 113.162 73.336C112.074 73.336 111.114 73.104 110.282 72.64C109.45 72.176 108.794 71.472 108.314 70.528C107.85 69.584 107.618 68.384 107.618 66.928C107.618 65.44 107.866 64.2 108.362 63.208C108.874 62.216 109.57 61.48 110.45 61C111.346 60.504 112.362 60.256 113.498 60.256ZM127.972 60.256C128.644 60.256 129.188 60.344 129.604 60.52C130.02 60.68 130.356 60.904 130.612 61.192C130.868 61.496 131.052 61.896 131.164 62.392C131.276 62.872 131.332 63.512 131.332 64.312V70.768C131.332 71.44 131.436 71.896 131.644 72.136C131.852 72.376 132.212 72.496 132.724 72.496V73C132.436 72.984 131.996 72.968 131.404 72.952C130.828 72.92 130.26 72.904 129.7 72.904C129.124 72.904 128.556 72.92 127.996 72.952C127.436 72.968 127.012 72.984 126.724 73V72.496C127.156 72.496 127.452 72.376 127.612 72.136C127.788 71.896 127.876 71.44 127.876 70.768V63.304C127.876 62.904 127.844 62.56 127.78 62.272C127.716 61.968 127.588 61.736 127.396 61.576C127.22 61.4 126.948 61.312 126.58 61.312C126.164 61.312 125.78 61.432 125.428 61.672C125.076 61.912 124.788 62.248 124.564 62.68C124.356 63.096 124.252 63.568 124.252 64.096V70.768C124.252 71.44 124.34 71.896 124.516 72.136C124.692 72.376 124.988 72.496 125.404 72.496V73C125.148 72.984 124.748 72.968 124.204 72.952C123.676 72.92 123.132 72.904 122.572 72.904C121.964 72.904 121.34 72.92 120.7 72.952C120.06 72.968 119.58 72.984 119.26 73V72.496C119.82 72.496 120.212 72.376 120.436 72.136C120.676 71.896 120.796 71.44 120.796 70.768V63.208C120.796 62.488 120.684 61.96 120.46 61.624C120.252 61.272 119.852 61.096 119.26 61.096V60.592C119.772 60.64 120.268 60.664 120.748 60.664C121.42 60.664 122.044 60.64 122.62 60.592C123.212 60.528 123.756 60.44 124.252 60.328V62.488C124.636 61.688 125.156 61.12 125.812 60.784C126.468 60.432 127.188 60.256 127.972 60.256ZM135.196 60.256C135.868 60.256 136.412 60.344 136.828 60.52C137.244 60.68 137.58 60.904 137.836 61.192C138.092 61.496 138.276 61.896 138.388 62.392C138.5 62.872 138.556 63.512 138.556 64.312V70.768C138.556 71.44 138.668 71.896 138.892 72.136C139.132 72.376 139.532 72.496 140.092 72.496V73C139.788 72.984 139.332 72.968 138.724 72.952C138.116 72.92 137.516 72.904 136.924 72.904C136.348 72.904 135.78 72.92 135.22 72.952C134.66 72.968 134.236 72.984 133.948 73V72.496C134.38 72.496 134.676 72.376 134.836 72.136C135.012 71.896 135.1 71.44 135.1 70.768V63.304C135.1 62.904 135.06 62.56 134.98 62.272C134.916 61.968 134.78 61.736 134.572 61.576C134.38 61.4 134.076 61.312 133.66 61.312C133.244 61.312 132.86 61.44 132.508 61.696C132.156 61.952 131.868 62.296 131.644 62.728C131.436 63.16 131.324 63.64 131.308 64.168L131.188 62.704C131.62 61.744 132.188 61.096 132.892 60.76C133.612 60.424 134.38 60.256 135.196 60.256ZM144.298 73.168C143.578 73.168 142.978 73.032 142.498 72.76C142.018 72.488 141.666 72.128 141.442 71.68C141.218 71.216 141.106 70.712 141.106 70.168C141.106 69.48 141.258 68.92 141.562 68.488C141.882 68.056 142.29 67.704 142.786 67.432C143.282 67.16 143.802 66.936 144.346 66.76C144.906 66.584 145.434 66.416 145.93 66.256C146.442 66.08 146.85 65.88 147.154 65.656C147.474 65.416 147.634 65.112 147.634 64.744V62.872C147.634 62.456 147.562 62.088 147.418 61.768C147.29 61.432 147.082 61.176 146.794 61C146.522 60.824 146.162 60.736 145.714 60.736C145.394 60.736 145.074 60.784 144.754 60.88C144.434 60.96 144.17 61.104 143.962 61.312C144.41 61.472 144.754 61.72 144.994 62.056C145.25 62.376 145.378 62.744 145.378 63.16C145.378 63.704 145.186 64.136 144.802 64.456C144.434 64.776 143.994 64.936 143.482 64.936C142.906 64.936 142.466 64.76 142.162 64.408C141.874 64.04 141.73 63.6 141.73 63.088C141.73 62.624 141.842 62.24 142.066 61.936C142.306 61.632 142.634 61.344 143.05 61.072C143.498 60.816 144.034 60.616 144.658 60.472C145.298 60.328 145.986 60.256 146.722 60.256C147.458 60.256 148.122 60.336 148.714 60.496C149.306 60.64 149.802 60.912 150.202 61.312C150.57 61.68 150.81 62.136 150.922 62.68C151.034 63.208 151.09 63.88 151.09 64.696V71.224C151.09 71.624 151.13 71.904 151.21 72.064C151.29 72.208 151.426 72.28 151.618 72.28C151.762 72.28 151.898 72.24 152.026 72.16C152.17 72.08 152.322 71.984 152.482 71.872L152.722 72.28C152.386 72.568 151.994 72.792 151.546 72.952C151.114 73.096 150.626 73.168 150.082 73.168C149.49 73.168 149.018 73.088 148.666 72.928C148.314 72.752 148.058 72.52 147.898 72.232C147.754 71.944 147.682 71.608 147.682 71.224C147.298 71.832 146.834 72.312 146.29 72.664C145.746 73 145.082 73.168 144.298 73.168ZM146.002 71.632C146.322 71.632 146.61 71.56 146.866 71.416C147.138 71.256 147.394 71 147.634 70.648V65.728C147.49 65.968 147.29 66.184 147.034 66.376C146.778 66.568 146.506 66.768 146.218 66.976C145.93 67.168 145.65 67.384 145.378 67.624C145.122 67.864 144.914 68.16 144.754 68.512C144.594 68.864 144.514 69.288 144.514 69.784C144.514 70.408 144.65 70.872 144.922 71.176C145.194 71.48 145.554 71.632 146.002 71.632ZM158.28 56.656V60.592H161.112V61.072H158.28V70.768C158.28 71.248 158.368 71.592 158.544 71.8C158.72 71.992 158.984 72.088 159.336 72.088C159.624 72.088 159.912 71.984 160.2 71.776C160.488 71.552 160.744 71.176 160.968 70.648L161.376 70.864C161.12 71.584 160.728 72.176 160.2 72.64C159.688 73.104 158.984 73.336 158.088 73.336C157.56 73.336 157.096 73.264 156.696 73.12C156.296 72.992 155.96 72.792 155.688 72.52C155.336 72.168 155.104 71.736 154.992 71.224C154.88 70.696 154.824 70.016 154.824 69.184V61.072H152.808V60.592H154.824V57.424C155.496 57.424 156.112 57.368 156.672 57.256C157.248 57.128 157.784 56.928 158.28 56.656ZM164.966 54.4C165.638 54.4 166.166 54.568 166.55 54.904C166.95 55.224 167.15 55.672 167.15 56.248C167.15 56.824 166.95 57.28 166.55 57.616C166.166 57.936 165.638 58.096 164.966 58.096C164.294 58.096 163.758 57.936 163.358 57.616C162.974 57.28 162.782 56.824 162.782 56.248C162.782 55.672 162.974 55.224 163.358 54.904C163.758 54.568 164.294 54.4 164.966 54.4ZM166.838 60.328V70.768C166.838 71.44 166.95 71.896 167.174 72.136C167.414 72.376 167.814 72.496 168.374 72.496V73C168.086 72.984 167.638 72.968 167.03 72.952C166.422 72.92 165.806 72.904 165.182 72.904C164.558 72.904 163.926 72.92 163.286 72.952C162.646 72.968 162.166 72.984 161.846 73V72.496C162.406 72.496 162.798 72.376 163.022 72.136C163.262 71.896 163.382 71.44 163.382 70.768V63.208C163.382 62.488 163.27 61.96 163.046 61.624C162.838 61.272 162.438 61.096 161.846 61.096V60.592C162.358 60.64 162.854 60.664 163.334 60.664C164.006 60.664 164.63 60.64 165.206 60.592C165.798 60.528 166.342 60.44 166.838 60.328ZM175.656 60.256C176.28 60.256 176.848 60.328 177.36 60.472C177.888 60.6 178.32 60.768 178.656 60.976C179.072 61.232 179.392 61.552 179.616 61.936C179.856 62.304 179.976 62.736 179.976 63.232C179.976 63.792 179.8 64.256 179.448 64.624C179.096 64.976 178.64 65.152 178.08 65.152C177.52 65.152 177.072 64.992 176.736 64.672C176.4 64.352 176.232 63.92 176.232 63.376C176.232 62.864 176.392 62.44 176.712 62.104C177.032 61.752 177.4 61.52 177.816 61.408C177.688 61.248 177.496 61.112 177.24 61C176.984 60.888 176.696 60.832 176.376 60.832C175.88 60.832 175.44 60.976 175.056 61.264C174.688 61.552 174.376 61.952 174.12 62.464C173.864 62.976 173.664 63.576 173.52 64.264C173.392 64.952 173.328 65.704 173.328 66.52C173.328 67.752 173.48 68.72 173.784 69.424C174.104 70.128 174.504 70.624 174.984 70.912C175.48 71.2 175.992 71.344 176.52 71.344C176.824 71.344 177.152 71.296 177.504 71.2C177.872 71.104 178.24 70.912 178.608 70.624C178.992 70.336 179.344 69.928 179.664 69.4L180.072 69.544C179.896 70.136 179.608 70.728 179.208 71.32C178.808 71.912 178.288 72.4 177.648 72.784C177.008 73.152 176.224 73.336 175.296 73.336C174.256 73.336 173.312 73.112 172.464 72.664C171.632 72.2 170.96 71.496 170.448 70.552C169.952 69.592 169.704 68.36 169.704 66.856C169.704 65.416 169.96 64.208 170.472 63.232C171 62.24 171.712 61.496 172.608 61C173.504 60.504 174.52 60.256 175.656 60.256ZM186.074 60.256C186.746 60.256 187.33 60.344 187.826 60.52C188.338 60.68 188.706 60.84 188.93 61C189.474 61.368 189.81 61.128 189.938 60.28H190.442C190.41 60.728 190.386 61.28 190.37 61.936C190.354 62.576 190.346 63.432 190.346 64.504H189.842C189.762 63.912 189.61 63.328 189.386 62.752C189.162 62.176 188.834 61.704 188.402 61.336C187.986 60.968 187.442 60.784 186.77 60.784C186.306 60.784 185.914 60.92 185.594 61.192C185.274 61.448 185.114 61.824 185.114 62.32C185.114 62.8 185.258 63.224 185.546 63.592C185.834 63.944 186.202 64.288 186.65 64.624C187.114 64.944 187.594 65.288 188.09 65.656C188.618 66.056 189.098 66.456 189.53 66.856C189.962 67.24 190.306 67.664 190.562 68.128C190.818 68.592 190.946 69.144 190.946 69.784C190.946 70.504 190.738 71.136 190.322 71.68C189.906 72.208 189.354 72.616 188.666 72.904C187.994 73.192 187.242 73.336 186.41 73.336C185.93 73.336 185.498 73.288 185.114 73.192C184.746 73.096 184.426 72.976 184.154 72.832C183.946 72.736 183.746 72.648 183.554 72.568C183.378 72.472 183.21 72.392 183.05 72.328C182.89 72.28 182.746 72.336 182.618 72.496C182.506 72.656 182.418 72.88 182.354 73.168H181.85C181.882 72.656 181.906 72.032 181.922 71.296C181.938 70.56 181.946 69.584 181.946 68.368H182.45C182.546 69.232 182.722 70 182.978 70.672C183.234 71.328 183.578 71.848 184.01 72.232C184.458 72.6 185.018 72.784 185.69 72.784C185.962 72.784 186.226 72.728 186.482 72.616C186.738 72.504 186.946 72.32 187.106 72.064C187.282 71.808 187.37 71.48 187.37 71.08C187.37 70.376 187.138 69.792 186.674 69.328C186.226 68.864 185.65 68.36 184.946 67.816C184.434 67.4 183.946 66.992 183.482 66.592C183.034 66.176 182.666 65.728 182.378 65.248C182.09 64.752 181.946 64.192 181.946 63.568C181.946 62.848 182.138 62.24 182.522 61.744C182.906 61.248 183.41 60.88 184.034 60.64C184.674 60.384 185.354 60.256 186.074 60.256ZM95.3008 95.712L95.7328 95.832C95.6048 96.712 95.4048 97.464 95.1328 98.088C94.8608 98.728 94.5088 99.224 94.0768 99.576C93.7408 99.848 93.3008 100.072 92.7568 100.248C92.2288 100.424 91.6368 100.512 90.9808 100.512C90.1008 100.512 89.2368 100.376 88.3888 100.104C87.5568 99.832 86.7088 99.496 85.8448 99.096C84.9808 98.712 84.0688 98.336 83.1088 97.968C82.9968 97.936 82.8848 97.896 82.7728 97.848C82.6768 97.816 82.5968 97.8 82.5328 97.8C82.2288 97.944 81.8928 98.064 81.5248 98.16C81.1728 98.256 80.8368 98.304 80.5168 98.304C80.1968 98.304 79.9248 98.256 79.7008 98.16C79.4928 98.064 79.3888 97.904 79.3888 97.68C79.3888 97.248 79.8288 97.032 80.7088 97.032C81.2688 97.032 81.8768 97.144 82.5328 97.368C83.1248 97.208 83.6288 97.024 84.0448 96.816C84.4768 96.624 84.9168 96.44 85.3648 96.264C85.8288 96.088 86.3888 95.976 87.0448 95.928L87.0688 96.312C86.5568 96.36 86.1168 96.448 85.7488 96.576C85.3968 96.72 85.0368 96.872 84.6688 97.032C84.3008 97.192 83.8688 97.344 83.3728 97.488C84.5088 97.568 85.5648 97.648 86.5408 97.728C87.5168 97.824 88.4208 97.88 89.2528 97.896C90.0848 97.928 90.8368 97.896 91.5088 97.8C92.5008 97.688 93.2848 97.472 93.8608 97.152C94.4368 96.832 94.9168 96.352 95.3008 95.712ZM86.4928 78.672C88.1888 78.672 89.6688 79.016 90.9328 79.704C92.2128 80.392 93.2048 81.384 93.9088 82.68C94.6128 83.96 94.9648 85.52 94.9648 87.36C94.9648 89.152 94.6048 90.72 93.8848 92.064C93.1648 93.408 92.1568 94.456 90.8608 95.208C89.5808 95.96 88.1168 96.336 86.4688 96.336C84.7728 96.336 83.2848 95.992 82.0048 95.304C80.7408 94.616 79.7568 93.624 79.0528 92.328C78.3488 91.032 77.9968 89.472 77.9968 87.648C77.9968 85.856 78.3568 84.288 79.0768 82.944C79.8128 81.6 80.8128 80.552 82.0768 79.8C83.3568 79.048 84.8288 78.672 86.4928 78.672ZM86.3968 79.104C85.5008 79.104 84.7168 79.464 84.0448 80.184C83.3888 80.904 82.8768 81.896 82.5088 83.16C82.1568 84.424 81.9808 85.888 81.9808 87.552C81.9808 89.248 82.1808 90.728 82.5808 91.992C82.9968 93.24 83.5488 94.208 84.2368 94.896C84.9408 95.568 85.7168 95.904 86.5648 95.904C87.4608 95.904 88.2368 95.544 88.8928 94.824C89.5648 94.104 90.0768 93.112 90.4288 91.848C90.7968 90.568 90.9808 89.104 90.9808 87.456C90.9808 85.744 90.7728 84.264 90.3568 83.016C89.9568 81.768 89.4048 80.808 88.7008 80.136C88.0128 79.448 87.2448 79.104 86.3968 79.104ZM108.524 83.328V93.384C108.524 94.104 108.636 94.64 108.86 94.992C109.084 95.328 109.484 95.496 110.06 95.496V96C109.564 95.952 109.068 95.928 108.572 95.928C107.9 95.928 107.276 95.952 106.7 96C106.124 96.048 105.58 96.136 105.068 96.264V94.104C104.684 94.904 104.148 95.48 103.46 95.832C102.788 96.168 102.036 96.336 101.204 96.336C100.532 96.336 99.9881 96.248 99.5721 96.072C99.1561 95.896 98.8281 95.672 98.5881 95.4C98.3161 95.096 98.1241 94.696 98.0121 94.2C97.9001 93.704 97.8441 93.064 97.8441 92.28V86.208C97.8441 85.488 97.7321 84.96 97.5081 84.624C97.3001 84.272 96.9001 84.096 96.3081 84.096V83.592C96.8201 83.64 97.3161 83.664 97.7961 83.664C98.4681 83.664 99.0921 83.64 99.6681 83.592C100.26 83.528 100.804 83.44 101.3 83.328V93.264C101.3 93.664 101.332 94.016 101.396 94.32C101.476 94.624 101.62 94.864 101.828 95.04C102.036 95.2 102.34 95.28 102.74 95.28C103.172 95.28 103.556 95.16 103.892 94.92C104.244 94.68 104.524 94.352 104.732 93.936C104.956 93.504 105.068 93.024 105.068 92.496V86.208C105.068 85.488 104.956 84.96 104.732 84.624C104.524 84.272 104.124 84.096 103.532 84.096V83.592C104.044 83.64 104.54 83.664 105.02 83.664C105.692 83.664 106.316 83.64 106.892 83.592C107.484 83.528 108.028 83.44 108.524 83.328ZM114.247 77.4C114.919 77.4 115.447 77.568 115.831 77.904C116.231 78.224 116.431 78.672 116.431 79.248C116.431 79.824 116.231 80.28 115.831 80.616C115.447 80.936 114.919 81.096 114.247 81.096C113.575 81.096 113.039 80.936 112.639 80.616C112.255 80.28 112.063 79.824 112.063 79.248C112.063 78.672 112.255 78.224 112.639 77.904C113.039 77.568 113.575 77.4 114.247 77.4ZM116.119 83.328V93.768C116.119 94.44 116.231 94.896 116.455 95.136C116.695 95.376 117.095 95.496 117.655 95.496V96C117.367 95.984 116.919 95.968 116.311 95.952C115.703 95.92 115.087 95.904 114.463 95.904C113.839 95.904 113.207 95.92 112.567 95.952C111.927 95.968 111.447 95.984 111.127 96V95.496C111.687 95.496 112.079 95.376 112.303 95.136C112.543 94.896 112.663 94.44 112.663 93.768V86.208C112.663 85.488 112.551 84.96 112.327 84.624C112.119 84.272 111.719 84.096 111.127 84.096V83.592C111.639 83.64 112.135 83.664 112.615 83.664C113.287 83.664 113.911 83.64 114.487 83.592C115.079 83.528 115.623 83.44 116.119 83.328ZM128.777 83.472L122.777 95.64H124.025C124.649 95.64 125.233 95.512 125.777 95.256C126.337 94.984 126.801 94.536 127.169 93.912C127.553 93.288 127.785 92.432 127.865 91.344H128.369C128.369 92.512 128.377 93.472 128.393 94.224C128.409 94.96 128.433 95.584 128.465 96.096C127.745 96.064 126.993 96.04 126.209 96.024C125.425 96.008 124.641 96 123.857 96C123.041 96 122.201 96.008 121.337 96.024C120.473 96.056 119.649 96.088 118.865 96.12L124.865 83.952H123.521C122.881 83.952 122.289 84.088 121.745 84.36C121.217 84.616 120.777 85.064 120.425 85.704C120.089 86.328 119.873 87.176 119.777 88.248H119.273C119.273 87.064 119.265 86.104 119.249 85.368C119.233 84.632 119.209 84.008 119.177 83.496C119.913 83.528 120.673 83.552 121.457 83.568C122.241 83.584 123.017 83.592 123.785 83.592C124.617 83.592 125.457 83.584 126.305 83.568C127.169 83.536 127.993 83.504 128.777 83.472ZM140.144 83.472L134.144 95.64H135.392C136.016 95.64 136.6 95.512 137.144 95.256C137.704 94.984 138.168 94.536 138.536 93.912C138.92 93.288 139.152 92.432 139.232 91.344H139.736C139.736 92.512 139.744 93.472 139.76 94.224C139.776 94.96 139.8 95.584 139.832 96.096C139.112 96.064 138.36 96.04 137.576 96.024C136.792 96.008 136.008 96 135.224 96C134.408 96 133.568 96.008 132.704 96.024C131.84 96.056 131.016 96.088 130.232 96.12L136.232 83.952H134.888C134.248 83.952 133.656 84.088 133.112 84.36C132.584 84.616 132.144 85.064 131.792 85.704C131.456 86.328 131.24 87.176 131.144 88.248H130.64C130.64 87.064 130.632 86.104 130.616 85.368C130.6 84.632 130.576 84.008 130.544 83.496C131.28 83.528 132.04 83.552 132.824 83.568C133.608 83.584 134.384 83.592 135.152 83.592C135.984 83.592 136.824 83.584 137.672 83.568C138.536 83.536 139.36 83.504 140.144 83.472ZM147.623 83.256C149.031 83.256 150.135 83.672 150.935 84.504C151.735 85.336 152.135 86.696 152.135 88.584H144.239L144.191 88.128H149.111C149.127 87.344 149.079 86.624 148.967 85.968C148.855 85.296 148.679 84.76 148.439 84.36C148.199 83.96 147.879 83.76 147.479 83.76C146.919 83.76 146.439 84.112 146.039 84.816C145.655 85.52 145.423 86.688 145.343 88.32L145.415 88.464C145.399 88.656 145.383 88.856 145.367 89.064C145.367 89.272 145.367 89.488 145.367 89.712C145.367 90.816 145.519 91.712 145.823 92.4C146.143 93.088 146.543 93.592 147.023 93.912C147.503 94.216 147.991 94.368 148.487 94.368C148.823 94.368 149.167 94.32 149.519 94.224C149.887 94.112 150.255 93.92 150.623 93.648C150.991 93.36 151.335 92.96 151.655 92.448L152.087 92.592C151.895 93.2 151.591 93.792 151.175 94.368C150.759 94.944 150.231 95.416 149.591 95.784C148.951 96.152 148.183 96.336 147.287 96.336C146.199 96.336 145.239 96.104 144.407 95.64C143.575 95.176 142.919 94.472 142.439 93.528C141.975 92.584 141.743 91.384 141.743 89.928C141.743 88.44 141.991 87.2 142.487 86.208C142.999 85.216 143.695 84.48 144.575 84C145.471 83.504 146.487 83.256 147.623 83.256ZM158.277 83.256C158.949 83.256 159.533 83.344 160.029 83.52C160.541 83.68 160.909 83.84 161.133 84C161.677 84.368 162.013 84.128 162.141 83.28H162.645C162.613 83.728 162.589 84.28 162.573 84.936C162.557 85.576 162.549 86.432 162.549 87.504H162.045C161.965 86.912 161.813 86.328 161.589 85.752C161.365 85.176 161.037 84.704 160.605 84.336C160.189 83.968 159.645 83.784 158.973 83.784C158.509 83.784 158.117 83.92 157.797 84.192C157.477 84.448 157.317 84.824 157.317 85.32C157.317 85.8 157.461 86.224 157.749 86.592C158.037 86.944 158.405 87.288 158.853 87.624C159.317 87.944 159.797 88.288 160.293 88.656C160.821 89.056 161.301 89.456 161.733 89.856C162.165 90.24 162.509 90.664 162.765 91.128C163.021 91.592 163.149 92.144 163.149 92.784C163.149 93.504 162.941 94.136 162.525 94.68C162.109 95.208 161.557 95.616 160.869 95.904C160.197 96.192 159.445 96.336 158.613 96.336C158.133 96.336 157.701 96.288 157.317 96.192C156.949 96.096 156.629 95.976 156.357 95.832C156.149 95.736 155.949 95.648 155.757 95.568C155.581 95.472 155.413 95.392 155.253 95.328C155.093 95.28 154.949 95.336 154.821 95.496C154.709 95.656 154.621 95.88 154.557 96.168H154.053C154.085 95.656 154.109 95.032 154.125 94.296C154.141 93.56 154.149 92.584 154.149 91.368H154.653C154.749 92.232 154.925 93 155.181 93.672C155.437 94.328 155.781 94.848 156.213 95.232C156.661 95.6 157.221 95.784 157.893 95.784C158.165 95.784 158.429 95.728 158.685 95.616C158.941 95.504 159.149 95.32 159.309 95.064C159.485 94.808 159.573 94.48 159.573 94.08C159.573 93.376 159.341 92.792 158.877 92.328C158.429 91.864 157.853 91.36 157.149 90.816C156.637 90.4 156.149 89.992 155.685 89.592C155.237 89.176 154.869 88.728 154.581 88.248C154.293 87.752 154.149 87.192 154.149 86.568C154.149 85.848 154.341 85.24 154.725 84.744C155.109 84.248 155.613 83.88 156.237 83.64C156.877 83.384 157.557 83.256 158.277 83.256Z" fill="black"/>
<path d="M66.5883 151.112C65.8523 151.112 65.191 150.984 64.6043 150.728C64.0283 150.461 63.575 150.099 63.2443 149.64C62.9136 149.171 62.743 148.632 62.7323 148.024H64.2843C64.3376 148.547 64.551 148.989 64.9243 149.352C65.3083 149.704 65.863 149.88 66.5883 149.88C67.2816 149.88 67.8256 149.709 68.2203 149.368C68.6256 149.016 68.8283 148.568 68.8283 148.024C68.8283 147.597 68.711 147.251 68.4763 146.984C68.2416 146.717 67.9483 146.515 67.5963 146.376C67.2443 146.237 66.7696 146.088 66.1723 145.928C65.4363 145.736 64.8443 145.544 64.3963 145.352C63.959 145.16 63.5803 144.861 63.2603 144.456C62.951 144.04 62.7963 143.485 62.7963 142.792C62.7963 142.184 62.951 141.645 63.2603 141.176C63.5696 140.707 64.0016 140.344 64.5563 140.088C65.1216 139.832 65.767 139.704 66.4923 139.704C67.5376 139.704 68.391 139.965 69.0523 140.488C69.7243 141.011 70.103 141.704 70.1883 142.568H68.5883C68.535 142.141 68.311 141.768 67.9163 141.448C67.5216 141.117 66.999 140.952 66.3483 140.952C65.7403 140.952 65.2443 141.112 64.8603 141.432C64.4763 141.741 64.2843 142.179 64.2843 142.744C64.2843 143.149 64.3963 143.48 64.6203 143.736C64.855 143.992 65.1376 144.189 65.4683 144.328C65.8096 144.456 66.2843 144.605 66.8923 144.776C67.6283 144.979 68.2203 145.181 68.6683 145.384C69.1163 145.576 69.5003 145.88 69.8203 146.296C70.1403 146.701 70.3003 147.256 70.3003 147.96C70.3003 148.504 70.1563 149.016 69.8683 149.496C69.5803 149.976 69.1536 150.365 68.5883 150.664C68.023 150.963 67.3563 151.112 66.5883 151.112ZM76.7949 142.072C77.4563 142.072 78.0536 142.216 78.5869 142.504C79.1203 142.781 79.5363 143.203 79.8349 143.768C80.1443 144.333 80.2989 145.021 80.2989 145.832V151H78.8589V146.04C78.8589 145.165 78.6403 144.499 78.2029 144.04C77.7656 143.571 77.1683 143.336 76.4109 143.336C75.6429 143.336 75.0296 143.576 74.5709 144.056C74.1229 144.536 73.8989 145.235 73.8989 146.152V151H72.4429V139.16H73.8989V143.48C74.1869 143.032 74.5816 142.685 75.0829 142.44C75.5949 142.195 76.1656 142.072 76.7949 142.072ZM82.1333 146.584C82.1333 145.688 82.3146 144.904 82.6773 144.232C83.04 143.549 83.536 143.021 84.1653 142.648C84.8053 142.275 85.5146 142.088 86.2933 142.088C87.0613 142.088 87.728 142.253 88.2933 142.584C88.8586 142.915 89.28 143.331 89.5573 143.832V142.232H91.0293V151H89.5573V149.368C89.2693 149.88 88.8373 150.307 88.2613 150.648C87.696 150.979 87.0346 151.144 86.2773 151.144C85.4986 151.144 84.7946 150.952 84.1653 150.568C83.536 150.184 83.04 149.645 82.6773 148.952C82.3146 148.259 82.1333 147.469 82.1333 146.584ZM89.5573 146.6C89.5573 145.939 89.424 145.363 89.1573 144.872C88.8906 144.381 88.528 144.008 88.0693 143.752C87.6213 143.485 87.1253 143.352 86.5813 143.352C86.0373 143.352 85.5413 143.48 85.0933 143.736C84.6453 143.992 84.288 144.365 84.0213 144.856C83.7546 145.347 83.6213 145.923 83.6213 146.584C83.6213 147.256 83.7546 147.843 84.0213 148.344C84.288 148.835 84.6453 149.213 85.0933 149.48C85.5413 149.736 86.0373 149.864 86.5813 149.864C87.1253 149.864 87.6213 149.736 88.0693 149.48C88.528 149.213 88.8906 148.835 89.1573 148.344C89.424 147.843 89.5573 147.261 89.5573 146.6ZM94.9458 143.656C95.2018 143.155 95.5645 142.765 96.0338 142.488C96.5138 142.211 97.0951 142.072 97.7778 142.072V143.576H97.3938C95.7618 143.576 94.9458 144.461 94.9458 146.232V151H93.4898V142.232H94.9458V143.656ZM100.915 143.848C101.203 143.347 101.629 142.931 102.195 142.6C102.771 142.259 103.437 142.088 104.195 142.088C104.973 142.088 105.677 142.275 106.307 142.648C106.947 143.021 107.448 143.549 107.811 144.232C108.173 144.904 108.355 145.688 108.355 146.584C108.355 147.469 108.173 148.259 107.811 148.952C107.448 149.645 106.947 150.184 106.307 150.568C105.677 150.952 104.973 151.144 104.195 151.144C103.448 151.144 102.787 150.979 102.211 150.648C101.645 150.307 101.213 149.885 100.915 149.384V155.16H99.4586V142.232H100.915V143.848ZM106.867 146.584C106.867 145.923 106.733 145.347 106.467 144.856C106.2 144.365 105.837 143.992 105.379 143.736C104.931 143.48 104.435 143.352 103.891 143.352C103.357 143.352 102.861 143.485 102.403 143.752C101.955 144.008 101.592 144.387 101.315 144.888C101.048 145.379 100.915 145.949 100.915 146.6C100.915 147.261 101.048 147.843 101.315 148.344C101.592 148.835 101.955 149.213 102.403 149.48C102.861 149.736 103.357 149.864 103.891 149.864C104.435 149.864 104.931 149.736 105.379 149.48C105.837 149.213 106.2 148.835 106.467 148.344C106.733 147.843 106.867 147.256 106.867 146.584ZM118.271 146.28C118.271 146.557 118.255 146.851 118.223 147.16H111.215C111.268 148.024 111.562 148.701 112.095 149.192C112.639 149.672 113.295 149.912 114.063 149.912C114.692 149.912 115.215 149.768 115.631 149.48C116.058 149.181 116.356 148.787 116.527 148.296H118.095C117.86 149.139 117.391 149.827 116.687 150.36C115.983 150.883 115.108 151.144 114.063 151.144C113.231 151.144 112.484 150.957 111.823 150.584C111.172 150.211 110.66 149.683 110.287 149C109.914 148.307 109.727 147.507 109.727 146.6C109.727 145.693 109.908 144.899 110.271 144.216C110.634 143.533 111.14 143.011 111.791 142.648C112.452 142.275 113.21 142.088 114.063 142.088C114.895 142.088 115.631 142.269 116.271 142.632C116.911 142.995 117.402 143.496 117.743 144.136C118.095 144.765 118.271 145.48 118.271 146.28ZM116.767 145.976C116.767 145.421 116.644 144.947 116.399 144.552C116.154 144.147 115.818 143.843 115.391 143.64C114.975 143.427 114.511 143.32 113.999 143.32C113.263 143.32 112.634 143.555 112.111 144.024C111.599 144.493 111.306 145.144 111.231 145.976H116.767ZM124.465 142.072C125.532 142.072 126.396 142.397 127.057 143.048C127.718 143.688 128.049 144.616 128.049 145.832V151H126.609V146.04C126.609 145.165 126.39 144.499 125.953 144.04C125.516 143.571 124.918 143.336 124.161 143.336C123.393 143.336 122.78 143.576 122.321 144.056C121.873 144.536 121.649 145.235 121.649 146.152V151H120.193V142.232H121.649V143.48C121.937 143.032 122.326 142.685 122.817 142.44C123.318 142.195 123.868 142.072 124.465 142.072ZM142.245 142.232L136.965 155.128H135.461L137.189 150.904L133.653 142.232H135.269L138.021 149.336L140.741 142.232H142.245ZM147.533 151.144C146.711 151.144 145.965 150.957 145.293 150.584C144.631 150.211 144.109 149.683 143.725 149C143.351 148.307 143.165 147.507 143.165 146.6C143.165 145.704 143.357 144.915 143.741 144.232C144.135 143.539 144.669 143.011 145.341 142.648C146.013 142.275 146.765 142.088 147.597 142.088C148.429 142.088 149.181 142.275 149.853 142.648C150.525 143.011 151.053 143.533 151.437 144.216C151.831 144.899 152.029 145.693 152.029 146.6C152.029 147.507 151.826 148.307 151.421 149C151.026 149.683 150.487 150.211 149.805 150.584C149.122 150.957 148.365 151.144 147.533 151.144ZM147.533 149.864C148.055 149.864 148.546 149.741 149.005 149.496C149.463 149.251 149.831 148.883 150.109 148.392C150.397 147.901 150.541 147.304 150.541 146.6C150.541 145.896 150.402 145.299 150.125 144.808C149.847 144.317 149.485 143.955 149.037 143.72C148.589 143.475 148.103 143.352 147.581 143.352C147.047 143.352 146.557 143.475 146.109 143.72C145.671 143.955 145.319 144.317 145.053 144.808C144.786 145.299 144.653 145.896 144.653 146.6C144.653 147.315 144.781 147.917 145.037 148.408C145.303 148.899 145.655 149.267 146.093 149.512C146.53 149.747 147.01 149.864 147.533 149.864ZM161.719 142.232V151H160.263V149.704C159.986 150.152 159.596 150.504 159.095 150.76C158.604 151.005 158.06 151.128 157.463 151.128C156.78 151.128 156.167 150.989 155.623 150.712C155.079 150.424 154.647 149.997 154.327 149.432C154.018 148.867 153.863 148.179 153.863 147.368V142.232H155.303V147.176C155.303 148.04 155.522 148.707 155.959 149.176C156.396 149.635 156.994 149.864 157.751 149.864C158.53 149.864 159.143 149.624 159.591 149.144C160.039 148.664 160.263 147.965 160.263 147.048V142.232H161.719ZM165.633 143.656C165.889 143.155 166.252 142.765 166.721 142.488C167.201 142.211 167.783 142.072 168.465 142.072V143.576H168.081C166.449 143.576 165.633 144.461 165.633 146.232V151H164.177V142.232H165.633V143.656ZM32.938 167.848C33.226 167.347 33.6527 166.931 34.218 166.6C34.794 166.259 35.4607 166.088 36.218 166.088C36.9967 166.088 37.7007 166.275 38.33 166.648C38.97 167.021 39.4713 167.549 39.834 168.232C40.1967 168.904 40.378 169.688 40.378 170.584C40.378 171.469 40.1967 172.259 39.834 172.952C39.4713 173.645 38.97 174.184 38.33 174.568C37.7007 174.952 36.9967 175.144 36.218 175.144C35.4713 175.144 34.81 174.979 34.234 174.648C33.6687 174.307 33.2367 173.885 32.938 173.384V179.16H31.482V166.232H32.938V167.848ZM38.89 170.584C38.89 169.923 38.7567 169.347 38.49 168.856C38.2233 168.365 37.8607 167.992 37.402 167.736C36.954 167.48 36.458 167.352 35.914 167.352C35.3807 167.352 34.8847 167.485 34.426 167.752C33.978 168.008 33.6153 168.387 33.338 168.888C33.0713 169.379 32.938 169.949 32.938 170.6C32.938 171.261 33.0713 171.843 33.338 172.344C33.6153 172.835 33.978 173.213 34.426 173.48C34.8847 173.736 35.3807 173.864 35.914 173.864C36.458 173.864 36.954 173.736 37.402 173.48C37.8607 173.213 38.2233 172.835 38.49 172.344C38.7567 171.843 38.89 171.256 38.89 170.584ZM43.7505 167.656C44.0065 167.155 44.3692 166.765 44.8385 166.488C45.3185 166.211 45.8998 166.072 46.5825 166.072V167.576H46.1985C44.5665 167.576 43.7505 168.461 43.7505 170.232V175H42.2945V166.232H43.7505V167.656ZM52.0873 175.144C51.2659 175.144 50.5193 174.957 49.8473 174.584C49.1859 174.211 48.6633 173.683 48.2793 173C47.9059 172.307 47.7193 171.507 47.7193 170.6C47.7193 169.704 47.9113 168.915 48.2953 168.232C48.6899 167.539 49.2233 167.011 49.8953 166.648C50.5673 166.275 51.3193 166.088 52.1513 166.088C52.9833 166.088 53.7353 166.275 54.4073 166.648C55.0793 167.011 55.6073 167.533 55.9913 168.216C56.3859 168.899 56.5833 169.693 56.5833 170.6C56.5833 171.507 56.3806 172.307 55.9753 173C55.5806 173.683 55.0419 174.211 54.3593 174.584C53.6766 174.957 52.9193 175.144 52.0873 175.144ZM52.0873 173.864C52.6099 173.864 53.1006 173.741 53.5593 173.496C54.0179 173.251 54.3859 172.883 54.6633 172.392C54.9513 171.901 55.0953 171.304 55.0953 170.6C55.0953 169.896 54.9566 169.299 54.6793 168.808C54.4019 168.317 54.0393 167.955 53.5913 167.72C53.1433 167.475 52.6579 167.352 52.1353 167.352C51.6019 167.352 51.1113 167.475 50.6633 167.72C50.2259 167.955 49.8739 168.317 49.6073 168.808C49.3406 169.299 49.2073 169.896 49.2073 170.6C49.2073 171.315 49.3353 171.917 49.5913 172.408C49.8579 172.899 50.2099 173.267 50.6473 173.512C51.0846 173.747 51.5646 173.864 52.0873 173.864ZM59.9536 167.864C60.2523 167.341 60.6896 166.915 61.2656 166.584C61.8416 166.253 62.4976 166.088 63.2336 166.088C64.023 166.088 64.7323 166.275 65.3616 166.648C65.991 167.021 66.487 167.549 66.8496 168.232C67.2123 168.904 67.3936 169.688 67.3936 170.584C67.3936 171.469 67.2123 172.259 66.8496 172.952C66.487 173.645 65.9856 174.184 65.3456 174.568C64.7163 174.952 64.0123 175.144 63.2336 175.144C62.4763 175.144 61.8096 174.979 61.2336 174.648C60.6683 174.317 60.2416 173.896 59.9536 173.384V175H58.4976V163.16H59.9536V167.864ZM65.9056 170.584C65.9056 169.923 65.7723 169.347 65.5056 168.856C65.239 168.365 64.8763 167.992 64.4176 167.736C63.9696 167.48 63.4736 167.352 62.9296 167.352C62.3963 167.352 61.9003 167.485 61.4416 167.752C60.9936 168.008 60.631 168.387 60.3536 168.888C60.087 169.379 59.9536 169.949 59.9536 170.6C59.9536 171.261 60.087 171.843 60.3536 172.344C60.631 172.835 60.9936 173.213 61.4416 173.48C61.9003 173.736 62.3963 173.864 62.9296 173.864C63.4736 173.864 63.9696 173.736 64.4176 173.48C64.8763 173.213 65.239 172.835 65.5056 172.344C65.7723 171.843 65.9056 171.256 65.9056 170.584ZM70.7661 163.16V175H69.3101V163.16H70.7661ZM81.2476 170.28C81.2476 170.557 81.2316 170.851 81.1996 171.16H74.1916C74.245 172.024 74.5383 172.701 75.0716 173.192C75.6156 173.672 76.2716 173.912 77.0396 173.912C77.669 173.912 78.1916 173.768 78.6076 173.48C79.0343 173.181 79.333 172.787 79.5036 172.296H81.0716C80.837 173.139 80.3676 173.827 79.6636 174.36C78.9596 174.883 78.085 175.144 77.0396 175.144C76.2076 175.144 75.461 174.957 74.7996 174.584C74.149 174.211 73.637 173.683 73.2636 173C72.8903 172.307 72.7036 171.507 72.7036 170.6C72.7036 169.693 72.885 168.899 73.2476 168.216C73.6103 167.533 74.117 167.011 74.7676 166.648C75.429 166.275 76.1863 166.088 77.0396 166.088C77.8716 166.088 78.6076 166.269 79.2476 166.632C79.8876 166.995 80.3783 167.496 80.7196 168.136C81.0716 168.765 81.2476 169.48 81.2476 170.28ZM79.7436 169.976C79.7436 169.421 79.621 168.947 79.3756 168.552C79.1303 168.147 78.7943 167.843 78.3676 167.64C77.9516 167.427 77.4876 167.32 76.9756 167.32C76.2396 167.32 75.6103 167.555 75.0876 168.024C74.5756 168.493 74.2823 169.144 74.2076 169.976H79.7436ZM93.7135 166.072C94.3962 166.072 95.0042 166.216 95.5375 166.504C96.0708 166.781 96.4922 167.203 96.8015 167.768C97.1108 168.333 97.2655 169.021 97.2655 169.832V175H95.8255V170.04C95.8255 169.165 95.6068 168.499 95.1695 168.04C94.7428 167.571 94.1615 167.336 93.4255 167.336C92.6682 167.336 92.0655 167.581 91.6175 168.072C91.1695 168.552 90.9455 169.251 90.9455 170.168V175H89.5055V170.04C89.5055 169.165 89.2868 168.499 88.8495 168.04C88.4228 167.571 87.8415 167.336 87.1055 167.336C86.3482 167.336 85.7455 167.581 85.2975 168.072C84.8495 168.552 84.6255 169.251 84.6255 170.168V175H83.1695V166.232H84.6255V167.496C84.9135 167.037 85.2975 166.685 85.7775 166.44C86.2682 166.195 86.8068 166.072 87.3935 166.072C88.1295 166.072 88.7802 166.237 89.3455 166.568C89.9108 166.899 90.3322 167.384 90.6095 168.024C90.8548 167.405 91.2602 166.925 91.8255 166.584C92.3908 166.243 93.0202 166.072 93.7135 166.072ZM105.734 168.52V169.752H99.3499V168.52H105.734ZM111.57 175.144C110.898 175.144 110.296 175.032 109.762 174.808C109.229 174.573 108.808 174.253 108.498 173.848C108.189 173.432 108.018 172.957 107.986 172.424H109.49C109.533 172.861 109.736 173.219 110.098 173.496C110.472 173.773 110.957 173.912 111.554 173.912C112.109 173.912 112.546 173.789 112.866 173.544C113.186 173.299 113.346 172.989 113.346 172.616C113.346 172.232 113.176 171.949 112.834 171.768C112.493 171.576 111.965 171.389 111.25 171.208C110.6 171.037 110.066 170.867 109.65 170.696C109.245 170.515 108.893 170.253 108.594 169.912C108.306 169.56 108.162 169.101 108.162 168.536C108.162 168.088 108.296 167.677 108.562 167.304C108.829 166.931 109.208 166.637 109.698 166.424C110.189 166.2 110.749 166.088 111.378 166.088C112.349 166.088 113.133 166.333 113.73 166.824C114.328 167.315 114.648 167.987 114.69 168.84H113.234C113.202 168.381 113.016 168.013 112.674 167.736C112.344 167.459 111.896 167.32 111.33 167.32C110.808 167.32 110.392 167.432 110.082 167.656C109.773 167.88 109.618 168.173 109.618 168.536C109.618 168.824 109.709 169.064 109.89 169.256C110.082 169.437 110.317 169.587 110.594 169.704C110.882 169.811 111.277 169.933 111.778 170.072C112.408 170.243 112.92 170.413 113.314 170.584C113.709 170.744 114.045 170.989 114.322 171.32C114.61 171.651 114.76 172.083 114.77 172.616C114.77 173.096 114.637 173.528 114.37 173.912C114.104 174.296 113.725 174.6 113.234 174.824C112.754 175.037 112.2 175.144 111.57 175.144ZM120.65 175.144C119.828 175.144 119.082 174.957 118.41 174.584C117.748 174.211 117.226 173.683 116.842 173C116.468 172.307 116.282 171.507 116.282 170.6C116.282 169.704 116.474 168.915 116.858 168.232C117.252 167.539 117.786 167.011 118.458 166.648C119.13 166.275 119.882 166.088 120.714 166.088C121.546 166.088 122.298 166.275 122.97 166.648C123.642 167.011 124.17 167.533 124.554 168.216C124.948 168.899 125.146 169.693 125.146 170.6C125.146 171.507 124.943 172.307 124.538 173C124.143 173.683 123.604 174.211 122.922 174.584C122.239 174.957 121.482 175.144 120.65 175.144ZM120.65 173.864C121.172 173.864 121.663 173.741 122.122 173.496C122.58 173.251 122.948 172.883 123.226 172.392C123.514 171.901 123.658 171.304 123.658 170.6C123.658 169.896 123.519 169.299 123.242 168.808C122.964 168.317 122.602 167.955 122.154 167.72C121.706 167.475 121.22 167.352 120.698 167.352C120.164 167.352 119.674 167.475 119.226 167.72C118.788 167.955 118.436 168.317 118.17 168.808C117.903 169.299 117.77 169.896 117.77 170.6C117.77 171.315 117.898 171.917 118.154 172.408C118.42 172.899 118.772 173.267 119.21 173.512C119.647 173.747 120.127 173.864 120.65 173.864ZM128.516 163.16V175H127.06V163.16H128.516ZM134.262 173.656L136.982 166.232H138.534L135.094 175H133.398L129.958 166.232H131.526L134.262 173.656ZM140.718 164.808C140.441 164.808 140.206 164.712 140.014 164.52C139.822 164.328 139.726 164.093 139.726 163.816C139.726 163.539 139.822 163.304 140.014 163.112C140.206 162.92 140.441 162.824 140.718 162.824C140.985 162.824 141.209 162.92 141.39 163.112C141.582 163.304 141.678 163.539 141.678 163.816C141.678 164.093 141.582 164.328 141.39 164.52C141.209 164.712 140.985 164.808 140.718 164.808ZM141.422 166.232V175H139.966V166.232H141.422ZM148.176 166.072C149.243 166.072 150.107 166.397 150.768 167.048C151.429 167.688 151.76 168.616 151.76 169.832V175H150.32V170.04C150.32 169.165 150.101 168.499 149.664 168.04C149.227 167.571 148.629 167.336 147.872 167.336C147.104 167.336 146.491 167.576 146.032 168.056C145.584 168.536 145.36 169.235 145.36 170.152V175H143.904V166.232H145.36V167.48C145.648 167.032 146.037 166.685 146.528 166.44C147.029 166.195 147.579 166.072 148.176 166.072ZM157.754 166.088C158.512 166.088 159.173 166.253 159.738 166.584C160.314 166.915 160.741 167.331 161.018 167.832V166.232H162.49V175.192C162.49 175.992 162.32 176.701 161.978 177.32C161.637 177.949 161.146 178.44 160.506 178.792C159.877 179.144 159.141 179.32 158.298 179.32C157.146 179.32 156.186 179.048 155.418 178.504C154.65 177.96 154.197 177.219 154.058 176.28H155.498C155.658 176.813 155.989 177.24 156.49 177.56C156.992 177.891 157.594 178.056 158.298 178.056C159.098 178.056 159.749 177.805 160.25 177.304C160.762 176.803 161.018 176.099 161.018 175.192V173.352C160.73 173.864 160.304 174.291 159.738 174.632C159.173 174.973 158.512 175.144 157.754 175.144C156.976 175.144 156.266 174.952 155.626 174.568C154.997 174.184 154.501 173.645 154.138 172.952C153.776 172.259 153.594 171.469 153.594 170.584C153.594 169.688 153.776 168.904 154.138 168.232C154.501 167.549 154.997 167.021 155.626 166.648C156.266 166.275 156.976 166.088 157.754 166.088ZM161.018 170.6C161.018 169.939 160.885 169.363 160.618 168.872C160.352 168.381 159.989 168.008 159.53 167.752C159.082 167.485 158.586 167.352 158.042 167.352C157.498 167.352 157.002 167.48 156.554 167.736C156.106 167.992 155.749 168.365 155.482 168.856C155.216 169.347 155.082 169.923 155.082 170.584C155.082 171.256 155.216 171.843 155.482 172.344C155.749 172.835 156.106 173.213 156.554 173.48C157.002 173.736 157.498 173.864 158.042 173.864C158.586 173.864 159.082 173.736 159.53 173.48C159.989 173.213 160.352 172.835 160.618 172.344C160.885 171.843 161.018 171.261 161.018 170.6ZM172.32 175.144C171.648 175.144 171.046 175.032 170.512 174.808C169.979 174.573 169.558 174.253 169.248 173.848C168.939 173.432 168.768 172.957 168.736 172.424H170.24C170.283 172.861 170.486 173.219 170.848 173.496C171.222 173.773 171.707 173.912 172.304 173.912C172.859 173.912 173.296 173.789 173.616 173.544C173.936 173.299 174.096 172.989 174.096 172.616C174.096 172.232 173.926 171.949 173.584 171.768C173.243 171.576 172.715 171.389 172 171.208C171.35 171.037 170.816 170.867 170.4 170.696C169.995 170.515 169.643 170.253 169.344 169.912C169.056 169.56 168.912 169.101 168.912 168.536C168.912 168.088 169.046 167.677 169.312 167.304C169.579 166.931 169.958 166.637 170.448 166.424C170.939 166.2 171.499 166.088 172.128 166.088C173.099 166.088 173.883 166.333 174.48 166.824C175.078 167.315 175.398 167.987 175.44 168.84H173.984C173.952 168.381 173.766 168.013 173.424 167.736C173.094 167.459 172.646 167.32 172.08 167.32C171.558 167.32 171.142 167.432 170.832 167.656C170.523 167.88 170.368 168.173 170.368 168.536C170.368 168.824 170.459 169.064 170.64 169.256C170.832 169.437 171.067 169.587 171.344 169.704C171.632 169.811 172.027 169.933 172.528 170.072C173.158 170.243 173.67 170.413 174.064 170.584C174.459 170.744 174.795 170.989 175.072 171.32C175.36 171.651 175.51 172.083 175.52 172.616C175.52 173.096 175.387 173.528 175.12 173.912C174.854 174.296 174.475 174.6 173.984 174.824C173.504 175.037 172.95 175.144 172.32 175.144ZM182.472 175L179.032 171.128V175H177.576V163.16H179.032V170.12L182.408 166.232H184.44L180.312 170.6L184.456 175H182.472ZM186.562 164.808C186.285 164.808 186.05 164.712 185.858 164.52C185.666 164.328 185.57 164.093 185.57 163.816C185.57 163.539 185.666 163.304 185.858 163.112C186.05 162.92 186.285 162.824 186.562 162.824C186.829 162.824 187.053 162.92 187.234 163.112C187.426 163.304 187.522 163.539 187.522 163.816C187.522 164.093 187.426 164.328 187.234 164.52C187.053 164.712 186.829 164.808 186.562 164.808ZM187.266 166.232V175H185.81V166.232H187.266ZM191.204 163.16V175H189.748V163.16H191.204ZM195.141 163.16V175H193.685V163.16H195.141ZM200.727 175.144C200.055 175.144 199.452 175.032 198.919 174.808C198.385 174.573 197.964 174.253 197.655 173.848C197.345 173.432 197.175 172.957 197.143 172.424H198.647C198.689 172.861 198.892 173.219 199.255 173.496C199.628 173.773 200.113 173.912 200.711 173.912C201.265 173.912 201.703 173.789 202.023 173.544C202.343 173.299 202.503 172.989 202.503 172.616C202.503 172.232 202.332 171.949 201.991 171.768C201.649 171.576 201.121 171.389 200.407 171.208C199.756 171.037 199.223 170.867 198.807 170.696C198.401 170.515 198.049 170.253 197.751 169.912C197.463 169.56 197.319 169.101 197.319 168.536C197.319 168.088 197.452 167.677 197.719 167.304C197.985 166.931 198.364 166.637 198.855 166.424C199.345 166.2 199.905 166.088 200.535 166.088C201.505 166.088 202.289 166.333 202.887 166.824C203.484 167.315 203.804 167.987 203.847 168.84H202.391C202.359 168.381 202.172 168.013 201.831 167.736C201.5 167.459 201.052 167.32 200.487 167.32C199.964 167.32 199.548 167.432 199.239 167.656C198.929 167.88 198.775 168.173 198.775 168.536C198.775 168.824 198.865 169.064 199.047 169.256C199.239 169.437 199.473 169.587 199.751 169.704C200.039 169.811 200.433 169.933 200.935 170.072C201.564 170.243 202.076 170.413 202.471 170.584C202.865 170.744 203.201 170.989 203.479 171.32C203.767 171.651 203.916 172.083 203.927 172.616C203.927 173.096 203.793 173.528 203.527 173.912C203.26 174.296 202.881 174.6 202.391 174.824C201.911 175.037 201.356 175.144 200.727 175.144Z" fill="#F6F6F6"/>
<path d="M154.008 19.9417H94.5082C92.1082 9.54168 98.8416 5.9417 101.508 5.44172C112.008 5.10839 135.408 4.64172 145.008 5.44172C154.608 6.24172 155.008 15.4417 154.008 19.9417Z" fill="#F8CD51" stroke="#439D93"/>
<circle cx="123.5" cy="7.5" r="7.5" fill="#439D93"/>
</svg>
