<svg width="166" height="255" viewBox="0 0 166 255" fill="none" xmlns="http://www.w3.org/2000/svg">
<rect x="3" y="4" width="163" height="251" rx="10" fill="#ACB1A7"/>
<rect width="163" height="251" rx="10" fill="#2E4E30"/>
<rect x="61" y="18" width="74" height="12" rx="2" fill="#4C6D4E" fill-opacity="0.3"/>
<rect x="140" y="18" width="12" height="12" rx="2" fill="#4C6D4E" fill-opacity="0.3"/>
<path d="M39.1775 65.6052L54.7939 49.9888L118.555 113.75L126.404 137.216L102.939 129.367L39.1775 65.6052Z" fill="#E3DFD4"/>
<path d="M103 129.5L114.5 118L126.5 137.5L103 129.5Z" fill="#CDC8BB"/>
<path d="M119 135L124 130L126.5 137.5L119 135Z" fill="#2A262A"/>
<path d="M54.8054 50L39.189 65.6165L102.922 129.35L118.539 113.733L54.8054 50Z" fill="#2A262A"/>
<path d="M73.5 81.5L39.189 65.6165L102.922 129.35L114.5 118L73.5 81.5Z" fill="#1D1A1D"/>
<rect x="108.296" y="50.386" width="22.085" height="97.9992" transform="rotate(45 108.296 50.386)" fill="#7E9C92"/>
<path d="M80.5 88.5L123.912 66.0024L54.6164 135.298L43 123.5L80.5 88.5Z" fill="#6F8D83"/>
<line x1="81.5332" y1="92.5587" x2="89.3114" y2="100.337" stroke="#587169"/>
<line x1="80.079" y1="98.2556" x2="85.7359" y2="103.912" stroke="#587169"/>
<line x1="76.5035" y1="101.831" x2="82.1603" y2="107.488" stroke="#587169"/>
<line x1="72.928" y1="105.406" x2="78.5849" y2="111.063" stroke="#587169"/>
<line x1="69.3525" y1="108.982" x2="75.0094" y2="114.639" stroke="#587169"/>
<line x1="63.6557" y1="110.436" x2="71.4339" y2="118.214" stroke="#587169"/>
<line x1="62.2015" y1="116.133" x2="67.8583" y2="121.79" stroke="#587169"/>
<line x1="58.6259" y1="119.709" x2="64.2827" y2="125.366" stroke="#587169"/>
<line x1="55.0504" y1="123.284" x2="60.7072" y2="128.941" stroke="#587169"/>
<line x1="51.4749" y1="126.86" x2="57.1317" y2="132.517" stroke="#587169"/>
<line x1="116.079" y1="62.3433" x2="121.736" y2="68.0002" stroke="#587169"/>
<line x1="112.504" y1="65.9189" x2="118.16" y2="71.5758" stroke="#587169"/>
<line x1="108.928" y1="69.4942" x2="114.585" y2="75.1511" stroke="#587169"/>
<line x1="105.353" y1="73.0698" x2="111.009" y2="78.7266" stroke="#587169"/>
<line x1="99.6557" y1="74.524" x2="107.434" y2="82.3022" stroke="#587169"/>
<line x1="98.2015" y1="80.2208" x2="103.858" y2="85.8776" stroke="#587169"/>
<line x1="94.626" y1="83.7963" x2="100.283" y2="89.4532" stroke="#587169"/>
<line x1="91.0505" y1="87.3719" x2="96.7073" y2="93.0288" stroke="#587169"/>
<line x1="87.475" y1="90.9475" x2="93.1318" y2="96.6043" stroke="#587169"/>
<path d="M20.0234 156.625H21.8828L24.9922 165.188L28.0938 156.625H29.9609L25.7344 168H24.2422L20.0234 156.625ZM19.0859 156.625H20.9062L21.2344 164.492V168H19.0859V156.625ZM29.0703 156.625H30.8984V168H28.75V164.492L29.0703 156.625ZM37.5859 166.203V162.305C37.5859 162.018 37.5365 161.771 37.4375 161.562C37.3385 161.354 37.1875 161.193 36.9844 161.078C36.7812 160.964 36.5234 160.906 36.2109 160.906C35.9349 160.906 35.6927 160.953 35.4844 161.047C35.2812 161.141 35.125 161.273 35.0156 161.445C34.9062 161.612 34.8516 161.805 34.8516 162.023H32.7812C32.7812 161.674 32.8646 161.344 33.0312 161.031C33.1979 160.714 33.4349 160.432 33.7422 160.188C34.0547 159.938 34.4271 159.742 34.8594 159.602C35.2969 159.461 35.7865 159.391 36.3281 159.391C36.9688 159.391 37.5391 159.5 38.0391 159.719C38.5443 159.932 38.9401 160.255 39.2266 160.688C39.5182 161.12 39.6641 161.664 39.6641 162.32V166.008C39.6641 166.43 39.6901 166.792 39.7422 167.094C39.7995 167.391 39.8828 167.648 39.9922 167.867V168H37.8906C37.7917 167.786 37.7161 167.516 37.6641 167.188C37.612 166.854 37.5859 166.526 37.5859 166.203ZM37.875 162.852L37.8906 164.078H36.5859C36.263 164.078 35.9792 164.112 35.7344 164.18C35.4896 164.242 35.2891 164.336 35.1328 164.461C34.9766 164.581 34.8594 164.727 34.7812 164.898C34.7031 165.065 34.6641 165.255 34.6641 165.469C34.6641 165.677 34.7109 165.865 34.8047 166.031C34.9036 166.198 35.0443 166.331 35.2266 166.43C35.4141 166.523 35.6328 166.57 35.8828 166.57C36.2474 166.57 36.5651 166.497 36.8359 166.352C37.1068 166.201 37.3177 166.018 37.4688 165.805C37.6198 165.591 37.7005 165.388 37.7109 165.195L38.3047 166.086C38.2318 166.299 38.1224 166.526 37.9766 166.766C37.8307 167.005 37.6432 167.229 37.4141 167.438C37.1849 167.646 36.9089 167.818 36.5859 167.953C36.263 168.089 35.888 168.156 35.4609 168.156C34.9141 168.156 34.4245 168.047 33.9922 167.828C33.5599 167.609 33.2188 167.31 32.9688 166.93C32.7188 166.549 32.5938 166.117 32.5938 165.633C32.5938 165.185 32.6771 164.789 32.8438 164.445C33.0104 164.102 33.2578 163.812 33.5859 163.578C33.9141 163.339 34.3203 163.159 34.8047 163.039C35.2943 162.914 35.8542 162.852 36.4844 162.852H37.875ZM45.5234 159.547V161.031H40.6797V159.547H45.5234ZM41.9766 157.469H44.0469V165.562C44.0469 165.812 44.0807 166.005 44.1484 166.141C44.2161 166.276 44.3177 166.367 44.4531 166.414C44.5885 166.461 44.75 166.484 44.9375 166.484C45.0729 166.484 45.1979 166.477 45.3125 166.461C45.4271 166.445 45.5234 166.43 45.6016 166.414L45.6094 167.961C45.4375 168.018 45.2422 168.065 45.0234 168.102C44.8099 168.138 44.5677 168.156 44.2969 168.156C43.8333 168.156 43.4271 168.078 43.0781 167.922C42.7292 167.76 42.4583 167.503 42.2656 167.148C42.0729 166.789 41.9766 166.315 41.9766 165.727V157.469ZM48.9219 156V168H46.8516V156H48.9219ZM48.5938 163.469H47.9844C47.9844 162.88 48.0625 162.339 48.2188 161.844C48.375 161.349 48.5964 160.919 48.8828 160.555C49.1693 160.185 49.5104 159.898 49.9062 159.695C50.3073 159.492 50.75 159.391 51.2344 159.391C51.651 159.391 52.0286 159.451 52.3672 159.57C52.7109 159.685 53.0052 159.87 53.25 160.125C53.4948 160.38 53.6823 160.714 53.8125 161.125C53.9479 161.531 54.0156 162.026 54.0156 162.609V168H51.9375V162.594C51.9375 162.203 51.8802 161.896 51.7656 161.672C51.651 161.443 51.487 161.279 51.2734 161.18C51.0651 161.081 50.8073 161.031 50.5 161.031C50.1667 161.031 49.8802 161.096 49.6406 161.227C49.401 161.352 49.2031 161.526 49.0469 161.75C48.8958 161.974 48.7812 162.232 48.7031 162.523C48.6302 162.815 48.5938 163.13 48.5938 163.469ZM64.3516 163.852H61.4219V162.164H64.3516C64.8307 162.164 65.2188 162.086 65.5156 161.93C65.8177 161.768 66.0391 161.549 66.1797 161.273C66.3203 160.992 66.3906 160.672 66.3906 160.312C66.3906 159.964 66.3203 159.638 66.1797 159.336C66.0391 159.034 65.8177 158.789 65.5156 158.602C65.2188 158.414 64.8307 158.32 64.3516 158.32H62.125V168H59.9766V156.625H64.3516C65.237 156.625 65.9922 156.784 66.6172 157.102C67.2474 157.414 67.7266 157.849 68.0547 158.406C68.388 158.958 68.5547 159.589 68.5547 160.297C68.5547 161.031 68.388 161.664 68.0547 162.195C67.7266 162.727 67.2474 163.135 66.6172 163.422C65.9922 163.708 65.237 163.852 64.3516 163.852ZM72.1484 161.273V168H70.0859V159.547H72.0391L72.1484 161.273ZM74.7188 159.492L74.6875 161.414C74.5729 161.393 74.4427 161.378 74.2969 161.367C74.1562 161.357 74.0234 161.352 73.8984 161.352C73.5807 161.352 73.3021 161.396 73.0625 161.484C72.8229 161.568 72.6224 161.69 72.4609 161.852C72.3047 162.013 72.1849 162.211 72.1016 162.445C72.0182 162.674 71.9714 162.935 71.9609 163.227L71.5156 163.172C71.5156 162.635 71.5703 162.138 71.6797 161.68C71.7891 161.221 71.9479 160.82 72.1562 160.477C72.3646 160.133 72.625 159.867 72.9375 159.68C73.2552 159.487 73.6198 159.391 74.0312 159.391C74.1458 159.391 74.2682 159.401 74.3984 159.422C74.5339 159.438 74.6406 159.461 74.7188 159.492ZM75.2656 163.859V163.695C75.2656 163.076 75.3542 162.505 75.5312 161.984C75.7083 161.458 75.9661 161.003 76.3047 160.617C76.6432 160.232 77.0573 159.932 77.5469 159.719C78.0365 159.5 78.5938 159.391 79.2188 159.391C79.8542 159.391 80.4167 159.5 80.9062 159.719C81.401 159.932 81.8177 160.232 82.1562 160.617C82.4948 161.003 82.7526 161.458 82.9297 161.984C83.1068 162.505 83.1953 163.076 83.1953 163.695V163.859C83.1953 164.474 83.1068 165.044 82.9297 165.57C82.7526 166.091 82.4948 166.547 82.1562 166.938C81.8177 167.323 81.4036 167.622 80.9141 167.836C80.4245 168.049 79.8646 168.156 79.2344 168.156C78.6094 168.156 78.0495 168.049 77.5547 167.836C77.0599 167.622 76.6432 167.323 76.3047 166.938C75.9661 166.547 75.7083 166.091 75.5312 165.57C75.3542 165.044 75.2656 164.474 75.2656 163.859ZM77.3281 163.695V163.859C77.3281 164.229 77.3646 164.576 77.4375 164.898C77.5104 165.221 77.6224 165.505 77.7734 165.75C77.9245 165.995 78.1198 166.188 78.3594 166.328C78.6042 166.464 78.8958 166.531 79.2344 166.531C79.5677 166.531 79.8542 166.464 80.0938 166.328C80.3333 166.188 80.5286 165.995 80.6797 165.75C80.8359 165.505 80.9505 165.221 81.0234 164.898C81.0964 164.576 81.1328 164.229 81.1328 163.859V163.695C81.1328 163.331 81.0964 162.99 81.0234 162.672C80.9505 162.349 80.8359 162.065 80.6797 161.82C80.5286 161.57 80.3307 161.375 80.0859 161.234C79.8464 161.089 79.5573 161.016 79.2188 161.016C78.8854 161.016 78.599 161.089 78.3594 161.234C78.1198 161.375 77.9245 161.57 77.7734 161.82C77.6224 162.065 77.5104 162.349 77.4375 162.672C77.3646 162.99 77.3281 163.331 77.3281 163.695ZM84.6875 156H86.7578V166.133L86.5547 168H84.6875V156ZM92.1953 163.688V163.852C92.1953 164.482 92.125 165.06 91.9844 165.586C91.849 166.112 91.6432 166.568 91.3672 166.953C91.0911 167.333 90.7474 167.63 90.3359 167.844C89.9297 168.052 89.4531 168.156 88.9062 168.156C88.3854 168.156 87.9323 168.055 87.5469 167.852C87.1667 167.648 86.8464 167.362 86.5859 166.992C86.3255 166.617 86.1172 166.177 85.9609 165.672C85.8047 165.161 85.6875 164.604 85.6094 164V163.555C85.6875 162.945 85.8047 162.388 85.9609 161.883C86.1172 161.378 86.3255 160.938 86.5859 160.562C86.8464 160.188 87.1667 159.898 87.5469 159.695C87.9271 159.492 88.375 159.391 88.8906 159.391C89.4427 159.391 89.9245 159.497 90.3359 159.711C90.7526 159.919 91.0964 160.216 91.3672 160.602C91.6432 160.982 91.849 161.435 91.9844 161.961C92.125 162.482 92.1953 163.057 92.1953 163.688ZM90.125 163.852V163.688C90.125 163.328 90.0964 162.99 90.0391 162.672C89.9818 162.349 89.888 162.065 89.7578 161.82C89.6276 161.576 89.4505 161.383 89.2266 161.242C89.0026 161.102 88.7214 161.031 88.3828 161.031C88.0599 161.031 87.7839 161.086 87.5547 161.195C87.3307 161.305 87.1432 161.456 86.9922 161.648C86.8464 161.841 86.7318 162.068 86.6484 162.328C86.5703 162.589 86.5182 162.87 86.4922 163.172V164.391C86.5286 164.792 86.6146 165.154 86.75 165.477C86.8854 165.794 87.0859 166.047 87.3516 166.234C87.6224 166.422 87.9714 166.516 88.3984 166.516C88.7318 166.516 89.0104 166.451 89.2344 166.32C89.4583 166.185 89.6354 165.997 89.7656 165.758C89.8958 165.513 89.987 165.229 90.0391 164.906C90.0964 164.583 90.125 164.232 90.125 163.852ZM95.8828 156V168H93.8125V156H95.8828ZM101.648 168.156C101.008 168.156 100.432 168.052 99.9219 167.844C99.4115 167.635 98.9766 167.346 98.6172 166.977C98.263 166.602 97.9896 166.167 97.7969 165.672C97.6094 165.172 97.5156 164.635 97.5156 164.062V163.75C97.5156 163.099 97.6094 162.508 97.7969 161.977C97.9844 161.44 98.25 160.979 98.5938 160.594C98.9375 160.208 99.349 159.911 99.8281 159.703C100.307 159.495 100.836 159.391 101.414 159.391C102.013 159.391 102.542 159.492 103 159.695C103.458 159.893 103.841 160.174 104.148 160.539C104.456 160.904 104.688 161.341 104.844 161.852C105 162.357 105.078 162.917 105.078 163.531V164.398H98.4531V162.977H103.047V162.82C103.036 162.492 102.974 162.193 102.859 161.922C102.745 161.646 102.568 161.427 102.328 161.266C102.089 161.099 101.779 161.016 101.398 161.016C101.091 161.016 100.823 161.083 100.594 161.219C100.37 161.349 100.182 161.536 100.031 161.781C99.8854 162.021 99.776 162.307 99.7031 162.641C99.6302 162.974 99.5938 163.344 99.5938 163.75V164.062C99.5938 164.417 99.6406 164.745 99.7344 165.047C99.8333 165.349 99.9766 165.612 100.164 165.836C100.357 166.055 100.586 166.227 100.852 166.352C101.122 166.471 101.43 166.531 101.773 166.531C102.206 166.531 102.596 166.448 102.945 166.281C103.299 166.109 103.607 165.857 103.867 165.523L104.906 166.602C104.729 166.862 104.49 167.112 104.188 167.352C103.891 167.591 103.531 167.786 103.109 167.938C102.688 168.083 102.201 168.156 101.648 168.156ZM108.516 161.281V168H106.453V159.547H108.398L108.516 161.281ZM108.211 163.469H107.578C107.578 162.88 107.648 162.339 107.789 161.844C107.935 161.349 108.148 160.919 108.43 160.555C108.711 160.185 109.057 159.898 109.469 159.695C109.885 159.492 110.367 159.391 110.914 159.391C111.294 159.391 111.643 159.448 111.961 159.562C112.279 159.672 112.552 159.846 112.781 160.086C113.016 160.32 113.195 160.628 113.32 161.008C113.445 161.383 113.508 161.833 113.508 162.359V168H111.445V162.57C111.445 162.174 111.388 161.865 111.273 161.641C111.164 161.417 111.005 161.26 110.797 161.172C110.589 161.078 110.339 161.031 110.047 161.031C109.724 161.031 109.445 161.096 109.211 161.227C108.982 161.352 108.792 161.526 108.641 161.75C108.495 161.974 108.385 162.232 108.312 162.523C108.245 162.815 108.211 163.13 108.211 163.469ZM113.352 163.086L112.5 163.242C112.505 162.711 112.578 162.214 112.719 161.75C112.859 161.281 113.065 160.872 113.336 160.523C113.612 160.169 113.953 159.893 114.359 159.695C114.771 159.492 115.245 159.391 115.781 159.391C116.198 159.391 116.573 159.451 116.906 159.57C117.245 159.685 117.534 159.87 117.773 160.125C118.013 160.375 118.195 160.701 118.32 161.102C118.451 161.503 118.516 161.992 118.516 162.57V168H116.438V162.562C116.438 162.151 116.38 161.836 116.266 161.617C116.156 161.398 115.997 161.247 115.789 161.164C115.581 161.076 115.336 161.031 115.055 161.031C114.768 161.031 114.518 161.086 114.305 161.195C114.096 161.299 113.919 161.445 113.773 161.633C113.633 161.82 113.526 162.039 113.453 162.289C113.385 162.534 113.352 162.799 113.352 163.086ZM125.016 165.688C125.016 165.51 124.969 165.352 124.875 165.211C124.781 165.07 124.604 164.943 124.344 164.828C124.089 164.708 123.714 164.596 123.219 164.492C122.781 164.398 122.378 164.281 122.008 164.141C121.638 164 121.32 163.831 121.055 163.633C120.789 163.43 120.581 163.193 120.43 162.922C120.284 162.646 120.211 162.328 120.211 161.969C120.211 161.62 120.286 161.292 120.438 160.984C120.589 160.672 120.807 160.398 121.094 160.164C121.38 159.924 121.729 159.737 122.141 159.602C122.552 159.461 123.016 159.391 123.531 159.391C124.25 159.391 124.867 159.508 125.383 159.742C125.904 159.977 126.302 160.299 126.578 160.711C126.854 161.117 126.992 161.576 126.992 162.086H124.93C124.93 161.862 124.878 161.659 124.773 161.477C124.674 161.294 124.521 161.148 124.312 161.039C124.104 160.924 123.841 160.867 123.523 160.867C123.237 160.867 122.995 160.914 122.797 161.008C122.604 161.102 122.458 161.224 122.359 161.375C122.26 161.526 122.211 161.693 122.211 161.875C122.211 162.01 122.237 162.133 122.289 162.242C122.346 162.346 122.438 162.443 122.562 162.531C122.688 162.62 122.857 162.701 123.07 162.773C123.289 162.846 123.557 162.917 123.875 162.984C124.505 163.109 125.055 163.276 125.523 163.484C125.997 163.688 126.367 163.958 126.633 164.297C126.898 164.635 127.031 165.068 127.031 165.594C127.031 165.969 126.951 166.312 126.789 166.625C126.628 166.932 126.393 167.201 126.086 167.43C125.779 167.659 125.411 167.839 124.984 167.969C124.557 168.094 124.076 168.156 123.539 168.156C122.763 168.156 122.107 168.018 121.57 167.742C121.034 167.461 120.628 167.107 120.352 166.68C120.076 166.247 119.938 165.799 119.938 165.336H121.914C121.93 165.664 122.018 165.927 122.18 166.125C122.341 166.323 122.544 166.466 122.789 166.555C123.039 166.638 123.302 166.68 123.578 166.68C123.891 166.68 124.154 166.638 124.367 166.555C124.581 166.466 124.742 166.349 124.852 166.203C124.961 166.052 125.016 165.88 125.016 165.688Z" fill="#E3DFD4"/>
<path d="M23.2749 175.745H23.3765V176.742H23.2749C22.6528 176.742 22.1323 176.843 21.7134 177.046C21.2944 177.245 20.9622 177.514 20.7168 177.853C20.4714 178.187 20.2936 178.563 20.1836 178.982C20.0778 179.401 20.0249 179.827 20.0249 180.258V181.617C20.0249 182.027 20.0736 182.391 20.1709 182.708C20.2682 183.022 20.4015 183.286 20.5708 183.502C20.7401 183.718 20.9305 183.881 21.1421 183.991C21.3579 184.101 21.5822 184.156 21.8149 184.156C22.0858 184.156 22.327 184.105 22.5386 184.003C22.7502 183.898 22.9279 183.752 23.0718 183.565C23.2199 183.375 23.332 183.151 23.4082 182.893C23.4844 182.634 23.5225 182.351 23.5225 182.042C23.5225 181.767 23.4886 181.502 23.4209 181.249C23.3532 180.99 23.2495 180.762 23.1099 180.563C22.9702 180.36 22.7946 180.201 22.583 180.087C22.3757 179.968 22.1281 179.909 21.8403 179.909C21.5145 179.909 21.2098 179.99 20.9263 180.15C20.647 180.307 20.4163 180.514 20.2344 180.772C20.0566 181.026 19.9551 181.304 19.9297 181.604L19.3076 181.598C19.3669 181.124 19.4769 180.72 19.6377 180.385C19.8027 180.047 20.0059 179.772 20.2471 179.56C20.4925 179.344 20.7655 179.188 21.0659 179.09C21.3706 178.989 21.6922 178.938 22.0308 178.938C22.492 178.938 22.8898 179.025 23.2241 179.198C23.5584 179.372 23.8335 179.604 24.0493 179.896C24.2651 180.184 24.4238 180.51 24.5254 180.874C24.6312 181.234 24.6841 181.604 24.6841 181.985C24.6841 182.421 24.6227 182.829 24.5 183.21C24.3773 183.591 24.1932 183.925 23.9478 184.213C23.7065 184.501 23.4082 184.725 23.0527 184.886C22.6973 185.047 22.2847 185.127 21.8149 185.127C21.3156 185.127 20.8797 185.025 20.5073 184.822C20.1349 184.615 19.826 184.34 19.5806 183.997C19.3351 183.654 19.151 183.273 19.0283 182.854C18.9056 182.436 18.8442 182.01 18.8442 181.579V181.026C18.8442 180.375 18.9098 179.736 19.041 179.109C19.1722 178.483 19.3986 177.916 19.7202 177.408C20.0461 176.9 20.4967 176.496 21.0723 176.196C21.6478 175.895 22.382 175.745 23.2749 175.745ZM34.3516 183.94L36.7002 185.8L35.875 186.562L33.5645 184.727L34.3516 183.94ZM36.6685 180.087V180.671C36.6685 181.365 36.5817 181.987 36.4082 182.537C36.2347 183.087 35.985 183.555 35.6592 183.94C35.3333 184.325 34.9419 184.619 34.4849 184.822C34.0321 185.025 33.5243 185.127 32.9614 185.127C32.4155 185.127 31.9141 185.025 31.457 184.822C31.0042 184.619 30.6107 184.325 30.2764 183.94C29.9463 183.555 29.6903 183.087 29.5083 182.537C29.3263 181.987 29.2354 181.365 29.2354 180.671V180.087C29.2354 179.393 29.3242 178.773 29.502 178.227C29.6839 177.677 29.9399 177.209 30.27 176.824C30.6001 176.435 30.9915 176.139 31.4443 175.936C31.9014 175.732 32.4028 175.631 32.9487 175.631C33.5116 175.631 34.0215 175.732 34.4785 175.936C34.9355 176.139 35.327 176.435 35.6528 176.824C35.9787 177.209 36.2284 177.677 36.4019 178.227C36.5796 178.773 36.6685 179.393 36.6685 180.087ZM35.4561 180.671V180.074C35.4561 179.524 35.3989 179.037 35.2847 178.614C35.1746 178.191 35.0117 177.836 34.7959 177.548C34.5801 177.26 34.3177 177.042 34.0088 176.894C33.6999 176.746 33.3465 176.672 32.9487 176.672C32.5721 176.672 32.2293 176.746 31.9204 176.894C31.6157 177.042 31.3534 177.26 31.1333 177.548C30.9132 177.836 30.744 178.191 30.6255 178.614C30.507 179.037 30.4478 179.524 30.4478 180.074V180.671C30.4478 181.225 30.507 181.716 30.6255 182.144C30.744 182.567 30.9132 182.924 31.1333 183.216C31.3576 183.504 31.6242 183.722 31.9331 183.87C32.242 184.018 32.5848 184.092 32.9614 184.092C33.3592 184.092 33.7126 184.018 34.0215 183.87C34.3304 183.722 34.5907 183.504 34.8022 183.216C35.0181 182.924 35.181 182.567 35.291 182.144C35.401 181.716 35.4561 181.225 35.4561 180.671ZM42.5845 183.413V178.132H43.7651V185H42.6416L42.5845 183.413ZM42.8066 181.966L43.2954 181.953C43.2954 182.41 43.2467 182.833 43.1494 183.223C43.0563 183.608 42.904 183.942 42.6924 184.226C42.4808 184.509 42.2036 184.731 41.8608 184.892C41.5181 185.049 41.1012 185.127 40.6104 185.127C40.276 185.127 39.9692 185.078 39.6899 184.981C39.4149 184.884 39.1779 184.733 38.979 184.53C38.7801 184.327 38.6257 184.063 38.5156 183.737C38.4098 183.411 38.3569 183.02 38.3569 182.562V178.132H39.5312V182.575C39.5312 182.884 39.5651 183.14 39.6328 183.343C39.7048 183.542 39.8 183.701 39.9185 183.819C40.0412 183.934 40.1766 184.014 40.3247 184.061C40.4771 184.107 40.6336 184.13 40.7944 184.13C41.2938 184.13 41.6895 184.035 41.9814 183.845C42.2734 183.65 42.4829 183.39 42.6099 183.064C42.741 182.734 42.8066 182.368 42.8066 181.966ZM46.8311 178.132V185H45.6504V178.132H46.8311ZM45.5615 176.31C45.5615 176.12 45.6187 175.959 45.7329 175.828C45.8514 175.696 46.0249 175.631 46.2534 175.631C46.4777 175.631 46.6491 175.696 46.7676 175.828C46.8903 175.959 46.9517 176.12 46.9517 176.31C46.9517 176.492 46.8903 176.649 46.7676 176.78C46.6491 176.907 46.4777 176.97 46.2534 176.97C46.0249 176.97 45.8514 176.907 45.7329 176.78C45.6187 176.649 45.5615 176.492 45.5615 176.31ZM53.8325 184.035V185H48.8369V184.035H53.8325ZM53.6484 178.963L49.1035 185H48.3862V184.137L52.8994 178.132H53.6484V178.963ZM53.1279 178.132V179.103H48.437V178.132H53.1279ZM60.2817 184.035V185H55.2861V184.035H60.2817ZM60.0977 178.963L55.5527 185H54.8354V184.137L59.3486 178.132H60.0977V178.963ZM59.5771 178.132V179.103H54.8862V178.132H59.5771ZM64.3633 185.127C63.8851 185.127 63.4513 185.047 63.062 184.886C62.6769 184.721 62.3447 184.49 62.0654 184.194C61.7904 183.898 61.5788 183.546 61.4307 183.14C61.2826 182.734 61.2085 182.29 61.2085 181.807V181.541C61.2085 180.982 61.291 180.485 61.4561 180.049C61.6211 179.609 61.8454 179.236 62.1289 178.932C62.4124 178.627 62.734 178.396 63.0938 178.24C63.4535 178.083 63.8258 178.005 64.2109 178.005C64.7018 178.005 65.125 178.09 65.4805 178.259C65.8402 178.428 66.1343 178.665 66.3628 178.97C66.5913 179.27 66.7606 179.626 66.8706 180.036C66.9806 180.442 67.0356 180.887 67.0356 181.369V181.896H61.9067V180.938H65.8613V180.849C65.8444 180.544 65.7809 180.248 65.6709 179.96C65.5651 179.672 65.3958 179.435 65.1631 179.249C64.9303 179.063 64.613 178.97 64.2109 178.97C63.9443 178.97 63.6989 179.027 63.4746 179.141C63.2503 179.251 63.0578 179.416 62.897 179.636C62.7362 179.856 62.6113 180.125 62.5225 180.442C62.4336 180.76 62.3892 181.126 62.3892 181.541V181.807C62.3892 182.133 62.4336 182.44 62.5225 182.728C62.6156 183.011 62.7489 183.261 62.9224 183.477C63.1001 183.692 63.3138 183.862 63.5635 183.984C63.8174 184.107 64.1051 184.168 64.4268 184.168C64.8415 184.168 65.1927 184.084 65.4805 183.915C65.7682 183.745 66.02 183.519 66.2358 183.235L66.9468 183.8C66.7987 184.025 66.6104 184.238 66.3818 184.441C66.1533 184.645 65.8719 184.81 65.5376 184.937C65.2075 185.063 64.8161 185.127 64.3633 185.127ZM72.4058 183.178C72.4058 183.009 72.3677 182.852 72.2915 182.708C72.2196 182.56 72.0693 182.427 71.8408 182.309C71.6165 182.186 71.278 182.08 70.8252 181.991C70.4443 181.911 70.0994 181.816 69.7905 181.706C69.4858 181.596 69.2256 181.462 69.0098 181.306C68.7982 181.149 68.6353 180.965 68.521 180.753C68.4067 180.542 68.3496 180.294 68.3496 180.011C68.3496 179.74 68.4089 179.484 68.5273 179.243C68.6501 179.001 68.8215 178.788 69.0415 178.602C69.2658 178.415 69.5345 178.269 69.8477 178.164C70.1608 178.058 70.5099 178.005 70.895 178.005C71.4451 178.005 71.9149 178.102 72.3042 178.297C72.6935 178.492 72.9919 178.752 73.1992 179.078C73.4066 179.399 73.5103 179.757 73.5103 180.15H72.3359C72.3359 179.96 72.2788 179.776 72.1646 179.598C72.0545 179.416 71.8916 179.266 71.6758 179.147C71.4642 179.029 71.2039 178.97 70.895 178.97C70.5692 178.97 70.3047 179.021 70.1016 179.122C69.9027 179.219 69.7567 179.344 69.6636 179.497C69.5747 179.649 69.5303 179.81 69.5303 179.979C69.5303 180.106 69.5514 180.22 69.5938 180.322C69.6403 180.419 69.7207 180.51 69.835 180.595C69.9492 180.675 70.11 180.751 70.3174 180.823C70.5247 180.895 70.7892 180.967 71.1108 181.039C71.6737 181.166 72.137 181.318 72.501 181.496C72.8649 181.674 73.1357 181.892 73.3135 182.15C73.4912 182.408 73.5801 182.721 73.5801 183.089C73.5801 183.39 73.5166 183.665 73.3896 183.915C73.2669 184.164 73.0871 184.38 72.8501 184.562C72.6174 184.74 72.3381 184.879 72.0122 184.981C71.6906 185.078 71.3288 185.127 70.9268 185.127C70.3216 185.127 69.8096 185.019 69.3906 184.803C68.9717 184.587 68.6543 184.308 68.4385 183.965C68.2227 183.623 68.1147 183.261 68.1147 182.88H69.2954C69.3123 183.201 69.4054 183.458 69.5747 183.648C69.744 183.834 69.9513 183.967 70.1968 184.048C70.4422 184.124 70.6855 184.162 70.9268 184.162C71.2484 184.162 71.5171 184.12 71.7329 184.035C71.953 183.951 72.1201 183.834 72.2344 183.686C72.3486 183.538 72.4058 183.369 72.4058 183.178Z" fill="#E3DFD4"/>
</svg>
