<svg width="352" height="159" viewBox="0 0 352 159" fill="none" xmlns="http://www.w3.org/2000/svg">
<rect x="3" y="3.9989" width="349" height="155" rx="10" fill="#ACB1A7"/>
<rect y="-0.00109863" width="349" height="155" rx="10" fill="#6B9059"/>
<path d="M174.086 79.7734L176.922 70.625H179.305L175.289 82H173.703L174.086 79.7734ZM171.469 70.625L174.289 79.7734L174.695 82H173.094L169.094 70.625H171.469ZM182.508 73.5469V82H180.438V73.5469H182.508ZM180.297 71.3359C180.297 71.0286 180.401 70.7734 180.609 70.5703C180.823 70.3672 181.109 70.2656 181.469 70.2656C181.828 70.2656 182.112 70.3672 182.32 70.5703C182.534 70.7734 182.641 71.0286 182.641 71.3359C182.641 71.638 182.534 71.8906 182.32 72.0938C182.112 72.2969 181.828 72.3984 181.469 72.3984C181.109 72.3984 180.823 72.2969 180.609 72.0938C180.401 71.8906 180.297 71.638 180.297 71.3359ZM188.273 82.1562C187.633 82.1562 187.057 82.0521 186.547 81.8438C186.036 81.6354 185.602 81.3464 185.242 80.9766C184.888 80.6016 184.615 80.1667 184.422 79.6719C184.234 79.1719 184.141 78.6354 184.141 78.0625V77.75C184.141 77.099 184.234 76.5078 184.422 75.9766C184.609 75.4401 184.875 74.9792 185.219 74.5938C185.562 74.2083 185.974 73.9115 186.453 73.7031C186.932 73.4948 187.461 73.3906 188.039 73.3906C188.638 73.3906 189.167 73.4922 189.625 73.6953C190.083 73.8932 190.466 74.1745 190.773 74.5391C191.081 74.9036 191.312 75.3411 191.469 75.8516C191.625 76.3568 191.703 76.9167 191.703 77.5312V78.3984H185.078V76.9766H189.672V76.8203C189.661 76.4922 189.599 76.1927 189.484 75.9219C189.37 75.6458 189.193 75.4271 188.953 75.2656C188.714 75.099 188.404 75.0156 188.023 75.0156C187.716 75.0156 187.448 75.0833 187.219 75.2188C186.995 75.349 186.807 75.5365 186.656 75.7812C186.51 76.0208 186.401 76.3073 186.328 76.6406C186.255 76.974 186.219 77.3438 186.219 77.75V78.0625C186.219 78.4167 186.266 78.7448 186.359 79.0469C186.458 79.349 186.602 79.612 186.789 79.8359C186.982 80.0547 187.211 80.2266 187.477 80.3516C187.747 80.4714 188.055 80.5312 188.398 80.5312C188.831 80.5312 189.221 80.4479 189.57 80.2812C189.924 80.1094 190.232 79.8568 190.492 79.5234L191.531 80.6016C191.354 80.862 191.115 81.112 190.812 81.3516C190.516 81.5911 190.156 81.7865 189.734 81.9375C189.312 82.0833 188.826 82.1562 188.273 82.1562ZM195.438 79.9688L197.289 73.5469H198.602L198.211 75.7656L196.344 82H195.211L195.438 79.9688ZM194.414 73.5469L195.805 79.9844L195.93 82H194.625L192.406 73.5469H194.414ZM200.32 79.8906L201.68 73.5469H203.68L201.477 82H200.172L200.32 79.8906ZM198.805 73.5469L200.641 79.9062L200.883 82H199.75L197.867 75.7656L197.484 73.5469H198.805ZM213.414 77.8516H210.484V76.1641H213.414C213.893 76.1641 214.281 76.0859 214.578 75.9297C214.88 75.7682 215.102 75.5495 215.242 75.2734C215.383 74.9922 215.453 74.6719 215.453 74.3125C215.453 73.9635 215.383 73.638 215.242 73.3359C215.102 73.0339 214.88 72.7891 214.578 72.6016C214.281 72.4141 213.893 72.3203 213.414 72.3203H211.188V82H209.039V70.625H213.414C214.299 70.625 215.055 70.7839 215.68 71.1016C216.31 71.4141 216.789 71.849 217.117 72.4062C217.451 72.9583 217.617 73.5885 217.617 74.2969C217.617 75.0312 217.451 75.6641 217.117 76.1953C216.789 76.7266 216.31 77.1354 215.68 77.4219C215.055 77.7083 214.299 77.8516 213.414 77.8516ZM223.711 80.2031V76.3047C223.711 76.0182 223.661 75.7708 223.562 75.5625C223.464 75.3542 223.312 75.1927 223.109 75.0781C222.906 74.9635 222.648 74.9062 222.336 74.9062C222.06 74.9062 221.818 74.9531 221.609 75.0469C221.406 75.1406 221.25 75.2734 221.141 75.4453C221.031 75.612 220.977 75.8047 220.977 76.0234H218.906C218.906 75.6745 218.99 75.3438 219.156 75.0312C219.323 74.7135 219.56 74.4323 219.867 74.1875C220.18 73.9375 220.552 73.7422 220.984 73.6016C221.422 73.4609 221.911 73.3906 222.453 73.3906C223.094 73.3906 223.664 73.5 224.164 73.7188C224.669 73.9323 225.065 74.2552 225.352 74.6875C225.643 75.1198 225.789 75.6641 225.789 76.3203V80.0078C225.789 80.4297 225.815 80.7917 225.867 81.0938C225.924 81.3906 226.008 81.6484 226.117 81.8672V82H224.016C223.917 81.7865 223.841 81.5156 223.789 81.1875C223.737 80.8542 223.711 80.526 223.711 80.2031ZM224 76.8516L224.016 78.0781H222.711C222.388 78.0781 222.104 78.112 221.859 78.1797C221.615 78.2422 221.414 78.3359 221.258 78.4609C221.102 78.5807 220.984 78.7266 220.906 78.8984C220.828 79.0651 220.789 79.2552 220.789 79.4688C220.789 79.6771 220.836 79.8646 220.93 80.0312C221.029 80.1979 221.169 80.3307 221.352 80.4297C221.539 80.5234 221.758 80.5703 222.008 80.5703C222.372 80.5703 222.69 80.4974 222.961 80.3516C223.232 80.2005 223.443 80.0182 223.594 79.8047C223.745 79.5911 223.826 79.388 223.836 79.1953L224.43 80.0859C224.357 80.2995 224.247 80.526 224.102 80.7656C223.956 81.0052 223.768 81.2292 223.539 81.4375C223.31 81.6458 223.034 81.8177 222.711 81.9531C222.388 82.0885 222.013 82.1562 221.586 82.1562C221.039 82.1562 220.549 82.0469 220.117 81.8281C219.685 81.6094 219.344 81.3099 219.094 80.9297C218.844 80.5495 218.719 80.1172 218.719 79.6328C218.719 79.1849 218.802 78.7891 218.969 78.4453C219.135 78.1016 219.383 77.8125 219.711 77.5781C220.039 77.3385 220.445 77.1589 220.93 77.0391C221.419 76.9141 221.979 76.8516 222.609 76.8516H224ZM232.297 79.6875C232.297 79.5104 232.25 79.3516 232.156 79.2109C232.062 79.0703 231.885 78.9427 231.625 78.8281C231.37 78.7083 230.995 78.5964 230.5 78.4922C230.062 78.3984 229.659 78.2812 229.289 78.1406C228.919 78 228.602 77.8307 228.336 77.6328C228.07 77.4297 227.862 77.1927 227.711 76.9219C227.565 76.6458 227.492 76.3281 227.492 75.9688C227.492 75.6198 227.568 75.2917 227.719 74.9844C227.87 74.6719 228.089 74.3984 228.375 74.1641C228.661 73.9245 229.01 73.737 229.422 73.6016C229.833 73.4609 230.297 73.3906 230.812 73.3906C231.531 73.3906 232.148 73.5078 232.664 73.7422C233.185 73.9766 233.583 74.2995 233.859 74.7109C234.135 75.1172 234.273 75.5755 234.273 76.0859H232.211C232.211 75.862 232.159 75.6589 232.055 75.4766C231.956 75.2943 231.802 75.1484 231.594 75.0391C231.385 74.9245 231.122 74.8672 230.805 74.8672C230.518 74.8672 230.276 74.9141 230.078 75.0078C229.885 75.1016 229.74 75.224 229.641 75.375C229.542 75.526 229.492 75.6927 229.492 75.875C229.492 76.0104 229.518 76.1328 229.57 76.2422C229.628 76.3464 229.719 76.4427 229.844 76.5312C229.969 76.6198 230.138 76.7005 230.352 76.7734C230.57 76.8464 230.839 76.9167 231.156 76.9844C231.786 77.1094 232.336 77.276 232.805 77.4844C233.279 77.6875 233.648 77.9583 233.914 78.2969C234.18 78.6354 234.312 79.0677 234.312 79.5938C234.312 79.9688 234.232 80.3125 234.07 80.625C233.909 80.9323 233.674 81.2005 233.367 81.4297C233.06 81.6589 232.693 81.8385 232.266 81.9688C231.839 82.0938 231.357 82.1562 230.82 82.1562C230.044 82.1562 229.388 82.0182 228.852 81.7422C228.315 81.4609 227.909 81.1068 227.633 80.6797C227.357 80.2474 227.219 79.7995 227.219 79.3359H229.195C229.211 79.6641 229.299 79.9271 229.461 80.125C229.622 80.3229 229.826 80.4661 230.07 80.5547C230.32 80.638 230.583 80.6797 230.859 80.6797C231.172 80.6797 231.435 80.638 231.648 80.5547C231.862 80.4661 232.023 80.349 232.133 80.2031C232.242 80.0521 232.297 79.8802 232.297 79.6875ZM239.883 73.5469V75.0312H235.039V73.5469H239.883ZM236.336 71.4688H238.406V79.5625C238.406 79.8125 238.44 80.0052 238.508 80.1406C238.576 80.276 238.677 80.3672 238.812 80.4141C238.948 80.4609 239.109 80.4844 239.297 80.4844C239.432 80.4844 239.557 80.4766 239.672 80.4609C239.786 80.4453 239.883 80.4297 239.961 80.4141L239.969 81.9609C239.797 82.0182 239.602 82.0651 239.383 82.1016C239.169 82.138 238.927 82.1562 238.656 82.1562C238.193 82.1562 237.786 82.0781 237.438 81.9219C237.089 81.7604 236.818 81.5026 236.625 81.1484C236.432 80.7891 236.336 80.3151 236.336 79.7266V71.4688ZM251.5 80.3984L254.531 82.8047L253.156 84L250.172 81.6094L251.5 80.3984ZM254.586 76.0234V76.6094C254.586 77.4688 254.471 78.2422 254.242 78.9297C254.013 79.612 253.685 80.1927 253.258 80.6719C252.836 81.151 252.333 81.5182 251.75 81.7734C251.167 82.0286 250.521 82.1562 249.812 82.1562C249.109 82.1562 248.464 82.0286 247.875 81.7734C247.292 81.5182 246.786 81.151 246.359 80.6719C245.932 80.1927 245.602 79.612 245.367 78.9297C245.133 78.2422 245.016 77.4688 245.016 76.6094V76.0234C245.016 75.1589 245.13 74.3854 245.359 73.7031C245.594 73.0208 245.922 72.4401 246.344 71.9609C246.771 71.4766 247.276 71.1068 247.859 70.8516C248.448 70.5964 249.094 70.4688 249.797 70.4688C250.505 70.4688 251.151 70.5964 251.734 70.8516C252.323 71.1068 252.828 71.4766 253.25 71.9609C253.677 72.4401 254.005 73.0208 254.234 73.7031C254.469 74.3854 254.586 75.1589 254.586 76.0234ZM252.414 76.6094V76.0078C252.414 75.388 252.357 74.8438 252.242 74.375C252.128 73.901 251.956 73.5026 251.727 73.1797C251.503 72.8568 251.229 72.6146 250.906 72.4531C250.583 72.2865 250.214 72.2031 249.797 72.2031C249.385 72.2031 249.018 72.2865 248.695 72.4531C248.372 72.6146 248.099 72.8568 247.875 73.1797C247.651 73.5026 247.479 73.901 247.359 74.375C247.245 74.8438 247.188 75.388 247.188 76.0078V76.6094C247.188 77.224 247.245 77.7682 247.359 78.2422C247.479 78.7161 247.651 79.1172 247.875 79.4453C248.104 79.7682 248.38 80.013 248.703 80.1797C249.031 80.3464 249.401 80.4297 249.812 80.4297C250.229 80.4297 250.599 80.3464 250.922 80.1797C251.245 80.013 251.516 79.7682 251.734 79.4453C251.958 79.1172 252.128 78.7161 252.242 78.2422C252.357 77.7682 252.414 77.224 252.414 76.6094ZM261.305 79.9922V73.5469H263.383V82H261.43L261.305 79.9922ZM261.57 78.2422L262.211 78.2266C262.211 78.7943 262.148 79.3177 262.023 79.7969C261.898 80.276 261.703 80.6927 261.438 81.0469C261.177 81.3958 260.846 81.6693 260.445 81.8672C260.044 82.0599 259.57 82.1562 259.023 82.1562C258.607 82.1562 258.227 82.099 257.883 81.9844C257.539 81.8646 257.242 81.6797 256.992 81.4297C256.747 81.1745 256.557 80.849 256.422 80.4531C256.286 80.0521 256.219 79.5703 256.219 79.0078V73.5469H258.281V79.0234C258.281 79.3047 258.312 79.5391 258.375 79.7266C258.443 79.9141 258.534 80.0677 258.648 80.1875C258.768 80.3021 258.906 80.3854 259.062 80.4375C259.224 80.4844 259.396 80.5078 259.578 80.5078C260.078 80.5078 260.471 80.4089 260.758 80.2109C261.049 80.0078 261.258 79.737 261.383 79.3984C261.508 79.0547 261.57 78.6693 261.57 78.2422ZM267.398 73.5469V82H265.328V73.5469H267.398ZM265.188 71.3359C265.188 71.0286 265.292 70.7734 265.5 70.5703C265.714 70.3672 266 70.2656 266.359 70.2656C266.719 70.2656 267.003 70.3672 267.211 70.5703C267.424 70.7734 267.531 71.0286 267.531 71.3359C267.531 71.638 267.424 71.8906 267.211 72.0938C267.003 72.2969 266.719 72.3984 266.359 72.3984C266 72.3984 265.714 72.2969 265.5 72.0938C265.292 71.8906 265.188 71.638 265.188 71.3359ZM275.992 80.375V82H269.633V80.375H275.992ZM275.844 74.7812L270.406 82H269.047V80.7266L274.453 73.5469H275.844V74.7812ZM275.086 73.5469V75.1797H269.156V73.5469H275.086ZM284.086 80.375V82H277.727V80.375H284.086ZM283.938 74.7812L278.5 82H277.141V80.7266L282.547 73.5469H283.938V74.7812ZM283.18 73.5469V75.1797H277.25V73.5469H283.18ZM289.227 82.1562C288.586 82.1562 288.01 82.0521 287.5 81.8438C286.99 81.6354 286.555 81.3464 286.195 80.9766C285.841 80.6016 285.568 80.1667 285.375 79.6719C285.188 79.1719 285.094 78.6354 285.094 78.0625V77.75C285.094 77.099 285.188 76.5078 285.375 75.9766C285.562 75.4401 285.828 74.9792 286.172 74.5938C286.516 74.2083 286.927 73.9115 287.406 73.7031C287.885 73.4948 288.414 73.3906 288.992 73.3906C289.591 73.3906 290.12 73.4922 290.578 73.6953C291.036 73.8932 291.419 74.1745 291.727 74.5391C292.034 74.9036 292.266 75.3411 292.422 75.8516C292.578 76.3568 292.656 76.9167 292.656 77.5312V78.3984H286.031V76.9766H290.625V76.8203C290.615 76.4922 290.552 76.1927 290.438 75.9219C290.323 75.6458 290.146 75.4271 289.906 75.2656C289.667 75.099 289.357 75.0156 288.977 75.0156C288.669 75.0156 288.401 75.0833 288.172 75.2188C287.948 75.349 287.76 75.5365 287.609 75.7812C287.464 76.0208 287.354 76.3073 287.281 76.6406C287.208 76.974 287.172 77.3438 287.172 77.75V78.0625C287.172 78.4167 287.219 78.7448 287.312 79.0469C287.411 79.349 287.555 79.612 287.742 79.8359C287.935 80.0547 288.164 80.2266 288.43 80.3516C288.701 80.4714 289.008 80.5312 289.352 80.5312C289.784 80.5312 290.174 80.4479 290.523 80.2812C290.878 80.1094 291.185 79.8568 291.445 79.5234L292.484 80.6016C292.307 80.862 292.068 81.112 291.766 81.3516C291.469 81.5911 291.109 81.7865 290.688 81.9375C290.266 82.0833 289.779 82.1562 289.227 82.1562ZM298.688 79.6875C298.688 79.5104 298.641 79.3516 298.547 79.2109C298.453 79.0703 298.276 78.9427 298.016 78.8281C297.76 78.7083 297.385 78.5964 296.891 78.4922C296.453 78.3984 296.049 78.2812 295.68 78.1406C295.31 78 294.992 77.8307 294.727 77.6328C294.461 77.4297 294.253 77.1927 294.102 76.9219C293.956 76.6458 293.883 76.3281 293.883 75.9688C293.883 75.6198 293.958 75.2917 294.109 74.9844C294.26 74.6719 294.479 74.3984 294.766 74.1641C295.052 73.9245 295.401 73.737 295.812 73.6016C296.224 73.4609 296.688 73.3906 297.203 73.3906C297.922 73.3906 298.539 73.5078 299.055 73.7422C299.576 73.9766 299.974 74.2995 300.25 74.7109C300.526 75.1172 300.664 75.5755 300.664 76.0859H298.602C298.602 75.862 298.549 75.6589 298.445 75.4766C298.346 75.2943 298.193 75.1484 297.984 75.0391C297.776 74.9245 297.513 74.8672 297.195 74.8672C296.909 74.8672 296.667 74.9141 296.469 75.0078C296.276 75.1016 296.13 75.224 296.031 75.375C295.932 75.526 295.883 75.6927 295.883 75.875C295.883 76.0104 295.909 76.1328 295.961 76.2422C296.018 76.3464 296.109 76.4427 296.234 76.5312C296.359 76.6198 296.529 76.7005 296.742 76.7734C296.961 76.8464 297.229 76.9167 297.547 76.9844C298.177 77.1094 298.727 77.276 299.195 77.4844C299.669 77.6875 300.039 77.9583 300.305 78.2969C300.57 78.6354 300.703 79.0677 300.703 79.5938C300.703 79.9688 300.622 80.3125 300.461 80.625C300.299 80.9323 300.065 81.2005 299.758 81.4297C299.451 81.6589 299.083 81.8385 298.656 81.9688C298.229 82.0938 297.747 82.1562 297.211 82.1562C296.435 82.1562 295.779 82.0182 295.242 81.7422C294.706 81.4609 294.299 81.1068 294.023 80.6797C293.747 80.2474 293.609 79.7995 293.609 79.3359H295.586C295.602 79.6641 295.69 79.9271 295.852 80.125C296.013 80.3229 296.216 80.4661 296.461 80.5547C296.711 80.638 296.974 80.6797 297.25 80.6797C297.562 80.6797 297.826 80.638 298.039 80.5547C298.253 80.4661 298.414 80.349 298.523 80.2031C298.633 80.0521 298.688 79.8802 298.688 79.6875Z" fill="#E3DFD4"/>
<rect x="248" y="13.9989" width="74" height="12" rx="2" fill="#75A060"/>
<rect x="327" y="13.9989" width="12" height="12" rx="2" fill="#75A060"/>
<path d="M33.491 36.8241L127.456 26.1246L139.559 132.244L45.5943 142.943L33.491 36.8241Z" fill="#43634D"/>
<path d="M40.6149 99.3426L135.873 99.9432L139.555 132.241L45.5907 142.944L40.6149 99.3426Z" fill="#2E4E30"/>
<path d="M125.591 97.1629L108.166 119.071L53.535 125.297L44.3207 44.4442L118.618 35.977L125.591 97.1629Z" fill="#E3DFD4"/>
<path d="M79.1029 19.4512C83.3269 18.9698 87.1419 22.0043 87.6233 26.2283C87.6273 26.2636 87.6308 26.2989 87.6343 26.3341C87.6956 26.9494 88.2204 27.4507 88.8348 27.3807L102.254 25.8514C102.803 25.7889 103.298 26.183 103.361 26.7318L104.732 38.7662C104.795 39.3149 104.4 39.8104 103.852 39.873L58.6745 45.0216C58.1257 45.0841 57.6302 44.69 57.5677 44.1412L56.1962 32.1068C56.1336 31.5581 56.5278 31.0626 57.0765 31L71.4056 29.367C72.02 29.2969 72.4186 28.6905 72.3398 28.0772C72.3353 28.042 72.3308 28.0068 72.3268 27.9715C71.8454 23.7477 74.8791 19.9328 79.1029 19.4512ZM79.5396 23.275C77.7295 23.4813 76.4285 25.1161 76.6346 26.9262C76.8409 28.7365 78.4765 30.0375 80.2868 29.8312C82.0968 29.6246 83.397 27.9892 83.1908 26.1791C82.9843 24.3691 81.3496 23.069 79.5396 23.275Z" fill="#2A262A"/>
<path d="M105.89 99.3509L108.158 119.072L53.6089 125.268L50.6637 99.6571L105.89 99.3509Z" fill="#CDC8BB"/>
<path d="M75.6369 65.1191L111.693 61.01" stroke="#6B9059" stroke-width="3" stroke-linecap="square"/>
<path d="M56.5921 63.1072L61.3695 68.5736L68.2566 56.1674" stroke="#6B9059" stroke-width="3" stroke-linecap="square" stroke-linejoin="round"/>
<path d="M77.709 83.1384L113.765 79.0293" stroke="#6B9059" stroke-width="3" stroke-linecap="square"/>
<path d="M58.6642 81.1265L63.4416 86.5929L70.3287 74.1867" stroke="#6B9059" stroke-width="3" stroke-linecap="square" stroke-linejoin="round"/>
<path d="M79.7812 101.158L115.837 97.0486" stroke="#6B9059" stroke-width="3" stroke-linecap="square"/>
<path d="M60.7364 99.1458L65.5138 104.612L72.4009 92.206" stroke="#6B9059" stroke-width="3" stroke-linecap="square" stroke-linejoin="round"/>
<path d="M125.591 97.163L108.165 119.071L105.924 99.4043L125.591 97.163Z" fill="#ACB1A7"/>
</svg>
