<svg width="18" height="17" viewBox="0 0 18 17" fill="none" xmlns="http://www.w3.org/2000/svg">
<path d="M7.53494 0.758844C7.78636 -0.25295 9.2245 -0.252952 9.47592 0.758842L10.6651 5.54451C10.7561 5.91061 11.0453 6.19436 11.4131 6.27829L16.2334 7.37834C17.2701 7.61492 17.2701 9.09162 16.2334 9.32821L11.4131 10.4283C11.0453 10.5122 10.7561 10.7959 10.6651 11.162L9.47592 15.9477C9.2245 16.9595 7.78636 16.9595 7.53495 15.9477L6.34577 11.162C6.25479 10.7959 5.96555 10.5122 5.59777 10.4283L0.777491 9.32821C-0.259187 9.09162 -0.259187 7.61492 0.777492 7.37834L5.59777 6.27829C5.96555 6.19436 6.25479 5.91061 6.34577 5.54451L7.53494 0.758844Z" fill="#FFBEF4"/>
</svg>
