<svg width="240" height="246" viewBox="0 0 240 246" fill="none" xmlns="http://www.w3.org/2000/svg">
<rect x="72.2614" y="2.47689" width="145" height="208" rx="27" transform="rotate(16.1296 72.2614 2.47689)" fill="#FFBBF4" stroke="#646464" stroke-width="4"/>
<path d="M161.629 34.5673L125.658 24.1647C126.141 17.0587 130.881 15.9214 132.586 16.0662C138.996 17.6876 153.229 21.4787 158.884 23.6714C164.539 25.8642 163.07 31.849 161.629 34.5673Z" fill="#F8CD51" stroke="#439D93"/>
<line x1="89.5746" y1="43.3974" x2="167.386" y2="65.9" stroke="white" stroke-width="9"/>
<line x1="84.852" y1="59.7284" x2="126.159" y2="71.6742" stroke="white" stroke-width="9"/>
<line x1="79.5734" y1="77.9804" x2="120.881" y2="89.9262" stroke="white" stroke-width="9"/>
<rect x="142" y="137" width="98" height="97" rx="20" fill="#F5F5F5"/>
<rect y="76" width="59" height="57" rx="20" fill="#F5F5F5"/>
<path d="M215.512 186.225C215.225 185.363 214.937 184.5 214.362 183.638C215.225 181.913 215.8 180.763 215.225 178.175C214.65 175.875 212.925 173.288 210.625 170.988L205.737 168.4L208.037 163.225C209.187 160.925 209.187 158.05 207.75 156.038C206.312 153.738 203.725 152.3 201.137 152.3C198.262 152.3 195.962 154.025 194.525 156.613C194.525 156.613 192.225 156.038 189.35 156.9L185.612 160.35C185.612 160.35 180.725 161.788 179.862 166.1C179 170.413 178.712 175.875 177.562 177.888C176.412 179.9 170.375 187.375 166.925 191.4C164.337 194.563 164.912 198.013 167.212 200.6L181.587 214.975C183.887 217.275 189.35 218.138 193.087 214.113C197.112 210.088 194.525 204.625 194.525 204.625C195.675 203.763 198.837 201.175 202 200.313C205.162 199.45 210.05 197.725 212.637 194.275C214.937 191.4 216.087 189.1 215.512 186.225ZM188.775 210.088C187.625 211.238 185.9 211.238 184.75 210.088L172.675 198.013C172.1 197.438 171.812 196.863 171.812 196C171.812 195.138 172.1 194.563 172.675 193.988L174.687 191.975L188.775 206.063C189.35 206.638 189.637 207.213 189.637 208.075C189.637 208.938 189.35 209.513 188.775 210.088ZM207.75 181.625C206.312 181.625 205.737 180.188 204.587 179.038C203.437 177.888 200.85 177.6 198.837 178.463C196.825 179.325 195.962 181.338 195.962 183.35C195.962 186.225 197.975 188.813 200.85 188.813C202.862 188.813 203.437 188.525 204.587 187.95C206.312 186.8 206.887 185.65 208.037 185.65C209.187 185.65 210.05 186.225 210.05 187.95C210.05 189.675 208.325 191.688 206.6 192.838C204.875 193.988 203.437 194.275 201.712 194.563C199.987 194.85 198.837 194.85 196.537 196.288C194.525 197.438 192.512 198.875 191.362 200.025L178.137 186.8C180.725 183.638 183.025 180.188 183.312 178.463L185.325 167.25C185.612 166.1 186.475 165.813 187.05 165.813C187.912 165.813 188.775 166.388 189.062 166.963L190.212 163.225C190.5 162.363 191.362 161.788 191.937 161.788C193.087 161.788 194.237 162.65 193.95 164.088L192.512 170.988C194.237 167.538 196.825 163.225 198.55 160.063C199.125 159.2 199.7 158.338 201.137 158.338C202.575 158.338 203.725 160.063 203.15 161.5C202.575 162.65 197.4 171.563 195.1 175.3C194.812 175.588 195.1 175.875 195.675 175.588C196.537 175.013 198.55 173.575 200.562 173.575C204.012 173.288 205.737 174.725 206.6 175.3C207.75 176.163 208.9 177.6 209.762 179.038C210.337 180.475 209.187 181.625 207.75 181.625ZM207.175 183.638C206.025 183.638 205.162 183.925 204.587 184.788C204.012 185.65 202.862 186.8 201.425 186.8C199.412 186.8 198.262 185.363 198.262 183.638C198.262 181.913 199.412 180.763 201.425 180.763C202.862 180.763 204.012 181.913 204.587 182.775C205.162 183.638 206.025 183.638 207.175 183.638Z" fill="#545555"/>
<path d="M32.4439 100.667C32.4449 99.6386 32.1063 98.6389 31.4808 97.823C30.8553 97.0071 29.9778 96.4206 28.9847 96.1545C27.9916 95.8885 26.9385 95.9579 25.9889 96.3519C25.0393 96.7459 24.2463 97.4424 23.7332 98.3334C23.5564 98.6398 23.5086 99.0039 23.6002 99.3456C23.6919 99.6873 23.9155 99.9786 24.2219 100.155C24.5283 100.332 24.8924 100.38 25.2341 100.288C25.5758 100.197 25.8671 99.9731 26.0439 99.6667C26.2196 99.3625 26.4722 99.1099 26.7765 98.9343C27.0808 98.7588 27.4259 98.6665 27.7772 98.6667C28.3077 98.6667 28.8164 98.8774 29.1915 99.2525C29.5665 99.6276 29.7772 100.136 29.7772 100.667C29.7772 101.197 29.5665 101.706 29.1915 102.081C28.8164 102.456 28.3077 102.667 27.7772 102.667H27.7732C27.6873 102.676 27.6025 102.693 27.5199 102.719C27.4303 102.728 27.3419 102.745 27.2559 102.772C27.1828 102.812 27.1136 102.859 27.0492 102.912C26.9726 102.954 26.9003 103.003 26.8332 103.059C26.7733 103.13 26.721 103.208 26.6772 103.291C26.6286 103.351 26.5854 103.415 26.5479 103.483C26.5186 103.575 26.4994 103.669 26.4906 103.765C26.468 103.842 26.4524 103.921 26.4439 104V105.333L26.4466 105.348V106.003C26.4473 106.356 26.5881 106.694 26.838 106.944C27.088 107.193 27.4267 107.333 27.7799 107.333H27.7839C27.959 107.333 28.1323 107.298 28.2939 107.231C28.4556 107.164 28.6024 107.065 28.7259 106.941C28.8495 106.817 28.9474 106.67 29.0141 106.508C29.0808 106.346 29.1149 106.172 29.1146 105.997L29.1119 105.115C30.0719 104.83 30.9146 104.244 31.5149 103.443C32.1151 102.641 32.4409 101.668 32.4439 100.667ZM26.8399 109.72C26.6527 109.906 26.5247 110.143 26.4722 110.401C26.4197 110.66 26.445 110.928 26.5449 111.172C26.6448 111.416 26.8148 111.625 27.0334 111.772C27.2521 111.92 27.5095 111.999 27.7732 112C28.1265 111.996 28.4651 111.858 28.7199 111.613C28.9675 111.36 29.1061 111.021 29.1061 110.667C29.1061 110.313 28.9675 109.973 28.7199 109.72C28.4647 109.482 28.1288 109.35 27.7799 109.35C27.431 109.35 27.0951 109.482 26.8399 109.72Z" fill="black"/>
</svg>
