<svg width="54" height="54" viewBox="0 0 54 54" fill="none" xmlns="http://www.w3.org/2000/svg">
<circle cx="27" cy="27" r="27" fill="#628B35"/>
<path d="M34.9925 17.1895C32.7005 15.4171 29.8748 14.4743 26.9755 14.5145C24.0762 14.5548 21.2744 15.5758 19.0264 17.4112C16.7784 19.2466 15.2168 21.7882 14.5961 24.6219C13.9753 27.4556 14.3319 30.4145 15.6078 33.0163C16.8837 35.6182 19.0038 37.7098 21.6224 38.9503C24.2411 40.1908 27.2042 40.5071 30.0288 39.8477C32.8535 39.1883 35.3732 37.592 37.1776 35.3189C38.9819 33.0459 39.9645 30.23 39.9652 27.3301" stroke="#EFEBE0" stroke-width="3"/>
<path d="M31.246 10.0018L35.9271 16.2277L29.1349 20.041" stroke="#EFEBE0" stroke-width="3"/>
</svg>
