<svg width="236" height="335" viewBox="0 0 236 335" fill="none" xmlns="http://www.w3.org/2000/svg">
<rect y="8" width="236" height="327" rx="29" fill="#439D93"/>
<rect x="10" y="33" width="216" height="86" rx="20" fill="#FFBEF4"/>
<path d="M77.8512 56.008C78.2512 56.024 78.7872 56.04 79.4592 56.056C80.1472 56.072 80.8272 56.08 81.4992 56.08C82.2672 56.08 83.0112 56.072 83.7312 56.056C84.4512 56.04 84.9632 56.032 85.2672 56.032C86.7552 56.032 87.9872 56.2 88.9632 56.536C89.9552 56.856 90.6912 57.328 91.1712 57.952C91.6672 58.576 91.9152 59.328 91.9152 60.208C91.9152 60.752 91.8032 61.304 91.5792 61.864C91.3552 62.408 90.9712 62.92 90.4272 63.4C89.8992 63.864 89.1712 64.24 88.2432 64.528C87.3152 64.8 86.1472 64.936 84.7392 64.936H82.4352V64.456H84.4992C85.4432 64.456 86.1552 64.28 86.6352 63.928C87.1312 63.56 87.4672 63.08 87.6432 62.488C87.8352 61.88 87.9312 61.208 87.9312 60.472C87.9312 59.208 87.7072 58.232 87.2592 57.544C86.8112 56.84 86.0432 56.488 84.9552 56.488C84.3312 56.488 83.9232 56.624 83.7312 56.896C83.5552 57.168 83.4672 57.72 83.4672 58.552V70.456C83.4672 71.032 83.5072 71.464 83.5872 71.752C83.6832 72.04 83.8592 72.232 84.1152 72.328C84.3712 72.424 84.7552 72.488 85.2672 72.52V73C84.8352 72.968 84.2912 72.952 83.6352 72.952C82.9792 72.936 82.3152 72.928 81.6432 72.928C80.8752 72.928 80.1472 72.936 79.4592 72.952C78.7872 72.952 78.2512 72.968 77.8512 73V72.52C78.3632 72.488 78.7472 72.424 79.0032 72.328C79.2592 72.232 79.4272 72.04 79.5072 71.752C79.6032 71.464 79.6512 71.032 79.6512 70.456V58.552C79.6512 57.96 79.6032 57.528 79.5072 57.256C79.4272 56.968 79.2512 56.776 78.9792 56.68C78.7232 56.568 78.3472 56.504 77.8512 56.488V56.008ZM82.3872 64.528C83.0752 64.544 83.6672 64.576 84.1632 64.624C84.6752 64.672 85.1232 64.72 85.5072 64.768C85.8912 64.8 86.2352 64.824 86.5392 64.84C87.9952 64.968 89.0672 65.28 89.7552 65.776C90.4592 66.272 90.9152 67.016 91.1232 68.008L91.6752 70.48C91.8192 71.12 91.9712 71.568 92.1312 71.824C92.2912 72.08 92.5232 72.208 92.8272 72.208C93.0352 72.192 93.2032 72.144 93.3312 72.064C93.4752 71.968 93.6272 71.832 93.7872 71.656L94.1232 71.944C93.6912 72.44 93.2272 72.792 92.7312 73C92.2352 73.224 91.6352 73.336 90.9312 73.336C90.0672 73.336 89.3552 73.152 88.7952 72.784C88.2352 72.416 87.8672 71.736 87.6912 70.744L87.2592 68.344C87.1472 67.672 87.0112 67.088 86.8512 66.592C86.6912 66.08 86.4672 65.68 86.1792 65.392C85.9072 65.088 85.5232 64.936 85.0272 64.936H82.4352L82.3872 64.528ZM100.42 60.256C101.828 60.256 102.932 60.672 103.732 61.504C104.532 62.336 104.932 63.696 104.932 65.584H97.0363L96.9883 65.128H101.908C101.924 64.344 101.876 63.624 101.764 62.968C101.652 62.296 101.476 61.76 101.236 61.36C100.996 60.96 100.676 60.76 100.276 60.76C99.7163 60.76 99.2363 61.112 98.8363 61.816C98.4523 62.52 98.2203 63.688 98.1403 65.32L98.2123 65.464C98.1963 65.656 98.1803 65.856 98.1643 66.064C98.1643 66.272 98.1643 66.488 98.1643 66.712C98.1643 67.816 98.3163 68.712 98.6203 69.4C98.9403 70.088 99.3403 70.592 99.8203 70.912C100.3 71.216 100.788 71.368 101.284 71.368C101.62 71.368 101.964 71.32 102.316 71.224C102.684 71.112 103.052 70.92 103.42 70.648C103.788 70.36 104.132 69.96 104.452 69.448L104.884 69.592C104.692 70.2 104.388 70.792 103.972 71.368C103.556 71.944 103.028 72.416 102.388 72.784C101.748 73.152 100.98 73.336 100.084 73.336C98.9963 73.336 98.0363 73.104 97.2043 72.64C96.3723 72.176 95.7163 71.472 95.2363 70.528C94.7723 69.584 94.5403 68.384 94.5403 66.928C94.5403 65.44 94.7883 64.2 95.2843 63.208C95.7963 62.216 96.4923 61.48 97.3723 61C98.2683 60.504 99.2843 60.256 100.42 60.256ZM111.074 60.256C111.746 60.256 112.33 60.344 112.826 60.52C113.338 60.68 113.706 60.84 113.93 61C114.474 61.368 114.81 61.128 114.938 60.28H115.442C115.41 60.728 115.386 61.28 115.37 61.936C115.354 62.576 115.346 63.432 115.346 64.504H114.842C114.762 63.912 114.61 63.328 114.386 62.752C114.162 62.176 113.834 61.704 113.402 61.336C112.986 60.968 112.442 60.784 111.77 60.784C111.306 60.784 110.914 60.92 110.594 61.192C110.274 61.448 110.114 61.824 110.114 62.32C110.114 62.8 110.258 63.224 110.546 63.592C110.834 63.944 111.202 64.288 111.65 64.624C112.114 64.944 112.594 65.288 113.09 65.656C113.618 66.056 114.098 66.456 114.53 66.856C114.962 67.24 115.306 67.664 115.562 68.128C115.818 68.592 115.946 69.144 115.946 69.784C115.946 70.504 115.738 71.136 115.322 71.68C114.906 72.208 114.354 72.616 113.666 72.904C112.994 73.192 112.242 73.336 111.41 73.336C110.93 73.336 110.498 73.288 110.114 73.192C109.746 73.096 109.426 72.976 109.154 72.832C108.946 72.736 108.746 72.648 108.554 72.568C108.378 72.472 108.21 72.392 108.05 72.328C107.89 72.28 107.746 72.336 107.618 72.496C107.506 72.656 107.418 72.88 107.354 73.168H106.85C106.882 72.656 106.906 72.032 106.922 71.296C106.938 70.56 106.946 69.584 106.946 68.368H107.45C107.546 69.232 107.722 70 107.978 70.672C108.234 71.328 108.578 71.848 109.01 72.232C109.458 72.6 110.018 72.784 110.69 72.784C110.962 72.784 111.226 72.728 111.482 72.616C111.738 72.504 111.946 72.32 112.106 72.064C112.282 71.808 112.37 71.48 112.37 71.08C112.37 70.376 112.138 69.792 111.674 69.328C111.226 68.864 110.65 68.36 109.946 67.816C109.434 67.4 108.946 66.992 108.482 66.592C108.034 66.176 107.666 65.728 107.378 65.248C107.09 64.752 106.946 64.192 106.946 63.568C106.946 62.848 107.138 62.24 107.522 61.744C107.906 61.248 108.41 60.88 109.034 60.64C109.674 60.384 110.354 60.256 111.074 60.256ZM129.36 60.328V70.384C129.36 71.104 129.472 71.64 129.696 71.992C129.92 72.328 130.32 72.496 130.896 72.496V73C130.4 72.952 129.904 72.928 129.408 72.928C128.736 72.928 128.112 72.952 127.536 73C126.96 73.048 126.416 73.136 125.904 73.264V71.104C125.52 71.904 124.984 72.48 124.296 72.832C123.624 73.168 122.872 73.336 122.04 73.336C121.368 73.336 120.824 73.248 120.408 73.072C119.992 72.896 119.664 72.672 119.424 72.4C119.152 72.096 118.96 71.696 118.848 71.2C118.736 70.704 118.68 70.064 118.68 69.28V63.208C118.68 62.488 118.568 61.96 118.344 61.624C118.136 61.272 117.736 61.096 117.144 61.096V60.592C117.656 60.64 118.152 60.664 118.632 60.664C119.304 60.664 119.928 60.64 120.504 60.592C121.096 60.528 121.64 60.44 122.136 60.328V70.264C122.136 70.664 122.168 71.016 122.232 71.32C122.312 71.624 122.456 71.864 122.664 72.04C122.872 72.2 123.176 72.28 123.576 72.28C124.008 72.28 124.392 72.16 124.728 71.92C125.08 71.68 125.36 71.352 125.568 70.936C125.792 70.504 125.904 70.024 125.904 69.496V63.208C125.904 62.488 125.792 61.96 125.568 61.624C125.36 61.272 124.96 61.096 124.368 61.096V60.592C124.88 60.64 125.376 60.664 125.856 60.664C126.528 60.664 127.152 60.64 127.728 60.592C128.32 60.528 128.864 60.44 129.36 60.328ZM136.859 54.208V70.768C136.859 71.44 136.971 71.896 137.195 72.136C137.435 72.376 137.835 72.496 138.395 72.496V73C138.091 72.984 137.635 72.968 137.027 72.952C136.419 72.92 135.803 72.904 135.179 72.904C134.555 72.904 133.923 72.92 133.283 72.952C132.659 72.968 132.187 72.984 131.867 73V72.496C132.427 72.496 132.819 72.376 133.043 72.136C133.283 71.896 133.403 71.44 133.403 70.768V57.088C133.403 56.368 133.291 55.84 133.067 55.504C132.859 55.152 132.459 54.976 131.867 54.976V54.472C132.379 54.52 132.875 54.544 133.355 54.544C134.011 54.544 134.635 54.52 135.227 54.472C135.819 54.408 136.363 54.32 136.859 54.208ZM144.288 56.656V60.592H147.12V61.072H144.288V70.768C144.288 71.248 144.376 71.592 144.552 71.8C144.728 71.992 144.992 72.088 145.344 72.088C145.632 72.088 145.92 71.984 146.208 71.776C146.496 71.552 146.752 71.176 146.976 70.648L147.384 70.864C147.128 71.584 146.736 72.176 146.208 72.64C145.696 73.104 144.992 73.336 144.096 73.336C143.568 73.336 143.104 73.264 142.704 73.12C142.304 72.992 141.968 72.792 141.696 72.52C141.344 72.168 141.112 71.736 141 71.224C140.888 70.696 140.832 70.016 140.832 69.184V61.072H138.816V60.592H140.832V57.424C141.504 57.424 142.12 57.368 142.68 57.256C143.256 57.128 143.792 56.928 144.288 56.656ZM152.605 60.256C153.277 60.256 153.861 60.344 154.357 60.52C154.869 60.68 155.237 60.84 155.461 61C156.005 61.368 156.341 61.128 156.469 60.28H156.973C156.941 60.728 156.917 61.28 156.901 61.936C156.885 62.576 156.877 63.432 156.877 64.504H156.373C156.293 63.912 156.141 63.328 155.917 62.752C155.693 62.176 155.365 61.704 154.933 61.336C154.517 60.968 153.973 60.784 153.301 60.784C152.837 60.784 152.445 60.92 152.125 61.192C151.805 61.448 151.645 61.824 151.645 62.32C151.645 62.8 151.789 63.224 152.077 63.592C152.365 63.944 152.733 64.288 153.181 64.624C153.645 64.944 154.125 65.288 154.621 65.656C155.149 66.056 155.629 66.456 156.061 66.856C156.493 67.24 156.837 67.664 157.093 68.128C157.349 68.592 157.477 69.144 157.477 69.784C157.477 70.504 157.269 71.136 156.853 71.68C156.437 72.208 155.885 72.616 155.197 72.904C154.525 73.192 153.773 73.336 152.941 73.336C152.461 73.336 152.029 73.288 151.645 73.192C151.277 73.096 150.957 72.976 150.685 72.832C150.477 72.736 150.277 72.648 150.085 72.568C149.909 72.472 149.741 72.392 149.581 72.328C149.421 72.28 149.277 72.336 149.149 72.496C149.037 72.656 148.949 72.88 148.885 73.168H148.381C148.413 72.656 148.437 72.032 148.453 71.296C148.469 70.56 148.477 69.584 148.477 68.368H148.981C149.077 69.232 149.253 70 149.509 70.672C149.765 71.328 150.109 71.848 150.541 72.232C150.989 72.6 151.549 72.784 152.221 72.784C152.493 72.784 152.757 72.728 153.013 72.616C153.269 72.504 153.477 72.32 153.637 72.064C153.813 71.808 153.901 71.48 153.901 71.08C153.901 70.376 153.669 69.792 153.205 69.328C152.757 68.864 152.181 68.36 151.477 67.816C150.965 67.4 150.477 66.992 150.013 66.592C149.565 66.176 149.197 65.728 148.909 65.248C148.621 64.752 148.477 64.192 148.477 63.568C148.477 62.848 148.669 62.24 149.053 61.744C149.437 61.248 149.941 60.88 150.565 60.64C151.205 60.384 151.885 60.256 152.605 60.256ZM77.821 78.672C79.517 78.672 80.997 79.016 82.261 79.704C83.541 80.392 84.533 81.384 85.237 82.68C85.941 83.96 86.293 85.52 86.293 87.36C86.293 89.152 85.933 90.72 85.213 92.064C84.493 93.408 83.485 94.456 82.189 95.208C80.909 95.96 79.445 96.336 77.797 96.336C76.101 96.336 74.613 95.992 73.333 95.304C72.069 94.616 71.085 93.624 70.381 92.328C69.677 91.032 69.325 89.472 69.325 87.648C69.325 85.856 69.685 84.288 70.405 82.944C71.141 81.6 72.141 80.552 73.405 79.8C74.685 79.048 76.157 78.672 77.821 78.672ZM77.725 79.104C76.829 79.104 76.045 79.464 75.373 80.184C74.717 80.904 74.205 81.896 73.837 83.16C73.485 84.424 73.309 85.888 73.309 87.552C73.309 89.248 73.509 90.728 73.909 91.992C74.325 93.24 74.877 94.208 75.565 94.896C76.269 95.568 77.045 95.904 77.893 95.904C78.789 95.904 79.565 95.544 80.221 94.824C80.893 94.104 81.405 93.112 81.757 91.848C82.125 90.568 82.309 89.104 82.309 87.456C82.309 85.744 82.101 84.264 81.685 83.016C81.285 81.768 80.733 80.808 80.029 80.136C79.341 79.448 78.573 79.104 77.725 79.104ZM99.375 83.592V84.072C99.071 84.152 98.783 84.344 98.511 84.648C98.239 84.936 97.975 85.432 97.719 86.136L94.215 96.048C93.959 96.032 93.695 96.024 93.423 96.024C93.167 96.024 92.911 96.032 92.655 96.048L88.383 85.44C88.127 84.816 87.871 84.44 87.615 84.312C87.375 84.168 87.167 84.096 86.991 84.096V83.592C87.503 83.624 88.031 83.656 88.575 83.688C89.135 83.704 89.743 83.712 90.399 83.712C90.895 83.712 91.415 83.704 91.959 83.688C92.519 83.656 93.039 83.624 93.519 83.592V84.096C93.183 84.096 92.879 84.112 92.607 84.144C92.351 84.176 92.175 84.28 92.079 84.456C91.983 84.632 91.999 84.944 92.127 85.392L94.935 92.832L94.695 93.168L96.591 87.912C96.895 87.048 97.023 86.344 96.975 85.8C96.927 85.24 96.751 84.824 96.447 84.552C96.143 84.264 95.735 84.104 95.223 84.072V83.592C95.463 83.608 95.719 83.624 95.991 83.64C96.279 83.64 96.551 83.648 96.807 83.664C97.079 83.664 97.319 83.664 97.527 83.664C97.847 83.664 98.183 83.656 98.535 83.64C98.887 83.624 99.167 83.608 99.375 83.592ZM105.811 83.256C107.219 83.256 108.323 83.672 109.123 84.504C109.923 85.336 110.323 86.696 110.323 88.584H102.427L102.379 88.128H107.299C107.315 87.344 107.267 86.624 107.155 85.968C107.043 85.296 106.867 84.76 106.627 84.36C106.387 83.96 106.067 83.76 105.667 83.76C105.107 83.76 104.627 84.112 104.227 84.816C103.843 85.52 103.611 86.688 103.531 88.32L103.603 88.464C103.587 88.656 103.571 88.856 103.555 89.064C103.555 89.272 103.555 89.488 103.555 89.712C103.555 90.816 103.707 91.712 104.011 92.4C104.331 93.088 104.731 93.592 105.211 93.912C105.691 94.216 106.179 94.368 106.675 94.368C107.011 94.368 107.355 94.32 107.707 94.224C108.075 94.112 108.443 93.92 108.811 93.648C109.179 93.36 109.523 92.96 109.843 92.448L110.275 92.592C110.083 93.2 109.779 93.792 109.363 94.368C108.947 94.944 108.419 95.416 107.779 95.784C107.139 96.152 106.371 96.336 105.475 96.336C104.387 96.336 103.427 96.104 102.595 95.64C101.763 95.176 101.107 94.472 100.627 93.528C100.163 92.584 99.931 91.384 99.931 89.928C99.931 88.44 100.179 87.2 100.675 86.208C101.187 85.216 101.883 84.48 102.763 84C103.659 83.504 104.675 83.256 105.811 83.256ZM119.828 83.256C120.34 83.256 120.756 83.368 121.076 83.592C121.396 83.8 121.628 84.072 121.772 84.408C121.932 84.744 122.012 85.096 122.012 85.464C122.012 86.056 121.836 86.544 121.484 86.928C121.148 87.296 120.7 87.48 120.14 87.48C119.58 87.48 119.14 87.344 118.82 87.072C118.516 86.784 118.364 86.408 118.364 85.944C118.364 85.496 118.46 85.128 118.652 84.84C118.86 84.536 119.116 84.28 119.42 84.072C119.196 84.008 118.972 84.016 118.748 84.096C118.444 84.144 118.156 84.272 117.884 84.48C117.612 84.672 117.38 84.92 117.188 85.224C116.996 85.512 116.844 85.832 116.732 86.184C116.62 86.52 116.564 86.848 116.564 87.168V93.528C116.564 94.296 116.748 94.816 117.116 95.088C117.5 95.36 118.068 95.496 118.82 95.496V96C118.452 95.984 117.916 95.968 117.212 95.952C116.508 95.92 115.772 95.904 115.004 95.904C114.364 95.904 113.716 95.92 113.06 95.952C112.404 95.968 111.908 95.984 111.572 96V95.496C112.132 95.496 112.524 95.376 112.748 95.136C112.988 94.896 113.108 94.44 113.108 93.768V86.208C113.108 85.488 112.996 84.96 112.772 84.624C112.564 84.272 112.164 84.096 111.572 84.096V83.592C112.084 83.64 112.58 83.664 113.06 83.664C113.732 83.664 114.356 83.64 114.932 83.592C115.524 83.528 116.068 83.44 116.564 83.328V85.56C116.756 85.128 117.012 84.736 117.332 84.384C117.652 84.032 118.02 83.76 118.436 83.568C118.852 83.36 119.316 83.256 119.828 83.256ZM134.367 83.592V84.072C134.063 84.152 133.775 84.344 133.503 84.648C133.231 84.936 132.967 85.432 132.711 86.136L129.207 96.048C128.951 96.032 128.687 96.024 128.415 96.024C128.159 96.024 127.903 96.032 127.647 96.048L123.375 85.44C123.119 84.816 122.863 84.44 122.607 84.312C122.367 84.168 122.159 84.096 121.983 84.096V83.592C122.495 83.624 123.023 83.656 123.567 83.688C124.127 83.704 124.735 83.712 125.391 83.712C125.887 83.712 126.407 83.704 126.951 83.688C127.511 83.656 128.031 83.624 128.511 83.592V84.096C128.175 84.096 127.871 84.112 127.599 84.144C127.343 84.176 127.167 84.28 127.071 84.456C126.975 84.632 126.991 84.944 127.119 85.392L129.927 92.832L129.687 93.168L131.583 87.912C131.887 87.048 132.015 86.344 131.967 85.8C131.919 85.24 131.743 84.824 131.439 84.552C131.135 84.264 130.727 84.104 130.215 84.072V83.592C130.455 83.608 130.711 83.624 130.983 83.64C131.271 83.64 131.543 83.648 131.799 83.664C132.071 83.664 132.311 83.664 132.519 83.664C132.839 83.664 133.175 83.656 133.527 83.64C133.879 83.624 134.159 83.608 134.367 83.592ZM138.083 77.4C138.755 77.4 139.283 77.568 139.667 77.904C140.067 78.224 140.267 78.672 140.267 79.248C140.267 79.824 140.067 80.28 139.667 80.616C139.283 80.936 138.755 81.096 138.083 81.096C137.411 81.096 136.875 80.936 136.475 80.616C136.091 80.28 135.899 79.824 135.899 79.248C135.899 78.672 136.091 78.224 136.475 77.904C136.875 77.568 137.411 77.4 138.083 77.4ZM139.955 83.328V93.768C139.955 94.44 140.067 94.896 140.291 95.136C140.531 95.376 140.931 95.496 141.491 95.496V96C141.203 95.984 140.755 95.968 140.147 95.952C139.539 95.92 138.923 95.904 138.299 95.904C137.675 95.904 137.043 95.92 136.403 95.952C135.763 95.968 135.283 95.984 134.963 96V95.496C135.523 95.496 135.915 95.376 136.139 95.136C136.379 94.896 136.499 94.44 136.499 93.768V86.208C136.499 85.488 136.387 84.96 136.163 84.624C135.955 84.272 135.555 84.096 134.963 84.096V83.592C135.475 83.64 135.971 83.664 136.451 83.664C137.123 83.664 137.747 83.64 138.323 83.592C138.915 83.528 139.459 83.44 139.955 83.328ZM148.725 83.256C150.133 83.256 151.237 83.672 152.037 84.504C152.837 85.336 153.237 86.696 153.237 88.584H145.341L145.293 88.128H150.213C150.229 87.344 150.181 86.624 150.069 85.968C149.957 85.296 149.781 84.76 149.541 84.36C149.301 83.96 148.981 83.76 148.581 83.76C148.021 83.76 147.541 84.112 147.141 84.816C146.757 85.52 146.525 86.688 146.445 88.32L146.517 88.464C146.501 88.656 146.485 88.856 146.469 89.064C146.469 89.272 146.469 89.488 146.469 89.712C146.469 90.816 146.621 91.712 146.925 92.4C147.245 93.088 147.645 93.592 148.125 93.912C148.605 94.216 149.093 94.368 149.589 94.368C149.925 94.368 150.269 94.32 150.621 94.224C150.989 94.112 151.357 93.92 151.725 93.648C152.093 93.36 152.437 92.96 152.757 92.448L153.189 92.592C152.997 93.2 152.693 93.792 152.277 94.368C151.861 94.944 151.333 95.416 150.693 95.784C150.053 96.152 149.285 96.336 148.389 96.336C147.301 96.336 146.341 96.104 145.509 95.64C144.677 95.176 144.021 94.472 143.541 93.528C143.077 92.584 142.845 91.384 142.845 89.928C142.845 88.44 143.093 87.2 143.589 86.208C144.101 85.216 144.797 84.48 145.677 84C146.573 83.504 147.589 83.256 148.725 83.256ZM160.176 83.592V84.096C159.824 84.096 159.512 84.12 159.24 84.168C158.984 84.2 158.808 84.312 158.712 84.504C158.632 84.696 158.664 85.008 158.808 85.44L161.088 92.568L160.776 92.904L163.584 83.568L164.064 83.784L160.392 96.048C160.136 96.032 159.88 96.024 159.624 96.024C159.368 96.024 159.104 96.032 158.832 96.048L155.04 85.44C154.816 84.8 154.568 84.416 154.296 84.288C154.04 84.16 153.824 84.096 153.648 84.096V83.592C154.16 83.64 154.688 83.68 155.232 83.712C155.792 83.728 156.4 83.736 157.056 83.736C157.552 83.736 158.072 83.72 158.616 83.688C159.176 83.656 159.696 83.624 160.176 83.592ZM172.704 83.592V84.072C172.4 84.152 172.112 84.336 171.84 84.624C171.568 84.912 171.312 85.416 171.072 86.136L167.88 96.048C167.624 96.032 167.36 96.024 167.088 96.024C166.832 96.024 166.576 96.032 166.32 96.048L162.936 86.808L163.584 83.568C163.872 83.584 164.16 83.592 164.448 83.592C164.752 83.576 165.048 83.568 165.336 83.568L168.624 93.264L168.36 93L169.968 87.912C170.24 87.032 170.344 86.32 170.28 85.776C170.216 85.232 170.024 84.824 169.704 84.552C169.384 84.28 168.952 84.12 168.408 84.072V83.592C168.664 83.608 168.936 83.624 169.224 83.64C169.528 83.64 169.824 83.648 170.112 83.664C170.416 83.664 170.672 83.664 170.88 83.664C171.2 83.664 171.528 83.656 171.864 83.64C172.216 83.624 172.496 83.608 172.704 83.592Z" fill="black"/>
<path d="M86.5574 139.848L82.3494 151H80.6694L76.4614 139.848H78.0134L81.5174 149.464L85.0214 139.848H86.5574ZM88.9059 140.808C88.6285 140.808 88.3939 140.712 88.2019 140.52C88.0099 140.328 87.9139 140.093 87.9139 139.816C87.9139 139.539 88.0099 139.304 88.2019 139.112C88.3939 138.92 88.6285 138.824 88.9059 138.824C89.1725 138.824 89.3965 138.92 89.5779 139.112C89.7699 139.304 89.8659 139.539 89.8659 139.816C89.8659 140.093 89.7699 140.328 89.5779 140.52C89.3965 140.712 89.1725 140.808 88.9059 140.808ZM89.6099 142.232V151H88.1539V142.232H89.6099ZM100.091 146.28C100.091 146.557 100.075 146.851 100.043 147.16H93.0354C93.0887 148.024 93.382 148.701 93.9154 149.192C94.4594 149.672 95.1154 149.912 95.8834 149.912C96.5127 149.912 97.0354 149.768 97.4514 149.48C97.878 149.181 98.1767 148.787 98.3474 148.296H99.9154C99.6807 149.139 99.2114 149.827 98.5074 150.36C97.8034 150.883 96.9287 151.144 95.8834 151.144C95.0514 151.144 94.3047 150.957 93.6434 150.584C92.9927 150.211 92.4807 149.683 92.1074 149C91.734 148.307 91.5474 147.507 91.5474 146.6C91.5474 145.693 91.7287 144.899 92.0914 144.216C92.454 143.533 92.9607 143.011 93.6114 142.648C94.2727 142.275 95.03 142.088 95.8834 142.088C96.7154 142.088 97.4514 142.269 98.0914 142.632C98.7314 142.995 99.222 143.496 99.5634 144.136C99.9154 144.765 100.091 145.48 100.091 146.28ZM98.5874 145.976C98.5874 145.421 98.4647 144.947 98.2194 144.552C97.974 144.147 97.638 143.843 97.2114 143.64C96.7954 143.427 96.3314 143.32 95.8194 143.32C95.0834 143.32 94.454 143.555 93.9314 144.024C93.4194 144.493 93.126 145.144 93.0514 145.976H98.5874ZM113.693 142.232L110.957 151H109.453L107.341 144.04L105.229 151H103.725L100.973 142.232H102.461L104.477 149.592L106.653 142.232H108.141L110.269 149.608L112.253 142.232H113.693ZM126.956 142.232L121.676 155.128H120.172L121.9 150.904L118.364 142.232H119.98L122.732 149.336L125.452 142.232H126.956ZM132.244 151.144C131.422 151.144 130.676 150.957 130.004 150.584C129.342 150.211 128.82 149.683 128.436 149C128.062 148.307 127.876 147.507 127.876 146.6C127.876 145.704 128.068 144.915 128.452 144.232C128.846 143.539 129.38 143.011 130.052 142.648C130.724 142.275 131.476 142.088 132.308 142.088C133.14 142.088 133.892 142.275 134.564 142.648C135.236 143.011 135.764 143.533 136.148 144.216C136.542 144.899 136.74 145.693 136.74 146.6C136.74 147.507 136.537 148.307 136.132 149C135.737 149.683 135.198 150.211 134.516 150.584C133.833 150.957 133.076 151.144 132.244 151.144ZM132.244 149.864C132.766 149.864 133.257 149.741 133.716 149.496C134.174 149.251 134.542 148.883 134.82 148.392C135.108 147.901 135.252 147.304 135.252 146.6C135.252 145.896 135.113 145.299 134.836 144.808C134.558 144.317 134.196 143.955 133.748 143.72C133.3 143.475 132.814 143.352 132.292 143.352C131.758 143.352 131.268 143.475 130.82 143.72C130.382 143.955 130.03 144.317 129.764 144.808C129.497 145.299 129.364 145.896 129.364 146.6C129.364 147.315 129.492 147.917 129.748 148.408C130.014 148.899 130.366 149.267 130.804 149.512C131.241 149.747 131.721 149.864 132.244 149.864ZM146.43 142.232V151H144.974V149.704C144.697 150.152 144.307 150.504 143.806 150.76C143.315 151.005 142.771 151.128 142.174 151.128C141.491 151.128 140.878 150.989 140.334 150.712C139.79 150.424 139.358 149.997 139.038 149.432C138.729 148.867 138.574 148.179 138.574 147.368V142.232H140.014V147.176C140.014 148.04 140.233 148.707 140.67 149.176C141.107 149.635 141.705 149.864 142.462 149.864C143.241 149.864 143.854 149.624 144.302 149.144C144.75 148.664 144.974 147.965 144.974 147.048V142.232H146.43ZM150.344 143.656C150.6 143.155 150.963 142.765 151.432 142.488C151.912 142.211 152.494 142.072 153.176 142.072V143.576H152.792C151.16 143.576 150.344 144.461 150.344 146.232V151H148.888V142.232H150.344V143.656ZM70.7349 167.848C71.0229 167.347 71.4495 166.931 72.0149 166.6C72.5909 166.259 73.2575 166.088 74.0149 166.088C74.7935 166.088 75.4975 166.275 76.1269 166.648C76.7669 167.021 77.2682 167.549 77.6309 168.232C77.9935 168.904 78.1749 169.688 78.1749 170.584C78.1749 171.469 77.9935 172.259 77.6309 172.952C77.2682 173.645 76.7669 174.184 76.1269 174.568C75.4975 174.952 74.7935 175.144 74.0149 175.144C73.2682 175.144 72.6069 174.979 72.0309 174.648C71.4655 174.307 71.0335 173.885 70.7349 173.384V179.16H69.2789V166.232H70.7349V167.848ZM76.6869 170.584C76.6869 169.923 76.5535 169.347 76.2869 168.856C76.0202 168.365 75.6575 167.992 75.1989 167.736C74.7509 167.48 74.2549 167.352 73.7109 167.352C73.1775 167.352 72.6815 167.485 72.2229 167.752C71.7749 168.008 71.4122 168.387 71.1349 168.888C70.8682 169.379 70.7349 169.949 70.7349 170.6C70.7349 171.261 70.8682 171.843 71.1349 172.344C71.4122 172.835 71.7749 173.213 72.2229 173.48C72.6815 173.736 73.1775 173.864 73.7109 173.864C74.2549 173.864 74.7509 173.736 75.1989 173.48C75.6575 173.213 76.0202 172.835 76.2869 172.344C76.5535 171.843 76.6869 171.256 76.6869 170.584ZM79.5474 170.584C79.5474 169.688 79.7287 168.904 80.0914 168.232C80.454 167.549 80.95 167.021 81.5794 166.648C82.2194 166.275 82.9287 166.088 83.7074 166.088C84.4754 166.088 85.142 166.253 85.7074 166.584C86.2727 166.915 86.694 167.331 86.9714 167.832V166.232H88.4434V175H86.9714V173.368C86.6834 173.88 86.2514 174.307 85.6754 174.648C85.11 174.979 84.4487 175.144 83.6914 175.144C82.9127 175.144 82.2087 174.952 81.5794 174.568C80.95 174.184 80.454 173.645 80.0914 172.952C79.7287 172.259 79.5474 171.469 79.5474 170.584ZM86.9714 170.6C86.9714 169.939 86.838 169.363 86.5714 168.872C86.3047 168.381 85.942 168.008 85.4834 167.752C85.0354 167.485 84.5394 167.352 83.9954 167.352C83.4514 167.352 82.9554 167.48 82.5074 167.736C82.0594 167.992 81.702 168.365 81.4354 168.856C81.1687 169.347 81.0354 169.923 81.0354 170.584C81.0354 171.256 81.1687 171.843 81.4354 172.344C81.702 172.835 82.0594 173.213 82.5074 173.48C82.9554 173.736 83.4514 173.864 83.9954 173.864C84.5394 173.864 85.0354 173.736 85.4834 173.48C85.942 173.213 86.3047 172.835 86.5714 172.344C86.838 171.843 86.9714 171.261 86.9714 170.6ZM94.0079 175.144C93.3359 175.144 92.7332 175.032 92.1999 174.808C91.6665 174.573 91.2452 174.253 90.9359 173.848C90.6265 173.432 90.4559 172.957 90.4239 172.424H91.9279C91.9705 172.861 92.1732 173.219 92.5359 173.496C92.9092 173.773 93.3945 173.912 93.9919 173.912C94.5465 173.912 94.9839 173.789 95.3039 173.544C95.6239 173.299 95.7839 172.989 95.7839 172.616C95.7839 172.232 95.6132 171.949 95.2719 171.768C94.9305 171.576 94.4025 171.389 93.6879 171.208C93.0372 171.037 92.5039 170.867 92.0879 170.696C91.6825 170.515 91.3305 170.253 91.0319 169.912C90.7439 169.56 90.5999 169.101 90.5999 168.536C90.5999 168.088 90.7332 167.677 90.9999 167.304C91.2665 166.931 91.6452 166.637 92.1359 166.424C92.6265 166.2 93.1865 166.088 93.8159 166.088C94.7865 166.088 95.5705 166.333 96.1679 166.824C96.7652 167.315 97.0852 167.987 97.1279 168.84H95.6719C95.6399 168.381 95.4532 168.013 95.1119 167.736C94.7812 167.459 94.3332 167.32 93.7679 167.32C93.2452 167.32 92.8292 167.432 92.5199 167.656C92.2105 167.88 92.0559 168.173 92.0559 168.536C92.0559 168.824 92.1465 169.064 92.3279 169.256C92.5199 169.437 92.7545 169.587 93.0319 169.704C93.3199 169.811 93.7145 169.933 94.2159 170.072C94.8452 170.243 95.3572 170.413 95.7519 170.584C96.1465 170.744 96.4825 170.989 96.7599 171.32C97.0479 171.651 97.1972 172.083 97.2079 172.616C97.2079 173.096 97.0745 173.528 96.8079 173.912C96.5412 174.296 96.1625 174.6 95.6719 174.824C95.1919 175.037 94.6372 175.144 94.0079 175.144ZM101.039 167.432V172.6C101.039 173.027 101.13 173.331 101.311 173.512C101.493 173.683 101.807 173.768 102.255 173.768H103.327V175H102.015C101.205 175 100.597 174.813 100.191 174.44C99.7859 174.067 99.5833 173.453 99.5833 172.6V167.432H98.4473V166.232H99.5833V164.024H101.039V166.232H103.327V167.432H101.039ZM108.813 170.584C108.813 169.688 108.994 168.904 109.357 168.232C109.72 167.549 110.216 167.021 110.845 166.648C111.485 166.275 112.2 166.088 112.989 166.088C113.746 166.088 114.408 166.259 114.973 166.6C115.549 166.931 115.97 167.341 116.237 167.832V166.232H117.709V179.16H116.237V173.384C115.96 173.875 115.533 174.291 114.957 174.632C114.381 174.973 113.709 175.144 112.941 175.144C112.173 175.144 111.474 174.952 110.845 174.568C110.216 174.184 109.72 173.645 109.357 172.952C108.994 172.259 108.813 171.469 108.813 170.584ZM116.237 170.6C116.237 169.939 116.104 169.363 115.837 168.872C115.57 168.381 115.208 168.008 114.749 167.752C114.301 167.485 113.805 167.352 113.261 167.352C112.717 167.352 112.221 167.48 111.773 167.736C111.325 167.992 110.968 168.365 110.701 168.856C110.434 169.347 110.301 169.923 110.301 170.584C110.301 171.256 110.434 171.843 110.701 172.344C110.968 172.835 111.325 173.213 111.773 173.48C112.221 173.736 112.717 173.864 113.261 173.864C113.805 173.864 114.301 173.736 114.749 173.48C115.208 173.213 115.57 172.835 115.837 172.344C116.104 171.843 116.237 171.261 116.237 170.6ZM127.946 166.232V175H126.49V173.704C126.212 174.152 125.823 174.504 125.322 174.76C124.831 175.005 124.287 175.128 123.69 175.128C123.007 175.128 122.394 174.989 121.85 174.712C121.306 174.424 120.874 173.997 120.554 173.432C120.244 172.867 120.09 172.179 120.09 171.368V166.232H121.53V171.176C121.53 172.04 121.748 172.707 122.186 173.176C122.623 173.635 123.22 173.864 123.978 173.864C124.756 173.864 125.37 173.624 125.818 173.144C126.266 172.664 126.49 171.965 126.49 171.048V166.232H127.946ZM131.156 164.808C130.879 164.808 130.644 164.712 130.452 164.52C130.26 164.328 130.164 164.093 130.164 163.816C130.164 163.539 130.26 163.304 130.452 163.112C130.644 162.92 130.879 162.824 131.156 162.824C131.423 162.824 131.647 162.92 131.828 163.112C132.02 163.304 132.116 163.539 132.116 163.816C132.116 164.093 132.02 164.328 131.828 164.52C131.647 164.712 131.423 164.808 131.156 164.808ZM131.86 166.232V175H130.404V166.232H131.86ZM135.429 173.8H139.733V175H133.765V173.8L138.021 167.416H133.797V166.232H139.701V167.416L135.429 173.8ZM142.711 173.8H147.015V175H141.047V173.8L145.303 167.416H141.079V166.232H146.983V167.416L142.711 173.8ZM156.904 170.28C156.904 170.557 156.888 170.851 156.856 171.16H149.848C149.901 172.024 150.195 172.701 150.728 173.192C151.272 173.672 151.928 173.912 152.696 173.912C153.325 173.912 153.848 173.768 154.264 173.48C154.691 173.181 154.989 172.787 155.16 172.296H156.728C156.493 173.139 156.024 173.827 155.32 174.36C154.616 174.883 153.741 175.144 152.696 175.144C151.864 175.144 151.117 174.957 150.456 174.584C149.805 174.211 149.293 173.683 148.92 173C148.547 172.307 148.36 171.507 148.36 170.6C148.36 169.693 148.541 168.899 148.904 168.216C149.267 167.533 149.773 167.011 150.424 166.648C151.085 166.275 151.843 166.088 152.696 166.088C153.528 166.088 154.264 166.269 154.904 166.632C155.544 166.995 156.035 167.496 156.376 168.136C156.728 168.765 156.904 169.48 156.904 170.28ZM155.4 169.976C155.4 169.421 155.277 168.947 155.032 168.552C154.787 168.147 154.451 167.843 154.024 167.64C153.608 167.427 153.144 167.32 152.632 167.32C151.896 167.32 151.267 167.555 150.744 168.024C150.232 168.493 149.939 169.144 149.864 169.976H155.4ZM161.93 175.144C161.258 175.144 160.655 175.032 160.122 174.808C159.588 174.573 159.167 174.253 158.858 173.848C158.548 173.432 158.378 172.957 158.346 172.424H159.85C159.892 172.861 160.095 173.219 160.458 173.496C160.831 173.773 161.316 173.912 161.914 173.912C162.468 173.912 162.906 173.789 163.226 173.544C163.546 173.299 163.706 172.989 163.706 172.616C163.706 172.232 163.535 171.949 163.194 171.768C162.852 171.576 162.324 171.389 161.61 171.208C160.959 171.037 160.426 170.867 160.01 170.696C159.604 170.515 159.252 170.253 158.954 169.912C158.666 169.56 158.522 169.101 158.522 168.536C158.522 168.088 158.655 167.677 158.922 167.304C159.188 166.931 159.567 166.637 160.058 166.424C160.548 166.2 161.108 166.088 161.738 166.088C162.708 166.088 163.492 166.333 164.09 166.824C164.687 167.315 165.007 167.987 165.05 168.84H163.594C163.562 168.381 163.375 168.013 163.034 167.736C162.703 167.459 162.255 167.32 161.69 167.32C161.167 167.32 160.751 167.432 160.442 167.656C160.132 167.88 159.978 168.173 159.978 168.536C159.978 168.824 160.068 169.064 160.25 169.256C160.442 169.437 160.676 169.587 160.954 169.704C161.242 169.811 161.636 169.933 162.138 170.072C162.767 170.243 163.279 170.413 163.674 170.584C164.068 170.744 164.404 170.989 164.682 171.32C164.97 171.651 165.119 172.083 165.13 172.616C165.13 173.096 164.996 173.528 164.73 173.912C164.463 174.296 164.084 174.6 163.594 174.824C163.114 175.037 162.559 175.144 161.93 175.144Z" fill="#F6F6F6"/>
<path d="M154.008 19.9417H94.5082C92.1082 9.54168 98.8416 5.9417 101.508 5.44172C112.008 5.10839 135.408 4.64172 145.008 5.44172C154.608 6.24172 155.008 15.4417 154.008 19.9417Z" fill="#F8CD51" stroke="#439D93"/>
<circle cx="123.5" cy="7.5" r="7.5" fill="#439D93"/>
<path d="M80.0166 207.161L149.279 199.268L157.476 271.197L88.2144 279.09L80.0166 207.161Z" fill="#43634D"/>
<path d="M85.279 249.487L155.417 249.253L157.911 271.145L88.6494 279.04L85.279 249.487Z" fill="#2E4E30"/>
<path d="M147.509 247.476L134.53 262.461L94.2619 267.053L88.0212 212.25L142.786 206.004L147.509 247.476Z" fill="#E3DFD4"/>
<path d="M114.157 195.015C117.271 194.66 120.059 196.694 120.385 199.557C120.436 200.009 120.82 200.382 121.272 200.33L130.899 199.232C131.448 199.17 131.943 199.564 132.006 200.113L132.862 207.63C132.924 208.178 132.53 208.674 131.981 208.736L99.2035 212.475C98.6548 212.537 98.1593 212.143 98.0968 211.594L97.2408 204.078C97.1783 203.529 97.5725 203.033 98.1212 202.971L108.419 201.796C108.871 201.745 109.162 201.295 109.11 200.843C108.784 197.98 111.044 195.371 114.157 195.015ZM114.452 197.607C113.118 197.759 112.15 198.878 112.289 200.105C112.429 201.332 113.624 202.203 114.958 202.051C116.293 201.899 117.261 200.78 117.121 199.554C116.982 198.326 115.787 197.455 114.452 197.607Z" fill="#2A262A"/>
<path d="M133.344 249.053L134.881 262.42L94.6725 266.992L92.6763 249.633L133.344 249.053Z" fill="#CDC8BB"/>
<path d="M111.297 226.028L137.874 222.997" stroke="#6B9059" stroke-width="3" stroke-linecap="square"/>
<path d="M97.2874 224.791L100.768 228.468L105.923 220.003" stroke="#6B9059" stroke-width="3" stroke-linecap="square" stroke-linejoin="round"/>
<path d="M112.702 238.241L139.279 235.21" stroke="#6B9059" stroke-width="3" stroke-linecap="square"/>
<path d="M98.6919 237.004L102.173 240.682L107.328 232.217" stroke="#6B9059" stroke-width="3" stroke-linecap="square" stroke-linejoin="round"/>
<path d="M114.106 250.455L140.683 247.424" stroke="#6B9059" stroke-width="3" stroke-linecap="square"/>
<path d="M100.096 249.218L103.577 252.896L108.732 244.431" stroke="#6B9059" stroke-width="3" stroke-linecap="square" stroke-linejoin="round"/>
<path d="M147.865 247.436L134.886 262.42L133.368 249.089L147.865 247.436Z" fill="#ACB1A7"/>
</svg>
