<svg width="71" height="71" viewBox="0 0 71 71" fill="none" xmlns="http://www.w3.org/2000/svg">
<rect width="71" height="71" rx="20" fill="#F8CD51"/>
<path fill-rule="evenodd" clip-rule="evenodd" d="M25.9554 37.7793C24.2222 36.1946 24.901 33.322 27.1609 32.6803L39.8743 29.0687C42.3091 28.3763 44.454 30.8259 43.4461 33.148L38.1881 45.2738C37.2536 47.4292 34.3173 47.7221 32.9746 45.7955L30.4846 42.2231L36.5921 36.8753C36.7916 36.7005 36.9136 36.4537 36.9311 36.1891C36.9487 35.9244 36.8604 35.6637 36.6857 35.4641C36.511 35.2646 36.2641 35.1426 35.9995 35.1251C35.7349 35.1076 35.4741 35.1958 35.2746 35.3706L29.1678 40.7178L25.9554 37.7793Z" fill="black"/>
</svg>
