<svg width="262" height="64" viewBox="0 0 262 64" fill="none" xmlns="http://www.w3.org/2000/svg">
<g filter="url(#filter0_d_163_134)">
<rect x="55" y="12.0377" width="151" height="40" rx="5" fill="#5F8F48"/>
</g>
<rect x="60" y="16.0377" width="141" height="31" rx="4" fill="#75A060"/>
<path d="M110 14.1765L94 14.1765L59 44.0377L59 49.6766L70.5 49.6766L110 14.1765Z" fill="#5F8F48"/>
<path d="M201.717 14.0377L204 49.0377H87.5L126 14.0377H201.717Z" fill="#5F8F48"/>
<path d="M109.101 34.2911C109.101 34.0714 109.066 33.8761 108.998 33.7052C108.935 33.5343 108.82 33.3781 108.654 33.2365C108.488 33.0948 108.253 32.9581 107.951 32.8263C107.653 32.6896 107.272 32.5504 106.808 32.4088C106.3 32.2526 105.832 32.0792 105.402 31.8888C104.977 31.6935 104.606 31.4689 104.289 31.215C103.971 30.9562 103.725 30.6608 103.549 30.3287C103.373 29.9918 103.285 29.6036 103.285 29.1642C103.285 28.7296 103.375 28.3341 103.556 27.9777C103.742 27.6212 104.003 27.3136 104.34 27.0548C104.682 26.7911 105.084 26.5885 105.548 26.4469C106.012 26.3004 106.525 26.2272 107.086 26.2272C107.877 26.2272 108.559 26.3737 109.13 26.6666C109.706 26.9596 110.148 27.3527 110.456 27.8458C110.768 28.339 110.924 28.8834 110.924 29.4791H109.101C109.101 29.1276 109.025 28.8175 108.874 28.549C108.727 28.2755 108.502 28.0607 108.2 27.9044C107.902 27.7482 107.523 27.67 107.064 27.67C106.63 27.67 106.269 27.736 105.98 27.8678C105.692 27.9996 105.478 28.1779 105.336 28.4025C105.194 28.6271 105.124 28.881 105.124 29.1642C105.124 29.3644 105.17 29.5475 105.263 29.7135C105.355 29.8746 105.497 30.026 105.688 30.1676C105.878 30.3043 106.117 30.4337 106.405 30.5558C106.693 30.6779 107.033 30.795 107.423 30.9073C108.014 31.0831 108.529 31.2784 108.969 31.4933C109.408 31.7032 109.774 31.9425 110.067 32.2111C110.36 32.4796 110.58 32.7848 110.727 33.1266C110.873 33.4635 110.946 33.8468 110.946 34.2765C110.946 34.7257 110.856 35.131 110.675 35.4923C110.495 35.8488 110.236 36.1539 109.899 36.4078C109.567 36.6569 109.167 36.8497 108.698 36.9865C108.234 37.1183 107.716 37.1842 107.145 37.1842C106.632 37.1842 106.127 37.1158 105.629 36.9791C105.136 36.8424 104.687 36.6349 104.281 36.3566C103.876 36.0734 103.554 35.7218 103.314 35.3019C103.075 34.8771 102.956 34.3815 102.956 33.8151H104.794C104.794 34.1617 104.853 34.4572 104.97 34.7013C105.092 34.9454 105.26 35.1456 105.475 35.3019C105.69 35.4532 105.939 35.5656 106.222 35.6388C106.51 35.712 106.818 35.7487 107.145 35.7487C107.575 35.7487 107.934 35.6876 108.222 35.5656C108.515 35.4435 108.734 35.2726 108.881 35.0529C109.027 34.8331 109.101 34.5792 109.101 34.2911ZM114.286 29.1129V37.0377H112.514V29.1129H114.286ZM112.396 27.0328C112.396 26.7643 112.484 26.5421 112.66 26.3663C112.841 26.1857 113.09 26.0953 113.407 26.0953C113.72 26.0953 113.966 26.1857 114.147 26.3663C114.328 26.5421 114.418 26.7643 114.418 27.0328C114.418 27.2965 114.328 27.5162 114.147 27.692C113.966 27.8678 113.72 27.9557 113.407 27.9557C113.09 27.9557 112.841 27.8678 112.66 27.692C112.484 27.5162 112.396 27.2965 112.396 27.0328ZM121.295 29.1129H122.899V36.818C122.899 37.5309 122.748 38.1364 122.445 38.6344C122.143 39.1324 121.72 39.5109 121.178 39.7697C120.636 40.0333 120.009 40.1652 119.296 40.1652C118.993 40.1652 118.656 40.1212 118.285 40.0333C117.919 39.9454 117.562 39.8038 117.216 39.6085C116.874 39.4181 116.588 39.1666 116.359 38.8541L117.187 37.8141C117.47 38.151 117.782 38.3976 118.124 38.5538C118.466 38.7101 118.825 38.7882 119.201 38.7882C119.606 38.7882 119.95 38.7125 120.233 38.5612C120.521 38.4147 120.744 38.1974 120.9 37.9093C121.056 37.6212 121.134 37.2697 121.134 36.8546V30.9073L121.295 29.1129ZM115.912 33.1632V33.0094C115.912 32.4088 115.985 31.8619 116.132 31.3688C116.278 30.8707 116.488 30.4435 116.762 30.087C117.035 29.7257 117.367 29.4498 117.758 29.2594C118.148 29.0641 118.59 28.9664 119.083 28.9664C119.596 28.9664 120.033 29.0592 120.395 29.2448C120.761 29.4303 121.066 29.6964 121.31 30.0431C121.554 30.3849 121.745 30.795 121.881 31.2736C122.023 31.7472 122.128 32.2745 122.196 32.8556V33.3463C122.133 33.9127 122.025 34.4303 121.874 34.899C121.723 35.3678 121.522 35.7731 121.273 36.1149C121.024 36.4567 120.717 36.7203 120.351 36.9059C119.989 37.0914 119.562 37.1842 119.069 37.1842C118.585 37.1842 118.148 37.0841 117.758 36.8839C117.372 36.6837 117.04 36.403 116.762 36.0416C116.488 35.6803 116.278 35.2555 116.132 34.7672C115.985 34.274 115.912 33.7394 115.912 33.1632ZM117.677 33.0094V33.1632C117.677 33.5245 117.711 33.8615 117.78 34.174C117.853 34.4865 117.963 34.7623 118.109 35.0016C118.261 35.236 118.451 35.4215 118.681 35.5582C118.915 35.6901 119.191 35.756 119.508 35.756C119.923 35.756 120.263 35.6681 120.526 35.4923C120.795 35.3165 121 35.0797 121.142 34.7819C121.288 34.4791 121.391 34.1422 121.449 33.7711V32.4454C121.42 32.1573 121.359 31.8888 121.266 31.6398C121.178 31.3907 121.059 31.1735 120.907 30.9879C120.756 30.7975 120.565 30.651 120.336 30.5485C120.106 30.441 119.835 30.3873 119.523 30.3873C119.206 30.3873 118.93 30.4557 118.695 30.5924C118.461 30.7291 118.268 30.9171 118.117 31.1564C117.97 31.3956 117.86 31.674 117.787 31.9913C117.714 32.3087 117.677 32.6481 117.677 33.0094ZM126.481 30.8048V37.0377H124.716V29.1129H126.378L126.481 30.8048ZM126.166 32.7823L125.595 32.775C125.6 32.2135 125.678 31.6984 125.829 31.2296C125.985 30.7609 126.2 30.358 126.474 30.0211C126.752 29.6842 127.084 29.4254 127.47 29.2448C127.855 29.0592 128.285 28.9664 128.759 28.9664C129.14 28.9664 129.484 29.0201 129.792 29.1276C130.104 29.2301 130.37 29.3986 130.59 29.6329C130.814 29.8673 130.985 30.1725 131.103 30.5485C131.22 30.9196 131.278 31.3761 131.278 31.9181V37.0377H129.506V31.9108C129.506 31.5299 129.45 31.2296 129.337 31.0099C129.23 30.7853 129.071 30.6266 128.861 30.5338C128.656 30.4362 128.4 30.3873 128.092 30.3873C127.79 30.3873 127.519 30.4508 127.279 30.5778C127.04 30.7047 126.837 30.8781 126.671 31.0978C126.51 31.3175 126.386 31.5714 126.298 31.8595C126.21 32.1476 126.166 32.4552 126.166 32.7823ZM145.495 31.4127V31.9987C145.495 32.8043 145.39 33.527 145.18 34.1666C144.97 34.8063 144.669 35.3507 144.279 35.7999C143.893 36.2491 143.429 36.5934 142.887 36.8326C142.345 37.067 141.745 37.1842 141.085 37.1842C140.431 37.1842 139.833 37.067 139.291 36.8326C138.754 36.5934 138.288 36.2491 137.892 35.7999C137.497 35.3507 137.189 34.8063 136.969 34.1666C136.754 33.527 136.647 32.8043 136.647 31.9987V31.4127C136.647 30.6071 136.754 29.8868 136.969 29.2521C137.184 28.6124 137.487 28.068 137.877 27.6188C138.273 27.1647 138.739 26.8204 139.276 26.5861C139.818 26.3468 140.417 26.2272 141.071 26.2272C141.73 26.2272 142.331 26.3468 142.873 26.5861C143.415 26.8204 143.881 27.1647 144.271 27.6188C144.662 28.068 144.962 28.6124 145.172 29.2521C145.387 29.8868 145.495 30.6071 145.495 31.4127ZM143.656 31.9987V31.3981C143.656 30.8024 143.598 30.2775 143.48 29.8234C143.368 29.3644 143.2 28.9811 142.975 28.6735C142.755 28.361 142.484 28.1266 142.162 27.9703C141.84 27.8092 141.476 27.7286 141.071 27.7286C140.666 27.7286 140.304 27.8092 139.987 27.9703C139.669 28.1266 139.398 28.361 139.174 28.6735C138.954 28.9811 138.786 29.3644 138.668 29.8234C138.551 30.2775 138.493 30.8024 138.493 31.3981V31.9987C138.493 32.5944 138.551 33.1217 138.668 33.5807C138.786 34.0397 138.957 34.4279 139.181 34.7452C139.411 35.0577 139.684 35.2946 140.001 35.4557C140.319 35.6119 140.68 35.6901 141.085 35.6901C141.496 35.6901 141.859 35.6119 142.177 35.4557C142.494 35.2946 142.763 35.0577 142.982 34.7452C143.202 34.4279 143.368 34.0397 143.48 33.5807C143.598 33.1217 143.656 32.5944 143.656 31.9987ZM151.925 35.17V29.1129H153.698V37.0377H152.028L151.925 35.17ZM152.174 33.5221L152.768 33.5074C152.768 34.0397 152.709 34.5304 152.592 34.9796C152.475 35.424 152.294 35.8121 152.05 36.1442C151.806 36.4713 151.493 36.7277 151.112 36.9132C150.731 37.0939 150.275 37.1842 149.743 37.1842C149.357 37.1842 149.003 37.1281 148.681 37.0157C148.358 36.9034 148.08 36.7301 147.846 36.4957C147.616 36.2614 147.438 35.9562 147.311 35.5802C147.184 35.2042 147.121 34.755 147.121 34.2325V29.1129H148.886V34.2472C148.886 34.5353 148.92 34.777 148.988 34.9723C149.057 35.1627 149.149 35.3165 149.267 35.4337C149.384 35.5509 149.521 35.6339 149.677 35.6827C149.833 35.7316 149.999 35.756 150.175 35.756C150.678 35.756 151.073 35.6583 151.361 35.463C151.654 35.2628 151.862 34.9943 151.984 34.6573C152.111 34.3204 152.174 33.942 152.174 33.5221ZM159.14 29.1129V30.402H154.672V29.1129H159.14ZM155.961 27.172H157.726V34.8478C157.726 35.0919 157.76 35.2799 157.829 35.4117C157.902 35.5387 158.002 35.6241 158.129 35.6681C158.256 35.712 158.405 35.734 158.576 35.734C158.698 35.734 158.815 35.7267 158.927 35.712C159.04 35.6974 159.13 35.6827 159.198 35.6681L159.206 37.0157C159.059 37.0597 158.888 37.0988 158.693 37.1329C158.502 37.1671 158.283 37.1842 158.034 37.1842C157.628 37.1842 157.27 37.1134 156.957 36.9718C156.645 36.8253 156.4 36.5885 156.225 36.2614C156.049 35.9342 155.961 35.4996 155.961 34.9576V27.172Z" fill="#FFFDF5"/>
<defs>
<filter id="filter0_d_163_134" x="54" y="12.0377" width="153" height="43" filterUnits="userSpaceOnUse" color-interpolation-filters="sRGB">
<feFlood flood-opacity="0" result="BackgroundImageFix"/>
<feColorMatrix in="SourceAlpha" type="matrix" values="0 0 0 0 0 0 0 0 0 0 0 0 0 0 0 0 0 0 127 0" result="hardAlpha"/>
<feMorphology radius="1" operator="dilate" in="SourceAlpha" result="effect1_dropShadow_163_134"/>
<feOffset dy="2"/>
<feComposite in2="hardAlpha" operator="out"/>
<feColorMatrix type="matrix" values="0 0 0 0 0.2 0 0 0 0 0.298039 0 0 0 0 0.152941 0 0 0 1 0"/>
<feBlend mode="normal" in2="BackgroundImageFix" result="effect1_dropShadow_163_134"/>
<feBlend mode="normal" in="SourceGraphic" in2="effect1_dropShadow_163_134" result="shape"/>
</filter>
</defs>
</svg>
