<svg width="153" height="63" viewBox="0 0 153 63" fill="none" xmlns="http://www.w3.org/2000/svg">
<g filter="url(#filter0_d_156_21)">
<rect x="1" y="12.0377" width="151" height="40" rx="5" fill="#E3DFD4"/>
</g>
<rect x="6" y="16.0377" width="141" height="31" rx="4" fill="#EFEBE0"/>
<path d="M56 14.1765L40 14.1765L5 44.0377L5.00005 49.6766L16.5 49.6766L56 14.1765Z" fill="#E3DFD4"/>
<path d="M147.717 14.0377L150 49.0377H33.5L72 14.0377H147.717Z" fill="#E3DFD4"/>
<path d="M54.6006 34.2534C54.6006 34.0337 54.5664 33.8384 54.498 33.6675C54.4346 33.4966 54.3198 33.3403 54.1538 33.1987C53.9878 33.0571 53.7534 32.9204 53.4507 32.7886C53.1528 32.6519 52.772 32.5127 52.3081 32.3711C51.8003 32.2148 51.3315 32.0415 50.9019 31.8511C50.4771 31.6558 50.106 31.4312 49.7886 31.1772C49.4712 30.9185 49.2246 30.623 49.0488 30.291C48.873 29.9541 48.7852 29.5659 48.7852 29.1265C48.7852 28.6919 48.8755 28.2964 49.0562 27.9399C49.2417 27.5835 49.5029 27.2759 49.8398 27.0171C50.1816 26.7534 50.5845 26.5508 51.0483 26.4092C51.5122 26.2627 52.0249 26.1895 52.5864 26.1895C53.3774 26.1895 54.0586 26.3359 54.6299 26.6289C55.2061 26.9219 55.6479 27.3149 55.9556 27.8081C56.2681 28.3013 56.4243 28.8457 56.4243 29.4414H54.6006C54.6006 29.0898 54.5249 28.7798 54.3735 28.5112C54.2271 28.2378 54.0024 28.0229 53.6997 27.8667C53.4019 27.7104 53.0234 27.6323 52.5645 27.6323C52.1299 27.6323 51.7686 27.6982 51.4805 27.8301C51.1924 27.9619 50.9775 28.1401 50.8359 28.3647C50.6943 28.5894 50.6235 28.8433 50.6235 29.1265C50.6235 29.3267 50.6699 29.5098 50.7627 29.6758C50.8555 29.8369 50.9971 29.9883 51.1875 30.1299C51.3779 30.2666 51.6172 30.396 51.9053 30.5181C52.1934 30.6401 52.5327 30.7573 52.9233 30.8696C53.5142 31.0454 54.0293 31.2407 54.4688 31.4556C54.9082 31.6655 55.2744 31.9048 55.5674 32.1733C55.8604 32.4419 56.0801 32.7471 56.2266 33.0889C56.373 33.4258 56.4463 33.8091 56.4463 34.2388C56.4463 34.688 56.356 35.0933 56.1753 35.4546C55.9946 35.811 55.7358 36.1162 55.3989 36.3701C55.0669 36.6191 54.6665 36.812 54.1978 36.9487C53.7339 37.0806 53.2163 37.1465 52.645 37.1465C52.1323 37.1465 51.627 37.0781 51.1289 36.9414C50.6357 36.8047 50.1865 36.5972 49.7812 36.3188C49.376 36.0356 49.0537 35.6841 48.8145 35.2642C48.5752 34.8394 48.4556 34.3438 48.4556 33.7773H50.2939C50.2939 34.124 50.3525 34.4194 50.4697 34.6636C50.5918 34.9077 50.7603 35.1079 50.9751 35.2642C51.1899 35.4155 51.439 35.5278 51.7222 35.6011C52.0103 35.6743 52.3179 35.7109 52.645 35.7109C53.0747 35.7109 53.4336 35.6499 53.7217 35.5278C54.0146 35.4058 54.2344 35.2349 54.3809 35.0151C54.5273 34.7954 54.6006 34.5415 54.6006 34.2534ZM59.7861 29.0752V37H58.0137V29.0752H59.7861ZM57.8965 26.9951C57.8965 26.7266 57.9844 26.5044 58.1602 26.3286C58.3408 26.1479 58.5898 26.0576 58.9072 26.0576C59.2197 26.0576 59.4663 26.1479 59.647 26.3286C59.8276 26.5044 59.918 26.7266 59.918 26.9951C59.918 27.2588 59.8276 27.4785 59.647 27.6543C59.4663 27.8301 59.2197 27.918 58.9072 27.918C58.5898 27.918 58.3408 27.8301 58.1602 27.6543C57.9844 27.4785 57.8965 27.2588 57.8965 26.9951ZM66.7954 29.0752H68.3994V36.7803C68.3994 37.4932 68.248 38.0986 67.9453 38.5967C67.6426 39.0947 67.2202 39.4731 66.6782 39.7319C66.1362 39.9956 65.5088 40.1274 64.7959 40.1274C64.4932 40.1274 64.1562 40.0835 63.7852 39.9956C63.4189 39.9077 63.0625 39.7661 62.7158 39.5708C62.374 39.3804 62.0884 39.1289 61.8589 38.8164L62.6865 37.7764C62.9697 38.1133 63.2822 38.3599 63.624 38.5161C63.9658 38.6724 64.3247 38.7505 64.7007 38.7505C65.106 38.7505 65.4502 38.6748 65.7334 38.5234C66.0215 38.377 66.2437 38.1597 66.3999 37.8716C66.5562 37.5835 66.6343 37.2319 66.6343 36.8169V30.8696L66.7954 29.0752ZM61.4121 33.1255V32.9717C61.4121 32.3711 61.4854 31.8242 61.6318 31.3311C61.7783 30.833 61.9883 30.4058 62.2617 30.0493C62.5352 29.688 62.8672 29.4121 63.2578 29.2217C63.6484 29.0264 64.0903 28.9287 64.5835 28.9287C65.0962 28.9287 65.5332 29.0215 65.8945 29.207C66.2607 29.3926 66.5659 29.6587 66.8101 30.0054C67.0542 30.3472 67.2446 30.7573 67.3813 31.2358C67.5229 31.7095 67.6279 32.2368 67.6963 32.8179V33.3086C67.6328 33.875 67.5254 34.3926 67.374 34.8613C67.2227 35.3301 67.0225 35.7354 66.7734 36.0771C66.5244 36.4189 66.2168 36.6826 65.8506 36.8682C65.4893 37.0537 65.062 37.1465 64.5688 37.1465C64.0854 37.1465 63.6484 37.0464 63.2578 36.8462C62.8721 36.646 62.54 36.3652 62.2617 36.0039C61.9883 35.6426 61.7783 35.2178 61.6318 34.7295C61.4854 34.2363 61.4121 33.7017 61.4121 33.1255ZM63.1772 32.9717V33.1255C63.1772 33.4868 63.2114 33.8237 63.2798 34.1362C63.353 34.4487 63.4629 34.7246 63.6094 34.9639C63.7607 35.1982 63.9512 35.3838 64.1807 35.5205C64.415 35.6523 64.6909 35.7183 65.0083 35.7183C65.4233 35.7183 65.7627 35.6304 66.0264 35.4546C66.2949 35.2788 66.5 35.042 66.6416 34.7441C66.7881 34.4414 66.8906 34.1045 66.9492 33.7334V32.4077C66.9199 32.1196 66.8589 31.8511 66.7661 31.6021C66.6782 31.353 66.5586 31.1357 66.4072 30.9502C66.2559 30.7598 66.0654 30.6133 65.8359 30.5107C65.6064 30.4033 65.3354 30.3496 65.0229 30.3496C64.7056 30.3496 64.4297 30.418 64.1953 30.5547C63.9609 30.6914 63.7681 30.8794 63.6167 31.1187C63.4702 31.3579 63.3604 31.6362 63.2871 31.9536C63.2139 32.271 63.1772 32.6104 63.1772 32.9717ZM71.981 30.7671V37H70.2158V29.0752H71.8784L71.981 30.7671ZM71.666 32.7446L71.0947 32.7373C71.0996 32.1758 71.1777 31.6606 71.3291 31.1919C71.4854 30.7231 71.7002 30.3203 71.9736 29.9834C72.252 29.6465 72.584 29.3877 72.9697 29.207C73.3555 29.0215 73.7852 28.9287 74.2588 28.9287C74.6396 28.9287 74.9839 28.9824 75.2915 29.0898C75.604 29.1924 75.8701 29.3608 76.0898 29.5952C76.3145 29.8296 76.4854 30.1348 76.6025 30.5107C76.7197 30.8818 76.7783 31.3384 76.7783 31.8804V37H75.0059V31.873C75.0059 31.4922 74.9497 31.1919 74.8374 30.9722C74.73 30.7476 74.5713 30.5889 74.3613 30.4961C74.1562 30.3984 73.8999 30.3496 73.5923 30.3496C73.2896 30.3496 73.0186 30.4131 72.7793 30.54C72.54 30.667 72.3374 30.8403 72.1714 31.0601C72.0103 31.2798 71.8857 31.5337 71.7979 31.8218C71.71 32.1099 71.666 32.4175 71.666 32.7446ZM90.9946 31.375V31.9609C90.9946 32.7666 90.8896 33.4893 90.6797 34.1289C90.4697 34.7686 90.1694 35.313 89.7788 35.7622C89.3931 36.2114 88.9292 36.5557 88.3872 36.7949C87.8452 37.0293 87.2446 37.1465 86.5854 37.1465C85.9312 37.1465 85.333 37.0293 84.791 36.7949C84.2539 36.5557 83.7876 36.2114 83.3921 35.7622C82.9966 35.313 82.689 34.7686 82.4692 34.1289C82.2544 33.4893 82.147 32.7666 82.147 31.9609V31.375C82.147 30.5693 82.2544 29.8491 82.4692 29.2144C82.6841 28.5747 82.9868 28.0303 83.3774 27.5811C83.7729 27.127 84.2393 26.7827 84.7764 26.5483C85.3184 26.3091 85.9165 26.1895 86.5708 26.1895C87.23 26.1895 87.8306 26.3091 88.3726 26.5483C88.9146 26.7827 89.3809 27.127 89.7715 27.5811C90.1621 28.0303 90.4624 28.5747 90.6724 29.2144C90.8872 29.8491 90.9946 30.5693 90.9946 31.375ZM89.1562 31.9609V31.3604C89.1562 30.7646 89.0977 30.2397 88.9805 29.7856C88.8682 29.3267 88.6997 28.9434 88.4751 28.6357C88.2554 28.3232 87.9844 28.0889 87.6621 27.9326C87.3398 27.7715 86.9761 27.6909 86.5708 27.6909C86.1655 27.6909 85.8042 27.7715 85.4868 27.9326C85.1694 28.0889 84.8984 28.3232 84.6738 28.6357C84.4541 28.9434 84.2856 29.3267 84.1685 29.7856C84.0513 30.2397 83.9927 30.7646 83.9927 31.3604V31.9609C83.9927 32.5566 84.0513 33.084 84.1685 33.543C84.2856 34.002 84.4565 34.3901 84.6812 34.7075C84.9106 35.02 85.1841 35.2568 85.5015 35.418C85.8188 35.5742 86.1802 35.6523 86.5854 35.6523C86.9956 35.6523 87.3594 35.5742 87.6768 35.418C87.9941 35.2568 88.2627 35.02 88.4824 34.7075C88.7021 34.3901 88.8682 34.002 88.9805 33.543C89.0977 33.084 89.1562 32.5566 89.1562 31.9609ZM97.4253 35.1323V29.0752H99.1978V37H97.5278L97.4253 35.1323ZM97.6743 33.4844L98.2676 33.4697C98.2676 34.002 98.209 34.4927 98.0918 34.9419C97.9746 35.3862 97.7939 35.7744 97.5498 36.1064C97.3057 36.4336 96.9932 36.6899 96.6123 36.8755C96.2314 37.0562 95.7749 37.1465 95.2427 37.1465C94.8569 37.1465 94.5029 37.0903 94.1807 36.978C93.8584 36.8657 93.5801 36.6924 93.3457 36.458C93.1162 36.2236 92.938 35.9185 92.811 35.5425C92.6841 35.1665 92.6206 34.7173 92.6206 34.1948V29.0752H94.3857V34.2095C94.3857 34.4976 94.4199 34.7393 94.4883 34.9346C94.5566 35.125 94.6494 35.2788 94.7666 35.396C94.8838 35.5132 95.0205 35.5962 95.1768 35.645C95.333 35.6938 95.499 35.7183 95.6748 35.7183C96.1777 35.7183 96.5732 35.6206 96.8613 35.4253C97.1543 35.2251 97.3618 34.9565 97.4839 34.6196C97.6108 34.2827 97.6743 33.9043 97.6743 33.4844ZM104.64 29.0752V30.3643H100.172V29.0752H104.64ZM101.461 27.1343H103.226V34.8101C103.226 35.0542 103.26 35.2422 103.329 35.374C103.402 35.501 103.502 35.5864 103.629 35.6304C103.756 35.6743 103.905 35.6963 104.076 35.6963C104.198 35.6963 104.315 35.689 104.427 35.6743C104.54 35.6597 104.63 35.645 104.698 35.6304L104.706 36.978C104.559 37.022 104.388 37.061 104.193 37.0952C104.002 37.1294 103.783 37.1465 103.534 37.1465C103.128 37.1465 102.77 37.0757 102.457 36.9341C102.145 36.7876 101.9 36.5508 101.725 36.2236C101.549 35.8965 101.461 35.4619 101.461 34.9199V27.1343Z" fill="#2A262A"/>
<defs>
<filter id="filter0_d_156_21" x="0" y="12.0377" width="153" height="43" filterUnits="userSpaceOnUse" color-interpolation-filters="sRGB">
<feFlood flood-opacity="0" result="BackgroundImageFix"/>
<feColorMatrix in="SourceAlpha" type="matrix" values="0 0 0 0 0 0 0 0 0 0 0 0 0 0 0 0 0 0 127 0" result="hardAlpha"/>
<feMorphology radius="1" operator="dilate" in="SourceAlpha" result="effect1_dropShadow_156_21"/>
<feOffset dy="2"/>
<feComposite in2="hardAlpha" operator="out"/>
<feColorMatrix type="matrix" values="0 0 0 0 0 0 0 0 0 0 0 0 0 0 0 0 0 0 0.25 0"/>
<feBlend mode="normal" in2="BackgroundImageFix" result="effect1_dropShadow_156_21"/>
<feBlend mode="normal" in="SourceGraphic" in2="effect1_dropShadow_156_21" result="shape"/>
</filter>
</defs>
</svg>
