<svg width="153" height="63" viewBox="0 0 153 63" fill="none" xmlns="http://www.w3.org/2000/svg">
<rect y="13" width="153" height="42" rx="6" fill="#B8B8B8"/>
<rect x="1" y="12.0377" width="151" height="40" rx="5" fill="#E3DFD4"/>
<rect x="6" y="16.0377" width="141" height="31" rx="4" fill="#EFEBE0"/>
<path d="M56 14.1765L40 14.1765L5 44.0377L5.00005 49.6766L16.5 49.6766L56 14.1765Z" fill="#E3DFD4"/>
<path d="M147.717 14.0377L150 49.0377H33.5L72 14.0377H147.717Z" fill="#E3DFD4"/>
<path d="M58.0503 34.2534C58.0503 34.0337 58.0161 33.8384 57.9478 33.6675C57.8843 33.4966 57.7695 33.3403 57.6035 33.1987C57.4375 33.0571 57.2031 32.9204 56.9004 32.7886C56.6025 32.6519 56.2217 32.5127 55.7578 32.3711C55.25 32.2148 54.7812 32.0415 54.3516 31.8511C53.9268 31.6558 53.5557 31.4312 53.2383 31.1772C52.9209 30.9185 52.6743 30.623 52.4985 30.291C52.3228 29.9541 52.2349 29.5659 52.2349 29.1265C52.2349 28.6919 52.3252 28.2964 52.5059 27.9399C52.6914 27.5835 52.9526 27.2759 53.2896 27.0171C53.6313 26.7534 54.0342 26.5508 54.498 26.4092C54.9619 26.2627 55.4746 26.1895 56.0361 26.1895C56.8271 26.1895 57.5083 26.3359 58.0796 26.6289C58.6558 26.9219 59.0977 27.3149 59.4053 27.8081C59.7178 28.3013 59.874 28.8457 59.874 29.4414H58.0503C58.0503 29.0898 57.9746 28.7798 57.8232 28.5112C57.6768 28.2378 57.4521 28.0229 57.1494 27.8667C56.8516 27.7104 56.4731 27.6323 56.0142 27.6323C55.5796 27.6323 55.2183 27.6982 54.9302 27.8301C54.6421 27.9619 54.4272 28.1401 54.2856 28.3647C54.144 28.5894 54.0732 28.8433 54.0732 29.1265C54.0732 29.3267 54.1196 29.5098 54.2124 29.6758C54.3052 29.8369 54.4468 29.9883 54.6372 30.1299C54.8276 30.2666 55.0669 30.396 55.355 30.5181C55.6431 30.6401 55.9824 30.7573 56.373 30.8696C56.9639 31.0454 57.479 31.2407 57.9185 31.4556C58.3579 31.6655 58.7241 31.9048 59.0171 32.1733C59.3101 32.4419 59.5298 32.7471 59.6763 33.0889C59.8228 33.4258 59.896 33.8091 59.896 34.2388C59.896 34.688 59.8057 35.0933 59.625 35.4546C59.4443 35.811 59.1855 36.1162 58.8486 36.3701C58.5166 36.6191 58.1162 36.812 57.6475 36.9487C57.1836 37.0806 56.666 37.1465 56.0947 37.1465C55.582 37.1465 55.0767 37.0781 54.5786 36.9414C54.0854 36.8047 53.6362 36.5972 53.231 36.3188C52.8257 36.0356 52.5034 35.6841 52.2642 35.2642C52.0249 34.8394 51.9053 34.3438 51.9053 33.7773H53.7437C53.7437 34.124 53.8022 34.4194 53.9194 34.6636C54.0415 34.9077 54.21 35.1079 54.4248 35.2642C54.6396 35.4155 54.8887 35.5278 55.1719 35.6011C55.46 35.6743 55.7676 35.7109 56.0947 35.7109C56.5244 35.7109 56.8833 35.6499 57.1714 35.5278C57.4644 35.4058 57.6841 35.2349 57.8306 35.0151C57.9771 34.7954 58.0503 34.5415 58.0503 34.2534ZM63.2358 29.0752V37H61.4634V29.0752H63.2358ZM61.3462 26.9951C61.3462 26.7266 61.4341 26.5044 61.6099 26.3286C61.7905 26.1479 62.0396 26.0576 62.3569 26.0576C62.6694 26.0576 62.916 26.1479 63.0967 26.3286C63.2773 26.5044 63.3677 26.7266 63.3677 26.9951C63.3677 27.2588 63.2773 27.4785 63.0967 27.6543C62.916 27.8301 62.6694 27.918 62.3569 27.918C62.0396 27.918 61.7905 27.8301 61.6099 27.6543C61.4341 27.4785 61.3462 27.2588 61.3462 26.9951ZM70.2451 29.0752H71.8491V36.7803C71.8491 37.4932 71.6978 38.0986 71.395 38.5967C71.0923 39.0947 70.6699 39.4731 70.1279 39.7319C69.5859 39.9956 68.9585 40.1274 68.2456 40.1274C67.9429 40.1274 67.606 40.0835 67.2349 39.9956C66.8687 39.9077 66.5122 39.7661 66.1655 39.5708C65.8237 39.3804 65.5381 39.1289 65.3086 38.8164L66.1362 37.7764C66.4194 38.1133 66.7319 38.3599 67.0737 38.5161C67.4155 38.6724 67.7744 38.7505 68.1504 38.7505C68.5557 38.7505 68.8999 38.6748 69.1831 38.5234C69.4712 38.377 69.6934 38.1597 69.8496 37.8716C70.0059 37.5835 70.084 37.2319 70.084 36.8169V30.8696L70.2451 29.0752ZM64.8618 33.1255V32.9717C64.8618 32.3711 64.9351 31.8242 65.0815 31.3311C65.228 30.833 65.438 30.4058 65.7114 30.0493C65.9849 29.688 66.3169 29.4121 66.7075 29.2217C67.0981 29.0264 67.54 28.9287 68.0332 28.9287C68.5459 28.9287 68.9829 29.0215 69.3442 29.207C69.7104 29.3926 70.0156 29.6587 70.2598 30.0054C70.5039 30.3472 70.6943 30.7573 70.8311 31.2358C70.9727 31.7095 71.0776 32.2368 71.146 32.8179V33.3086C71.0825 33.875 70.9751 34.3926 70.8237 34.8613C70.6724 35.3301 70.4722 35.7354 70.2231 36.0771C69.9741 36.4189 69.6665 36.6826 69.3003 36.8682C68.939 37.0537 68.5117 37.1465 68.0186 37.1465C67.5352 37.1465 67.0981 37.0464 66.7075 36.8462C66.3218 36.646 65.9897 36.3652 65.7114 36.0039C65.438 35.6426 65.228 35.2178 65.0815 34.7295C64.9351 34.2363 64.8618 33.7017 64.8618 33.1255ZM66.627 32.9717V33.1255C66.627 33.4868 66.6611 33.8237 66.7295 34.1362C66.8027 34.4487 66.9126 34.7246 67.0591 34.9639C67.2104 35.1982 67.4009 35.3838 67.6304 35.5205C67.8647 35.6523 68.1406 35.7183 68.458 35.7183C68.873 35.7183 69.2124 35.6304 69.4761 35.4546C69.7446 35.2788 69.9497 35.042 70.0913 34.7441C70.2378 34.4414 70.3403 34.1045 70.3989 33.7334V32.4077C70.3696 32.1196 70.3086 31.8511 70.2158 31.6021C70.1279 31.353 70.0083 31.1357 69.8569 30.9502C69.7056 30.7598 69.5151 30.6133 69.2856 30.5107C69.0562 30.4033 68.7852 30.3496 68.4727 30.3496C68.1553 30.3496 67.8794 30.418 67.645 30.5547C67.4106 30.6914 67.2178 30.8794 67.0664 31.1187C66.9199 31.3579 66.8101 31.6362 66.7368 31.9536C66.6636 32.271 66.627 32.6104 66.627 32.9717ZM75.4307 30.7671V37H73.6655V29.0752H75.3281L75.4307 30.7671ZM75.1157 32.7446L74.5444 32.7373C74.5493 32.1758 74.6274 31.6606 74.7788 31.1919C74.9351 30.7231 75.1499 30.3203 75.4233 29.9834C75.7017 29.6465 76.0337 29.3877 76.4194 29.207C76.8052 29.0215 77.2349 28.9287 77.7085 28.9287C78.0894 28.9287 78.4336 28.9824 78.7412 29.0898C79.0537 29.1924 79.3198 29.3608 79.5396 29.5952C79.7642 29.8296 79.9351 30.1348 80.0522 30.5107C80.1694 30.8818 80.228 31.3384 80.228 31.8804V37H78.4556V31.873C78.4556 31.4922 78.3994 31.1919 78.2871 30.9722C78.1797 30.7476 78.021 30.5889 77.811 30.4961C77.606 30.3984 77.3496 30.3496 77.042 30.3496C76.7393 30.3496 76.4683 30.4131 76.229 30.54C75.9897 30.667 75.7871 30.8403 75.6211 31.0601C75.46 31.2798 75.3354 31.5337 75.2476 31.8218C75.1597 32.1099 75.1157 32.4175 75.1157 32.7446ZM90.5332 35.1323V29.0752H92.3057V37H90.6357L90.5332 35.1323ZM90.7822 33.4844L91.3755 33.4697C91.3755 34.002 91.3169 34.4927 91.1997 34.9419C91.0825 35.3862 90.9019 35.7744 90.6577 36.1064C90.4136 36.4336 90.1011 36.6899 89.7202 36.8755C89.3394 37.0562 88.8828 37.1465 88.3506 37.1465C87.9648 37.1465 87.6108 37.0903 87.2886 36.978C86.9663 36.8657 86.688 36.6924 86.4536 36.458C86.2241 36.2236 86.0459 35.9185 85.9189 35.5425C85.792 35.1665 85.7285 34.7173 85.7285 34.1948V29.0752H87.4937V34.2095C87.4937 34.4976 87.5278 34.7393 87.5962 34.9346C87.6646 35.125 87.7573 35.2788 87.8745 35.396C87.9917 35.5132 88.1284 35.5962 88.2847 35.645C88.4409 35.6938 88.6069 35.7183 88.7827 35.7183C89.2856 35.7183 89.6812 35.6206 89.9692 35.4253C90.2622 35.2251 90.4697 34.9565 90.5918 34.6196C90.7188 34.2827 90.7822 33.9043 90.7822 33.4844ZM95.8872 30.5986V40.0469H94.1221V29.0752H95.748L95.8872 30.5986ZM101.051 32.9644V33.1182C101.051 33.6943 100.982 34.229 100.846 34.7222C100.714 35.2104 100.516 35.6377 100.252 36.0039C99.9937 36.3652 99.6738 36.646 99.293 36.8462C98.9121 37.0464 98.4727 37.1465 97.9746 37.1465C97.4814 37.1465 97.0493 37.0562 96.6782 36.8755C96.312 36.6899 96.002 36.4287 95.748 36.0918C95.4941 35.7549 95.2891 35.3594 95.1328 34.9053C94.9814 34.4463 94.874 33.9434 94.8105 33.3965V32.8032C94.874 32.2222 94.9814 31.6948 95.1328 31.2212C95.2891 30.7476 95.4941 30.3398 95.748 29.998C96.002 29.6562 96.312 29.3926 96.6782 29.207C97.0444 29.0215 97.4717 28.9287 97.96 28.9287C98.458 28.9287 98.8999 29.0264 99.2856 29.2217C99.6714 29.4121 99.9961 29.6855 100.26 30.042C100.523 30.3936 100.721 30.8184 100.853 31.3164C100.985 31.8096 101.051 32.3589 101.051 32.9644ZM99.2856 33.1182V32.9644C99.2856 32.5981 99.2515 32.2588 99.1831 31.9463C99.1147 31.6289 99.0073 31.3506 98.8608 31.1113C98.7144 30.8721 98.5264 30.6865 98.2969 30.5547C98.0723 30.418 97.8013 30.3496 97.4839 30.3496C97.1714 30.3496 96.9028 30.4033 96.6782 30.5107C96.4536 30.6133 96.2656 30.7573 96.1143 30.9429C95.9629 31.1284 95.8457 31.3457 95.7627 31.5947C95.6797 31.8389 95.6211 32.105 95.5869 32.3931V33.814C95.6455 34.1655 95.7456 34.4878 95.8872 34.7808C96.0288 35.0737 96.229 35.3081 96.4878 35.4839C96.7515 35.6548 97.0884 35.7402 97.4985 35.7402C97.8159 35.7402 98.0869 35.6719 98.3115 35.5352C98.5361 35.3984 98.7192 35.2104 98.8608 34.9712C99.0073 34.7271 99.1147 34.4463 99.1831 34.1289C99.2515 33.8115 99.2856 33.4746 99.2856 33.1182Z" fill="#2A262A"/>
</svg>
