<svg width="235" height="152" viewBox="0 0 235 152" fill="none" xmlns="http://www.w3.org/2000/svg">
<path d="M117.496 15.7291L98.265 54.9816L54.5833 61.3157L86.2269 92.2518L78.6627 135.271L117.496 114.569L156.337 135.271L148.828 92.2518L180.417 61.3157L136.977 54.9816L117.496 15.7291Z" fill="#EFB835" stroke="#EFB835" stroke-width="6" stroke-linejoin="round"/>
<g clip-path="url(#clip0_168_37)">
<path d="M37.0106 82.0217L30.165 101.924L9.67189 107.558L26.6376 120.45L25.5909 141.456L42.9096 129.247L62.7034 136.821L56.5484 116.714L69.7951 100.048L48.6615 99.6139L37.0106 82.0217Z" fill="#EFB835" stroke="#EFB835" stroke-width="6" stroke-linejoin="round"/>
</g>
<path d="M197.133 82.0224L185.601 99.6291L164.352 100.048L177.624 116.718L171.442 136.821L191.232 129.248L208.554 141.458L207.535 120.455L224.475 107.56L204.097 101.94L197.133 82.0224Z" fill="#EFB835" stroke="#EFB835" stroke-width="6" stroke-linejoin="round"/>
<defs>
<clipPath id="clip0_168_37">
<rect width="72.7085" height="72.7085" fill="white" transform="translate(0 79.0121) rotate(-7.12)"/>
</clipPath>
</defs>
</svg>
