<svg width="163" height="63" viewBox="0 0 163 63" fill="none" xmlns="http://www.w3.org/2000/svg">
<rect x="10" y="13" width="153" height="42" rx="6" fill="#788480"/>
<rect x="11" y="12.0377" width="151" height="40" rx="5" fill="#AFC2BC"/>
<rect x="16" y="16.0377" width="141" height="31" rx="4" fill="#C1CECA"/>
<path d="M66 14.1765L50 14.1765L15 44.0377L15 49.6766L26.5 49.6766L66 14.1765Z" fill="#AFC2BC"/>
<path d="M157.717 14.0377L160 49.0377H43.5L82 14.0377H157.717Z" fill="#AFC2BC"/>
<path d="M58.3174 34.2534C58.3174 34.0337 58.2832 33.8384 58.2148 33.6675C58.1514 33.4966 58.0366 33.3403 57.8706 33.1987C57.7046 33.0571 57.4702 32.9204 57.1675 32.7886C56.8696 32.6519 56.4888 32.5127 56.0249 32.3711C55.5171 32.2148 55.0483 32.0415 54.6187 31.8511C54.1938 31.6558 53.8228 31.4312 53.5054 31.1772C53.188 30.9185 52.9414 30.623 52.7656 30.291C52.5898 29.9541 52.502 29.5659 52.502 29.1265C52.502 28.6919 52.5923 28.2964 52.7729 27.9399C52.9585 27.5835 53.2197 27.2759 53.5566 27.0171C53.8984 26.7534 54.3013 26.5508 54.7651 26.4092C55.229 26.2627 55.7417 26.1895 56.3032 26.1895C57.0942 26.1895 57.7754 26.3359 58.3467 26.6289C58.9229 26.9219 59.3647 27.3149 59.6724 27.8081C59.9849 28.3013 60.1411 28.8457 60.1411 29.4414H58.3174C58.3174 29.0898 58.2417 28.7798 58.0903 28.5112C57.9438 28.2378 57.7192 28.0229 57.4165 27.8667C57.1187 27.7104 56.7402 27.6323 56.2812 27.6323C55.8467 27.6323 55.4854 27.6982 55.1973 27.8301C54.9092 27.9619 54.6943 28.1401 54.5527 28.3647C54.4111 28.5894 54.3403 28.8433 54.3403 29.1265C54.3403 29.3267 54.3867 29.5098 54.4795 29.6758C54.5723 29.8369 54.7139 29.9883 54.9043 30.1299C55.0947 30.2666 55.334 30.396 55.6221 30.5181C55.9102 30.6401 56.2495 30.7573 56.6401 30.8696C57.231 31.0454 57.7461 31.2407 58.1855 31.4556C58.625 31.6655 58.9912 31.9048 59.2842 32.1733C59.5771 32.4419 59.7969 32.7471 59.9434 33.0889C60.0898 33.4258 60.1631 33.8091 60.1631 34.2388C60.1631 34.688 60.0728 35.0933 59.8921 35.4546C59.7114 35.811 59.4526 36.1162 59.1157 36.3701C58.7837 36.6191 58.3833 36.812 57.9146 36.9487C57.4507 37.0806 56.9331 37.1465 56.3618 37.1465C55.8491 37.1465 55.3438 37.0781 54.8457 36.9414C54.3525 36.8047 53.9033 36.5972 53.498 36.3188C53.0928 36.0356 52.7705 35.6841 52.5312 35.2642C52.292 34.8394 52.1724 34.3438 52.1724 33.7773H54.0107C54.0107 34.124 54.0693 34.4194 54.1865 34.6636C54.3086 34.9077 54.4771 35.1079 54.6919 35.2642C54.9067 35.4155 55.1558 35.5278 55.439 35.6011C55.7271 35.6743 56.0347 35.7109 56.3618 35.7109C56.7915 35.7109 57.1504 35.6499 57.4385 35.5278C57.7314 35.4058 57.9512 35.2349 58.0977 35.0151C58.2441 34.7954 58.3174 34.5415 58.3174 34.2534ZM66.3813 35.1323V29.0752H68.1538V37H66.4839L66.3813 35.1323ZM66.6304 33.4844L67.2236 33.4697C67.2236 34.002 67.165 34.4927 67.0479 34.9419C66.9307 35.3862 66.75 35.7744 66.5059 36.1064C66.2617 36.4336 65.9492 36.6899 65.5684 36.8755C65.1875 37.0562 64.731 37.1465 64.1987 37.1465C63.813 37.1465 63.459 37.0903 63.1367 36.978C62.8145 36.8657 62.5361 36.6924 62.3018 36.458C62.0723 36.2236 61.894 35.9185 61.7671 35.5425C61.6401 35.1665 61.5767 34.7173 61.5767 34.1948V29.0752H63.3418V34.2095C63.3418 34.4976 63.376 34.7393 63.4443 34.9346C63.5127 35.125 63.6055 35.2788 63.7227 35.396C63.8398 35.5132 63.9766 35.5962 64.1328 35.645C64.2891 35.6938 64.4551 35.7183 64.6309 35.7183C65.1338 35.7183 65.5293 35.6206 65.8174 35.4253C66.1104 35.2251 66.3179 34.9565 66.4399 34.6196C66.5669 34.2827 66.6304 33.9043 66.6304 33.4844ZM69.9702 25.75H71.7354V35.3081L71.5669 37H69.9702V25.75ZM76.9062 32.9644V33.1182C76.9062 33.7041 76.8403 34.2437 76.7085 34.7368C76.5815 35.2251 76.3862 35.6499 76.1226 36.0112C75.8638 36.3726 75.5415 36.6533 75.1558 36.8535C74.7749 37.0488 74.333 37.1465 73.8301 37.1465C73.3369 37.1465 72.9072 37.0537 72.541 36.8682C72.1748 36.6826 71.8672 36.4189 71.6182 36.0771C71.374 35.7354 71.1763 35.3276 71.0249 34.854C70.8735 34.3804 70.7661 33.8579 70.7026 33.2866V32.7959C70.7661 32.2197 70.8735 31.6973 71.0249 31.2285C71.1763 30.7549 71.374 30.3472 71.6182 30.0054C71.8672 29.6587 72.1724 29.3926 72.5337 29.207C72.8999 29.0215 73.3271 28.9287 73.8154 28.9287C74.3232 28.9287 74.77 29.0264 75.1558 29.2217C75.5464 29.417 75.8711 29.6953 76.1299 30.0566C76.3887 30.4131 76.5815 30.8379 76.7085 31.3311C76.8403 31.8242 76.9062 32.3687 76.9062 32.9644ZM75.1411 33.1182V32.9644C75.1411 32.6079 75.1118 32.2734 75.0532 31.9609C74.9946 31.6436 74.897 31.3652 74.7603 31.126C74.6284 30.8867 74.4478 30.6987 74.2183 30.562C73.9937 30.4204 73.7129 30.3496 73.376 30.3496C73.0635 30.3496 72.7949 30.4033 72.5703 30.5107C72.3457 30.6182 72.1577 30.7646 72.0063 30.9502C71.855 31.1357 71.7354 31.3506 71.6475 31.5947C71.5645 31.8389 71.5083 32.1025 71.479 32.3857V33.7114C71.5229 34.0776 71.6157 34.4146 71.7573 34.7222C71.9038 35.0249 72.1089 35.269 72.3726 35.4546C72.6362 35.6353 72.9756 35.7256 73.3906 35.7256C73.7178 35.7256 73.9937 35.6597 74.2183 35.5278C74.4429 35.396 74.6211 35.2129 74.7529 34.9785C74.8896 34.7393 74.9873 34.4609 75.0459 34.1436C75.1094 33.8262 75.1411 33.4844 75.1411 33.1182ZM80.1655 30.6865V37H78.4004V29.0752H80.063L80.1655 30.6865ZM79.8799 32.7446L79.2793 32.7373C79.2793 32.1904 79.3477 31.6851 79.4844 31.2212C79.6211 30.7573 79.8213 30.3545 80.085 30.0127C80.3486 29.666 80.6758 29.3999 81.0664 29.2144C81.4619 29.0239 81.9185 28.9287 82.436 28.9287C82.7974 28.9287 83.127 28.9824 83.4248 29.0898C83.7275 29.1924 83.9888 29.356 84.2085 29.5806C84.4331 29.8052 84.604 30.0933 84.7212 30.4448C84.8433 30.7964 84.9043 31.2212 84.9043 31.7192V37H83.1392V31.873C83.1392 31.4873 83.0806 31.1846 82.9634 30.9648C82.8511 30.7451 82.6875 30.5889 82.4727 30.4961C82.2627 30.3984 82.0112 30.3496 81.7183 30.3496C81.3862 30.3496 81.103 30.4131 80.8687 30.54C80.6392 30.667 80.4512 30.8403 80.3047 31.0601C80.1582 31.2798 80.0508 31.5337 79.9824 31.8218C79.9141 32.1099 79.8799 32.4175 79.8799 32.7446ZM84.7944 32.2759L83.9668 32.459C83.9668 31.9805 84.0327 31.5288 84.1646 31.104C84.3013 30.6743 84.499 30.2983 84.7578 29.9761C85.0215 29.6489 85.3462 29.3926 85.7319 29.207C86.1177 29.0215 86.5596 28.9287 87.0576 28.9287C87.4629 28.9287 87.8242 28.9849 88.1416 29.0972C88.4639 29.2046 88.7373 29.3755 88.9619 29.6099C89.1865 29.8442 89.3574 30.1494 89.4746 30.5254C89.5918 30.8965 89.6504 31.3457 89.6504 31.873V37H87.8779V31.8657C87.8779 31.4653 87.8193 31.1553 87.7021 30.9355C87.5898 30.7158 87.4287 30.5645 87.2188 30.4814C87.0088 30.3936 86.7573 30.3496 86.4644 30.3496C86.1909 30.3496 85.9492 30.4009 85.7393 30.5034C85.5342 30.6011 85.3608 30.7402 85.2192 30.9209C85.0776 31.0967 84.9702 31.2993 84.897 31.5288C84.8286 31.7583 84.7944 32.0073 84.7944 32.2759ZM93.3564 29.0752V37H91.584V29.0752H93.3564ZM91.4668 26.9951C91.4668 26.7266 91.5547 26.5044 91.7305 26.3286C91.9111 26.1479 92.1602 26.0576 92.4775 26.0576C92.79 26.0576 93.0366 26.1479 93.2173 26.3286C93.3979 26.5044 93.4883 26.7266 93.4883 26.9951C93.4883 27.2588 93.3979 27.4785 93.2173 27.6543C93.0366 27.8301 92.79 27.918 92.4775 27.918C92.1602 27.918 91.9111 27.8301 91.7305 27.6543C91.5547 27.4785 91.4668 27.2588 91.4668 26.9951ZM98.9229 29.0752V30.3643H94.4551V29.0752H98.9229ZM95.7441 27.1343H97.5093V34.8101C97.5093 35.0542 97.5435 35.2422 97.6118 35.374C97.6851 35.501 97.7852 35.5864 97.9121 35.6304C98.0391 35.6743 98.188 35.6963 98.3589 35.6963C98.481 35.6963 98.5981 35.689 98.7104 35.6743C98.8228 35.6597 98.9131 35.645 98.9814 35.6304L98.9888 36.978C98.8423 37.022 98.6714 37.061 98.4761 37.0952C98.2856 37.1294 98.0659 37.1465 97.8169 37.1465C97.4116 37.1465 97.0527 37.0757 96.7402 36.9341C96.4277 36.7876 96.1836 36.5508 96.0078 36.2236C95.832 35.8965 95.7441 35.4619 95.7441 34.9199V27.1343Z" fill="#2A262A"/>
<path d="M108 30.7245L112.462 35.0328L121.386 26" stroke="#2A262A" stroke-width="3"/>
</svg>
