<svg width="262" height="63" viewBox="0 0 262 63" fill="none" xmlns="http://www.w3.org/2000/svg">
<rect x="65" y="13" width="153" height="42" rx="6" fill="#334C27"/>
<rect x="66" y="12.0377" width="151" height="40" rx="5" fill="#5F8F48"/>
<rect x="71" y="16.0377" width="141" height="31" rx="4" fill="#75A060"/>
<path d="M121 14.1765L105 14.1765L70 44.0377L70 49.6766L81.5 49.6766L121 14.1765Z" fill="#5F8F48"/>
<path d="M212.717 14.0377L215 49.0377H98.5L137 14.0377H212.717Z" fill="#5F8F48"/>
<path d="M113.817 34.2534C113.817 34.0337 113.783 33.8384 113.715 33.6675C113.651 33.4966 113.537 33.3403 113.371 33.1987C113.205 33.0571 112.97 32.9204 112.667 32.7886C112.37 32.6519 111.989 32.5127 111.525 32.3711C111.017 32.2148 110.548 32.0415 110.119 31.8511C109.694 31.6558 109.323 31.4312 109.005 31.1772C108.688 30.9185 108.441 30.623 108.266 30.291C108.09 29.9541 108.002 29.5659 108.002 29.1265C108.002 28.6919 108.092 28.2964 108.273 27.9399C108.458 27.5835 108.72 27.2759 109.057 27.0171C109.398 26.7534 109.801 26.5508 110.265 26.4092C110.729 26.2627 111.242 26.1895 111.803 26.1895C112.594 26.1895 113.275 26.3359 113.847 26.6289C114.423 26.9219 114.865 27.3149 115.172 27.8081C115.485 28.3013 115.641 28.8457 115.641 29.4414H113.817C113.817 29.0898 113.742 28.7798 113.59 28.5112C113.444 28.2378 113.219 28.0229 112.917 27.8667C112.619 27.7104 112.24 27.6323 111.781 27.6323C111.347 27.6323 110.985 27.6982 110.697 27.8301C110.409 27.9619 110.194 28.1401 110.053 28.3647C109.911 28.5894 109.84 28.8433 109.84 29.1265C109.84 29.3267 109.887 29.5098 109.979 29.6758C110.072 29.8369 110.214 29.9883 110.404 30.1299C110.595 30.2666 110.834 30.396 111.122 30.5181C111.41 30.6401 111.75 30.7573 112.14 30.8696C112.731 31.0454 113.246 31.2407 113.686 31.4556C114.125 31.6655 114.491 31.9048 114.784 32.1733C115.077 32.4419 115.297 32.7471 115.443 33.0889C115.59 33.4258 115.663 33.8091 115.663 34.2388C115.663 34.688 115.573 35.0933 115.392 35.4546C115.211 35.811 114.953 36.1162 114.616 36.3701C114.284 36.6191 113.883 36.812 113.415 36.9487C112.951 37.0806 112.433 37.1465 111.862 37.1465C111.349 37.1465 110.844 37.0781 110.346 36.9414C109.853 36.8047 109.403 36.5972 108.998 36.3188C108.593 36.0356 108.271 35.6841 108.031 35.2642C107.792 34.8394 107.672 34.3438 107.672 33.7773H109.511C109.511 34.124 109.569 34.4194 109.687 34.6636C109.809 34.9077 109.977 35.1079 110.192 35.2642C110.407 35.4155 110.656 35.5278 110.939 35.6011C111.227 35.6743 111.535 35.7109 111.862 35.7109C112.292 35.7109 112.65 35.6499 112.938 35.5278C113.231 35.4058 113.451 35.2349 113.598 35.0151C113.744 34.7954 113.817 34.5415 113.817 34.2534ZM121.881 35.1323V29.0752H123.654V37H121.984L121.881 35.1323ZM122.13 33.4844L122.724 33.4697C122.724 34.002 122.665 34.4927 122.548 34.9419C122.431 35.3862 122.25 35.7744 122.006 36.1064C121.762 36.4336 121.449 36.6899 121.068 36.8755C120.688 37.0562 120.231 37.1465 119.699 37.1465C119.313 37.1465 118.959 37.0903 118.637 36.978C118.314 36.8657 118.036 36.6924 117.802 36.458C117.572 36.2236 117.394 35.9185 117.267 35.5425C117.14 35.1665 117.077 34.7173 117.077 34.1948V29.0752H118.842V34.2095C118.842 34.4976 118.876 34.7393 118.944 34.9346C119.013 35.125 119.105 35.2788 119.223 35.396C119.34 35.5132 119.477 35.5962 119.633 35.645C119.789 35.6938 119.955 35.7183 120.131 35.7183C120.634 35.7183 121.029 35.6206 121.317 35.4253C121.61 35.2251 121.818 34.9565 121.94 34.6196C122.067 34.2827 122.13 33.9043 122.13 33.4844ZM125.47 25.75H127.235V35.3081L127.067 37H125.47V25.75ZM132.406 32.9644V33.1182C132.406 33.7041 132.34 34.2437 132.208 34.7368C132.082 35.2251 131.886 35.6499 131.623 36.0112C131.364 36.3726 131.042 36.6533 130.656 36.8535C130.275 37.0488 129.833 37.1465 129.33 37.1465C128.837 37.1465 128.407 37.0537 128.041 36.8682C127.675 36.6826 127.367 36.4189 127.118 36.0771C126.874 35.7354 126.676 35.3276 126.525 34.854C126.374 34.3804 126.266 33.8579 126.203 33.2866V32.7959C126.266 32.2197 126.374 31.6973 126.525 31.2285C126.676 30.7549 126.874 30.3472 127.118 30.0054C127.367 29.6587 127.672 29.3926 128.034 29.207C128.4 29.0215 128.827 28.9287 129.315 28.9287C129.823 28.9287 130.27 29.0264 130.656 29.2217C131.046 29.417 131.371 29.6953 131.63 30.0566C131.889 30.4131 132.082 30.8379 132.208 31.3311C132.34 31.8242 132.406 32.3687 132.406 32.9644ZM130.641 33.1182V32.9644C130.641 32.6079 130.612 32.2734 130.553 31.9609C130.495 31.6436 130.397 31.3652 130.26 31.126C130.128 30.8867 129.948 30.6987 129.718 30.562C129.494 30.4204 129.213 30.3496 128.876 30.3496C128.563 30.3496 128.295 30.4033 128.07 30.5107C127.846 30.6182 127.658 30.7646 127.506 30.9502C127.355 31.1357 127.235 31.3506 127.147 31.5947C127.064 31.8389 127.008 32.1025 126.979 32.3857V33.7114C127.023 34.0776 127.116 34.4146 127.257 34.7222C127.404 35.0249 127.609 35.269 127.873 35.4546C128.136 35.6353 128.476 35.7256 128.891 35.7256C129.218 35.7256 129.494 35.6597 129.718 35.5278C129.943 35.396 130.121 35.2129 130.253 34.9785C130.39 34.7393 130.487 34.4609 130.546 34.1436C130.609 33.8262 130.641 33.4844 130.641 33.1182ZM135.666 30.6865V37H133.9V29.0752H135.563L135.666 30.6865ZM135.38 32.7446L134.779 32.7373C134.779 32.1904 134.848 31.6851 134.984 31.2212C135.121 30.7573 135.321 30.3545 135.585 30.0127C135.849 29.666 136.176 29.3999 136.566 29.2144C136.962 29.0239 137.418 28.9287 137.936 28.9287C138.297 28.9287 138.627 28.9824 138.925 29.0898C139.228 29.1924 139.489 29.356 139.708 29.5806C139.933 29.8052 140.104 30.0933 140.221 30.4448C140.343 30.7964 140.404 31.2212 140.404 31.7192V37H138.639V31.873C138.639 31.4873 138.581 31.1846 138.463 30.9648C138.351 30.7451 138.188 30.5889 137.973 30.4961C137.763 30.3984 137.511 30.3496 137.218 30.3496C136.886 30.3496 136.603 30.4131 136.369 30.54C136.139 30.667 135.951 30.8403 135.805 31.0601C135.658 31.2798 135.551 31.5337 135.482 31.8218C135.414 32.1099 135.38 32.4175 135.38 32.7446ZM140.294 32.2759L139.467 32.459C139.467 31.9805 139.533 31.5288 139.665 31.104C139.801 30.6743 139.999 30.2983 140.258 29.9761C140.521 29.6489 140.846 29.3926 141.232 29.207C141.618 29.0215 142.06 28.9287 142.558 28.9287C142.963 28.9287 143.324 28.9849 143.642 29.0972C143.964 29.2046 144.237 29.3755 144.462 29.6099C144.687 29.8442 144.857 30.1494 144.975 30.5254C145.092 30.8965 145.15 31.3457 145.15 31.873V37H143.378V31.8657C143.378 31.4653 143.319 31.1553 143.202 30.9355C143.09 30.7158 142.929 30.5645 142.719 30.4814C142.509 30.3936 142.257 30.3496 141.964 30.3496C141.691 30.3496 141.449 30.4009 141.239 30.5034C141.034 30.6011 140.861 30.7402 140.719 30.9209C140.578 31.0967 140.47 31.2993 140.397 31.5288C140.329 31.7583 140.294 32.0073 140.294 32.2759ZM148.856 29.0752V37H147.084V29.0752H148.856ZM146.967 26.9951C146.967 26.7266 147.055 26.5044 147.23 26.3286C147.411 26.1479 147.66 26.0576 147.978 26.0576C148.29 26.0576 148.537 26.1479 148.717 26.3286C148.898 26.5044 148.988 26.7266 148.988 26.9951C148.988 27.2588 148.898 27.4785 148.717 27.6543C148.537 27.8301 148.29 27.918 147.978 27.918C147.66 27.918 147.411 27.8301 147.23 27.6543C147.055 27.4785 146.967 27.2588 146.967 26.9951ZM154.423 29.0752V30.3643H149.955V29.0752H154.423ZM151.244 27.1343H153.009V34.8101C153.009 35.0542 153.043 35.2422 153.112 35.374C153.185 35.501 153.285 35.5864 153.412 35.6304C153.539 35.6743 153.688 35.6963 153.859 35.6963C153.981 35.6963 154.098 35.689 154.21 35.6743C154.323 35.6597 154.413 35.645 154.481 35.6304L154.489 36.978C154.342 37.022 154.171 37.061 153.976 37.0952C153.786 37.1294 153.566 37.1465 153.317 37.1465C152.912 37.1465 152.553 37.0757 152.24 36.9341C151.928 36.7876 151.684 36.5508 151.508 36.2236C151.332 35.8965 151.244 35.4619 151.244 34.9199V27.1343Z" fill="#FFFDF5"/>
<path d="M163 30.7245L167.462 35.0328L176.386 26" stroke="#FFFDF5" stroke-width="3"/>
</svg>
