<svg width="262" height="64" viewBox="0 0 262 64" fill="none" xmlns="http://www.w3.org/2000/svg">
<rect x="54" y="13" width="153" height="42" rx="6" fill="#334C27"/>
<rect x="55" y="12.0377" width="151" height="40" rx="5" fill="#5F8F48"/>
<rect x="60" y="16.0377" width="141" height="31" rx="4" fill="#75A060"/>
<path d="M110 14.1765L94 14.1765L59 44.0377L59 49.6766L70.5 49.6766L110 14.1765Z" fill="#5F8F48"/>
<path d="M201.717 14.0377L204 49.0377H87.5L126 14.0377H201.717Z" fill="#5F8F48"/>
<path d="M82.8652 26.3737H84.6963V33.5001C84.6963 34.3107 84.5205 34.9894 84.1689 35.5363C83.8174 36.0831 83.3389 36.4957 82.7334 36.774C82.1328 37.0475 81.4614 37.1842 80.7192 37.1842C79.9526 37.1842 79.269 37.0475 78.6685 36.774C78.0679 36.4957 77.5942 36.0831 77.2476 35.5363C76.9058 34.9894 76.7349 34.3107 76.7349 33.5001V26.3737H78.5659V33.5001C78.5659 34.0128 78.6538 34.4352 78.8296 34.7672C79.0054 35.0944 79.2544 35.3361 79.5767 35.4923C79.8989 35.6486 80.2798 35.7267 80.7192 35.7267C81.1587 35.7267 81.5371 35.6486 81.8545 35.4923C82.1768 35.3361 82.4258 35.0944 82.6016 34.7672C82.7773 34.4352 82.8652 34.0128 82.8652 33.5001V26.3737ZM88.2925 30.6364V40.0846H86.5273V29.1129H88.1533L88.2925 30.6364ZM93.4561 33.0021V33.1559C93.4561 33.7321 93.3877 34.2667 93.251 34.7599C93.1191 35.2482 92.9214 35.6754 92.6577 36.0416C92.3989 36.403 92.0791 36.6837 91.6982 36.8839C91.3174 37.0841 90.8779 37.1842 90.3799 37.1842C89.8867 37.1842 89.4546 37.0939 89.0835 36.9132C88.7173 36.7277 88.4072 36.4664 88.1533 36.1295C87.8994 35.7926 87.6943 35.3971 87.5381 34.943C87.3867 34.484 87.2793 33.9811 87.2158 33.4342V32.8409C87.2793 32.2599 87.3867 31.7325 87.5381 31.2589C87.6943 30.7853 87.8994 30.3776 88.1533 30.0358C88.4072 29.694 88.7173 29.4303 89.0835 29.2448C89.4497 29.0592 89.877 28.9664 90.3652 28.9664C90.8633 28.9664 91.3052 29.0641 91.6909 29.2594C92.0767 29.4498 92.4014 29.7233 92.665 30.0797C92.9287 30.4313 93.1265 30.8561 93.2583 31.3541C93.3901 31.8473 93.4561 32.3966 93.4561 33.0021ZM91.6909 33.1559V33.0021C91.6909 32.6359 91.6567 32.2965 91.5884 31.984C91.52 31.6666 91.4126 31.3883 91.2661 31.149C91.1196 30.9098 90.9316 30.7242 90.7021 30.5924C90.4775 30.4557 90.2065 30.3873 89.8892 30.3873C89.5767 30.3873 89.3081 30.441 89.0835 30.5485C88.8589 30.651 88.6709 30.795 88.5195 30.9806C88.3682 31.1661 88.251 31.3834 88.168 31.6324C88.085 31.8766 88.0264 32.1427 87.9922 32.4308V33.8517C88.0508 34.2032 88.1509 34.5255 88.2925 34.8185C88.4341 35.1115 88.6343 35.3458 88.8931 35.5216C89.1567 35.6925 89.4937 35.778 89.9038 35.778C90.2212 35.778 90.4922 35.7096 90.7168 35.5729C90.9414 35.4362 91.1245 35.2482 91.2661 35.0089C91.4126 34.7648 91.52 34.484 91.5884 34.1666C91.6567 33.8492 91.6909 33.5123 91.6909 33.1559ZM99.7915 35.3971V25.7877H101.564V37.0377H99.96L99.7915 35.3971ZM94.6353 33.1632V33.0094C94.6353 32.4088 94.7061 31.8619 94.8477 31.3688C94.9893 30.8707 95.1943 30.4435 95.4629 30.087C95.7314 29.7257 96.0586 29.4498 96.4443 29.2594C96.8301 29.0641 97.2646 28.9664 97.748 28.9664C98.2266 28.9664 98.6465 29.0592 99.0078 29.2448C99.3691 29.4303 99.6768 29.6964 99.9307 30.0431C100.185 30.3849 100.387 30.795 100.539 31.2736C100.69 31.7472 100.797 32.2745 100.861 32.8556V33.3463C100.797 33.9127 100.69 34.4303 100.539 34.899C100.387 35.3678 100.185 35.7731 99.9307 36.1149C99.6768 36.4567 99.3667 36.7203 99.0005 36.9059C98.6392 37.0914 98.2168 37.1842 97.7334 37.1842C97.2549 37.1842 96.8228 37.0841 96.437 36.8839C96.0562 36.6837 95.7314 36.403 95.4629 36.0416C95.1943 35.6803 94.9893 35.2555 94.8477 34.7672C94.7061 34.274 94.6353 33.7394 94.6353 33.1632ZM96.4004 33.0094V33.1632C96.4004 33.5245 96.4321 33.8615 96.4956 34.174C96.564 34.4865 96.6689 34.7623 96.8105 35.0016C96.9521 35.236 97.1353 35.4215 97.3599 35.5582C97.5894 35.6901 97.8628 35.756 98.1802 35.756C98.5806 35.756 98.9102 35.6681 99.1689 35.4923C99.4277 35.3165 99.6304 35.0797 99.7769 34.7819C99.9282 34.4791 100.031 34.1422 100.084 33.7711V32.4454C100.055 32.1573 99.9941 31.8888 99.9014 31.6398C99.8135 31.3907 99.6938 31.1735 99.5425 30.9879C99.3911 30.7975 99.2031 30.651 98.9785 30.5485C98.7588 30.441 98.4976 30.3873 98.1948 30.3873C97.8726 30.3873 97.5991 30.4557 97.3745 30.5924C97.1499 30.7291 96.9644 30.9171 96.8179 31.1564C96.6763 31.3956 96.5713 31.674 96.5029 31.9913C96.4346 32.3087 96.4004 32.6481 96.4004 33.0094ZM107.877 35.4484V31.6691C107.877 31.3859 107.826 31.1417 107.724 30.9366C107.621 30.7316 107.465 30.5729 107.255 30.4606C107.05 30.3483 106.791 30.2921 106.479 30.2921C106.19 30.2921 105.941 30.3409 105.731 30.4386C105.521 30.5363 105.358 30.6681 105.241 30.8341C105.124 31.0001 105.065 31.1881 105.065 31.3981H103.307C103.307 31.0856 103.383 30.7828 103.534 30.4899C103.686 30.1969 103.905 29.9357 104.193 29.7062C104.481 29.4767 104.826 29.296 105.226 29.1642C105.626 29.0323 106.076 28.9664 106.574 28.9664C107.169 28.9664 107.697 29.0665 108.156 29.2667C108.62 29.4669 108.983 29.7697 109.247 30.1749C109.516 30.5753 109.65 31.0782 109.65 31.6837V35.2067C109.65 35.568 109.674 35.8927 109.723 36.1808C109.777 36.464 109.853 36.7106 109.95 36.9205V37.0377H108.141C108.058 36.8473 107.992 36.6056 107.943 36.3126C107.899 36.0148 107.877 35.7267 107.877 35.4484ZM108.134 32.2184L108.148 33.3097H106.881C106.554 33.3097 106.266 33.3414 106.017 33.4049C105.768 33.4635 105.561 33.5514 105.395 33.6686C105.229 33.7858 105.104 33.9274 105.021 34.0934C104.938 34.2594 104.896 34.4474 104.896 34.6573C104.896 34.8673 104.945 35.0602 105.043 35.236C105.141 35.4069 105.282 35.5411 105.468 35.6388C105.658 35.7365 105.888 35.7853 106.156 35.7853C106.518 35.7853 106.833 35.712 107.101 35.5656C107.375 35.4142 107.589 35.2311 107.746 35.0162C107.902 34.7965 107.985 34.589 107.995 34.3937L108.566 35.1774C108.507 35.3776 108.407 35.5924 108.266 35.8219C108.124 36.0514 107.938 36.2711 107.709 36.4811C107.484 36.6862 107.213 36.8546 106.896 36.9865C106.583 37.1183 106.222 37.1842 105.812 37.1842C105.294 37.1842 104.833 37.0817 104.428 36.8766C104.022 36.6666 103.705 36.3859 103.476 36.0343C103.246 35.6779 103.131 35.275 103.131 34.8258C103.131 34.4059 103.209 34.0348 103.366 33.7125C103.527 33.3854 103.761 33.1119 104.069 32.8922C104.381 32.6725 104.762 32.5065 105.211 32.3942C105.661 32.277 106.173 32.2184 106.75 32.2184H108.134ZM115.128 29.1129V30.402H110.661V29.1129H115.128ZM111.95 27.172H113.715V34.8478C113.715 35.0919 113.749 35.2799 113.817 35.4117C113.891 35.5387 113.991 35.6241 114.118 35.6681C114.245 35.712 114.394 35.734 114.564 35.734C114.687 35.734 114.804 35.7267 114.916 35.712C115.028 35.6974 115.119 35.6827 115.187 35.6681L115.194 37.0157C115.048 37.0597 114.877 37.0988 114.682 37.1329C114.491 37.1671 114.271 37.1842 114.022 37.1842C113.617 37.1842 113.258 37.1134 112.946 36.9718C112.633 36.8253 112.389 36.5885 112.213 36.2614C112.038 35.9342 111.95 35.4996 111.95 34.9576V27.172ZM119.984 37.1842C119.398 37.1842 118.869 37.089 118.395 36.8986C117.926 36.7032 117.526 36.4323 117.194 36.0856C116.867 35.7389 116.615 35.3312 116.439 34.8624C116.264 34.3937 116.176 33.8883 116.176 33.3463V33.0533C116.176 32.4332 116.266 31.8717 116.447 31.3688C116.627 30.8658 116.879 30.4362 117.201 30.0797C117.523 29.7184 117.904 29.4425 118.344 29.2521C118.783 29.0616 119.259 28.9664 119.772 28.9664C120.338 28.9664 120.834 29.0616 121.259 29.2521C121.684 29.4425 122.035 29.7111 122.313 30.0577C122.597 30.3995 122.807 30.8073 122.943 31.2809C123.085 31.7545 123.156 32.277 123.156 32.8483V33.6027H117.033V32.3356H121.413V32.1964C121.403 31.879 121.339 31.5812 121.222 31.3029C121.11 31.0245 120.937 30.7999 120.702 30.629C120.468 30.4581 120.155 30.3727 119.765 30.3727C119.472 30.3727 119.21 30.4362 118.981 30.5631C118.756 30.6852 118.568 30.8634 118.417 31.0978C118.266 31.3322 118.148 31.6154 118.065 31.9474C117.987 32.2745 117.948 32.6432 117.948 33.0533V33.3463C117.948 33.693 117.995 34.0153 118.087 34.3131C118.185 34.6061 118.327 34.8624 118.512 35.0822C118.698 35.3019 118.922 35.4752 119.186 35.6022C119.45 35.7242 119.75 35.7853 120.087 35.7853C120.512 35.7853 120.89 35.6998 121.222 35.5289C121.554 35.358 121.842 35.1163 122.086 34.8038L123.017 35.7047C122.846 35.9537 122.624 36.193 122.35 36.4225C122.077 36.6471 121.742 36.8302 121.347 36.9718C120.956 37.1134 120.502 37.1842 119.984 37.1842ZM134.743 33.566H136.574C136.515 34.2643 136.32 34.8868 135.988 35.4337C135.656 35.9757 135.189 36.403 134.589 36.7155C133.988 37.028 133.258 37.1842 132.399 37.1842C131.74 37.1842 131.146 37.067 130.619 36.8326C130.092 36.5934 129.64 36.2565 129.264 35.8219C128.888 35.3824 128.6 34.8527 128.4 34.2325C128.205 33.6124 128.107 32.9191 128.107 32.1525V31.2662C128.107 30.4996 128.207 29.8063 128.407 29.1862C128.612 28.566 128.905 28.0363 129.286 27.5968C129.667 27.1525 130.124 26.8131 130.656 26.5787C131.193 26.3444 131.796 26.2272 132.465 26.2272C133.314 26.2272 134.032 26.3834 134.618 26.6959C135.204 27.0084 135.658 27.4406 135.98 27.9923C136.308 28.5441 136.508 29.1764 136.581 29.8893H134.75C134.701 29.4303 134.594 29.0372 134.428 28.7101C134.267 28.3829 134.027 28.1339 133.71 27.963C133.393 27.7872 132.978 27.6993 132.465 27.6993C132.045 27.6993 131.679 27.7775 131.366 27.9337C131.054 28.09 130.792 28.3195 130.583 28.6222C130.373 28.9249 130.214 29.2985 130.106 29.7428C130.004 30.1823 129.953 30.6852 129.953 31.2516V32.1525C129.953 32.6896 129.999 33.1779 130.092 33.6173C130.189 34.0519 130.336 34.4254 130.531 34.7379C130.731 35.0504 130.985 35.2921 131.293 35.463C131.601 35.6339 131.969 35.7194 132.399 35.7194C132.921 35.7194 133.344 35.6364 133.666 35.4703C133.993 35.3043 134.24 35.0626 134.406 34.7452C134.577 34.423 134.689 34.0299 134.743 33.566ZM139.811 25.7877V37.0377H138.053V25.7877H139.811ZM139.503 32.7823L138.932 32.775C138.937 32.2281 139.013 31.7228 139.159 31.2589C139.311 30.795 139.521 30.3922 139.789 30.0504C140.062 29.7037 140.39 29.4376 140.771 29.2521C141.151 29.0616 141.574 28.9664 142.038 28.9664C142.428 28.9664 142.78 29.0201 143.092 29.1276C143.41 29.235 143.683 29.4083 143.913 29.6476C144.142 29.882 144.315 30.1896 144.433 30.5704C144.555 30.9464 144.616 31.4054 144.616 31.9474V37.0377H142.843V31.9327C142.843 31.5519 142.787 31.2491 142.675 31.0245C142.567 30.7999 142.409 30.6388 142.199 30.5411C141.989 30.4386 141.732 30.3873 141.43 30.3873C141.112 30.3873 140.832 30.4508 140.587 30.5778C140.348 30.7047 140.148 30.8781 139.987 31.0978C139.826 31.3175 139.704 31.5714 139.621 31.8595C139.542 32.1476 139.503 32.4552 139.503 32.7823ZM150.871 35.4484V31.6691C150.871 31.3859 150.819 31.1417 150.717 30.9366C150.614 30.7316 150.458 30.5729 150.248 30.4606C150.043 30.3483 149.784 30.2921 149.472 30.2921C149.184 30.2921 148.935 30.3409 148.725 30.4386C148.515 30.5363 148.351 30.6681 148.234 30.8341C148.117 31.0001 148.058 31.1881 148.058 31.3981H146.3C146.3 31.0856 146.376 30.7828 146.527 30.4899C146.679 30.1969 146.898 29.9357 147.187 29.7062C147.475 29.4767 147.819 29.296 148.219 29.1642C148.62 29.0323 149.069 28.9664 149.567 28.9664C150.163 28.9664 150.69 29.0665 151.149 29.2667C151.613 29.4669 151.977 29.7697 152.24 30.1749C152.509 30.5753 152.643 31.0782 152.643 31.6837V35.2067C152.643 35.568 152.667 35.8927 152.716 36.1808C152.77 36.464 152.846 36.7106 152.943 36.9205V37.0377H151.134C151.051 36.8473 150.985 36.6056 150.937 36.3126C150.893 36.0148 150.871 35.7267 150.871 35.4484ZM151.127 32.2184L151.142 33.3097H149.875C149.547 33.3097 149.259 33.3414 149.01 33.4049C148.761 33.4635 148.554 33.5514 148.388 33.6686C148.222 33.7858 148.097 33.9274 148.014 34.0934C147.931 34.2594 147.89 34.4474 147.89 34.6573C147.89 34.8673 147.938 35.0602 148.036 35.236C148.134 35.4069 148.275 35.5411 148.461 35.6388C148.651 35.7365 148.881 35.7853 149.149 35.7853C149.511 35.7853 149.826 35.712 150.094 35.5656C150.368 35.4142 150.583 35.2311 150.739 35.0162C150.895 34.7965 150.978 34.589 150.988 34.3937L151.559 35.1774C151.5 35.3776 151.4 35.5924 151.259 35.8219C151.117 36.0514 150.932 36.2711 150.702 36.4811C150.478 36.6862 150.207 36.8546 149.889 36.9865C149.577 37.1183 149.215 37.1842 148.805 37.1842C148.288 37.1842 147.826 37.0817 147.421 36.8766C147.016 36.6666 146.698 36.3859 146.469 36.0343C146.239 35.6779 146.125 35.275 146.125 34.8258C146.125 34.4059 146.203 34.0348 146.359 33.7125C146.52 33.3854 146.754 33.1119 147.062 32.8922C147.375 32.6725 147.755 32.5065 148.205 32.3942C148.654 32.277 149.167 32.2184 149.743 32.2184H151.127ZM156.239 30.8048V37.0377H154.474V29.1129H156.137L156.239 30.8048ZM155.924 32.7823L155.353 32.775C155.358 32.2135 155.436 31.6984 155.587 31.2296C155.744 30.7609 155.958 30.358 156.232 30.0211C156.51 29.6842 156.842 29.4254 157.228 29.2448C157.614 29.0592 158.043 28.9664 158.517 28.9664C158.898 28.9664 159.242 29.0201 159.55 29.1276C159.862 29.2301 160.128 29.3986 160.348 29.6329C160.573 29.8673 160.744 30.1725 160.861 30.5485C160.978 30.9196 161.037 31.3761 161.037 31.9181V37.0377H159.264V31.9108C159.264 31.5299 159.208 31.2296 159.096 31.0099C158.988 30.7853 158.83 30.6266 158.62 30.5338C158.415 30.4362 158.158 30.3873 157.851 30.3873C157.548 30.3873 157.277 30.4508 157.038 30.5778C156.798 30.7047 156.596 30.8781 156.43 31.0978C156.269 31.3175 156.144 31.5714 156.056 31.8595C155.968 32.1476 155.924 32.4552 155.924 32.7823ZM167.914 29.1129H169.518V36.818C169.518 37.5309 169.367 38.1364 169.064 38.6344C168.761 39.1324 168.339 39.5109 167.797 39.7697C167.255 40.0333 166.627 40.1652 165.915 40.1652C165.612 40.1652 165.275 40.1212 164.904 40.0333C164.538 39.9454 164.181 39.8038 163.834 39.6085C163.493 39.4181 163.207 39.1666 162.978 38.8541L163.805 37.8141C164.088 38.151 164.401 38.3976 164.743 38.5538C165.084 38.7101 165.443 38.7882 165.819 38.7882C166.225 38.7882 166.569 38.7125 166.852 38.5612C167.14 38.4147 167.362 38.1974 167.519 37.9093C167.675 37.6212 167.753 37.2697 167.753 36.8546V30.9073L167.914 29.1129ZM162.531 33.1632V33.0094C162.531 32.4088 162.604 31.8619 162.75 31.3688C162.897 30.8707 163.107 30.4435 163.38 30.087C163.654 29.7257 163.986 29.4498 164.376 29.2594C164.767 29.0641 165.209 28.9664 165.702 28.9664C166.215 28.9664 166.652 29.0592 167.013 29.2448C167.379 29.4303 167.685 29.6964 167.929 30.0431C168.173 30.3849 168.363 30.795 168.5 31.2736C168.642 31.7472 168.747 32.2745 168.815 32.8556V33.3463C168.751 33.9127 168.644 34.4303 168.493 34.899C168.341 35.3678 168.141 35.7731 167.892 36.1149C167.643 36.4567 167.335 36.7203 166.969 36.9059C166.608 37.0914 166.181 37.1842 165.688 37.1842C165.204 37.1842 164.767 37.0841 164.376 36.8839C163.991 36.6837 163.659 36.403 163.38 36.0416C163.107 35.6803 162.897 35.2555 162.75 34.7672C162.604 34.274 162.531 33.7394 162.531 33.1632ZM164.296 33.0094V33.1632C164.296 33.5245 164.33 33.8615 164.398 34.174C164.472 34.4865 164.582 34.7623 164.728 35.0016C164.879 35.236 165.07 35.4215 165.299 35.5582C165.534 35.6901 165.81 35.756 166.127 35.756C166.542 35.756 166.881 35.6681 167.145 35.4923C167.414 35.3165 167.619 35.0797 167.76 34.7819C167.907 34.4791 168.009 34.1422 168.068 33.7711V32.4454C168.039 32.1573 167.978 31.8888 167.885 31.6398C167.797 31.3907 167.677 31.1735 167.526 30.9879C167.375 30.7975 167.184 30.651 166.955 30.5485C166.725 30.441 166.454 30.3873 166.142 30.3873C165.824 30.3873 165.548 30.4557 165.314 30.5924C165.08 30.7291 164.887 30.9171 164.735 31.1564C164.589 31.3956 164.479 31.674 164.406 31.9913C164.333 32.3087 164.296 32.6481 164.296 33.0094ZM174.843 37.1842C174.257 37.1842 173.727 37.089 173.253 36.8986C172.785 36.7032 172.384 36.4323 172.052 36.0856C171.725 35.7389 171.474 35.3312 171.298 34.8624C171.122 34.3937 171.034 33.8883 171.034 33.3463V33.0533C171.034 32.4332 171.125 31.8717 171.305 31.3688C171.486 30.8658 171.737 30.4362 172.06 30.0797C172.382 29.7184 172.763 29.4425 173.202 29.2521C173.642 29.0616 174.118 28.9664 174.63 28.9664C175.197 28.9664 175.692 29.0616 176.117 29.2521C176.542 29.4425 176.894 29.7111 177.172 30.0577C177.455 30.3995 177.665 30.8073 177.802 31.2809C177.943 31.7545 178.014 32.277 178.014 32.8483V33.6027H171.891V32.3356H176.271V32.1964C176.261 31.879 176.198 31.5812 176.081 31.3029C175.968 31.0245 175.795 30.7999 175.561 30.629C175.326 30.4581 175.014 30.3727 174.623 30.3727C174.33 30.3727 174.069 30.4362 173.839 30.5631C173.615 30.6852 173.427 30.8634 173.275 31.0978C173.124 31.3322 173.007 31.6154 172.924 31.9474C172.846 32.2745 172.807 32.6432 172.807 33.0533V33.3463C172.807 33.693 172.853 34.0153 172.946 34.3131C173.043 34.6061 173.185 34.8624 173.371 35.0822C173.556 35.3019 173.781 35.4752 174.044 35.6022C174.308 35.7242 174.608 35.7853 174.945 35.7853C175.37 35.7853 175.749 35.6998 176.081 35.5289C176.413 35.358 176.701 35.1163 176.945 34.8038L177.875 35.7047C177.704 35.9537 177.482 36.193 177.208 36.4225C176.935 36.6471 176.601 36.8302 176.205 36.9718C175.814 37.1134 175.36 37.1842 174.843 37.1842ZM183.837 34.8917C183.837 34.7159 183.793 34.5573 183.705 34.4156C183.617 34.2692 183.449 34.1373 183.2 34.0201C182.956 33.903 182.594 33.7955 182.116 33.6979C181.696 33.6051 181.31 33.4952 180.958 33.3683C180.612 33.2365 180.314 33.0778 180.065 32.8922C179.816 32.7067 179.623 32.4869 179.486 32.233C179.35 31.9791 179.281 31.6862 179.281 31.3541C179.281 31.0319 179.352 30.7267 179.494 30.4386C179.635 30.1505 179.838 29.8966 180.102 29.6769C180.365 29.4572 180.685 29.2838 181.061 29.1569C181.442 29.0299 181.867 28.9664 182.335 28.9664C183 28.9664 183.568 29.0787 184.042 29.3033C184.521 29.5231 184.887 29.8234 185.141 30.2042C185.395 30.5802 185.521 31.005 185.521 31.4786H183.756C183.756 31.2687 183.703 31.0734 183.595 30.8927C183.493 30.7072 183.336 30.5582 183.126 30.4459C182.917 30.3287 182.653 30.2701 182.335 30.2701C182.033 30.2701 181.781 30.319 181.581 30.4166C181.386 30.5094 181.239 30.6315 181.142 30.7828C181.049 30.9342 181.002 31.1002 181.002 31.2809C181.002 31.4127 181.027 31.5323 181.076 31.6398C181.129 31.7423 181.217 31.8375 181.339 31.9254C181.461 32.0084 181.627 32.0865 181.837 32.1598C182.052 32.233 182.321 32.3038 182.643 32.3722C183.249 32.4991 183.769 32.6627 184.203 32.8629C184.643 33.0582 184.979 33.3121 185.214 33.6246C185.448 33.9323 185.565 34.3229 185.565 34.7965C185.565 35.1481 185.49 35.4703 185.338 35.7633C185.192 36.0514 184.977 36.3029 184.694 36.5177C184.411 36.7277 184.071 36.8912 183.676 37.0084C183.285 37.1256 182.846 37.1842 182.357 37.1842C181.64 37.1842 181.032 37.0573 180.534 36.8033C180.036 36.5446 179.657 36.215 179.398 35.8146C179.145 35.4093 179.018 34.9894 179.018 34.5548H180.724C180.744 34.882 180.834 35.1432 180.995 35.3385C181.161 35.5289 181.366 35.6681 181.61 35.756C181.859 35.839 182.116 35.8805 182.379 35.8805C182.697 35.8805 182.963 35.839 183.178 35.756C183.393 35.6681 183.556 35.5509 183.668 35.4044C183.781 35.2531 183.837 35.0822 183.837 34.8917Z" fill="#FFFDF5"/>
</svg>
