<svg width="153" height="63" viewBox="0 0 153 63" fill="none" xmlns="http://www.w3.org/2000/svg">
<rect y="13" width="153" height="42" rx="6" fill="#ACB1A7"/>
<rect x="1" y="12.0377" width="151" height="40" rx="5" fill="#E3DFD4"/>
<rect x="6" y="16.0377" width="141" height="31" rx="4" fill="#EFEBE0"/>
<path d="M56 14.1765L40 14.1765L5 44.0377L5.00005 49.6766L16.5 49.6766L56 14.1765Z" fill="#E3DFD4"/>
<path d="M147.717 14.0377L150 49.0377H33.5L72 14.0377H147.717Z" fill="#E3DFD4"/>
<path d="M28.3652 26.3359H30.1963V33.4624C30.1963 34.2729 30.0205 34.9517 29.6689 35.4985C29.3174 36.0454 28.8389 36.458 28.2334 36.7363C27.6328 37.0098 26.9614 37.1465 26.2192 37.1465C25.4526 37.1465 24.769 37.0098 24.1685 36.7363C23.5679 36.458 23.0942 36.0454 22.7476 35.4985C22.4058 34.9517 22.2349 34.2729 22.2349 33.4624V26.3359H24.0659V33.4624C24.0659 33.9751 24.1538 34.3975 24.3296 34.7295C24.5054 35.0566 24.7544 35.2983 25.0767 35.4546C25.3989 35.6108 25.7798 35.689 26.2192 35.689C26.6587 35.689 27.0371 35.6108 27.3545 35.4546C27.6768 35.2983 27.9258 35.0566 28.1016 34.7295C28.2773 34.3975 28.3652 33.9751 28.3652 33.4624V26.3359ZM33.7925 30.5986V40.0469H32.0273V29.0752H33.6533L33.7925 30.5986ZM38.9561 32.9644V33.1182C38.9561 33.6943 38.8877 34.229 38.751 34.7222C38.6191 35.2104 38.4214 35.6377 38.1577 36.0039C37.8989 36.3652 37.5791 36.646 37.1982 36.8462C36.8174 37.0464 36.3779 37.1465 35.8799 37.1465C35.3867 37.1465 34.9546 37.0562 34.5835 36.8755C34.2173 36.6899 33.9072 36.4287 33.6533 36.0918C33.3994 35.7549 33.1943 35.3594 33.0381 34.9053C32.8867 34.4463 32.7793 33.9434 32.7158 33.3965V32.8032C32.7793 32.2222 32.8867 31.6948 33.0381 31.2212C33.1943 30.7476 33.3994 30.3398 33.6533 29.998C33.9072 29.6562 34.2173 29.3926 34.5835 29.207C34.9497 29.0215 35.377 28.9287 35.8652 28.9287C36.3633 28.9287 36.8052 29.0264 37.1909 29.2217C37.5767 29.4121 37.9014 29.6855 38.165 30.042C38.4287 30.3936 38.6265 30.8184 38.7583 31.3164C38.8901 31.8096 38.9561 32.3589 38.9561 32.9644ZM37.1909 33.1182V32.9644C37.1909 32.5981 37.1567 32.2588 37.0884 31.9463C37.02 31.6289 36.9126 31.3506 36.7661 31.1113C36.6196 30.8721 36.4316 30.6865 36.2021 30.5547C35.9775 30.418 35.7065 30.3496 35.3892 30.3496C35.0767 30.3496 34.8081 30.4033 34.5835 30.5107C34.3589 30.6133 34.1709 30.7573 34.0195 30.9429C33.8682 31.1284 33.751 31.3457 33.668 31.5947C33.585 31.8389 33.5264 32.105 33.4922 32.3931V33.814C33.5508 34.1655 33.6509 34.4878 33.7925 34.7808C33.9341 35.0737 34.1343 35.3081 34.3931 35.4839C34.6567 35.6548 34.9937 35.7402 35.4038 35.7402C35.7212 35.7402 35.9922 35.6719 36.2168 35.5352C36.4414 35.3984 36.6245 35.2104 36.7661 34.9712C36.9126 34.7271 37.02 34.4463 37.0884 34.1289C37.1567 33.8115 37.1909 33.4746 37.1909 33.1182ZM45.2915 35.3594V25.75H47.064V37H45.46L45.2915 35.3594ZM40.1353 33.1255V32.9717C40.1353 32.3711 40.2061 31.8242 40.3477 31.3311C40.4893 30.833 40.6943 30.4058 40.9629 30.0493C41.2314 29.688 41.5586 29.4121 41.9443 29.2217C42.3301 29.0264 42.7646 28.9287 43.248 28.9287C43.7266 28.9287 44.1465 29.0215 44.5078 29.207C44.8691 29.3926 45.1768 29.6587 45.4307 30.0054C45.6846 30.3472 45.8872 30.7573 46.0386 31.2358C46.1899 31.7095 46.2974 32.2368 46.3608 32.8179V33.3086C46.2974 33.875 46.1899 34.3926 46.0386 34.8613C45.8872 35.3301 45.6846 35.7354 45.4307 36.0771C45.1768 36.4189 44.8667 36.6826 44.5005 36.8682C44.1392 37.0537 43.7168 37.1465 43.2334 37.1465C42.7549 37.1465 42.3228 37.0464 41.937 36.8462C41.5562 36.646 41.2314 36.3652 40.9629 36.0039C40.6943 35.6426 40.4893 35.2178 40.3477 34.7295C40.2061 34.2363 40.1353 33.7017 40.1353 33.1255ZM41.9004 32.9717V33.1255C41.9004 33.4868 41.9321 33.8237 41.9956 34.1362C42.064 34.4487 42.1689 34.7246 42.3105 34.9639C42.4521 35.1982 42.6353 35.3838 42.8599 35.5205C43.0894 35.6523 43.3628 35.7183 43.6802 35.7183C44.0806 35.7183 44.4102 35.6304 44.6689 35.4546C44.9277 35.2788 45.1304 35.042 45.2769 34.7441C45.4282 34.4414 45.5308 34.1045 45.5845 33.7334V32.4077C45.5552 32.1196 45.4941 31.8511 45.4014 31.6021C45.3135 31.353 45.1938 31.1357 45.0425 30.9502C44.8911 30.7598 44.7031 30.6133 44.4785 30.5107C44.2588 30.4033 43.9976 30.3496 43.6948 30.3496C43.3726 30.3496 43.0991 30.418 42.8745 30.5547C42.6499 30.6914 42.4644 30.8794 42.3179 31.1187C42.1763 31.3579 42.0713 31.6362 42.0029 31.9536C41.9346 32.271 41.9004 32.6104 41.9004 32.9717ZM53.3774 35.4106V31.6313C53.3774 31.3481 53.3262 31.104 53.2236 30.8989C53.1211 30.6938 52.9648 30.5352 52.7549 30.4229C52.5498 30.3105 52.291 30.2544 51.9785 30.2544C51.6904 30.2544 51.4414 30.3032 51.2314 30.4009C51.0215 30.4985 50.8579 30.6304 50.7407 30.7964C50.6235 30.9624 50.5649 31.1504 50.5649 31.3604H48.8071C48.8071 31.0479 48.8828 30.7451 49.0342 30.4521C49.1855 30.1592 49.4053 29.8979 49.6934 29.6685C49.9814 29.439 50.3257 29.2583 50.7261 29.1265C51.1265 28.9946 51.5757 28.9287 52.0737 28.9287C52.6694 28.9287 53.1968 29.0288 53.6558 29.229C54.1196 29.4292 54.4834 29.7319 54.7471 30.1372C55.0156 30.5376 55.1499 31.0405 55.1499 31.646V35.1689C55.1499 35.5303 55.1743 35.855 55.2231 36.1431C55.2769 36.4263 55.3525 36.6729 55.4502 36.8828V37H53.6411C53.5581 36.8096 53.4922 36.5679 53.4434 36.2749C53.3994 35.9771 53.3774 35.689 53.3774 35.4106ZM53.6338 32.1807L53.6484 33.272H52.3813C52.0542 33.272 51.7661 33.3037 51.5171 33.3672C51.2681 33.4258 51.0605 33.5137 50.8945 33.6309C50.7285 33.748 50.604 33.8896 50.521 34.0557C50.438 34.2217 50.3965 34.4097 50.3965 34.6196C50.3965 34.8296 50.4453 35.0225 50.543 35.1982C50.6406 35.3691 50.7822 35.5034 50.9678 35.6011C51.1582 35.6987 51.3877 35.7476 51.6562 35.7476C52.0176 35.7476 52.3325 35.6743 52.6011 35.5278C52.8745 35.3765 53.0894 35.1934 53.2456 34.9785C53.4019 34.7588 53.4849 34.5513 53.4946 34.356L54.0659 35.1396C54.0073 35.3398 53.9072 35.5547 53.7656 35.7842C53.624 36.0137 53.4385 36.2334 53.209 36.4434C52.9844 36.6484 52.7134 36.8169 52.396 36.9487C52.0835 37.0806 51.7222 37.1465 51.312 37.1465C50.7944 37.1465 50.333 37.0439 49.9277 36.8389C49.5225 36.6289 49.2051 36.3481 48.9756 35.9966C48.7461 35.6401 48.6313 35.2373 48.6313 34.7881C48.6313 34.3682 48.7095 33.9971 48.8657 33.6748C49.0269 33.3477 49.2612 33.0742 49.5688 32.8545C49.8813 32.6348 50.2622 32.4688 50.7114 32.3564C51.1606 32.2393 51.6733 32.1807 52.2495 32.1807H53.6338ZM60.6284 29.0752V30.3643H56.1606V29.0752H60.6284ZM57.4497 27.1343H59.2148V34.8101C59.2148 35.0542 59.249 35.2422 59.3174 35.374C59.3906 35.501 59.4907 35.5864 59.6177 35.6304C59.7446 35.6743 59.8936 35.6963 60.0645 35.6963C60.1865 35.6963 60.3037 35.689 60.416 35.6743C60.5283 35.6597 60.6187 35.645 60.687 35.6304L60.6943 36.978C60.5479 37.022 60.377 37.061 60.1816 37.0952C59.9912 37.1294 59.7715 37.1465 59.5225 37.1465C59.1172 37.1465 58.7583 37.0757 58.4458 36.9341C58.1333 36.7876 57.8892 36.5508 57.7134 36.2236C57.5376 35.8965 57.4497 35.4619 57.4497 34.9199V27.1343ZM65.4844 37.1465C64.8984 37.1465 64.3687 37.0513 63.895 36.8608C63.4263 36.6655 63.0259 36.3945 62.6938 36.0479C62.3667 35.7012 62.1152 35.2935 61.9395 34.8247C61.7637 34.356 61.6758 33.8506 61.6758 33.3086V33.0156C61.6758 32.3955 61.7661 31.834 61.9468 31.3311C62.1274 30.8281 62.3789 30.3984 62.7012 30.042C63.0234 29.6807 63.4043 29.4048 63.8438 29.2144C64.2832 29.0239 64.7593 28.9287 65.272 28.9287C65.8384 28.9287 66.334 29.0239 66.7588 29.2144C67.1836 29.4048 67.5352 29.6733 67.8135 30.02C68.0967 30.3618 68.3066 30.7695 68.4434 31.2432C68.585 31.7168 68.6558 32.2393 68.6558 32.8105V33.5649H62.5327V32.2979H66.9126V32.1587C66.9028 31.8413 66.8394 31.5435 66.7222 31.2651C66.6099 30.9868 66.4365 30.7622 66.2021 30.5913C65.9678 30.4204 65.6553 30.335 65.2646 30.335C64.9717 30.335 64.7104 30.3984 64.481 30.5254C64.2563 30.6475 64.0684 30.8257 63.917 31.0601C63.7656 31.2944 63.6484 31.5776 63.5654 31.9097C63.4873 32.2368 63.4482 32.6055 63.4482 33.0156V33.3086C63.4482 33.6553 63.4946 33.9775 63.5874 34.2754C63.6851 34.5684 63.8267 34.8247 64.0122 35.0444C64.1978 35.2642 64.4224 35.4375 64.686 35.5645C64.9497 35.6865 65.25 35.7476 65.5869 35.7476C66.0117 35.7476 66.3901 35.6621 66.7222 35.4912C67.0542 35.3203 67.3423 35.0786 67.5864 34.7661L68.5166 35.667C68.3457 35.916 68.1235 36.1553 67.8501 36.3848C67.5767 36.6094 67.2422 36.7925 66.8467 36.9341C66.4561 37.0757 66.002 37.1465 65.4844 37.1465ZM80.2427 33.5283H82.0737C82.0151 34.2266 81.8198 34.8491 81.4878 35.396C81.1558 35.938 80.6895 36.3652 80.0889 36.6777C79.4883 36.9902 78.7583 37.1465 77.8989 37.1465C77.2397 37.1465 76.6465 37.0293 76.1191 36.7949C75.5918 36.5557 75.1401 36.2188 74.7642 35.7842C74.3882 35.3447 74.1001 34.8149 73.8999 34.1948C73.7046 33.5747 73.6069 32.8813 73.6069 32.1147V31.2285C73.6069 30.4619 73.707 29.7686 73.9072 29.1484C74.1123 28.5283 74.4053 27.9985 74.7861 27.5591C75.167 27.1147 75.6235 26.7754 76.1558 26.541C76.6929 26.3066 77.2959 26.1895 77.9648 26.1895C78.8145 26.1895 79.5322 26.3457 80.1182 26.6582C80.7041 26.9707 81.1582 27.4028 81.4805 27.9546C81.8076 28.5063 82.0078 29.1387 82.0811 29.8516H80.25C80.2012 29.3926 80.0938 28.9995 79.9277 28.6724C79.7666 28.3452 79.5273 28.0962 79.21 27.9253C78.8926 27.7495 78.4775 27.6616 77.9648 27.6616C77.5449 27.6616 77.1787 27.7397 76.8662 27.896C76.5537 28.0522 76.2925 28.2817 76.0825 28.5845C75.8726 28.8872 75.7139 29.2607 75.6064 29.7051C75.5039 30.1445 75.4526 30.6475 75.4526 31.2139V32.1147C75.4526 32.6519 75.499 33.1401 75.5918 33.5796C75.6895 34.0142 75.8359 34.3877 76.0312 34.7002C76.2314 35.0127 76.4854 35.2544 76.793 35.4253C77.1006 35.5962 77.4692 35.6816 77.8989 35.6816C78.4214 35.6816 78.8438 35.5986 79.166 35.4326C79.4932 35.2666 79.7397 35.0249 79.9058 34.7075C80.0767 34.3853 80.189 33.9922 80.2427 33.5283ZM85.311 25.75V37H83.5532V25.75H85.311ZM85.0034 32.7446L84.4321 32.7373C84.437 32.1904 84.5127 31.6851 84.6592 31.2212C84.8105 30.7573 85.0205 30.3545 85.2891 30.0127C85.5625 29.666 85.8896 29.3999 86.2705 29.2144C86.6514 29.0239 87.0737 28.9287 87.5376 28.9287C87.9282 28.9287 88.2798 28.9824 88.5923 29.0898C88.9097 29.1973 89.1831 29.3706 89.4126 29.6099C89.6421 29.8442 89.8154 30.1519 89.9326 30.5327C90.0547 30.9087 90.1157 31.3677 90.1157 31.9097V37H88.3433V31.895C88.3433 31.5142 88.2871 31.2114 88.1748 30.9868C88.0674 30.7622 87.9087 30.6011 87.6987 30.5034C87.4888 30.4009 87.2324 30.3496 86.9297 30.3496C86.6123 30.3496 86.3315 30.4131 86.0874 30.54C85.8481 30.667 85.6479 30.8403 85.4868 31.0601C85.3257 31.2798 85.2036 31.5337 85.1206 31.8218C85.0425 32.1099 85.0034 32.4175 85.0034 32.7446ZM96.3706 35.4106V31.6313C96.3706 31.3481 96.3193 31.104 96.2168 30.8989C96.1143 30.6938 95.958 30.5352 95.748 30.4229C95.543 30.3105 95.2842 30.2544 94.9717 30.2544C94.6836 30.2544 94.4346 30.3032 94.2246 30.4009C94.0146 30.4985 93.8511 30.6304 93.7339 30.7964C93.6167 30.9624 93.5581 31.1504 93.5581 31.3604H91.8003C91.8003 31.0479 91.876 30.7451 92.0273 30.4521C92.1787 30.1592 92.3984 29.8979 92.6865 29.6685C92.9746 29.439 93.3188 29.2583 93.7192 29.1265C94.1196 28.9946 94.5688 28.9287 95.0669 28.9287C95.6626 28.9287 96.1899 29.0288 96.6489 29.229C97.1128 29.4292 97.4766 29.7319 97.7402 30.1372C98.0088 30.5376 98.1431 31.0405 98.1431 31.646V35.1689C98.1431 35.5303 98.1675 35.855 98.2163 36.1431C98.27 36.4263 98.3457 36.6729 98.4434 36.8828V37H96.6343C96.5513 36.8096 96.4854 36.5679 96.4365 36.2749C96.3926 35.9771 96.3706 35.689 96.3706 35.4106ZM96.627 32.1807L96.6416 33.272H95.3745C95.0474 33.272 94.7593 33.3037 94.5103 33.3672C94.2612 33.4258 94.0537 33.5137 93.8877 33.6309C93.7217 33.748 93.5972 33.8896 93.5142 34.0557C93.4312 34.2217 93.3896 34.4097 93.3896 34.6196C93.3896 34.8296 93.4385 35.0225 93.5361 35.1982C93.6338 35.3691 93.7754 35.5034 93.9609 35.6011C94.1514 35.6987 94.3809 35.7476 94.6494 35.7476C95.0107 35.7476 95.3257 35.6743 95.5942 35.5278C95.8677 35.3765 96.0825 35.1934 96.2388 34.9785C96.395 34.7588 96.478 34.5513 96.4878 34.356L97.0591 35.1396C97.0005 35.3398 96.9004 35.5547 96.7588 35.7842C96.6172 36.0137 96.4316 36.2334 96.2021 36.4434C95.9775 36.6484 95.7065 36.8169 95.3892 36.9487C95.0767 37.0806 94.7153 37.1465 94.3052 37.1465C93.7876 37.1465 93.3262 37.0439 92.9209 36.8389C92.5156 36.6289 92.1982 36.3481 91.9688 35.9966C91.7393 35.6401 91.6245 35.2373 91.6245 34.7881C91.6245 34.3682 91.7026 33.9971 91.8589 33.6748C92.02 33.3477 92.2544 33.0742 92.562 32.8545C92.8745 32.6348 93.2554 32.4688 93.7046 32.3564C94.1538 32.2393 94.6665 32.1807 95.2427 32.1807H96.627ZM101.739 30.7671V37H99.9741V29.0752H101.637L101.739 30.7671ZM101.424 32.7446L100.853 32.7373C100.858 32.1758 100.936 31.6606 101.087 31.1919C101.244 30.7231 101.458 30.3203 101.732 29.9834C102.01 29.6465 102.342 29.3877 102.728 29.207C103.114 29.0215 103.543 28.9287 104.017 28.9287C104.398 28.9287 104.742 28.9824 105.05 29.0898C105.362 29.1924 105.628 29.3608 105.848 29.5952C106.073 29.8296 106.244 30.1348 106.361 30.5107C106.478 30.8818 106.537 31.3384 106.537 31.8804V37H104.764V31.873C104.764 31.4922 104.708 31.1919 104.596 30.9722C104.488 30.7476 104.33 30.5889 104.12 30.4961C103.915 30.3984 103.658 30.3496 103.351 30.3496C103.048 30.3496 102.777 30.4131 102.538 30.54C102.298 30.667 102.096 30.8403 101.93 31.0601C101.769 31.2798 101.644 31.5337 101.556 31.8218C101.468 32.1099 101.424 32.4175 101.424 32.7446ZM113.414 29.0752H115.018V36.7803C115.018 37.4932 114.867 38.0986 114.564 38.5967C114.261 39.0947 113.839 39.4731 113.297 39.7319C112.755 39.9956 112.127 40.1274 111.415 40.1274C111.112 40.1274 110.775 40.0835 110.404 39.9956C110.038 39.9077 109.681 39.7661 109.334 39.5708C108.993 39.3804 108.707 39.1289 108.478 38.8164L109.305 37.7764C109.588 38.1133 109.901 38.3599 110.243 38.5161C110.584 38.6724 110.943 38.7505 111.319 38.7505C111.725 38.7505 112.069 38.6748 112.352 38.5234C112.64 38.377 112.862 38.1597 113.019 37.8716C113.175 37.5835 113.253 37.2319 113.253 36.8169V30.8696L113.414 29.0752ZM108.031 33.1255V32.9717C108.031 32.3711 108.104 31.8242 108.25 31.3311C108.397 30.833 108.607 30.4058 108.88 30.0493C109.154 29.688 109.486 29.4121 109.876 29.2217C110.267 29.0264 110.709 28.9287 111.202 28.9287C111.715 28.9287 112.152 29.0215 112.513 29.207C112.879 29.3926 113.185 29.6587 113.429 30.0054C113.673 30.3472 113.863 30.7573 114 31.2358C114.142 31.7095 114.247 32.2368 114.315 32.8179V33.3086C114.251 33.875 114.144 34.3926 113.993 34.8613C113.841 35.3301 113.641 35.7354 113.392 36.0771C113.143 36.4189 112.835 36.6826 112.469 36.8682C112.108 37.0537 111.681 37.1465 111.188 37.1465C110.704 37.1465 110.267 37.0464 109.876 36.8462C109.491 36.646 109.159 36.3652 108.88 36.0039C108.607 35.6426 108.397 35.2178 108.25 34.7295C108.104 34.2363 108.031 33.7017 108.031 33.1255ZM109.796 32.9717V33.1255C109.796 33.4868 109.83 33.8237 109.898 34.1362C109.972 34.4487 110.082 34.7246 110.228 34.9639C110.379 35.1982 110.57 35.3838 110.799 35.5205C111.034 35.6523 111.31 35.7183 111.627 35.7183C112.042 35.7183 112.381 35.6304 112.645 35.4546C112.914 35.2788 113.119 35.042 113.26 34.7441C113.407 34.4414 113.509 34.1045 113.568 33.7334V32.4077C113.539 32.1196 113.478 31.8511 113.385 31.6021C113.297 31.353 113.177 31.1357 113.026 30.9502C112.875 30.7598 112.684 30.6133 112.455 30.5107C112.225 30.4033 111.954 30.3496 111.642 30.3496C111.324 30.3496 111.048 30.418 110.814 30.5547C110.58 30.6914 110.387 30.8794 110.235 31.1187C110.089 31.3579 109.979 31.6362 109.906 31.9536C109.833 32.271 109.796 32.6104 109.796 32.9717ZM120.343 37.1465C119.757 37.1465 119.227 37.0513 118.753 36.8608C118.285 36.6655 117.884 36.3945 117.552 36.0479C117.225 35.7012 116.974 35.2935 116.798 34.8247C116.622 34.356 116.534 33.8506 116.534 33.3086V33.0156C116.534 32.3955 116.625 31.834 116.805 31.3311C116.986 30.8281 117.237 30.3984 117.56 30.042C117.882 29.6807 118.263 29.4048 118.702 29.2144C119.142 29.0239 119.618 28.9287 120.13 28.9287C120.697 28.9287 121.192 29.0239 121.617 29.2144C122.042 29.4048 122.394 29.6733 122.672 30.02C122.955 30.3618 123.165 30.7695 123.302 31.2432C123.443 31.7168 123.514 32.2393 123.514 32.8105V33.5649H117.391V32.2979H121.771V32.1587C121.761 31.8413 121.698 31.5435 121.581 31.2651C121.468 30.9868 121.295 30.7622 121.061 30.5913C120.826 30.4204 120.514 30.335 120.123 30.335C119.83 30.335 119.569 30.3984 119.339 30.5254C119.115 30.6475 118.927 30.8257 118.775 31.0601C118.624 31.2944 118.507 31.5776 118.424 31.9097C118.346 32.2368 118.307 32.6055 118.307 33.0156V33.3086C118.307 33.6553 118.353 33.9775 118.446 34.2754C118.543 34.5684 118.685 34.8247 118.871 35.0444C119.056 35.2642 119.281 35.4375 119.544 35.5645C119.808 35.6865 120.108 35.7476 120.445 35.7476C120.87 35.7476 121.249 35.6621 121.581 35.4912C121.913 35.3203 122.201 35.0786 122.445 34.7661L123.375 35.667C123.204 35.916 122.982 36.1553 122.708 36.3848C122.435 36.6094 122.101 36.7925 121.705 36.9341C121.314 37.0757 120.86 37.1465 120.343 37.1465ZM129.337 34.854C129.337 34.6782 129.293 34.5195 129.205 34.3779C129.117 34.2314 128.949 34.0996 128.7 33.9824C128.456 33.8652 128.094 33.7578 127.616 33.6602C127.196 33.5674 126.81 33.4575 126.458 33.3306C126.112 33.1987 125.814 33.04 125.565 32.8545C125.316 32.6689 125.123 32.4492 124.986 32.1953C124.85 31.9414 124.781 31.6484 124.781 31.3164C124.781 30.9941 124.852 30.689 124.994 30.4009C125.135 30.1128 125.338 29.8589 125.602 29.6392C125.865 29.4194 126.185 29.2461 126.561 29.1191C126.942 28.9922 127.367 28.9287 127.835 28.9287C128.5 28.9287 129.068 29.041 129.542 29.2656C130.021 29.4854 130.387 29.7856 130.641 30.1665C130.895 30.5425 131.021 30.9673 131.021 31.4409H129.256C129.256 31.231 129.203 31.0356 129.095 30.855C128.993 30.6694 128.836 30.5205 128.626 30.4082C128.417 30.291 128.153 30.2324 127.835 30.2324C127.533 30.2324 127.281 30.2812 127.081 30.3789C126.886 30.4717 126.739 30.5938 126.642 30.7451C126.549 30.8965 126.502 31.0625 126.502 31.2432C126.502 31.375 126.527 31.4946 126.576 31.6021C126.629 31.7046 126.717 31.7998 126.839 31.8877C126.961 31.9707 127.127 32.0488 127.337 32.1221C127.552 32.1953 127.821 32.2661 128.143 32.3345C128.749 32.4614 129.269 32.625 129.703 32.8252C130.143 33.0205 130.479 33.2744 130.714 33.5869C130.948 33.8945 131.065 34.2852 131.065 34.7588C131.065 35.1104 130.99 35.4326 130.838 35.7256C130.692 36.0137 130.477 36.2651 130.194 36.48C129.911 36.6899 129.571 36.8535 129.176 36.9707C128.785 37.0879 128.346 37.1465 127.857 37.1465C127.14 37.1465 126.532 37.0195 126.034 36.7656C125.536 36.5068 125.157 36.1772 124.898 35.7769C124.645 35.3716 124.518 34.9517 124.518 34.5171H126.224C126.244 34.8442 126.334 35.1055 126.495 35.3008C126.661 35.4912 126.866 35.6304 127.11 35.7183C127.359 35.8013 127.616 35.8428 127.879 35.8428C128.197 35.8428 128.463 35.8013 128.678 35.7183C128.893 35.6304 129.056 35.5132 129.168 35.3667C129.281 35.2153 129.337 35.0444 129.337 34.854Z" fill="#2A262A"/>
</svg>
