<svg width="25" height="27" viewBox="0 0 25 27" fill="none" xmlns="http://www.w3.org/2000/svg">
<path d="M11.2762 0.861947C11.4364 -0.287332 13.0968 -0.287332 13.257 0.861947L14.5015 9.7909C14.5605 10.2139 14.8816 10.5528 15.3008 10.6344L23.7242 12.2742C24.8028 12.4841 24.8028 14.0274 23.7242 14.2373L15.3008 15.877C14.8816 15.9586 14.5605 16.2975 14.5015 16.7206L13.257 25.6495C13.0968 26.7988 11.4364 26.7988 11.2762 25.6495L10.0317 16.7206C9.97274 16.2975 9.65161 15.9586 9.23235 15.877L0.809008 14.2373C-0.269556 14.0274 -0.269556 12.4841 0.809008 12.2742L9.23235 10.6344C9.65161 10.5528 9.97274 10.2139 10.0317 9.7909L11.2762 0.861947Z" fill="white"/>
</svg>
